<svg width="65" height="63" viewBox="0 0 65 63" fill="none" xmlns="http://www.w3.org/2000/svg">
<g clip-path="url(#clip0_2288_136)">
<path d="M25.4315 56.473C25.4315 56.3982 25.9551 56.2486 26.9275 55.9494C27.8999 55.6502 29.3959 55.2014 31.3406 54.6778C32.0138 54.5282 32.687 54.3038 33.435 54.0794C34.183 53.855 34.931 53.6306 35.7537 53.4062C35.8285 53.4062 35.8285 53.4062 35.9033 53.4062H36.0529C36.1277 53.4062 36.2025 53.4062 36.2025 53.3315C36.3521 53.0323 36.5017 52.7331 36.5765 52.4339C36.7261 52.1347 36.8757 51.7607 37.1749 51.4615C37.6985 50.6387 38.1473 49.8159 38.6709 48.8435C39.1945 47.9459 39.7929 47.0484 40.2417 46.0012C40.6157 44.954 41.588 44.1312 41.962 42.9344C42.4856 41.8873 43.1588 40.7653 43.832 39.7181C44.58 38.6709 45.1036 37.4741 45.7768 36.2774C46.5995 35.2302 47.2727 33.9586 47.8711 32.6122C48.1703 32.2382 48.5443 31.7894 48.7687 31.3407C48.9183 31.1163 49.0679 30.8919 49.1427 30.6675C49.2175 30.5179 49.2923 30.4431 49.2923 30.2935V30.2187V30.1439L49.3671 30.0691C49.3671 29.9943 49.2923 29.9943 49.2923 29.9195L49.2175 29.8447V29.7699V29.6951L49.1427 29.6203C49.0679 29.6203 49.0679 29.6203 48.9931 29.6203C48.8435 29.5455 48.7687 29.5455 48.6191 29.4707C48.4695 29.3959 48.3199 29.3959 48.1703 29.3211C47.7963 29.1715 47.3475 29.0967 46.9735 28.9471C46.0011 28.6479 45.0288 28.3487 43.9068 28.0495C44.2808 27.8999 44.6548 27.8251 45.0288 27.6755C46.3003 27.2267 47.6467 26.8527 48.9931 26.4039C49.0679 26.2543 49.0679 26.1047 49.1427 26.03C49.2175 25.8056 49.2923 25.5812 49.3671 25.3568C49.3671 25.2072 49.5167 24.7584 49.5915 24.3844C49.6663 24.0104 49.8159 23.5616 49.8907 23.1876C50.1151 22.3648 50.3395 21.542 50.6387 20.7192C50.8631 21.4672 51.0875 22.2152 51.3119 23.038C51.3867 23.412 51.5363 23.786 51.611 24.16C51.6858 24.3096 51.6858 24.534 51.7606 24.6836L51.8354 24.908V25.0576L51.9102 25.1324V25.0576C51.9102 24.9828 51.9102 24.9828 51.985 24.9828V24.908C52.2842 24.3844 52.6582 23.9356 52.9574 23.412C53.9298 21.9908 54.5282 20.3453 55.5754 18.8493C55.6502 18.6997 55.7998 18.5501 55.8746 18.4005L55.9494 18.3257L55.8746 18.2509L55.6502 17.9517C55.351 17.8021 55.0518 17.5777 54.7526 17.4281C54.1542 17.0541 53.5558 16.7549 52.9574 16.3809C51.3867 15.4085 49.8159 14.4362 48.1703 13.6134C46.5247 12.7158 44.8792 11.8182 43.2336 10.771C41.5132 9.94825 39.8677 8.97586 38.2221 7.85389C36.5017 6.8815 34.8562 5.83432 33.1358 4.93674C31.4154 3.88956 29.6203 2.99198 27.9747 1.94479L27.6755 1.87H27.6007L27.5259 1.7952L27.4511 1.87L27.3763 2.01959L27.1519 2.24399C26.9275 2.61798 26.7031 2.91718 26.5535 3.29117C26.1795 3.96436 25.7307 4.71234 25.4315 5.38553C25.0575 6.20832 24.6087 6.9563 24.0852 7.70429C23.8608 8.07828 23.6364 8.45227 23.412 8.82627L23.038 9.42466L22.8884 9.72385V9.79865L23.038 9.87345C23.1876 9.94825 23.3372 10.023 23.4868 10.023C23.6364 10.0978 23.786 10.0978 24.0104 10.1726L24.7583 10.397C25.3567 10.5466 25.9551 10.771 26.5535 10.9206C27.1519 11.0702 27.8251 11.2946 28.4235 11.4442C27.5259 11.7434 26.5535 12.0426 25.5063 12.3418C25.1323 12.4166 24.7583 12.5662 24.4591 12.641C24.2348 12.7158 24.0104 12.7906 23.7112 12.8654C23.4868 12.9402 23.3372 13.015 23.1128 13.015L22.9632 13.0898H22.8884H22.8136L22.664 13.4638C22.5892 13.6882 22.5144 13.9874 22.4396 14.2118C22.29 14.6606 22.1404 15.1094 22.0656 15.5581C21.916 16.0069 21.7664 16.5305 21.6168 16.9793C21.4672 17.5029 21.3176 18.0265 21.168 18.5501C20.794 17.3533 20.42 16.1565 20.046 14.9598L19.8964 14.511L19.8216 14.2866V14.3614C19.8216 14.4362 19.8964 14.5858 19.8964 14.6606L19.8216 14.7354C19.8216 14.8102 19.8216 14.8102 19.8216 14.8102V14.885V14.9598C19.7468 15.1841 19.5972 15.3337 19.5224 15.5581C19.298 15.9321 19.0736 16.3061 18.8493 16.7549C18.3257 17.5029 17.8769 18.2509 17.4281 19.0737C16.4557 20.5697 15.7077 22.1404 14.8101 23.6364C13.9873 25.1324 13.015 26.5535 12.267 28.0495C11.4442 29.4707 10.6962 30.9667 9.79862 32.313L9.72382 32.4626V32.5374C9.72382 32.5374 9.72382 32.6122 9.64902 32.6122C9.72382 32.6122 9.72382 32.687 9.79862 32.687L10.023 32.7618L10.0978 32.8366L10.2474 32.9114C10.4718 32.9862 10.771 33.061 10.9954 33.1358C11.519 33.2854 11.9678 33.435 12.4166 33.5846C12.8654 33.7342 13.389 33.8838 13.9125 34.0334C13.9125 34.0334 13.9125 34.0334 13.9873 34.0334C12.8654 34.4074 11.7434 34.7066 10.6214 35.0806C10.2474 35.2302 9.79862 35.305 9.42463 35.4546C9.27503 35.5294 9.12543 35.5294 8.97583 35.6042H8.90103H8.82624V35.679V35.7538C8.30265 36.8758 8.00345 38.0725 7.70426 39.1945L7.33026 40.6905L6.80667 39.1945C6.73188 39.0449 6.73187 38.9701 6.65708 38.8205C6.65708 38.7457 6.58228 38.5961 6.58228 38.5213C6.50748 38.2969 6.43268 38.1473 6.43268 38.0725C6.35788 38.2221 6.28308 38.3717 6.20828 38.4465C5.98389 38.8953 5.98389 38.8205 5.83429 39.0449C5.68469 39.1945 5.6099 39.4189 5.4603 39.5685C5.08631 40.1669 4.78711 40.6905 4.41312 41.2889C4.26352 41.5881 4.03912 41.8873 3.88953 42.1117C3.81473 42.2612 3.73993 42.4109 3.66513 42.5604L3.59033 42.7848C3.59033 42.8596 3.51553 42.9344 3.51553 42.9344C3.44074 43.0092 3.44074 43.084 3.36594 43.1588C3.44074 43.1588 3.44074 43.2336 3.51553 43.2336V43.3832C3.73993 43.5328 3.96433 43.6824 4.18872 43.832C4.63751 44.1312 5.0863 44.3556 5.5351 44.5052C6.58228 45.0288 7.47986 45.8516 8.52704 46.3004C9.57422 46.6744 10.397 47.4224 11.2946 47.9459C12.1922 48.4695 13.015 48.9931 13.8377 49.4419C17.5029 51.6111 20.42 53.3314 22.3648 54.5282C23.3372 55.1266 24.0852 55.5754 24.6087 55.8746C25.2071 56.2486 25.5063 56.473 25.4315 56.473C25.4315 56.473 25.0575 56.3234 24.3843 56.0242C23.7112 55.6502 22.8136 55.2014 21.542 54.5282C19.0736 53.1819 15.4833 51.1623 10.9954 48.6191C10.0978 48.0955 9.05063 47.7216 8.15305 47.0484C7.18067 46.45 6.13349 46.0012 5.08631 45.328C4.63751 45.1784 4.18872 44.954 3.73993 44.6548C3.51553 44.5052 3.29114 44.3556 3.06674 44.2808C2.69275 44.0564 2.39355 43.832 2.01956 43.6076C2.24396 43.3084 2.39355 43.0092 2.54315 42.71C2.61795 42.5604 2.69275 42.4109 2.84235 42.2613C2.99194 42.0369 3.14154 41.8873 3.21634 41.7377C3.36594 41.4385 3.51553 41.1393 3.73993 40.9149C4.03912 40.3165 4.41312 39.7929 4.71231 39.1945C4.93671 38.6709 5.83429 37.1001 6.50748 35.9782C6.73187 36.8758 7.03107 37.6985 7.33026 38.5961V38.7457V38.8205L7.40506 38.8953C7.40506 39.0449 7.47986 39.1197 7.47986 39.2693C7.18067 39.2693 6.88147 39.2693 6.58228 39.2693C6.95627 38.1473 7.33026 36.9506 7.55466 35.7538V35.679V35.6042L7.62946 35.4546L7.77906 35.0806C8.00345 35.0058 8.30265 34.931 8.52704 34.8562C8.67664 34.7814 8.82624 34.7814 8.97583 34.7066C9.12543 34.6318 9.27503 34.6318 9.42463 34.557L9.57422 34.4822H9.64902C9.72382 34.4074 9.79862 34.4074 9.87342 34.4074C9.94822 34.4074 10.023 34.3326 10.0978 34.3326C10.1726 34.2578 9.94822 34.183 9.72382 34.1082C9.64902 34.1082 9.57422 34.1082 9.57422 34.0334H9.49942H9.42463L9.20023 33.9586C8.67664 33.809 8.22785 33.6594 7.70426 33.5098C7.85385 33.2106 8.00345 32.9862 8.15305 32.687L8.37744 32.2382L8.45224 32.0138L8.52704 31.8642C9.27503 30.4431 10.1726 29.0219 10.9954 27.6007C11.893 26.1796 12.641 24.6836 13.5385 23.1876C14.3613 21.6168 15.1841 20.1209 16.1565 18.6249C16.6053 17.8021 17.0541 17.0541 17.5029 16.3061C17.7273 15.9321 17.9517 15.5581 18.1761 15.1094C18.4753 14.5858 18.7745 14.0622 19.0736 13.5386C19.4476 12.8654 19.8216 12.267 20.1956 11.5938C20.42 12.267 20.5696 12.9402 20.794 13.6134C20.8688 13.8378 20.9436 14.0622 21.0184 14.2866L21.168 14.6606C21.0932 14.5858 21.0932 14.511 21.0932 14.4362C21.0932 14.4362 21.0932 14.3614 21.0932 14.2866C21.0932 14.2118 21.0932 14.2118 21.0932 14.2118C21.0932 14.2118 21.0932 14.2118 21.0932 14.137V14.0622C21.168 13.8378 21.2428 13.5386 21.3924 13.3142L21.542 12.9402L21.7664 12.267C22.0656 12.1922 22.3648 12.1174 22.664 12.0426C22.8884 11.9678 23.038 11.893 23.2624 11.893L23.5616 11.8182L23.7112 11.7434L23.786 11.6686C23.8608 11.6686 23.9356 11.5938 23.9356 11.5938C23.8608 11.5938 23.786 11.519 23.7112 11.519L23.5616 11.4442L23.1876 11.2198C22.7388 11.0702 22.29 10.9206 21.8412 10.8458V10.6962C21.7664 10.3222 21.6168 10.023 21.542 9.64905C21.8412 9.20026 22.0656 8.75147 22.3648 8.22788C22.5892 7.85389 22.8136 7.47989 23.038 7.1059C23.4868 6.35791 23.9356 5.53513 24.3843 4.78714C24.8331 4.11395 25.2819 3.44077 25.6559 2.76758C25.8803 2.39359 26.0299 2.09439 26.2543 1.7204L26.4039 1.4212L26.4787 1.27161L26.6283 1.04721C26.7779 0.748017 27.0023 0.374024 27.1519 0.0748291C27.4511 0.224426 27.7503 0.374024 28.0495 0.598419L28.2739 0.748017L28.3487 0.822815H28.4235L28.6479 0.972412C30.443 1.94479 32.1634 2.91718 33.809 3.96436C35.5293 4.93674 37.2497 5.90912 38.8953 6.8815C40.6157 7.77909 42.1864 8.90107 43.9068 9.79865C45.6272 10.6962 47.1231 11.8182 48.8435 12.641C50.4891 13.5386 52.1346 14.4362 53.6306 15.4085C54.229 15.7825 54.8274 16.1565 55.4258 16.4557C55.725 16.6053 56.0242 16.8297 56.3234 16.9793L56.5478 17.1289L56.9217 17.3533C57.1461 17.5029 57.4453 17.6525 57.6697 17.8021C57.5201 18.1013 57.2957 18.4753 57.1461 18.7745L57.0714 18.9241V18.9989L56.9965 19.1485L56.847 19.4477C56.0242 21.0184 55.351 22.664 54.229 24.0104C53.9298 24.534 53.6306 25.0576 53.3314 25.5812C53.0322 26.03 52.8078 26.4787 52.5086 26.8527C52.2842 27.3015 51.985 27.7503 51.7606 28.1243C51.611 27.6755 51.4614 27.1519 51.3119 26.7031C51.2371 26.4787 51.1623 26.2543 51.0875 26.03L50.8631 25.656V25.5812V25.5064V25.4316V25.282V25.2072C50.8631 25.1324 50.8631 25.1324 50.8631 25.0576C50.8631 24.9828 50.7883 24.8332 50.7883 24.7584C50.7135 24.908 50.7135 25.1324 50.7135 25.282V25.5064C50.7135 25.5812 50.7135 25.5064 50.6387 25.8056C50.5639 26.03 50.4891 26.2543 50.4143 26.4787L50.1151 26.7779C50.0403 27.0023 49.9655 27.1519 49.8907 27.3763C49.5167 27.4511 49.1427 27.6007 48.8435 27.6755C48.5443 27.7503 48.3199 27.8251 48.0207 27.8999H47.9459H47.8711C47.7963 27.8999 47.7963 27.8999 47.7215 27.9747C47.6467 27.9747 47.5719 28.0495 47.5719 28.0495L47.4971 28.1243C47.6467 28.1991 47.7215 28.1991 47.8711 28.2739L47.9459 28.3487C48.0955 28.4235 48.2451 28.4235 48.3947 28.4983C48.5443 28.5731 48.6939 28.5731 48.8435 28.6479C48.9931 28.7227 49.2175 28.7227 49.3671 28.7975C49.5167 28.8723 49.7411 28.8723 49.8907 28.9471C49.9655 29.0967 49.9655 29.2463 50.0403 29.3211L50.1151 29.6951C50.1899 29.9195 50.2647 30.1439 50.3395 30.3683L50.1899 30.6675L50.1151 30.8171L50.0403 30.8919L49.8159 31.1911C49.6663 31.4155 49.5167 31.6398 49.3671 31.8642C49.0679 32.313 48.8435 32.7618 48.6191 33.2106C47.8711 34.4074 47.1979 35.679 46.5247 36.801C46.076 38.1473 45.1784 39.1197 44.5052 40.2417C43.832 41.3637 43.3832 42.4856 42.6352 43.458C42.1864 44.58 41.5132 45.5524 40.84 46.45C40.2417 47.4224 39.7929 48.3947 39.1945 49.2175C38.8205 50.1899 38.0725 50.9379 37.6985 51.7607C37.4741 52.0599 37.2497 52.3591 37.1001 52.6583C36.8757 53.0323 36.7261 53.3315 36.5017 53.7054C36.3521 53.7054 36.2773 53.7802 36.1277 53.7802L35.9781 53.855H35.8285C35.0058 54.0794 34.2578 54.3038 33.5098 54.4534C32.7618 54.603 32.0886 54.8274 31.4154 54.977C29.4707 55.4258 27.9747 55.7998 27.0023 56.0242C26.0299 56.3982 25.5063 56.5478 25.4315 56.473Z" fill="#2BBD81"/>
<path d="M44.6548 39.1945C44.6548 39.1945 44.8044 38.8205 45.1036 38.1473C45.4776 37.4741 46.0011 36.5017 46.6743 35.2301C46.8987 34.7814 47.1231 34.3326 47.4223 33.8838C47.6467 33.3602 47.9459 32.9114 48.2451 32.313C48.6191 31.7894 48.6939 31.1162 49.2175 30.5926C49.2923 30.5178 49.2923 30.443 49.3671 30.3682C49.3671 30.2934 49.4419 30.2934 49.4419 30.2186C49.4419 30.1438 49.4419 30.1438 49.3671 30.069C49.3671 29.9942 49.2923 29.9194 49.2923 29.8446V29.7698V29.6951C49.2923 29.6203 49.2923 29.6203 49.2175 29.5455C49.1427 29.5455 49.0679 29.5455 49.0679 29.4707H48.9931H48.9183L48.7687 29.3959C48.6191 29.3211 48.3947 29.3211 48.2451 29.2463C48.0207 29.1715 47.8711 29.0967 47.6467 29.0219C47.1231 28.8723 46.5995 28.6479 45.9263 28.4983C45.5524 28.4235 45.2532 28.3487 44.954 28.2739C44.6548 28.1991 44.4304 28.1243 44.2808 28.0495C44.7296 27.9747 45.1036 27.8251 45.4776 27.7503C45.8515 27.6755 46.0759 27.5259 46.3751 27.3763C46.6743 27.3015 46.9735 27.1519 47.3475 27.0771C47.6467 27.0023 47.8711 26.9275 48.1703 26.7779C48.3947 26.7031 48.6191 26.6283 48.8435 26.5535C48.9183 26.5535 49.0679 26.4787 49.1427 26.4787H49.2923C49.2923 26.4787 49.3671 26.4039 49.3671 26.3291C49.4419 26.2543 49.4419 26.1047 49.5167 26.0299C49.5915 25.8055 49.6663 25.5811 49.7411 25.3567C49.7411 25.2071 49.8159 25.0575 49.8159 24.9079C49.8907 24.7583 49.8907 24.5339 49.9655 24.3843C50.0403 24.0104 50.1899 23.6364 50.2647 23.1876C50.4891 22.7388 50.6387 22.29 50.8631 21.6916C51.0127 22.1404 51.1622 22.5144 51.3118 22.9632C51.4614 23.412 51.611 23.786 51.8354 24.3095C51.8354 24.4591 51.9102 24.6087 51.9102 24.7583V24.8331V24.9079V25.0575V25.1323V25.2071C51.9102 25.2819 51.9102 25.2819 51.9102 25.3567C51.9102 25.5063 51.985 25.7307 52.0598 25.8055C52.2094 25.5811 52.2842 25.2819 52.2842 25.0575C52.359 24.9827 52.359 24.9827 52.5086 24.6835C52.6582 24.4591 52.8078 24.2347 52.9574 24.0104C53.2566 23.5616 53.5558 23.038 53.7802 22.5144C54.3038 21.542 54.9022 20.4948 55.5006 19.5224C55.6502 19.1484 55.7998 18.8493 55.9494 18.5501L56.099 18.3257V18.2509C56.099 18.2509 56.099 18.2509 56.099 18.1761C56.099 18.1761 56.099 18.1761 56.0242 18.1013L55.9494 18.0265L55.6502 17.9517C55.5754 17.8769 55.4258 17.8021 55.351 17.7273C54.229 17.2785 53.1818 16.6053 52.1346 15.8573C51.0874 15.1093 49.8907 14.7353 48.8435 13.9873C47.7215 13.3142 46.5995 12.7158 45.4028 12.0426C44.2808 11.2946 43.1588 10.5466 41.8872 10.023C40.6904 9.34983 39.4937 8.75144 38.2969 8.00345C37.1001 7.47986 35.9033 6.73188 34.7066 5.90909C33.435 5.2359 32.313 4.41312 30.9666 3.73993C30.3682 3.36594 29.695 2.99194 29.0967 2.69275C28.7975 2.54315 28.4983 2.31876 28.1243 2.16916C27.9747 2.09436 27.8251 2.01956 27.6755 1.86997L27.5259 1.79517L27.4511 1.72037C27.4511 1.72037 27.4511 1.72037 27.3763 1.79517C27.3763 1.79517 27.3763 1.79517 27.3763 1.86997L27.2267 2.09436C27.0771 2.39356 26.8527 2.69275 26.7031 2.91715C26.4039 3.51553 26.0299 4.03912 25.7307 4.63751C25.1323 5.90909 24.2347 7.10587 23.5616 8.37744C23.3372 8.60184 23.1876 8.90104 23.038 9.20023C22.8884 9.42463 22.664 9.87342 22.664 9.79862V9.87342H22.7388L23.1128 9.94822C23.412 10.023 23.6364 10.0978 23.9356 10.1726C24.3095 10.2474 24.6087 10.397 24.9827 10.4718C25.3567 10.6214 25.6559 10.6962 26.0299 10.8458C26.7031 11.0702 27.3763 11.2946 28.0495 11.519C27.0771 11.8182 26.1795 12.1174 25.2071 12.4166C24.6087 12.641 24.0104 12.7906 23.4868 13.015C23.1876 13.0898 22.9632 13.1646 22.664 13.2394V13.3142L22.5144 13.6881C22.4396 13.9125 22.3648 14.2117 22.2152 14.4361V14.5109C22.2152 14.5109 22.2152 14.5109 22.2152 14.5857V14.7353C22.2152 14.8101 22.1404 14.9597 22.1404 15.0345C22.0656 15.2589 22.0656 15.4085 21.9908 15.6329C21.916 16.0069 21.7664 16.4557 21.6168 16.8297C21.3924 17.5777 21.0932 18.3257 20.8688 18.924C20.7192 18.3257 20.5696 17.8021 20.42 17.3533C20.2704 16.8297 20.1208 16.3809 19.9712 15.9321C19.8964 15.7825 19.8964 15.5581 19.8216 15.4085V15.2589V15.1841V15.0345L19.7468 14.8101V14.6605V14.5857C19.7468 14.6605 19.7468 14.6605 19.8216 14.8101C19.8216 14.8849 19.7468 14.9597 19.7468 15.0345C19.7468 15.0345 19.7468 15.1093 19.672 15.1093V15.1841V15.2589C19.0736 16.3809 18.3257 17.3533 17.8021 18.4753C17.2037 19.5224 16.6801 20.6444 16.0069 21.542C15.9321 21.6168 15.9321 21.6916 15.8573 21.8412V21.916V21.9908C15.8573 21.9908 15.8573 22.0656 15.7825 22.0656L15.8573 22.1404L15.9321 22.2152L16.1565 22.3648C16.4557 22.5892 16.8297 22.7388 17.1289 22.9632C18.1013 23.5616 19.0736 24.0852 19.9712 24.6087C20.794 25.3567 21.8412 25.7307 22.7388 26.2543C23.6364 26.7779 24.5339 27.1519 25.3567 27.8251C26.1795 28.3487 27.0023 28.8723 27.8251 29.2463C28.6479 29.695 29.2463 30.443 30.1438 30.5926C30.8918 30.9666 31.4902 31.6398 32.313 31.8642C33.1358 32.0886 33.6594 32.687 34.3326 33.061C35.0057 33.435 35.6041 33.809 36.2025 34.183C38.8953 35.7537 40.9148 37.0253 42.336 37.9229C43.9068 38.6709 44.6548 39.1945 44.6548 39.1945C44.58 39.2693 43.6076 38.7457 41.8124 37.7733C40.0173 36.8009 37.3993 35.3797 34.1082 33.5098C33.435 33.1358 32.687 32.9114 32.0886 32.3878C31.4154 32.0138 30.5926 31.6398 29.9194 31.1162C29.0967 30.8918 28.3487 30.2934 27.6007 29.7698C26.7779 29.3211 26.0299 28.7975 25.1323 28.3487C24.2347 27.9747 23.412 27.3015 22.5144 26.8527C21.6916 26.2543 20.7192 25.7307 19.7468 25.2819C18.8492 24.6087 17.8021 24.2348 16.8297 23.6364C16.5305 23.412 16.2313 23.1876 15.8573 22.9632L15.6329 22.8136L15.2589 22.5892C14.9597 22.4396 14.7353 22.29 14.4361 22.1404C14.5857 21.8412 14.7353 21.6168 14.8849 21.3176L15.0345 21.0932C15.0345 21.0184 15.0345 21.0184 15.1093 21.0184V20.9436L15.2589 20.6444C15.7825 19.5972 16.4557 18.6249 17.0541 17.5029C17.7273 16.4557 18.2509 15.3337 18.924 14.2865V14.2117L18.9988 14.1369L19.0736 13.9873L19.298 13.6133C19.4476 13.389 19.5972 13.0898 19.672 12.8654C19.9712 12.3418 20.1956 11.893 20.4948 11.3694C20.7192 12.1922 21.0184 12.9402 21.2428 13.7629L21.3176 13.9125V13.9873V14.1369L21.3924 14.3613V14.5109C21.3924 14.4361 21.3924 14.2865 21.3176 14.2117C21.3176 14.1369 21.3176 14.1369 21.3924 14.0621V13.9873V13.9125V13.8377C21.4672 13.6133 21.542 13.3142 21.6168 13.0898L21.7664 12.7158C21.8412 12.4914 21.916 12.267 21.9908 11.9678C22.29 11.893 22.5892 11.8182 22.8884 11.6686C23.1128 11.5938 23.2624 11.5938 23.4868 11.519C23.6364 11.4442 23.786 11.4442 23.9356 11.3694H24.0103C24.0103 11.3694 24.0851 11.3694 24.1599 11.3694C24.2347 11.3694 24.3095 11.3694 24.3843 11.3694C24.3843 11.3694 24.3095 11.2946 24.2347 11.2946C24.1599 11.2946 24.1599 11.2946 24.0851 11.2946H24.0103C23.7112 11.2198 23.4868 11.145 23.1876 11.0702C22.8136 10.9206 22.4396 10.8458 22.0656 10.6962C21.916 10.3222 21.8412 9.94822 21.6916 9.49942C21.916 9.12543 22.1404 8.75144 22.29 8.45224C22.4396 8.15305 22.5892 7.85385 22.7388 7.62946C23.4868 6.43268 24.2347 5.1611 24.9079 3.88953C25.3567 3.36594 25.6559 2.76755 26.0299 2.24396C26.1795 1.94476 26.3291 1.64557 26.4787 1.34637L26.6283 1.12198L26.8527 0.747986C26.7779 0.52359 26.9275 0.299194 27.0771 0C27.3015 0.0747986 27.4511 0.224396 27.6755 0.299194C28.0495 0.52359 28.4235 0.747986 28.8723 0.972382C29.1715 1.12198 29.4707 1.34637 29.8446 1.49597C30.443 1.86997 31.1162 2.24396 31.7146 2.61795C32.9862 3.29114 34.183 4.03913 35.3797 4.78711C36.6513 5.4603 37.7733 6.28308 39.0449 6.88147C40.3165 7.47986 41.3636 8.37744 42.6352 8.97583C43.832 9.57422 45.0288 10.2474 46.1507 10.9954C47.2727 11.6686 48.3199 12.4914 49.5167 12.9402C50.6387 13.5385 51.9102 13.9873 52.8078 14.8849C53.9298 15.4833 54.9022 16.2313 56.0242 16.7549C56.099 16.8297 56.1738 16.9045 56.3234 16.9793L56.4729 17.0541L56.5477 17.1289L56.6225 17.2037C56.9217 17.4281 57.2957 17.5777 57.5949 17.8021C57.4453 18.1013 57.2957 18.3257 57.1461 18.6249L57.0713 18.8493L56.9965 18.924V18.9988L56.8469 19.2232C56.6973 19.5224 56.5478 19.8964 56.3234 20.1956C55.725 21.168 55.0518 22.1404 54.603 23.1876C54.3786 23.7112 54.0794 24.16 53.7802 24.6835C53.481 25.2071 53.2566 25.4315 52.733 26.4039C52.4338 27.0023 52.0598 27.6755 51.7606 28.1243C51.611 27.5259 51.3866 26.8527 51.237 26.2543C51.1623 26.1047 51.1623 25.9551 51.0875 25.8055L51.0126 25.5811L50.9379 25.4315L50.8631 25.2819V25.2071C50.8631 25.2071 50.8631 25.2071 50.7883 25.1323C50.7883 25.0575 50.7883 24.9827 50.7135 24.9079C50.7135 24.8331 50.6387 24.7583 50.6387 24.6835C50.5639 24.8331 50.5639 24.9079 50.4891 25.0575C50.4891 25.2819 50.4891 25.3567 50.4891 25.4315V25.5063V25.5811L50.4143 25.7307C50.3395 25.9551 50.2647 26.1795 50.1151 26.4039C50.0403 26.4787 50.0403 26.6283 49.9655 26.7031C49.8907 26.8527 49.8159 27.0771 49.8159 27.2267V27.3015C49.6663 27.3763 49.4419 27.3763 49.2923 27.4511H49.2175H49.1427L48.9931 27.5259C48.7687 27.6007 48.5443 27.6755 48.3947 27.7503C48.3199 27.8251 48.1703 27.8251 48.0955 27.8251H48.0207C47.9459 27.8251 47.8711 27.8251 47.7215 27.8251C47.7215 27.8999 47.7215 27.8999 47.6467 27.9747C47.5719 27.9747 47.4971 28.0495 47.3475 28.0495C47.3475 28.0495 47.3475 28.1243 47.4971 28.1991C47.5719 28.1991 47.6467 28.2739 47.7215 28.2739C47.7963 28.2739 47.9459 28.3487 48.0207 28.3487C48.0207 28.3487 48.0207 28.3487 48.0955 28.3487L48.2451 28.4235C48.3199 28.4235 48.3947 28.4983 48.5443 28.4983C48.6939 28.5731 48.9183 28.6479 49.0679 28.7227C49.1427 28.7227 49.1427 28.7227 49.2175 28.7227H49.2923H49.4419C49.5915 28.7975 49.7411 28.7975 49.8907 28.8723C49.8907 29.0219 49.9655 29.0967 49.9655 29.2463L50.0403 29.3959V29.4707V29.5455V29.6951V29.7698V29.8446C50.0403 29.9194 50.1151 30.069 50.1151 30.1438C50.0403 30.2934 49.9655 30.3682 49.8907 30.5178C49.8159 30.5926 49.8159 30.5926 49.8159 30.6674C49.8159 30.7422 49.7411 30.7422 49.7411 30.817C49.2923 31.3406 49.0679 32.0138 48.6939 32.5374C48.3947 33.061 48.0955 33.5846 47.7963 34.0334C47.4971 34.4822 47.2727 34.931 46.9735 35.3797C46.2255 36.5765 45.6272 37.5489 45.2532 38.2221C44.8792 38.8953 44.6548 39.2693 44.6548 39.1945Z" fill="#2BBD81"/>
<path d="M65 56.4729C65 56.5477 64.3268 56.6225 63.0552 56.6973C62.8308 56.6973 62.6064 56.6973 62.382 56.6973C62.1577 56.6973 61.8585 56.7721 61.6341 56.6973C61.3349 56.6225 61.1105 56.9217 60.8113 56.6973C60.5121 56.6225 60.2129 56.6973 59.9137 56.6973C59.6145 56.6973 59.2405 56.6225 58.9413 56.6973C58.5673 56.9217 58.2681 56.4729 57.8941 56.6973C57.5201 56.7721 57.1461 56.7721 56.7722 56.6973C56.3982 56.5477 55.9494 56.6973 55.5754 56.6973C55.1266 56.4729 54.7526 56.6225 54.3038 56.6973C53.855 56.4729 53.4062 56.4729 52.9574 56.6973C52.5086 56.6973 51.985 56.6225 51.5362 56.6973C51.0875 56.6973 50.5639 56.7721 50.0403 56.6973C49.5167 56.8469 48.9931 56.8469 48.4695 56.6973C47.9459 56.8469 47.4223 56.7721 46.8987 56.6973C46.3751 56.6225 45.8516 56.8469 45.2532 56.6973C44.7296 56.6973 44.1312 56.7721 43.6076 56.6973C43.0092 56.6225 42.4856 56.5477 41.8872 56.6973C41.2888 56.7721 40.6904 56.7721 40.0921 56.6973C39.4937 56.9217 38.8953 56.7721 38.2969 56.6973C37.6985 56.6973 37.1001 56.6225 36.5017 56.6973C35.9033 56.6973 35.2301 56.7721 34.6318 56.6973C34.0334 56.6225 33.3602 56.5477 32.7618 56.6973C32.1634 56.8469 31.565 56.6225 30.9666 56.6973C30.3682 56.5477 29.7698 56.7721 29.1715 56.6973C28.5731 56.6973 27.9747 56.6225 27.3763 56.6973C26.7779 56.6973 26.2543 56.7721 25.6559 56.6973C25.0575 56.9965 24.5339 56.6225 24.0104 56.6973C23.4868 56.5477 22.8884 56.6973 22.3648 56.6973C21.8412 56.7721 21.3176 56.5477 20.794 56.6973C20.2704 56.6973 19.7468 56.7721 19.2232 56.6973C18.6997 56.8469 18.2509 56.5477 17.7273 56.6973C17.2785 56.6973 16.7549 56.6973 16.3061 56.6973C15.8573 56.4729 15.4085 56.6225 14.9597 56.6973C14.5109 56.6973 14.0621 56.8469 13.6881 56.6973C13.2394 56.6973 12.8654 56.5477 12.4914 56.6973C12.1174 56.6973 11.7434 56.3981 11.3694 56.6973C10.9954 56.7721 10.6214 56.4729 10.3222 56.6973C9.94821 56.8469 9.64902 56.6973 9.34983 56.6973C9.05063 56.6973 8.75144 56.6973 8.45224 56.6973C5.83429 56.6225 4.26352 56.4729 4.26352 56.3981C4.26352 56.2485 6.13348 56.1737 9.34983 56.0241C9.64902 56.0241 10.023 55.8745 10.3222 56.0241C10.6962 56.0241 10.9954 55.8745 11.3694 56.0241C11.7434 55.7997 12.1174 56.0241 12.4914 56.0241C12.8654 56.0241 13.3142 56.0989 13.6881 56.0241C14.1369 55.8745 14.5109 56.0989 14.9597 56.0241C15.4085 56.1737 15.8573 56.0989 16.3061 56.0241C16.7549 56.1737 17.2785 56.0241 17.7273 56.0241C18.1761 56.2485 18.6997 56.0989 19.2232 56.0241C19.7468 55.9493 20.2704 56.0241 20.794 56.0241C21.3176 56.0241 21.8412 55.9493 22.3648 56.0241C22.8884 55.9493 23.412 55.8745 24.0104 56.0241C24.5339 55.9493 25.1323 56.0241 25.6559 56.0241C26.2543 55.9493 26.7779 56.0241 27.3763 56.0241C27.9747 55.9493 28.5731 56.2485 29.1715 56.0241C29.7698 56.0241 30.3682 56.0241 30.9666 56.0241C31.565 56.0241 32.1634 56.0989 32.7618 56.0241C33.3602 56.2485 34.0334 56.0989 34.6318 56.0241C35.2301 55.9493 35.9033 56.0241 36.5017 56.0241C37.1001 56.0241 37.6985 56.0241 38.2969 56.0241C38.8953 55.9493 39.4937 56.0989 40.0921 56.0241C40.6904 55.9493 41.2888 56.0989 41.8872 56.0241C42.4856 55.9493 43.0092 55.9493 43.6076 56.0241C44.206 56.0241 44.7296 56.2485 45.2532 56.0241C45.7768 55.9493 46.3751 55.7249 46.8987 56.0241C47.4223 55.9493 47.9459 56.1737 48.4695 56.0241C48.9931 56.2485 49.5167 56.0241 50.0403 56.0241C50.5639 56.0989 51.0127 56.0989 51.5362 56.0241C51.985 55.9493 52.5086 56.0989 52.9574 56.0241C53.4062 55.8745 53.855 56.1737 54.3038 56.0241C54.7526 56.0241 55.2014 56.0241 55.5754 56.0241C56.0242 55.7249 56.3982 56.0241 56.7722 56.0241C57.1461 56.0989 57.5201 55.7997 57.8941 56.0241C58.2681 55.7997 58.6421 56.0241 58.9413 56.0241C59.3153 56.0989 59.6145 55.9493 59.9137 56.0241C60.2129 55.8745 60.5121 56.0989 60.8113 56.0241C61.1105 56.0989 61.4097 56.0241 61.6341 56.0241C61.9333 56.0241 62.1577 56.0241 62.382 56.0241C62.6064 56.0241 62.8308 56.0241 63.0552 56.0241C64.3268 56.3233 65 56.3981 65 56.4729Z" fill="#2BBD81"/>
<path d="M56.2486 61.8584C56.2486 61.9332 55.7998 62.008 54.9022 62.0828C54.7526 62.0828 54.603 62.0828 54.4534 62.0828C54.3038 62.0828 54.0794 62.1576 53.9298 62.0828C53.7054 62.008 53.5558 62.3072 53.3314 62.0828C53.107 62.008 52.8826 62.0828 52.6582 62.0828C52.4338 62.0828 52.2094 62.008 51.9102 62.0828C51.6858 62.3072 51.3866 61.8584 51.1622 62.0828C50.8631 62.1576 50.6387 62.1576 50.3395 62.0828C50.0403 61.9332 49.7411 62.0828 49.4419 62.0828C49.1427 61.8584 48.8435 62.008 48.5443 62.0828C48.2451 61.8584 47.8711 61.8584 47.5719 62.0828C47.2727 62.0828 46.8987 62.008 46.5247 62.0828C46.1507 62.0828 45.8515 62.1576 45.4776 62.0828C45.1036 62.2324 44.7296 62.2324 44.3556 62.0828C43.9816 62.2324 43.6076 62.1576 43.2336 62.0828C42.8596 62.008 42.4856 62.2324 42.0368 62.0828C41.6628 62.0828 41.214 62.1576 40.84 62.0828C40.466 62.008 40.0173 61.9332 39.6433 62.0828C39.1945 62.1576 38.8205 62.1576 38.3717 62.0828C37.9229 62.3072 37.5489 62.1576 37.1001 62.0828C36.6513 62.0828 36.2025 62.008 35.8285 62.0828C35.3797 62.0828 34.9309 62.1576 34.4822 62.0828C34.0334 62.008 33.5846 61.9332 33.1358 62.0828C32.687 62.2324 32.2382 62.008 31.8642 62.0828C31.4154 61.9332 31.0414 62.1576 30.5926 62.0828C30.1438 62.0828 29.7698 62.008 29.3211 62.0828C28.8723 62.0828 28.4983 62.1576 28.1243 62.0828C27.7503 62.382 27.3015 62.008 26.9275 62.0828C26.5535 61.9332 26.1795 62.0828 25.7307 62.0828C25.3567 62.1576 24.9827 61.9332 24.6087 62.0828C24.2347 62.0828 23.8608 62.1576 23.4868 62.0828C23.1128 62.2324 22.8136 61.9332 22.4396 62.0828C22.0656 62.0828 21.7664 62.0828 21.3924 62.0828C21.0932 61.8584 20.7192 62.0828 20.42 62.0828C20.1208 62.0828 19.8216 62.2324 19.5224 62.0828C19.2232 62.0828 18.924 61.9332 18.6248 62.0828C18.3257 62.0828 18.1013 61.7836 17.8021 62.0828C17.5029 62.1576 17.2785 61.8584 17.0541 62.0828C16.8297 62.2324 16.5305 62.0828 16.3061 62.0828C16.0817 62.0828 15.8573 62.0828 15.6329 62.0828C13.7629 62.008 12.641 61.8584 12.641 61.7836C12.641 61.634 13.9873 61.5592 16.3061 61.4096C16.5305 61.4096 16.7549 61.26 17.0541 61.4096C17.2785 61.4096 17.5777 61.26 17.8021 61.4096C18.1013 61.1852 18.3257 61.3348 18.6248 61.4096C18.924 61.4096 19.2232 61.4844 19.5224 61.4096C19.8216 61.26 20.1208 61.4844 20.42 61.4096C20.7192 61.5592 21.0932 61.4844 21.3924 61.4096C21.6916 61.5592 22.0656 61.4096 22.4396 61.4096C22.8136 61.634 23.1128 61.4844 23.4868 61.4096C23.8608 61.3348 24.2347 61.4096 24.6087 61.4096C24.9827 61.4096 25.3567 61.3348 25.7307 61.4096C26.1047 61.3348 26.4787 61.26 26.9275 61.4096C27.3015 61.3348 27.7503 61.4096 28.1243 61.4096C28.4983 61.3348 28.9471 61.4096 29.3211 61.4096C29.7698 61.3348 30.1438 61.634 30.5926 61.4096C31.0414 61.4096 31.4154 61.4096 31.8642 61.4096C32.313 61.4096 32.7618 61.4844 33.1358 61.4096C33.5846 61.634 34.0334 61.4844 34.4822 61.4096C34.9309 61.3348 35.3797 61.4096 35.8285 61.4096C36.2773 61.4096 36.7261 61.4096 37.1001 61.4096C37.5489 61.3348 37.9229 61.4844 38.3717 61.4096C38.8205 61.3348 39.1945 61.4844 39.6433 61.4096C40.0921 61.3348 40.466 61.3348 40.84 61.4096C41.214 61.4096 41.6628 61.634 42.0368 61.4096C42.4108 61.3348 42.7848 61.1104 43.2336 61.4096C43.6076 61.3348 43.9816 61.5592 44.3556 61.4096C44.7296 61.634 45.1036 61.4096 45.4776 61.4096C45.8515 61.4844 46.1507 61.4844 46.5247 61.4096C46.8987 61.3348 47.1979 61.4844 47.5719 61.4096C47.8711 61.26 48.2451 61.5592 48.5443 61.4096C48.8435 61.4096 49.1427 61.4096 49.4419 61.4096C49.7411 61.1104 50.0403 61.4096 50.3395 61.4096C50.6387 61.4844 50.8631 61.1852 51.1622 61.4096C51.4614 61.1852 51.6858 61.4096 51.9102 61.4096C52.1346 61.4844 52.4338 61.3348 52.6582 61.4096C52.8826 61.26 53.107 61.4844 53.3314 61.4096C53.5558 61.4844 53.7054 61.4096 53.9298 61.4096C54.1542 61.4096 54.3038 61.4096 54.4534 61.4096C54.603 61.4096 54.7526 61.4096 54.9022 61.4096C55.725 61.7088 56.2486 61.7836 56.2486 61.8584Z" fill="#2BBD81"/>
<path d="M50.6386 23.038C50.7134 23.038 50.7134 23.412 50.5638 24.0851C50.5638 24.1599 50.489 24.3095 50.489 24.4591C50.489 24.6087 50.489 24.7583 50.4142 24.8331C50.2647 24.9079 50.489 25.2071 50.3395 25.2819C50.2647 25.4315 50.2646 25.5811 50.1898 25.7307C50.1898 25.8803 50.0403 26.0299 50.0403 26.2543C50.1151 26.4039 50.0403 26.4787 49.9655 26.5535C49.8907 26.6283 49.8907 26.6283 49.8907 26.7031C49.8907 26.7779 49.8907 26.8527 49.8907 26.9275C49.8907 27.0771 49.8159 27.2267 49.8159 27.3015C49.6663 27.3763 49.4419 27.4511 49.2175 27.4511H49.1427C49.1427 27.4511 49.1427 27.4511 49.0679 27.4511H48.9931C48.9183 27.4511 48.9183 27.4511 48.8435 27.5259C48.7687 27.6007 48.6191 27.6755 48.5443 27.6755C48.3947 27.6007 48.3199 27.6007 48.1703 27.6755C48.0955 27.6755 48.0955 27.7503 48.0207 27.7503L47.9459 27.8251C47.7963 27.6007 47.4971 27.7503 47.7215 27.8999C47.7215 27.8999 47.6467 27.8999 47.5719 27.8999C47.4971 27.8999 47.4971 27.8999 47.5719 27.9747C47.5719 27.9747 47.5719 27.9747 47.5719 28.0495C47.5719 28.0495 47.5719 28.0495 47.4223 28.0495C47.4971 28.0495 47.4971 28.0495 47.5719 28.0495C48.0207 28.0495 47.9459 28.0495 47.6467 28.1243C47.8711 28.1243 47.9459 28.1243 47.9459 28.1243C47.9459 28.1243 47.8711 28.1243 47.8711 28.1991C47.8711 28.2739 47.9459 28.1991 47.9459 28.1991H48.0207C48.0207 28.1991 48.0207 28.1991 48.0955 28.2739C48.3947 28.3487 48.6939 28.4235 48.9931 28.4983L49.1427 28.5731L49.2175 28.6479C49.2175 28.6479 49.2923 28.6479 49.2923 28.7227C49.5167 28.7975 49.6663 28.8723 49.8907 28.8723C49.9655 28.947 49.9655 29.0966 50.0403 29.1714L50.1151 29.3958L50.1898 29.4706C50.1898 29.5454 50.2646 29.6202 50.2646 29.695C50.3394 29.8446 50.3395 29.9942 50.3395 30.1438C50.489 30.2934 50.5638 30.443 50.5638 30.5926C50.5638 30.5926 50.5638 30.6674 50.489 30.6674V30.7422C50.489 30.817 50.489 30.8918 50.5638 30.7422C50.5638 30.7422 50.5638 30.6674 50.5638 30.8918C50.5638 30.9666 50.5638 31.0414 50.5638 30.9666C50.5638 30.9666 50.5638 30.8918 50.5638 30.7422C50.5638 30.5926 50.5638 30.5926 50.5638 30.6674H50.6386C50.7134 30.6674 50.7134 30.6674 50.7134 30.6674C50.7134 30.6674 50.7134 30.6674 50.7134 30.5926C50.7134 30.443 50.7134 30.2934 50.7882 30.1438C50.863 29.9942 50.863 29.8446 50.9378 29.695C50.9378 29.6202 51.0126 29.5454 51.0126 29.4706V29.3958V29.321C51.0126 29.2462 51.0126 29.1714 51.0126 29.0966C51.0126 28.9471 51.0874 28.8723 51.0874 28.7227C51.3118 28.6479 51.5362 28.5731 51.6858 28.4983H51.7606H51.8354H51.9102C51.985 28.4983 52.0598 28.4983 52.0598 28.4983C52.2842 28.1243 52.6582 28.4235 52.9574 28.2739C53.1818 28.3487 53.107 28.1991 53.1818 28.1991C53.1818 28.1991 53.2566 28.1991 53.3314 28.1991C53.4062 28.1991 53.481 28.1991 53.4062 28.1991C53.481 28.1991 53.481 28.1991 53.4062 28.1991C53.4062 28.1991 53.4062 28.1991 53.5558 28.1991H53.6306C53.3314 28.1991 53.481 28.1991 53.481 28.1991C53.5558 28.1991 53.6306 28.1243 53.4062 28.1243C53.3314 28.1243 53.2566 28.1243 53.2566 28.0495C53.3314 27.9747 53.2566 27.8999 53.2566 27.8999C53.1818 27.8999 53.107 27.8999 53.107 27.8999H53.0322H52.9574C52.8826 27.8999 52.8078 27.8999 52.8078 27.8999C52.6582 27.8999 52.5834 27.8251 52.5086 27.7503C52.4338 27.6755 52.2842 27.6755 52.2094 27.6007C52.1346 27.6007 52.1346 27.5259 52.0598 27.5259H51.985C51.985 27.5259 51.985 27.5259 51.9102 27.5259C51.9102 27.5259 51.9102 27.5259 51.8354 27.5259C51.7606 27.5259 51.611 27.4511 51.611 27.3763C51.5362 27.3015 51.4614 27.2267 51.3866 27.2267C51.3866 27.0771 51.3118 27.0023 51.1622 26.9275C51.1622 26.8527 51.0874 26.7779 51.0874 26.7031C51.0874 26.6283 51.0874 26.6283 51.0874 26.5535C51.0874 26.4787 51.0874 26.3291 50.9378 26.3291C50.7134 26.1795 50.863 25.9551 50.7882 25.8055C50.7134 25.6559 50.7134 25.5063 50.6386 25.3567C50.7134 23.9355 50.5638 23.1128 50.6386 23.038C50.7882 22.9632 51.1622 23.9355 51.8354 25.5811C51.9102 25.7307 52.0598 25.8803 51.985 26.1047C51.985 26.1795 52.0598 26.2543 52.1346 26.3291C52.1346 26.4039 52.2094 26.4039 52.2094 26.4787V26.5535C52.2842 26.5535 52.2842 26.5535 52.2842 26.5535C52.2842 26.5535 52.2842 26.6283 52.359 26.6283H52.4338H52.5086C52.5834 26.6283 52.5834 26.7031 52.6582 26.7031C52.733 26.7031 52.8826 26.7779 52.9574 26.7779C53.107 26.7779 53.1818 26.7779 53.2566 26.8527C53.3314 26.8527 53.3314 26.9275 53.4062 26.9275H53.481H53.5558H53.6306C53.9298 27.1519 54.3038 27.2267 54.8274 27.3015C54.977 27.3763 55.1266 27.4511 55.351 27.5259C55.5754 27.6007 55.8745 27.6007 56.0989 27.6755C56.0989 27.7503 56.2485 27.8251 56.4729 27.8999C56.6973 27.9747 57.0713 28.0495 57.4453 28.1243C57.5201 28.1243 57.5949 28.1243 57.5949 28.1991C57.4453 28.2739 57.2209 28.3487 56.9965 28.4235C56.7721 28.4983 56.5477 28.5731 56.3981 28.6479C56.0989 28.7227 55.8745 28.7975 55.7249 28.8723C55.5006 28.947 55.2762 29.0219 54.977 29.0966C54.7526 29.1714 54.5282 29.321 54.3038 29.3958C54.1542 29.4706 54.0046 29.4706 53.9298 29.5454C53.855 29.5454 53.7802 29.5454 53.7054 29.6202H53.6306H53.5558C53.2566 29.7698 52.9574 29.7698 52.733 29.9194C52.6582 29.9194 52.6582 29.9942 52.5834 29.9942H52.5086H52.4338C52.4338 29.9942 52.4338 29.9942 52.359 29.9942C52.359 29.9942 52.359 29.9942 52.359 30.069C52.2842 30.1438 52.2842 30.2186 52.2094 30.2934C52.1346 30.443 52.0598 30.5926 52.1346 30.7422C52.1346 30.8918 52.0598 31.0414 51.985 31.191L51.9102 31.3406L51.8354 31.565C51.7606 31.7146 51.7606 31.8642 51.6858 32.0138C51.611 32.313 51.4614 32.5374 51.3866 32.8366C51.3118 33.1358 51.237 33.435 51.1622 33.809C51.0126 33.8838 50.9378 34.1082 50.863 34.4073C50.7882 34.7065 50.7134 35.1553 50.6386 35.6041C50.5638 35.3797 50.4142 35.0805 50.3395 34.7813C50.2647 34.4821 50.1899 34.1082 50.0403 33.809C49.8159 33.2854 49.6663 32.6122 49.5167 32.0138C49.4419 31.8642 49.4419 31.7146 49.3671 31.565V31.3406V31.2658C49.3671 31.1162 49.2923 30.9666 49.2175 30.817C49.1427 30.6674 49.1427 30.5178 49.0679 30.3682C49.0679 30.2934 49.0679 30.2186 48.9931 30.1438V30.069C48.9931 30.069 48.9931 30.069 48.9183 30.069C48.9183 30.069 48.9183 30.069 48.8435 30.069C48.8435 30.069 48.7687 30.069 48.7687 29.9942C48.6939 29.9942 48.6939 29.9194 48.6191 29.9194C48.3199 29.8446 48.0955 29.5454 47.7963 29.6202H47.7215H47.6467C47.5719 29.6202 47.4971 29.6202 47.4223 29.6202C47.2727 29.6202 47.1231 29.5454 46.9735 29.5454C46.6743 29.4706 46.3751 29.3958 46.3003 29.2462C46.0011 29.1714 45.7767 29.0966 45.6271 29.0218C45.4027 28.9471 45.2531 28.8723 44.8791 28.7975C44.8791 28.7227 44.7296 28.6479 44.5052 28.5731C44.2808 28.4983 43.9068 28.4235 43.6824 28.4235C43.6824 28.4235 43.7572 28.4235 43.832 28.3487C44.1312 28.2739 44.4304 28.1991 44.6548 28.1243C44.8792 28.0495 45.1035 27.9747 45.1783 27.8999C45.2531 27.8251 45.5523 27.7503 45.7767 27.6755C46.0011 27.6007 46.3003 27.6007 46.4499 27.5259C46.5995 27.4511 46.8239 27.3763 47.0483 27.3763C47.2727 27.3763 47.4971 27.3015 47.6467 27.2267C47.7215 27.2267 47.7215 27.2267 47.7963 27.2267H47.8711C47.9459 27.2267 47.9459 27.2267 48.0207 27.1519C48.0955 27.1519 48.2451 27.0771 48.3199 27.0771C48.3947 26.9275 48.4695 26.8527 48.6191 26.8527C48.6939 26.8527 48.7687 26.8527 48.7687 26.8527H48.8435C48.8435 26.8527 48.8435 26.8527 48.9183 26.8527C48.9931 26.8527 48.9931 26.7779 48.9931 26.7779C48.9931 26.7779 48.9931 26.7031 49.0679 26.7779C48.9931 26.7031 48.9931 26.7031 48.9931 26.7031C48.9931 26.6283 48.9931 26.6283 49.0679 26.5535C49.1427 26.4787 49.2175 26.4039 49.2923 26.3291C49.4419 26.1795 49.2923 25.9551 49.4419 25.8055C49.3671 25.5811 49.5915 25.5063 49.5915 25.3567C49.7411 25.2071 49.6663 25.0575 49.7411 24.9079C49.7411 24.7583 49.8159 24.6087 49.8907 24.5339C49.9655 24.3843 49.9655 24.3095 50.0403 24.2347C50.4142 23.3372 50.5638 23.038 50.6386 23.038Z" fill="#121212"/>
<path d="M21.168 6.35791C21.2428 6.35791 21.2428 6.7319 21.0932 7.40509C21.0932 7.47988 21.0184 7.62948 21.0184 7.77908C21.0184 7.92868 21.0184 8.07827 20.9436 8.15307C20.794 8.22787 21.0184 8.52707 20.8688 8.60186C20.794 8.75146 20.794 8.90106 20.7192 9.05066C20.7192 9.20025 20.5696 9.34985 20.5696 9.57425C20.6444 9.72384 20.5696 9.79864 20.4948 9.87344C20.42 9.94824 20.42 9.94824 20.42 10.023C20.42 10.0978 20.42 10.1726 20.42 10.2474C20.42 10.397 20.3452 10.5466 20.3452 10.6214C20.1956 10.6962 19.9712 10.771 19.7468 10.771H19.672C19.672 10.771 19.672 10.771 19.5972 10.771H19.5224C19.4476 10.771 19.4476 10.771 19.3728 10.8458C19.298 10.9206 19.1484 10.9954 19.0736 10.9954C18.924 10.9206 18.8492 10.9206 18.6996 10.9954C18.6249 10.9954 18.6248 11.0702 18.5501 11.0702L18.4753 11.145C18.3257 10.9206 18.0265 11.0702 18.2509 11.2198C18.2509 11.2198 18.1761 11.2198 18.1013 11.2198C18.0265 11.2198 18.0265 11.2198 18.1013 11.2946C18.1013 11.2946 18.1013 11.2946 18.1013 11.3694C18.1013 11.3694 18.1013 11.3694 17.9517 11.3694C18.0265 11.3694 18.0265 11.3694 18.1013 11.3694C18.5501 11.3694 18.4753 11.3694 18.1761 11.4442C18.4005 11.4442 18.4753 11.4442 18.4753 11.4442C18.4753 11.4442 18.4005 11.4442 18.4005 11.519C18.4005 11.5938 18.4753 11.519 18.4753 11.519H18.5501C18.5501 11.519 18.5501 11.519 18.6248 11.5938C18.924 11.6686 19.2232 11.7434 19.5224 11.8182L19.672 11.893L19.7468 11.9678H19.8216H19.8964C20.1208 12.0426 20.2704 12.1174 20.4948 12.1174C20.5696 12.1922 20.5696 12.3418 20.6444 12.4166L20.7192 12.641L20.794 12.7158V12.7906C20.794 12.8654 20.8688 12.9402 20.8688 13.015C20.9436 13.1646 20.9436 13.3142 20.9436 13.4638C21.0932 13.6134 21.168 13.763 21.168 13.9126C21.168 13.9874 21.168 13.9874 21.168 13.9874C21.168 13.9874 21.168 14.0622 21.0932 14.0622V14.137C21.0932 14.2118 21.0932 14.2866 21.168 14.137C21.168 14.137 21.168 14.0622 21.168 14.2866C21.168 14.3614 21.168 14.4362 21.168 14.4362C21.168 14.4362 21.168 14.3614 21.168 14.2118C21.168 14.0622 21.168 14.0622 21.168 14.137H21.2428C21.3176 14.137 21.3176 14.137 21.3176 14.137C21.3176 13.9874 21.3176 13.8378 21.3924 13.6882C21.4672 13.5386 21.4672 13.389 21.542 13.2394C21.542 13.1646 21.6168 13.0898 21.6168 13.015V12.9402V12.8654C21.6168 12.7906 21.6168 12.7158 21.6916 12.641C21.6916 12.4914 21.7664 12.4166 21.7664 12.267C21.9908 12.1922 22.2152 12.1174 22.4396 12.0426C22.5144 12.0426 22.5144 12.0426 22.5892 12.0426H22.664C22.7388 12.0426 22.8136 12.0426 22.8136 12.0426C23.038 11.6686 23.412 11.9678 23.7112 11.8182C23.9356 11.893 23.8608 11.7434 23.9356 11.7434C23.9356 11.7434 24.0104 11.7434 24.0851 11.7434C24.1599 11.7434 24.2347 11.7434 24.1599 11.7434C24.2347 11.7434 24.2347 11.7434 24.1599 11.7434C24.1599 11.7434 24.1599 11.7434 24.3095 11.7434H24.3843C24.0851 11.7434 24.2347 11.7434 24.2347 11.7434C24.3095 11.7434 24.3843 11.6686 24.1599 11.6686C24.0851 11.6686 24.0103 11.6686 24.0103 11.5938C24.0851 11.519 24.0103 11.4442 24.0103 11.4442C23.9356 11.4442 23.8608 11.4442 23.8608 11.4442H23.786H23.7112C23.6364 11.4442 23.5616 11.4442 23.5616 11.4442C23.412 11.4442 23.3372 11.3694 23.2624 11.2946C23.1876 11.2198 23.038 11.2198 22.9632 11.145C22.8884 11.145 22.8884 11.0702 22.8136 11.0702H22.7388C22.7388 11.0702 22.7388 11.0702 22.664 11.0702C22.664 11.0702 22.664 11.0702 22.5892 11.0702C22.5144 11.0702 22.3648 10.9954 22.3648 10.9206C22.29 10.8458 22.2152 10.771 22.1404 10.771C22.1404 10.6214 22.0656 10.5466 21.916 10.4718C21.916 10.397 21.8412 10.3222 21.8412 10.2474C21.8412 10.1726 21.8412 10.1726 21.8412 10.0978C21.8412 10.023 21.8412 9.87344 21.6916 9.87344C21.4672 9.72384 21.6168 9.49945 21.542 9.34985C21.4672 9.20025 21.4672 9.05066 21.3924 8.90106C21.168 7.18069 21.0184 6.4327 21.168 6.35791C21.3176 6.28311 21.6916 7.25549 22.3648 8.90106C22.4396 9.05066 22.5892 9.20025 22.5144 9.42465C22.5144 9.49945 22.5892 9.57425 22.664 9.64904C22.664 9.72384 22.7388 9.72384 22.7388 9.79864V9.87344C22.8136 9.87344 22.8136 9.87344 22.8136 9.87344C22.8136 9.87344 22.8136 9.94824 22.8884 9.94824H22.9632H23.038C23.1128 9.94824 23.1128 10.023 23.1876 10.023C23.2624 10.023 23.412 10.0978 23.4868 10.0978C23.6364 10.0978 23.7112 10.0978 23.786 10.1726C23.8608 10.1726 23.8608 10.2474 23.9356 10.2474H24.0103H24.0851H24.1599C24.4591 10.4718 24.8331 10.5466 25.3567 10.6214C25.5063 10.6962 25.6559 10.771 25.8803 10.8458C26.1047 10.9206 26.4039 10.9206 26.6283 10.9954C26.6283 11.0702 26.7779 11.145 27.0023 11.2198C27.2267 11.2946 27.6007 11.3694 27.9747 11.4442C28.0495 11.4442 28.1243 11.4442 28.1991 11.519C28.0495 11.5938 27.8251 11.6686 27.6007 11.7434C27.3763 11.8182 27.1519 11.893 27.0023 11.9678C26.7031 12.0426 26.4787 12.1174 26.3291 12.1922C26.1047 12.267 25.8803 12.3418 25.5811 12.4166C25.3567 12.4914 25.1323 12.641 24.9079 12.7158C24.7583 12.7906 24.6087 12.7906 24.5339 12.8654C24.4591 12.8654 24.3843 12.8654 24.3095 12.9402H24.2347H24.1599C23.8608 13.0898 23.5616 13.0898 23.3372 13.2394C23.2624 13.2394 23.2624 13.3142 23.1876 13.3142H23.1128H23.038C23.038 13.3142 23.038 13.3142 22.9632 13.3142C22.8884 13.389 22.8884 13.4638 22.8136 13.5386C22.7388 13.6882 22.664 13.8378 22.7388 13.9874C22.7388 14.137 22.664 14.2866 22.5892 14.4362L22.4396 14.5858L22.3648 14.8101C22.29 14.9597 22.29 15.1093 22.2152 15.2589C22.1404 15.5581 21.9908 15.7825 21.916 16.0817C21.8412 16.3809 21.7664 16.6801 21.6916 17.0541C21.542 17.1289 21.4672 17.3533 21.3924 17.6525C21.3176 17.9517 21.2428 18.4005 21.168 18.8493C21.0932 18.6249 20.9436 18.3257 20.8688 18.0265C20.794 17.7273 20.7192 17.3533 20.5696 17.0541C20.3452 16.5305 20.1956 15.8573 20.046 15.2589C19.9712 15.1093 19.9712 14.9597 19.8964 14.8101L19.8216 14.5858C19.8216 14.511 19.7468 14.4362 19.7468 14.4362C19.7468 14.2866 19.672 14.137 19.5972 13.9874C19.5224 13.8378 19.4476 13.6882 19.4476 13.5386C19.4476 13.4638 19.4476 13.389 19.3728 13.3142V13.2394C19.3728 13.2394 19.3728 13.2394 19.298 13.2394H19.2232C19.2232 13.2394 19.1484 13.2394 19.1484 13.1646C19.0736 13.1646 19.0736 13.0898 18.9988 13.0898C18.6996 13.015 18.4753 12.7158 18.1761 12.7906C18.1761 12.7906 18.1761 12.7906 18.1013 12.7906H18.0265C17.9517 12.7906 17.8769 12.7906 17.8021 12.7906C17.6525 12.7906 17.5029 12.7158 17.3533 12.7158C17.0541 12.641 16.7549 12.5662 16.6801 12.3418C16.3809 12.267 16.1565 12.1922 16.0069 12.1174C15.7825 12.0426 15.6329 11.9678 15.2589 11.893C15.2589 11.8182 15.1093 11.7434 14.8849 11.6686C14.6605 11.5938 14.2865 11.519 14.0621 11.519C14.0621 11.519 14.1369 11.519 14.2117 11.4442C14.5109 11.3694 14.8101 11.2946 15.0345 11.2198C15.2589 11.145 15.4833 11.0702 15.5581 10.9954C15.6329 10.9206 15.9321 10.8458 16.1565 10.771C16.3809 10.6962 16.6801 10.6962 16.8297 10.6214C16.9793 10.5466 17.2037 10.4718 17.4281 10.4718C17.6525 10.4718 17.8769 10.397 18.0265 10.3222C18.1013 10.3222 18.1013 10.3222 18.1761 10.3222H18.2509C18.3257 10.3222 18.3257 10.3222 18.4005 10.2474C18.4753 10.2474 18.6249 10.1726 18.6996 10.1726C18.7744 10.023 18.8492 9.94824 18.9988 9.94824C19.0736 9.94824 19.1484 9.94824 19.1484 9.94824H19.2232C19.2232 9.94824 19.2232 9.94824 19.298 9.94824C19.3728 9.94824 19.3728 9.87344 19.3728 9.87344C19.3728 9.87344 19.3728 9.79864 19.4476 9.87344C19.3728 9.79864 19.3728 9.79864 19.3728 9.79864C19.3728 9.72384 19.3728 9.72384 19.4476 9.64904C19.5224 9.57425 19.5972 9.49945 19.672 9.42465C19.8216 9.27505 19.672 9.05066 19.8216 8.90106C19.7468 8.67666 19.9712 8.60186 19.9712 8.45227C20.1208 8.30267 20.046 8.15307 20.1208 8.00348C20.1208 7.85388 20.1956 7.70428 20.2704 7.62948C20.3452 7.47989 20.3452 7.40509 20.42 7.33029C20.8688 6.6571 21.0932 6.35791 21.168 6.35791Z" fill="#121212"/>
<path d="M7.03107 29.1715C7.10587 29.1715 7.10587 29.5455 6.95627 30.2187C6.95627 30.2935 6.88147 30.4431 6.88147 30.5927C6.88147 30.7423 6.88147 30.8919 6.80667 30.9667C6.65708 31.0415 6.88147 31.3407 6.73188 31.4155C6.65708 31.5651 6.65708 31.7147 6.58228 31.8643C6.58228 32.0139 6.43268 32.1634 6.43268 32.3878C6.50748 32.5374 6.43268 32.6122 6.35788 32.687C6.28308 32.7618 6.28308 32.7618 6.28308 32.8366C6.28308 32.9114 6.28308 32.9862 6.28308 33.061C6.28308 33.2106 6.20828 33.3602 6.20828 33.435C6.05869 33.5098 5.83429 33.5846 5.6099 33.5846C5.6099 33.5846 5.6099 33.5846 5.5351 33.5846H5.4603C5.3855 33.5846 5.3855 33.5846 5.3107 33.6594C5.2359 33.7342 5.08631 33.809 5.01151 33.809C4.86191 33.7342 4.78711 33.7342 4.63751 33.809C4.56272 33.809 4.56272 33.8838 4.48792 33.8838L4.41312 33.9586C4.26352 33.7342 3.96433 33.8838 4.18872 34.0334C4.18872 34.0334 4.11392 34.0334 4.03913 34.0334C3.96433 34.0334 3.96433 34.0334 4.03913 34.1082C4.03913 34.1082 4.03913 34.1082 4.03913 34.183C4.03913 34.183 4.03912 34.183 3.88953 34.183C3.96433 34.183 3.96433 34.183 4.03913 34.183C4.48792 34.183 4.41312 34.183 4.11392 34.2578C4.33832 34.2578 4.41312 34.2578 4.41312 34.2578C4.41312 34.2578 4.33832 34.2578 4.33832 34.3326C4.33832 34.4074 4.41312 34.3326 4.41312 34.3326H4.48792C4.48792 34.3326 4.48792 34.3326 4.56272 34.4074C4.86191 34.4822 5.1611 34.557 5.4603 34.6318L5.6099 34.7066L5.68469 34.7814C5.68469 34.7814 5.75949 34.7814 5.75949 34.8562C5.98389 34.931 6.13349 35.0058 6.35788 35.0058C6.43268 35.0806 6.43268 35.2302 6.50748 35.305L6.58228 35.5294L6.65708 35.6042C6.65708 35.679 6.73188 35.7538 6.73188 35.8286C6.80667 35.9782 6.80667 36.1278 6.80667 36.2774C6.95627 36.427 7.03107 36.5766 7.03107 36.7262C7.03107 36.7262 7.03107 36.801 6.95627 36.801V36.8758C6.95627 36.9506 6.95627 37.0254 7.03107 36.8758C7.03107 36.8758 7.03107 36.801 7.03107 37.0254C7.03107 37.1002 7.03107 37.175 7.03107 37.175C7.03107 37.175 7.03107 37.1002 7.03107 36.9506C7.03107 36.801 7.03107 36.801 7.03107 36.8758H7.10587C7.18067 36.8758 7.18067 36.8758 7.18067 36.8758C7.18067 36.8758 7.18067 36.8758 7.18067 36.801C7.18067 36.6514 7.18067 36.5018 7.25547 36.3522C7.33026 36.2026 7.33026 36.053 7.40506 35.9034C7.40506 35.8286 7.47986 35.7538 7.47986 35.679V35.6042V35.5294C7.47986 35.4546 7.47986 35.3798 7.47986 35.305C7.47986 35.1554 7.55466 35.0806 7.55466 34.931C7.77906 34.8562 8.00345 34.7814 8.15305 34.7066H8.22785H8.30265H8.37744C8.45224 34.7066 8.52704 34.7066 8.52704 34.7066C8.75144 34.3326 9.12543 34.6318 9.42463 34.4822C9.64902 34.557 9.57422 34.4074 9.64902 34.4074C9.64902 34.4074 9.72382 34.4074 9.79862 34.4074C9.87342 34.4074 9.94822 34.4074 9.87342 34.4074C9.94822 34.4074 9.94822 34.4074 9.87342 34.4074C9.87342 34.4074 9.87342 34.4074 10.023 34.4074H10.0978C9.79862 34.4074 9.94822 34.4074 9.94822 34.4074C10.023 34.4074 10.0978 34.3326 9.87342 34.3326C9.79862 34.3326 9.72382 34.3326 9.72382 34.2578C9.79862 34.183 9.79862 34.1082 9.72382 34.1082C9.64902 34.1082 9.57422 34.1082 9.57422 34.1082H9.49942H9.42463C9.34983 34.1082 9.27503 34.1082 9.27503 34.1082C9.12543 34.1082 9.05063 34.0334 8.97583 33.9586C8.90104 33.8838 8.75144 33.8838 8.67664 33.809C8.60184 33.809 8.60184 33.7342 8.52704 33.7342H8.45224C8.45224 33.7342 8.45224 33.7342 8.37744 33.7342C8.30265 33.7342 8.15305 33.6594 8.15305 33.5846C8.07825 33.5098 8.00345 33.435 7.92865 33.435C7.92865 33.2854 7.85385 33.2106 7.70426 33.1358C7.70426 33.061 7.62946 32.9862 7.62946 32.9114C7.62946 32.8366 7.62946 32.8366 7.62946 32.7618C7.62946 32.687 7.62946 32.5374 7.47986 32.5374C7.25547 32.3878 7.40506 32.1634 7.33026 32.0139C7.47986 31.7147 7.40506 31.5651 7.40506 31.4155C7.10587 29.9943 6.95627 29.2463 7.03107 29.1715C7.18067 29.0967 7.55466 30.0691 8.22785 31.7147C8.30265 31.8643 8.45224 32.0139 8.37744 32.2382C8.37744 32.313 8.45224 32.3878 8.52704 32.4626C8.52704 32.5374 8.60184 32.5374 8.60184 32.6122V32.687C8.67664 32.687 8.67664 32.687 8.67664 32.687C8.67664 32.687 8.67664 32.7618 8.75144 32.7618H8.82624H8.90103C8.97583 32.7618 8.97583 32.8366 9.05063 32.8366C9.12543 32.8366 9.27503 32.9114 9.34983 32.9114C9.49942 32.9114 9.57422 32.9114 9.64902 32.9862C9.72382 32.9862 9.72382 33.061 9.79862 33.061H9.87342H9.94822H10.023C10.3222 33.2854 10.6962 33.3602 11.2198 33.435C11.3694 33.5098 11.519 33.5846 11.7434 33.6594C11.9678 33.7342 12.267 33.7342 12.4914 33.809C12.4914 33.8838 12.641 33.9586 12.8654 34.0334C13.0898 34.1082 13.4638 34.183 13.8377 34.183C13.9125 34.183 13.9873 34.183 13.9873 34.2578C13.8377 34.3326 13.6133 34.4074 13.389 34.4822C13.1646 34.557 12.9402 34.6318 12.7158 34.7066C12.4166 34.7814 12.1922 34.8562 12.0426 34.931C11.8182 35.0058 11.5938 35.0806 11.2946 35.1554C11.0702 35.2302 10.8458 35.3798 10.6214 35.4546C10.4718 35.5294 10.3222 35.5294 10.2474 35.6042C10.1726 35.6042 10.0978 35.6042 10.023 35.679H9.94822H9.87342C9.57422 35.8286 9.27503 35.8286 9.05063 35.9782C8.97583 35.9782 8.97583 36.053 8.90103 36.053H8.82624H8.75144C8.75144 36.053 8.75144 36.053 8.67664 36.053C8.67664 36.053 8.67664 36.053 8.67664 36.1278C8.60184 36.2026 8.60184 36.2774 8.52704 36.3522C8.45224 36.5018 8.37745 36.6514 8.45224 36.801C8.45224 36.9506 8.37745 37.1002 8.30265 37.2498L8.22785 37.3994V37.6237C8.15305 37.7733 8.15305 37.9229 8.07825 38.0725C8.00345 38.3717 7.85385 38.5961 7.77906 38.8953C7.70426 39.1945 7.62946 39.4937 7.55466 39.8677C7.40506 39.9425 7.33026 40.1669 7.25547 40.4661C7.18067 40.7653 7.10587 41.2141 7.03107 41.6629C6.95627 41.4385 6.88147 41.1393 6.73188 40.8401C6.65708 40.5409 6.58228 40.1669 6.43268 39.8677C6.20829 39.3441 6.05869 38.6709 5.90909 38.0725C5.83429 37.9229 5.83429 37.7733 5.75949 37.6237V37.3994V37.3246C5.75949 37.175 5.68469 37.0254 5.6099 36.8758C5.5351 36.7262 5.5351 36.5766 5.4603 36.427C5.4603 36.3522 5.4603 36.2774 5.3855 36.2026V36.1278C5.3855 36.1278 5.3855 36.1278 5.3107 36.1278C5.3107 36.1278 5.3107 36.1278 5.2359 36.1278C5.2359 36.1278 5.1611 36.1278 5.1611 36.053C5.08631 36.053 5.08631 35.9782 5.01151 35.9782C4.71231 35.9034 4.48792 35.6042 4.18872 35.679H4.11392H4.03913C3.96433 35.679 3.88953 35.679 3.81473 35.679C3.66513 35.679 3.51553 35.6042 3.36594 35.6042C2.99194 35.4546 2.69275 35.305 2.61795 35.1554C2.31876 35.0806 2.09436 35.0058 1.94476 34.931C1.72037 34.8562 1.57077 34.7814 1.19678 34.7066C1.19678 34.6318 1.04718 34.557 0.822785 34.4822C0.598389 34.4074 0.224396 34.3326 0 34.3326C0 34.3326 0.0747986 34.3326 0.149597 34.2578C0.448792 34.183 0.747986 34.1082 0.972382 34.0334C1.19678 33.9586 1.42117 33.8838 1.49597 33.809C1.57077 33.7342 1.86997 33.6594 2.09436 33.5846C2.31876 33.5098 2.61795 33.5098 2.76755 33.435C2.91715 33.3602 3.14154 33.2854 3.36594 33.2854C3.59033 33.2854 3.81473 33.2106 3.96433 33.1358C4.03913 33.1358 4.03912 33.1358 4.11392 33.1358H4.18872C4.26352 33.1358 4.26352 33.1358 4.33832 33.061C4.41312 33.061 4.56272 32.9862 4.63751 32.9862C4.71231 32.8366 4.78711 32.7618 4.93671 32.7618C5.01151 32.7618 5.08631 32.7618 5.08631 32.7618H5.1611C5.1611 32.7618 5.1611 32.7618 5.2359 32.7618C5.3107 32.7618 5.3107 32.687 5.3107 32.687C5.3107 32.687 5.3107 32.6122 5.3855 32.687C5.3107 32.6122 5.3107 32.6122 5.3107 32.6122C5.3107 32.5374 5.3107 32.5374 5.3855 32.4626C5.4603 32.3878 5.5351 32.313 5.6099 32.2382C5.75949 32.0886 5.6099 31.8643 5.75949 31.7147C5.68469 31.4903 5.90909 31.4155 5.90909 31.2659C6.05869 31.1163 5.98389 30.9667 6.05869 30.8171C6.05869 30.6675 6.13349 30.5179 6.20828 30.4431C6.28308 30.2935 6.28308 30.2187 6.35788 30.1439C6.80667 29.4707 6.95627 29.1715 7.03107 29.1715Z" fill="#121212"/>
</g>
<defs>
<clipPath id="clip0_2288_136">
<rect width="65" height="62.6064" fill="white"/>
</clipPath>
</defs>
</svg>
