<svg width="65" height="55" viewBox="0 0 65 55" fill="none" xmlns="http://www.w3.org/2000/svg">
<g clip-path="url(#clip0_2288_199)">
<path d="M58.2339 22.0468C58.2339 22.0468 57.6257 21.8188 56.5614 21.2106C55.4971 20.6784 53.9006 19.7661 51.924 18.7018C51.2398 18.3217 50.5556 17.9416 49.7193 17.4854C49.3392 17.3334 49.0351 17.1053 48.655 16.8772C48.731 16.7252 48.8831 16.5731 49.0351 16.4211C49.4152 16.8012 49.7193 17.1813 50.0994 17.5615C50.1754 17.6375 50.2515 17.7135 50.3275 17.7895L50.4795 17.9416L50.6316 18.0936C50.8597 18.3217 51.0877 18.5498 51.3158 18.7778C51.5439 19.0059 51.848 19.31 52.076 19.5381C52.3041 19.8422 52.6082 20.0702 52.7602 20.2983C52.6082 20.2223 52.3801 20.2223 52.1521 20.1462C51.3158 19.9182 50.5556 19.7661 49.7953 19.6141C49.5673 19.5381 49.4152 19.5381 49.1871 19.462C49.0351 19.462 48.883 19.386 48.731 19.386C48.4269 19.31 48.1228 19.234 47.8187 19.234C47.7427 19.234 47.6667 19.234 47.5907 19.1579H47.4386C46.9825 19.6141 46.0702 20.3743 44.7778 21.6667C44.3216 22.1989 43.7895 22.655 43.4094 23.0351C43.4854 22.655 43.6374 22.2749 43.7135 21.8948C43.7895 21.5147 43.9415 21.1346 44.0176 20.7544C44.0936 20.3743 44.1696 20.0702 44.2456 19.7661L44.3216 19.5381V19.386V19.31V19.234C44.3216 19.0819 44.3216 19.0059 44.3216 18.8538C44.3977 18.6258 44.3977 18.3977 44.4737 18.0936C44.4737 17.9416 44.5497 17.8655 44.5497 17.7135V17.5615L44.4737 17.4854L44.2456 17.2574C44.0936 17.1053 43.9415 16.8772 43.7895 16.7252C43.3333 16.2691 42.9532 15.8129 42.4971 15.2808C42.0409 14.6726 41.5848 14.2164 41.0526 13.6082C41.8129 13.7603 42.4971 13.9123 43.2573 14.0644C43.9415 14.2164 44.5497 14.2924 45.2339 14.4445C45.6901 14.5965 46.0702 14.7486 46.5263 14.8246C46.4503 15.0527 46.3743 15.2807 46.2983 15.5088C45.31 14.9006 44.2456 14.3685 43.1813 13.8363C41.8889 12.772 40.3684 11.9357 38.7719 11.3275C37.2515 10.4913 35.807 9.50297 34.1345 8.66671C33.7544 8.43864 33.3743 8.2866 32.9942 8.05853C32.8421 7.9825 32.614 7.83046 32.462 7.75443L32.31 7.67841H32.2339H32.1579L32.0819 7.75443L31.9298 7.90648C31.7018 8.05853 31.4737 8.13455 31.3216 8.2866C30.8655 8.51467 30.4854 8.81876 30.0292 9.04683C28.5088 10.1112 26.8363 11.0995 25.0877 11.9357C23.4912 13.0761 21.7427 13.9884 19.9181 14.9006C18.0936 15.8129 16.4971 17.1053 14.5965 18.0176C12.7719 19.0819 11.0234 20.1462 9.12282 21.2106C8.36258 21.5907 7.67837 21.9708 6.91814 22.3509V22.4269V22.503V22.9591C6.91814 23.2632 6.91814 23.5673 6.91814 23.8714C6.91814 24.4796 6.99416 25.0878 6.99416 25.696C6.99416 26.7603 7.07019 27.9006 7.07019 28.965C7.07019 29.2691 7.07019 29.4971 7.07019 29.8012V30.0293V30.1053V30.1813V30.2574C7.14621 30.1813 7.14621 30.1053 7.14621 30.1053C7.14621 30.1053 7.14621 30.1053 7.22223 30.0293L7.29826 29.9533L7.37428 29.8772L7.4503 29.8012L8.13451 29.117C9.04679 28.2047 10.0351 27.2924 10.9474 26.4562C10.7193 27.3685 10.4912 28.3568 10.2632 29.2691C10.1871 29.7252 10.0351 30.1813 9.95907 30.6375L9.80703 31.2457L9.731 31.6258C9.65498 31.8538 9.65498 32.0819 9.57896 32.386L9.50293 32.6901V32.7661L9.57896 32.8422L9.95907 33.2223L10.3392 33.6024L10.8714 34.1346C11.7836 35.1229 12.6199 36.0351 13.6082 37.0234C13.076 36.8714 12.4678 36.7954 11.9357 36.6433C11.4035 36.4913 10.9474 36.4153 10.4152 36.2632C9.95907 36.1872 9.50293 36.0351 9.04679 35.9591C8.7427 35.8831 8.51463 35.8071 8.21054 35.8071L7.83042 35.731L7.60235 35.9591L7.07019 36.4913C7.07019 36.7193 7.07019 36.9474 7.07019 37.2515C7.07019 37.6316 7.07019 37.9357 7.07019 38.3158C6.99416 40.6726 6.91814 42.9533 7.07019 45.31C7.22223 47.5907 6.99416 49.8714 7.07019 52.1521C7.07019 52.4562 6.99416 52.7603 6.99416 53.0644V53.2164V53.2924V53.3685C6.99416 53.3685 6.99416 53.4445 6.99416 53.5205C7.60235 53.5205 8.28656 53.5205 8.89475 53.4445C9.731 53.4445 10.4912 53.3685 11.3275 53.4445C13.5322 53.4445 15.7369 53.5205 17.9415 53.4445C20.1462 53.4445 22.2749 53.3685 24.4035 53.4445C26.5322 53.1404 28.6608 53.5205 30.7135 53.4445C32.7661 53.5965 34.8187 53.4445 36.8714 53.4445C38.848 53.3685 40.9006 53.5965 42.8012 53.4445C44.7778 53.4445 46.6784 53.3685 48.579 53.4445C50.4795 53.2924 52.3041 53.5965 54.1287 53.4445C54.8129 53.4445 55.5731 53.4445 56.2573 53.4445C56.6374 53.4445 56.9415 53.4445 57.3217 53.4445C57.4737 53.4445 57.5497 53.4445 57.7018 53.4445H57.8538C57.8538 53.3685 57.8538 53.2924 57.8538 53.2924V53.2164V53.0644V52.7603C58.0819 51.0117 57.9298 49.3392 57.8538 47.6667C57.8538 47.5147 57.8538 47.4386 57.8538 47.2866C58.0059 47.4386 58.0819 47.5907 58.2339 47.7427L58.0819 47.6667H58.0059L57.7778 47.8188L57.6257 47.8948C57.4737 48.0468 57.3977 48.1229 57.2456 48.2749C57.0936 48.4269 57.0176 48.503 56.8655 48.655C56.7135 48.8071 56.6374 48.8831 56.4854 49.0351C55.6491 49.7954 54.8129 50.5556 54.1287 51.0878C53.9766 51.2398 53.7485 51.3919 53.5965 51.5439C53.9006 50.4036 54.1287 49.3392 54.4328 48.1989C54.5088 47.9708 54.5088 47.7427 54.5848 47.5147C54.6608 47.3626 54.6608 47.2106 54.6608 46.9825C54.6608 46.8305 54.7369 46.6784 54.7369 46.4503C54.7369 46.2983 54.8129 46.0702 54.8129 46.0702V45.9942C54.2047 45.31 53.2924 43.9416 51.3918 42.2691C51.3158 42.193 51.1637 42.041 51.0877 41.965C51.5439 42.041 52.076 42.193 52.6082 42.3451C53.0643 42.4971 53.5965 42.5732 54.0526 42.7252C54.2807 42.8012 54.5088 42.8772 54.7369 42.8772L54.9649 42.9533L55.193 43.0293C55.4971 43.1053 55.8012 43.1813 56.1053 43.1813H56.2573C56.3333 43.1813 56.3333 43.1813 56.4094 43.1813L56.4854 43.1053L56.5614 43.0293C56.7135 42.8772 56.7895 42.8012 56.9415 42.7252C57.0936 42.6492 57.1696 42.4971 57.3217 42.4211C57.4737 42.2691 57.4737 42.2691 57.5497 42.193V42.041C57.5497 42.041 57.5497 42.041 57.5497 41.965V41.8889V41.7369C57.5497 41.5088 57.5497 41.3568 57.5497 41.1287C57.5497 39.9123 57.5497 38.772 57.5497 37.6316C57.6257 32.6901 57.6257 28.7369 57.7018 26.0761C57.7018 24.7076 57.7778 23.7193 57.7778 23.0351C58.1579 22.4269 58.1579 22.0468 58.2339 22.0468C58.31 22.0468 58.31 22.503 58.31 23.3392C58.31 24.1755 58.386 25.4679 58.386 27.0644C58.462 30.3334 58.538 35.1229 58.538 41.1287C58.538 41.3568 58.538 41.5088 58.538 41.7369C58.538 41.8129 58.538 41.965 58.538 42.041C58.538 42.193 58.538 42.3451 58.538 42.4971C58.2339 42.8012 58.0059 43.0293 57.7018 43.3334C57.5497 43.4854 57.4737 43.5615 57.3217 43.7135C57.2456 43.7895 57.1696 43.8655 57.0936 43.9416C57.0176 44.0176 56.8655 44.0936 56.7895 44.2457C56.6374 44.1696 56.4854 44.1696 56.3333 44.0936H56.2573H56.1813L56.0293 44.0176C55.7252 43.9416 55.4211 43.8655 55.117 43.7895L54.8889 43.7135H54.7369H54.6608C54.5848 43.7135 54.5088 43.7135 54.5088 43.7135C54.3567 43.7135 54.2807 43.7135 54.1287 43.6375C53.9766 43.6375 53.9006 43.5615 53.7485 43.4854V43.5615C53.9766 43.7135 54.1287 43.8655 54.2047 43.9416C54.2807 44.0176 54.3567 44.0936 54.4328 44.1696C54.6608 44.3977 54.8129 44.6258 55.041 44.8539C55.117 45.0059 55.269 45.0819 55.345 45.234L55.4211 45.31L55.5731 45.462L55.8772 45.7661C55.8772 45.9182 55.8012 45.9942 55.8012 46.1462C55.7252 46.3743 55.7252 46.5264 55.6491 46.7544C55.5731 46.9065 55.5731 47.0585 55.4971 47.2866C55.4211 47.4386 55.4211 47.5907 55.345 47.8188C55.345 47.8948 55.269 48.0468 55.269 48.1229C55.193 48.4269 55.117 48.731 55.117 48.8831C55.193 48.8071 55.193 48.8071 55.269 48.731C55.345 48.579 55.4971 48.503 55.4971 48.4269C55.5731 48.3509 55.6491 48.2749 55.7252 48.1989C55.9532 47.9708 56.1813 47.8188 56.4094 47.5907C56.5614 47.5147 56.6374 47.3626 56.7895 47.2866C56.9415 47.1346 57.1696 46.9065 57.3217 46.7544C57.4737 46.7544 57.6257 46.8305 57.7778 46.8305L58.0059 46.9065H58.1579L58.538 46.9825V47.3626C58.538 47.5147 58.538 47.5907 58.538 47.7427C58.386 49.4153 58.462 51.0878 58.538 52.8363V53.1404V53.2164V53.2924V53.5205C58.538 53.8246 58.538 54.1287 58.538 54.4328C58.2339 54.4328 58.0059 54.4328 57.7018 54.4328H57.3217H57.0936C56.7135 54.4328 56.4094 54.4328 56.0293 54.4328C55.345 54.4328 54.6608 54.5088 53.9006 54.5088C52.076 54.2808 50.2515 54.4328 48.3509 54.5088C46.4503 54.5848 44.5497 54.5088 42.5731 54.5088C40.5965 54.5088 38.6199 54.5848 36.6433 54.5088C34.6667 54.5848 32.614 54.6609 30.4854 54.5088C28.4328 54.5848 26.3041 54.5088 24.1754 54.5088C22.0468 54.5848 19.9181 54.5088 17.7135 54.5088C15.5088 54.5848 13.3041 54.2808 11.0994 54.5088C10.2632 54.5088 9.50293 54.5088 8.66668 54.5088C7.60235 54.5088 6.61405 54.5088 5.54972 54.5088C5.54972 53.9767 5.54972 53.4445 5.54972 52.9123C5.54972 52.6082 5.54972 52.3041 5.54972 52C5.54972 49.7193 5.62574 47.4386 5.54972 45.1579C5.77779 42.8772 5.62574 40.5205 5.54972 38.1638C5.54972 37.7837 5.54972 37.4796 5.54972 37.0995V36.5673V35.731C6.08188 35.1989 6.61404 34.7427 7.14621 34.2106C7.52633 34.2866 7.90644 34.3626 8.36258 34.5147C8.66668 34.5907 8.89475 34.6667 9.19884 34.7427L9.42691 34.8188H9.50293H9.57896H9.65498C9.57896 34.7427 9.50293 34.6667 9.50293 34.6667C8.97077 34.1346 8.43861 33.5264 7.90644 32.9942C8.05849 32.386 8.21054 31.7778 8.36258 31.1696L8.43861 30.7895V30.7135V30.6375C8.43861 30.5615 8.43861 30.5615 8.51463 30.4094C8.43861 30.4094 8.43861 30.4854 8.36258 30.5615V30.7895L8.21054 30.9416L8.13451 31.0176L8.05849 31.0936C7.67837 31.3217 7.29826 31.6258 6.91814 31.8539L6.38597 32.1579L6.30995 32.234C6.30995 32.234 6.23393 32.31 6.23393 32.234L6.08188 32.1579H6.00586V32.0819L5.92983 31.9299C5.85381 31.6258 5.70176 31.1696 5.62574 30.7895C5.62574 30.5615 5.54972 30.4094 5.54972 30.1813C5.54972 29.9533 5.54972 29.8772 5.54972 29.7252C5.54972 29.4211 5.54972 29.193 5.54972 28.8889C5.54972 27.8246 5.62574 26.6843 5.54972 25.6199C5.54972 25.0117 5.54972 24.4036 5.47369 23.7954C5.47369 23.4913 5.47369 23.1872 5.47369 22.8831C5.47369 22.4269 5.47369 21.9708 5.47369 21.5907C5.77779 21.4386 6.08188 21.2106 6.462 21.0585C6.69007 20.9825 6.84212 20.8305 7.07019 20.7544C7.4503 20.5264 7.90644 20.2983 8.28656 20.0702C10.1111 19.0059 12.0117 18.0936 13.7602 16.9533C15.5088 15.8889 17.1813 14.6726 19.0819 13.9123C20.7544 12.848 22.579 12.0117 24.2515 10.9474C26.076 10.1872 27.5965 9.04683 29.269 8.05853C29.7252 7.83046 30.1813 7.60239 30.5614 7.37432C30.7895 7.22227 31.0176 7.14625 31.2456 6.9942L31.6257 6.76613C31.7778 6.69011 32.0059 6.53806 32.1579 6.46204C32.462 6.61408 32.6901 6.76613 32.9942 6.91818C33.1462 6.9942 33.3743 7.14625 33.5263 7.22227C33.9064 7.45034 34.2866 7.60239 34.6667 7.83046C36.2632 8.66671 37.7076 9.65502 39.2281 10.5673C40.8246 11.3275 42.117 12.4679 43.6374 13.1521C44.6257 13.7603 45.6901 14.3685 46.6784 14.9006L46.2983 15.8129C45.8421 15.7369 45.386 15.5848 45.0059 15.5088C44.8538 15.5088 44.7778 15.5088 44.6257 15.5088C44.4737 15.5088 44.3216 15.5088 44.3216 15.5088C44.2456 15.5088 44.2456 15.5088 44.1696 15.5088C44.0936 15.5088 43.9415 15.4328 43.7135 15.3568C43.7135 15.4328 43.7135 15.5088 43.8655 15.6609C43.9415 15.7369 44.0176 15.8129 44.0176 15.8889L44.0936 15.965L44.2456 16.117L44.4737 16.3451C44.6257 16.4971 44.7778 16.6492 45.0059 16.8772L45.1579 17.0293L45.31 17.1813C45.462 17.3334 45.614 17.4854 45.6901 17.6375C45.614 17.8655 45.614 18.0936 45.538 18.2457L45.614 18.3217L45.538 18.4737C45.462 18.7018 45.386 18.9299 45.31 19.1579C45.31 19.31 45.31 19.386 45.31 19.5381V19.6141V19.6901C45.31 19.7661 45.31 19.8422 45.31 19.9182C45.31 20.0702 45.2339 20.2223 45.0819 20.5264C45.1579 20.5264 45.2339 20.4503 45.386 20.3743C45.462 20.2983 45.538 20.2223 45.6901 20.1462C45.8421 19.9942 45.9942 19.8422 46.0702 19.7661C46.2983 19.6141 46.4503 19.386 46.6023 19.234C46.6784 19.1579 46.8304 19.0819 46.9064 18.9299C47.0585 18.7778 47.2105 18.6258 47.3626 18.5498C47.5146 18.5498 47.6667 18.6258 47.8187 18.6258H47.8947H47.9708L48.1228 18.7018C48.4269 18.7018 48.731 18.7778 49.0351 18.8538C49.1871 18.8538 49.3392 18.9299 49.4912 18.9299H49.5673H49.6433H49.7193C49.8714 19.0059 50.0234 19.0059 50.1754 19.0819C50.3275 19.1579 50.4795 19.1579 50.6316 19.1579C50.7076 19.1579 50.7836 19.234 50.8597 19.234C50.7836 19.0819 50.5556 18.8538 50.3275 18.6258C50.2515 18.5498 50.0994 18.3977 50.0234 18.3217C49.9474 18.2457 49.9474 18.2457 49.8714 18.1696C49.7953 18.0936 49.7193 18.0176 49.6433 17.9416C49.2632 17.5615 48.8831 17.1813 48.579 16.8012L48.9591 16.2691C49.3392 16.4971 49.6433 16.7252 50.0234 16.9533C50.7836 17.4094 51.4678 17.7895 52.1521 18.2457C54.1287 19.462 55.6491 20.3743 56.7135 20.9825C57.7018 21.6667 58.2339 21.9708 58.2339 22.0468Z" fill="#2BBD81"/>
<path d="M14.4445 26.6842C14.5205 26.6842 14.5965 27.6725 14.6725 29.5731C14.6725 29.8772 14.6725 30.1812 14.6725 30.5614C14.6725 30.9415 14.7485 31.3216 14.6725 31.7017C14.5965 32.0818 14.9006 32.538 14.6725 32.9941C14.5965 33.4503 14.6725 33.9064 14.6725 34.3625C14.6725 34.8187 14.5965 35.3508 14.6725 35.883C14.9006 36.4152 14.4444 36.9473 14.6725 37.4795C14.7485 38.0117 14.7485 38.6198 14.6725 39.228C14.5205 39.8362 14.6725 40.4444 14.6725 41.0526C14.4444 41.6608 14.5965 42.345 14.6725 43.0292C14.4444 43.7134 14.4444 44.3976 14.6725 45.0818C14.6725 45.766 14.5965 46.5263 14.6725 47.2105C14.6725 47.9707 14.7485 48.6549 14.6725 49.4152C14.8246 50.1754 14.8246 50.9356 14.6725 51.6959C14.7485 52.076 14.8246 52.3801 14.8246 52.7602C14.8246 52.8362 14.8246 52.9122 14.8246 53.0643V53.1403C14.8246 53.1403 14.8246 53.2163 14.7485 53.2924C14.7485 53.2924 14.7485 53.2924 14.8246 53.2924C14.8246 53.2924 14.8246 53.2924 14.9006 53.2924H14.9766C15.2047 53.2924 15.3567 53.2924 15.5848 53.2163C15.9649 53.2163 16.4211 53.1403 16.8012 53.2163C17.6374 53.2163 18.4737 53.1403 19.3099 53.2163C20.1462 53.2924 21.0585 53.3684 21.8947 53.2163C22.807 53.1403 23.6433 53.1403 24.5556 53.2163C25.4678 52.9883 26.3801 53.1403 27.2924 53.2163C28.2047 53.2163 29.117 53.2924 30.0292 53.2163C30.4854 53.2163 30.9415 53.2163 31.3977 53.2163H31.7778H32.0819H32.1579C32.1579 53.2163 32.1579 53.1403 32.2339 53.1403V53.0643V52.9883V52.8362V52.4561C32.2339 52 32.2339 51.5438 32.1579 51.0877C32.0059 50.1754 32.2339 49.2631 32.1579 48.3508C32.3099 47.4386 32.0819 46.5263 32.1579 45.614C32.1579 44.7017 32.2339 43.8655 32.1579 42.9532C32.1579 42.0409 32.0819 41.2046 32.1579 40.3684C31.8538 39.5321 32.2339 38.6959 32.1579 37.8596C32.3099 37.0234 32.1579 36.1871 32.1579 35.4269C32.0819 34.5906 32.3099 33.8304 32.1579 33.0701C32.1579 32.3099 32.0819 31.5497 32.1579 30.7894C32.0059 30.0292 32.3099 29.269 32.1579 28.5848C32.1579 28.2807 32.1579 27.9766 32.1579 27.6725V27.5204V27.4444C32.1579 27.3684 32.1579 27.3684 32.1579 27.2924H32.0819C32.0819 27.2924 32.0819 27.2163 32.0059 27.2163C32.0059 27.2163 31.9298 27.2163 31.8538 27.2163C31.7018 27.2163 31.4737 27.2163 31.3216 27.2163C30.9415 27.2163 30.6374 27.2924 30.3333 27.2924C29.6491 27.2924 29.0409 27.4444 28.3567 27.2924C27.7485 27.2924 27.1404 27.1403 26.5322 27.2924C25.924 27.2924 25.3158 26.9883 24.7836 27.2924C24.2515 27.3684 23.6433 27.0643 23.1871 27.2924C22.655 27.4444 22.1228 27.2924 21.6667 27.2924C21.2105 27.2924 20.6784 27.2924 20.2983 27.2924C18.3216 27.2163 16.7252 27.2163 15.6608 27.1403C15.0526 26.7602 14.4445 26.7602 14.4445 26.6842C14.4445 26.6081 15.1287 26.5321 16.4971 26.4561C17.7895 26.3801 19.7661 26.304 22.1228 26.304C22.579 26.304 23.1111 26.152 23.6433 26.304C24.1754 26.304 24.7076 26.152 25.2398 26.304C25.7719 26.076 26.3801 26.228 26.9883 26.304C27.5965 26.304 28.2047 26.3801 28.8129 26.304C29.4211 26.152 30.1053 26.3801 30.7895 26.304C31.0936 26.3801 31.4737 26.3801 31.7778 26.3801C31.9298 26.3801 32.1579 26.3801 32.3099 26.3801C32.614 26.3801 32.8421 26.304 33.1462 26.304C33.2983 26.304 33.4503 26.3041 33.6784 26.3801C33.6784 26.6081 33.6784 26.9122 33.6784 27.1403C33.6784 27.2924 33.6784 27.3684 33.6784 27.5204C33.6784 27.6725 33.6784 27.7485 33.6784 27.8245C33.6784 28.1286 33.7544 28.4327 33.7544 28.7368C33.5263 29.497 33.6784 30.1812 33.7544 30.9415C33.8304 31.7017 33.7544 32.4619 33.7544 33.2222C33.7544 33.9824 33.8304 34.8187 33.7544 35.5789C33.8304 36.4152 33.9064 37.1754 33.7544 38.0117C33.8304 38.8479 33.7544 39.6842 33.7544 40.5204C33.8304 41.3567 33.7544 42.269 33.7544 43.1052C33.8304 44.0175 33.5263 44.8538 33.7544 45.766C33.7544 46.6783 33.7544 47.5906 33.7544 48.5029C33.7544 49.4152 33.6784 50.3274 33.7544 51.2397C33.6784 51.6959 33.6023 52.152 33.6784 52.6081C33.6784 52.7602 33.6784 52.8362 33.6784 52.9883V53.1403V53.2163V53.2924V53.3684C33.6784 53.8245 33.7544 54.2807 33.7544 54.7368C33.2983 54.7368 32.8421 54.7368 32.462 54.7368H32.0819H31.7018C31.2456 54.7368 30.7895 54.7368 30.3333 54.7368C29.4211 54.7368 28.5088 54.7368 27.5965 54.7368C26.6842 54.8128 25.7719 54.6608 24.8597 54.7368C23.9474 54.8128 23.1111 54.6608 22.1988 54.7368C21.2866 54.8128 20.4503 54.8128 19.614 54.7368C18.7778 54.7368 17.9415 54.5087 17.1053 54.7368C16.7252 54.7368 16.269 54.8128 15.8889 54.8888C15.6608 54.8888 15.5088 54.8888 15.2807 54.8888L15.2047 54.7368H15.0526C14.9766 54.7368 14.8246 54.7368 14.7485 54.7368C14.5965 54.7368 14.3684 54.6608 14.2164 54.6608C14.0643 54.6608 13.9123 54.6608 13.8363 54.6608C13.8363 54.3567 13.8363 53.9766 13.8363 53.6725V53.4444V53.2924V53.2163V52.9122C13.8363 52.5321 13.8363 52.152 13.8363 51.8479C14.0643 51.0877 13.8363 50.3274 13.8363 49.5672C13.9123 48.807 13.9123 48.0467 13.8363 47.3625C13.7602 46.6023 13.9123 45.9181 13.8363 45.2339C13.6842 44.5497 13.9883 43.8655 13.8363 43.1812C13.8363 42.497 13.8363 41.8888 13.8363 41.2046C13.5322 40.5965 13.8363 39.9883 13.8363 39.3801C13.9123 38.7719 13.6082 38.1637 13.8363 37.6315C13.6082 37.0994 13.8363 36.4912 13.8363 36.035C13.9123 35.5029 13.7602 34.9707 13.8363 34.5146C13.6842 34.0584 13.9123 33.6023 13.8363 33.1462C13.9123 32.69 13.8363 32.3099 13.8363 31.8538C13.8363 31.4736 13.8363 31.0935 13.8363 30.7134C13.8363 30.3333 13.8363 30.0292 13.8363 29.7251C14.2924 27.6725 14.3684 26.6842 14.4445 26.6842Z" fill="#2BBD81"/>
<path d="M39.9123 26.6842C39.9883 26.6842 40.0644 27.2924 40.1404 28.3567C40.1404 28.5087 40.1404 28.7368 40.1404 28.9649C40.1404 29.1929 40.2164 29.421 40.1404 29.6491C40.0644 29.8772 40.3685 30.1052 40.1404 30.4093C40.0644 30.6374 40.1404 30.9415 40.1404 31.2456C40.1404 31.5497 40.0644 31.8538 40.1404 32.1579C40.3685 32.4619 39.9123 32.766 40.1404 33.0701C40.2164 33.3742 40.2164 33.7543 40.1404 34.0584C39.9883 34.4386 40.1404 34.7426 40.1404 35.1228C39.9123 35.5029 40.0644 35.883 40.1404 36.2631C39.9123 36.6432 39.9123 37.0233 40.1404 37.4795C40.1404 37.8596 40.0644 38.3157 40.1404 38.6959C40.1404 38.7719 40.1404 38.8479 40.1404 38.9239V39C40.1404 39.076 40.1404 39.076 40.1404 39.152H40.2164C40.2924 39.076 40.2924 39.076 40.2924 39.076C40.3685 39.076 40.3685 39.076 40.4445 39.076C40.6725 39.076 40.9006 39.076 41.1287 39.152C41.5848 39 42.041 39.076 42.4971 39.152C42.9532 39.228 43.4094 39 43.9416 39.152C44.3977 39.152 44.9299 39.076 45.386 39.152C45.9182 39.228 46.3743 39.304 46.9065 39.152C47.4386 39.076 47.8948 39.076 48.4269 39.152C48.9591 38.9239 49.4913 39.076 50.0234 39.152C50.5556 39.152 51.0877 39.228 51.6199 39.152C51.924 39.152 52.1521 39.152 52.4562 39.152H52.5322C52.5322 39.152 52.5322 39.152 52.6082 39.152C52.6082 39.152 52.6082 39.152 52.6842 39.076V39C52.6842 38.6959 52.6842 38.4678 52.6082 38.1637C52.4562 37.6315 52.6842 37.0994 52.6082 36.5672C52.7603 36.035 52.5322 35.5029 52.6082 34.9707C52.6082 34.4386 52.6842 33.9064 52.6082 33.4502C52.6082 32.9181 52.5322 32.4619 52.6082 31.9298C52.3041 31.3976 52.6842 30.9415 52.6082 30.4853C52.7603 30.0292 52.6082 29.497 52.6082 29.0409C52.5322 28.5848 52.7603 28.1286 52.6082 27.6725V27.5964C52.6082 27.5964 52.6082 27.5964 52.6082 27.5204V27.4444C52.5322 27.4444 52.5322 27.4444 52.5322 27.3684C52.5322 27.3684 52.5322 27.3684 52.4562 27.3684H52.3801C52.3041 27.3684 52.1521 27.3684 52.0761 27.3684C51.848 27.3684 51.6199 27.2924 51.4679 27.3684C51.0117 27.3684 50.6316 27.3684 50.2515 27.3684C49.8714 27.1403 49.4152 27.2924 49.0351 27.3684C48.655 27.3684 48.2749 27.5204 47.8948 27.3684C47.5147 27.3684 47.1345 27.2163 46.8304 27.3684C46.4503 27.3684 46.1462 27.0643 45.8421 27.3684C45.538 27.4444 45.2339 27.1403 44.9299 27.3684C44.6258 27.5204 44.3217 27.3684 44.0176 27.3684C43.7135 27.3684 43.4854 27.3684 43.1813 27.3684C41.2047 26.9122 39.9123 26.7602 39.9123 26.6842C39.9123 26.5321 41.5848 26.3801 44.3977 26.304C44.7018 26.304 45.0059 26.152 45.31 26.304C45.6141 26.304 45.9182 26.152 46.2223 26.304C46.5263 26.076 46.9065 26.228 47.2106 26.304C47.5907 26.304 47.8948 26.3801 48.2749 26.304C48.655 26.152 49.0351 26.3801 49.4152 26.304C49.7954 26.4561 50.1755 26.3801 50.6316 26.304C51.0117 26.4561 51.4679 26.304 51.848 26.304C52.076 26.3801 52.3041 26.3801 52.4562 26.3801C52.5322 26.3801 52.6842 26.3801 52.7603 26.304H52.8363C52.8363 26.304 52.8363 26.304 52.9123 26.304H52.9883H53.2924C53.5965 26.304 53.9766 26.304 54.2807 26.304C54.2807 26.5321 54.2807 26.7602 54.2807 26.9883C54.2807 27.1403 54.2807 27.2163 54.2807 27.3684V27.5204V27.5964C54.2807 27.5964 54.2807 27.5964 54.2807 27.6725C54.2807 28.1286 54.3568 28.5848 54.2807 29.0409C54.3568 29.497 54.4328 29.9532 54.2807 30.4853C54.3568 30.9415 54.2807 31.4736 54.2807 31.9298C54.3568 32.4619 54.2807 32.9181 54.2807 33.4502C54.3568 33.9824 54.0527 34.4386 54.2807 34.9707C54.2807 35.5029 54.2807 36.035 54.2807 36.5672C54.2807 37.0994 54.2047 37.6315 54.2807 38.1637C54.2047 38.4678 54.1287 38.6959 54.2047 39C54.2047 39.076 54.2047 39.228 54.2047 39.3041C54.2047 39.4561 54.2047 39.5321 54.2047 39.6842C54.2047 39.9883 54.2807 40.2163 54.2807 40.5204C54.0527 40.5204 53.7486 40.5204 53.5205 40.5204L53.2164 40.2924H52.9123C52.6082 40.2924 52.3801 40.2924 52.0761 40.2924C51.5439 40.2924 51.0117 40.2924 50.4796 40.2924C49.9474 40.3684 49.4152 40.2163 48.8831 40.2924C48.3509 40.3684 47.8187 40.2163 47.3626 40.2924C46.8304 40.3684 46.3743 40.3684 45.8421 40.2924C45.31 40.2924 44.8538 40.0643 44.3977 40.2924C43.9416 40.3684 43.4094 40.5964 42.9532 40.2924C42.4971 40.3684 42.041 40.1403 41.5848 40.2924C41.3568 40.2163 41.1287 40.2163 40.9006 40.2163C40.8246 40.2163 40.8246 40.2163 40.7486 40.2163H40.6725H40.5965H40.4445C40.2164 40.2163 40.0644 40.2163 39.8363 40.2163C39.6842 40.2163 39.5322 40.2163 39.3801 40.2163C39.3801 39.9122 39.3801 39.6081 39.3801 39.3041C39.3801 39.152 39.3801 39 39.3801 38.9239C39.3801 38.8479 39.3801 38.7719 39.3801 38.6959C39.3041 38.2397 39.4562 37.8596 39.3801 37.4795C39.2281 37.0994 39.5322 36.6432 39.3801 36.2631C39.3801 35.883 39.3801 35.5029 39.3801 35.1228C39.0761 34.7426 39.3801 34.3625 39.3801 34.0584C39.4562 33.6783 39.1521 33.3742 39.3801 33.0701C39.1521 32.766 39.3801 32.4619 39.3801 32.1579C39.4562 31.8538 39.3041 31.5497 39.3801 31.2456C39.2281 30.9415 39.4562 30.7134 39.3801 30.4093C39.4562 30.1812 39.3801 29.8772 39.3801 29.6491C39.3801 29.421 39.3801 29.1929 39.3801 28.9649C39.3801 28.7368 39.3801 28.5848 39.3801 28.3567C39.7603 27.2924 39.8363 26.6842 39.9123 26.6842Z" fill="#2BBD81"/>
<path d="M4.48538 23.1111C4.48538 23.1111 4.8655 22.807 5.62574 22.3509C6.38597 21.8947 7.52632 21.1345 9.04679 20.2983C9.57895 19.9942 10.1111 19.6901 10.6433 19.31C11.1754 18.9298 11.7836 18.5497 12.4678 18.2456C13.1521 17.9415 13.6842 17.3333 14.5205 17.0292C15.2807 16.6491 15.9649 16.193 16.7252 15.7369C17.4854 15.2807 18.3216 14.9006 19.1579 14.2924C19.9181 13.6082 20.9825 13.5322 21.7427 12.7719C22.655 12.1638 23.5673 11.6316 24.5556 11.0994C25.6199 10.6433 26.5322 9.95907 27.5205 9.35089C28.6608 8.89475 29.6491 8.21054 30.6374 7.52633C30.8655 7.4503 31.1696 7.37428 31.3977 7.22223L31.5497 7.14621L31.6257 7.07019H31.7018H31.7778C31.9298 6.99416 32.0819 6.91814 32.3099 6.84212L32.614 7.07019L32.7661 7.14621L32.9181 7.22223C33.0702 7.29826 33.2222 7.37428 33.4503 7.4503C33.7544 7.60235 34.1345 7.7544 34.5146 7.90644C35.655 8.51463 36.7193 9.27486 38.0117 9.88305C39.2281 10.5673 40.4445 11.1754 41.6608 11.9357C42.9532 12.4678 44.2456 13.2281 45.386 14.0643C45.6901 14.2164 45.9181 14.2924 46.2222 14.4445H46.3743L46.4503 14.5205L46.5263 14.4445C46.6784 14.2924 46.8304 14.1404 47.0585 13.9883L47.2866 13.7602L47.4386 13.6842L47.6667 13.4562C47.9708 13.2281 48.2749 12.924 48.579 12.6959C49.2632 12.0877 49.9474 11.4795 50.7076 10.7193C50.5556 11.4795 50.4035 12.3158 50.1754 13.2281C50.0994 13.6842 49.9474 14.1404 49.8714 14.5965L49.7953 14.9006V14.9766V15.0526V15.1287C49.7953 15.2807 49.7193 15.3567 49.7193 15.5088C49.6433 15.7369 49.6433 15.9649 49.5673 16.117V16.269V16.345L49.6433 16.4211L49.7193 16.4971L49.8714 16.5731C50.0994 16.7252 50.4035 16.8772 50.6316 17.0292C51.1637 17.3333 51.6199 17.5614 52.1521 17.8655C53.5205 18.7018 54.8129 19.614 56.3333 20.2983C57.0176 20.6784 57.7778 21.0585 58.462 21.5146C58.8421 21.7427 59.1462 21.8947 59.5263 22.1228C59.6784 22.1988 59.9064 22.3509 60.0585 22.4269C60.2105 22.5029 60.3626 22.655 60.5906 22.731C61.1988 22.9591 61.883 22.8831 62.4152 22.655C63.0234 22.4269 63.4795 21.9708 63.7076 21.2866C63.8597 20.6784 63.7836 19.9181 63.3275 19.386C63.2515 19.2339 63.0994 19.1579 63.0234 19.0059C62.9474 18.9298 62.8714 18.9298 62.7953 18.8538L62.7193 18.7778L62.5673 18.7018C62.1871 18.4737 61.807 18.2456 61.4269 18.0936C59.9825 17.1813 58.386 16.4211 56.8655 15.5088C55.345 14.5965 53.9006 13.6842 52.3041 12.924C50.7076 12.1638 49.3392 11.1754 47.8187 10.3392C46.4503 9.35089 44.8538 8.66668 43.4094 7.83042C41.9649 6.99416 40.5965 6.08188 39.1521 5.32165C37.7076 4.56141 36.3392 3.72516 34.9708 2.8889C34.5906 2.73685 34.2866 2.58481 33.9064 2.43276C33.7544 2.35674 33.6023 2.28071 33.4503 2.12866L33.2222 1.97662H33.1462L33.0702 1.90059C32.9181 1.82457 32.7661 1.82457 32.6901 1.74855C32.614 1.74855 32.538 1.74855 32.462 1.67252H32.386H32.2339C32.1579 1.67252 32.1579 1.67252 32.1579 1.67252H32.0819C32.0059 1.67252 31.9298 1.67252 31.8538 1.67252C31.7018 1.67252 31.5497 1.74855 31.3977 1.82457H31.4737C31.4737 1.82457 31.4737 1.82457 31.3977 1.82457H31.3216H31.2456C31.1696 1.82457 31.1696 1.82457 31.1696 1.90059L31.0175 1.97662L30.7895 2.12866C30.5614 2.12866 30.4094 2.28071 30.2573 2.35674C29.9532 2.50878 29.5731 2.73685 29.269 2.96492C28.9649 3.19299 28.5848 3.34504 28.2807 3.57311C28.1287 3.64913 27.9006 3.72516 27.7485 3.80118L27.5205 3.95323H27.4444V4.02925L27.5205 4.10527L27.7485 4.56141C27.9766 4.78948 28.1287 5.01755 28.3567 5.24562C28.5088 5.39767 28.6608 5.62574 28.8129 5.77779C28.9649 6.00586 29.193 6.1579 29.345 6.38597C29.7252 6.76609 30.1053 7.14621 30.4854 7.60235C30.7895 7.90644 31.0176 8.21054 31.3216 8.51463C30.2573 8.28656 29.269 8.05849 28.2047 7.83042C27.9766 7.7544 27.6725 7.67837 27.4444 7.67837L27.0643 7.60235L26.8363 7.52633C26.5322 7.4503 26.2281 7.37428 26 7.29826H25.7719H25.6199H25.5439L25.4678 7.37428L25.1637 7.67837C24.9357 7.83042 24.7076 8.05849 24.4795 8.21054L24.3275 8.36258L24.0234 8.59065C23.8714 8.7427 23.6433 8.89475 23.4912 9.04679C23.1111 9.35089 22.807 9.65498 22.4269 10.0351C22.0468 10.4152 21.5907 10.7953 21.2105 11.1754C21.4386 10.2632 21.6667 9.35089 21.8187 8.36258C21.8947 7.98247 21.9708 7.60235 22.1228 7.22223L22.1988 7.07019C22.2749 6.99416 22.2749 6.91814 22.3509 6.84212C22.1988 6.91814 21.9708 7.07019 21.7427 7.14621L21.5907 7.22223C21.5146 7.29826 21.3626 7.37428 21.2866 7.4503C21.0585 7.60235 20.8304 7.7544 20.6023 7.83042C19.538 8.43861 18.5497 9.19884 17.4094 9.65498C16.345 10.2632 15.3567 10.7193 14.4445 11.3275C13.4561 11.9357 12.3918 12.1638 11.6316 12.924C10.7193 13.5322 9.731 13.7602 8.97077 14.4445C8.21053 15.1287 7.29825 15.3567 6.53802 15.8129C5.77778 16.269 5.01755 16.6491 4.25731 17.1053C3.42106 17.5614 2.66082 18.0176 1.97661 18.3977L1.82457 18.4737C1.74854 18.4737 1.74854 18.5497 1.67252 18.5497C1.5965 18.6257 1.52047 18.6257 1.44445 18.7018C1.2924 18.7778 1.14036 18.9298 1.06433 19.0819C0.836262 19.386 0.684215 19.6901 0.608191 19.9942C0.380121 20.6023 0.456145 21.2866 0.684215 21.8187C0.912285 22.3509 1.2924 22.731 1.67252 23.0351C2.05264 23.2632 2.50878 23.4152 2.81287 23.4912C3.19299 23.5673 3.49708 23.4912 3.72515 23.4912C3.95322 23.4152 4.18129 23.4152 4.25731 23.3392C4.40936 23.1111 4.48538 23.1111 4.48538 23.1111C4.48538 23.1111 4.40936 23.1871 4.25731 23.2632C4.10527 23.3392 3.8772 23.4912 3.5731 23.5673C3.26901 23.6433 2.81287 23.7193 2.35673 23.5673C1.90059 23.4912 1.2924 23.2632 0.836262 22.731C0.380121 22.2749 4.11272e-06 21.5907 -0.0760193 20.7544C-0.0760193 20.3743 -0.0760193 19.9181 0.0760275 19.462C0.228074 19.0059 0.456145 18.6257 0.836262 18.3216C1.14036 18.2456 1.2924 18.0936 1.52047 17.9415C1.74854 17.7895 1.90059 17.7135 2.12866 17.5614C2.50878 17.3333 2.96492 17.1053 3.42106 16.8012C4.25731 16.269 5.24562 15.7369 6.1579 15.1287C6.91813 14.6725 7.67837 14.0643 8.59065 13.6842C9.42691 13.2281 10.2632 12.6199 11.1754 12.1638C12.0117 11.4795 13 11.0994 13.9883 10.4912C14.9766 9.95907 15.9649 9.42691 16.9532 8.7427C17.9415 8.05849 19.0819 7.60235 20.0702 6.91814C20.2983 6.84212 20.5263 6.69007 20.7544 6.61405C20.8304 6.53802 20.9825 6.462 21.0585 6.462L21.2105 6.38597L21.4386 6.23393C22.1228 5.85381 22.807 5.39767 23.6433 4.94153C23.7193 5.32165 23.6433 5.70176 23.5673 6.15791L23.3392 6.84212C23.2632 6.99416 23.2632 7.22223 23.1871 7.37428L23.1111 7.67837V7.7544C23.1111 7.83042 23.1111 7.90644 23.1111 7.90644C23.1871 7.83042 23.2632 7.7544 23.3392 7.67837C23.3392 7.67837 23.4152 7.67837 23.4912 7.60235C23.5673 7.60235 23.5673 7.52633 23.6433 7.52633L23.7193 7.4503L23.8714 7.29826C24.0994 7.07019 24.2515 6.91814 24.4795 6.69007C24.5556 6.61405 24.7076 6.462 24.7836 6.38597C24.9357 6.23393 25.0877 6.08188 25.2398 5.92983C25.4678 6.00586 25.6959 6.00586 25.848 6.08188C26 6.08188 26.076 6.15791 26.2281 6.15791C26.5322 6.23393 26.8363 6.23393 27.0643 6.30995L27.3684 6.38597H27.4444C27.5965 6.38597 27.7485 6.462 27.8246 6.462C27.7485 6.38597 27.7485 6.38598 27.6725 6.30995C27.6725 6.23393 27.5965 6.23393 27.5205 6.15791L27.4444 6.08188C27.4444 6.08188 27.4445 6.08188 27.3684 6.00586C27.1404 5.77779 26.9123 5.54972 26.7602 5.32165L26.6082 5.01755C26.4561 4.78948 26.2281 4.63744 26.076 4.40937C26.1521 4.02925 26.2281 3.57311 26.3801 3.19299L26.6082 3.04095C26.9883 2.81288 27.0643 2.73685 27.2164 2.66083C27.3684 2.58481 27.5205 2.43276 27.6725 2.35674C27.9766 2.12866 28.3567 1.97662 28.6608 1.74855C28.9649 1.52048 29.345 1.36843 29.6491 1.21638C29.8012 1.14036 29.9532 1.06434 30.1813 0.912291H30.4094L30.5614 0.836267C30.5614 0.760244 30.6374 0.760244 30.6374 0.760244L30.7135 0.684221H30.7895H30.8655C31.0936 0.608197 31.3216 0.532174 31.4737 0.45615C31.5497 0.45615 31.7018 0.380127 31.7778 0.380127C31.8538 0.380127 31.9298 0.380127 31.9298 0.380127C32.0059 0.380127 32.0819 0.380127 32.1579 0.380127H32.3099H32.386H32.462C32.614 0.380127 32.6901 0.380127 32.8421 0.45615C33.0702 0.532174 33.2983 0.532174 33.5263 0.608197C33.6023 0.608197 33.6023 0.684221 33.6784 0.684221H33.7544L33.8304 0.760244C33.9825 0.760244 34.0585 0.760244 34.1345 0.836267C34.2866 0.912291 34.4386 1.06434 34.5906 1.14036C34.9708 1.29241 35.2749 1.52048 35.655 1.74855C37.0994 2.50878 38.3918 3.34504 39.8363 4.1813C41.2807 4.94153 42.5731 6.00586 44.0936 6.61405C45.538 7.4503 46.9825 8.28656 48.5029 9.12282C49.9474 9.95907 51.4678 10.8714 52.9883 11.7076C54.3567 12.7719 55.9532 13.5322 57.5497 14.2924C59.0702 15.1287 60.5906 16.0409 62.1111 16.8772C62.4912 17.1053 62.8714 17.3333 63.2515 17.4854L63.4035 17.5614C63.4795 17.5614 63.5556 17.6374 63.5556 17.6374C63.6316 17.7135 63.7836 17.7895 63.8597 17.8655C64.0877 18.0176 64.2398 18.2456 64.3918 18.4737C65 19.31 65.2281 20.4503 64.924 21.5146C64.7719 22.0468 64.5439 22.5029 64.2398 22.8831C63.8597 23.2632 63.4795 23.5673 62.9474 23.7953C61.9591 24.1754 60.8947 24.1754 59.9825 23.7193C59.9064 23.7193 59.8304 23.6433 59.8304 23.6433L59.6784 23.5673L59.2983 23.4912C59.1462 23.4152 58.9181 23.2632 58.7661 23.1871C58.386 22.9591 58.0819 22.731 57.7018 22.579C57.0176 22.0468 56.3333 21.6667 55.5731 21.2866C54.1287 20.5263 52.6842 19.7661 51.3918 18.8538C50.8597 18.5497 50.4035 18.2456 49.9474 17.9415C49.7193 17.7895 49.4912 17.6374 49.1871 17.4854L49.0351 17.4094L48.731 17.2573C48.5029 17.1053 48.2749 17.0293 48.1228 16.8772L48.2749 16.345L48.3509 16.0409V15.8889V15.8129C48.3509 15.5848 48.4269 15.3567 48.4269 15.2047L48.5029 14.8246V14.7485V14.6725V14.5965L48.4269 14.6725C48.4269 14.6725 48.5029 14.5205 48.4269 14.4445C48.4269 14.5205 48.3509 14.5205 48.3509 14.5205C48.1988 14.6725 48.1228 14.7485 47.9708 14.9006C47.8187 15.0526 47.6667 15.2047 47.4386 15.3567L47.2866 15.5088L47.1345 15.6608L46.6784 16.0409C46.4503 15.8889 46.2222 15.7369 45.9942 15.6608C45.8421 15.5848 45.6901 15.5088 45.538 15.3567C45.31 15.2047 45.0059 15.0526 44.7778 14.9766C43.6374 14.0643 42.269 13.5322 41.0526 12.7719C39.8363 12.0117 38.6959 11.2515 37.4795 10.6433C36.2632 10.0351 35.1988 9.27486 34.0585 8.59065C33.6784 8.43861 33.3743 8.21054 33.0702 8.05849C32.9181 7.98247 32.7661 7.83042 32.614 7.7544L32.538 7.67837H32.462L32.386 7.60235C32.3099 7.60235 32.3099 7.60235 32.2339 7.67837H32.1579L32.0819 7.7544L31.9298 7.83042C31.7018 7.98247 31.4737 8.13451 31.2456 8.28656C30.1813 8.89475 29.117 9.50293 28.0526 10.1111C27.1404 10.9474 26 11.2515 25.0877 11.7836C24.0994 12.3158 23.2632 13.076 22.2749 13.3801C21.4386 14.0643 20.5263 14.4445 19.614 14.9006C18.7018 15.3567 18.0176 15.9649 17.1813 16.269C16.4971 16.8772 15.5848 17.1053 14.9006 17.5614C14.1404 17.8655 13.5322 18.3977 12.848 18.7018C12.2398 19.0819 11.6316 19.462 11.0234 19.7661C10.4152 20.0702 9.88305 20.3743 9.42691 20.6784C7.90644 21.5146 6.69006 22.1228 5.92983 22.579C4.94152 22.9591 4.56141 23.1871 4.48538 23.1111Z" fill="#2BBD81"/>
<path d="M29.269 38.4679C29.269 38.5439 29.269 38.5439 29.193 38.6199C29.117 38.6199 29.041 38.696 28.9649 38.772L28.8889 38.848L28.8129 38.924C28.7369 38.848 28.8129 39.1521 28.7369 39.0001C28.6608 39.0001 28.6608 39.0001 28.6608 39.0761C28.6608 39.1521 28.5088 39.0761 28.5848 39.1521C28.6608 39.2281 28.5848 39.2281 28.5088 39.2281C28.4328 39.2281 28.4328 39.2281 28.5088 39.3042C28.5088 39.3802 28.4328 39.3802 28.4328 39.4562C28.2807 39.3802 28.3567 39.5322 28.3567 39.6082C28.2047 39.5322 28.2047 39.6843 28.2807 39.7603C28.0527 39.6843 28.0527 39.8363 28.2047 39.9123C28.2047 39.9123 28.2047 39.9884 28.1287 39.9884V40.0644C28.1287 40.1404 28.2047 40.2164 28.1287 40.2925C28.2047 40.2925 28.2807 40.3685 28.2807 40.3685C28.2807 40.3685 28.2807 40.4445 28.2047 40.4445C28.4328 40.4445 28.3567 40.5205 28.2807 40.6726C28.2047 40.7486 28.2807 40.7486 28.3567 40.7486C28.4328 40.7486 28.4328 40.7486 28.3567 40.8246C28.3567 40.9006 28.4328 40.9006 28.5088 40.9767C28.5088 41.0527 28.5088 41.0527 28.5088 41.1287C28.5088 41.1287 28.5848 41.2047 28.6608 41.1287C28.7369 41.1287 28.8129 41.1287 28.8129 41.2808C28.9649 41.1287 28.9649 41.2808 29.041 41.3568C29.117 41.3568 29.117 41.3568 29.117 41.4328C29.117 41.4328 29.193 41.5088 29.269 41.4328H29.345H29.4211C29.4211 41.4328 29.4971 41.5088 29.5731 41.5088C29.6491 41.5088 29.6491 41.5088 29.6491 41.4328C29.6491 41.3568 29.7252 41.3568 29.7252 41.3568C29.8012 41.3568 29.8012 41.3568 29.8012 41.3568C29.8772 41.4328 29.8772 41.4328 29.9532 41.3568C29.9532 41.2808 29.9532 41.2808 30.0293 41.2808H30.1053C30.1813 41.2808 30.1813 41.2808 30.1813 41.2047C30.1813 41.2047 30.1813 41.1287 30.2573 41.1287L30.3334 41.0527C30.2573 40.9767 30.2573 40.9006 30.3334 40.9006C30.4094 40.9006 30.4854 40.9006 30.4854 40.8246C30.5614 40.8246 30.5614 40.7486 30.5614 40.7486C30.5614 40.6726 30.5614 40.6726 30.5614 40.6726C30.5614 40.5966 30.5614 40.5966 30.6374 40.5966C30.6374 40.5966 30.7135 40.5205 30.6374 40.5205V40.4445C30.6374 40.4445 30.6374 40.3685 30.7135 40.3685C30.6374 40.3685 30.6374 40.2925 30.7135 40.2925C30.7135 40.2925 30.7895 40.2164 30.7135 40.2164V40.1404V40.0644C30.7895 39.9884 30.7895 39.9884 30.7895 39.9123C30.7895 39.9123 30.7135 39.9123 30.7135 39.8363C30.7135 39.7603 30.5614 39.8363 30.6374 39.6843C30.6374 39.6082 30.6374 39.5322 30.5614 39.5322C30.5614 39.5322 30.5614 39.4562 30.5614 39.3802C30.5614 39.3042 30.5614 39.3042 30.4094 39.3802C30.3334 39.3802 30.4094 39.3042 30.4094 39.3042C30.4094 39.2281 30.4094 39.2281 30.3334 39.3042C30.1813 39.4562 30.2573 39.2281 30.2573 39.2281L30.1813 39.1521C29.5731 38.696 29.269 38.6199 29.269 38.4679C29.269 38.3919 29.3451 38.3159 29.5731 38.3159C29.7252 38.3159 30.0293 38.3159 30.4094 38.3919C30.4854 38.3919 30.6374 38.3158 30.6374 38.4679C30.7135 38.5439 30.8655 38.4679 30.8655 38.6199C31.0936 38.5439 31.0176 38.696 31.0936 38.772C31.1696 38.848 31.1696 38.924 31.3217 39.0001C31.4737 39.0001 31.3977 39.2281 31.4737 39.2281C31.3977 39.3802 31.4737 39.4562 31.6258 39.5322C31.5497 39.6082 31.6258 39.6843 31.6258 39.6843C31.6258 39.7603 31.7018 39.7603 31.7018 39.8363C31.6258 39.9123 31.6258 39.9884 31.6258 39.9884C31.6258 40.0644 31.7018 40.0644 31.7778 40.1404C31.8538 40.2164 31.7778 40.2925 31.7778 40.2925C31.7778 40.3685 31.7778 40.4445 31.7778 40.4445C31.7018 40.5966 31.7778 40.7486 31.7018 40.8246C31.7018 40.9006 31.7018 40.9767 31.7018 41.0527C31.7018 41.1287 31.6258 41.2047 31.5497 41.2047C31.5497 41.3568 31.3977 41.4328 31.3217 41.5849C31.3217 41.6609 31.2456 41.7369 31.1696 41.7369C31.0936 41.8129 31.0176 41.8129 31.0176 41.889C30.9415 41.965 30.8655 41.965 30.7895 41.965C30.7135 41.965 30.6374 42.041 30.6374 42.117C30.4854 42.193 30.3334 42.2691 30.2573 42.3451C30.1053 42.3451 29.9532 42.4211 29.8012 42.4971C29.7252 42.4211 29.6491 42.4211 29.5731 42.4211C29.4971 42.4211 29.4211 42.4971 29.345 42.5732C29.269 42.5732 29.193 42.5732 29.117 42.5732C29.041 42.5732 28.9649 42.4971 28.8889 42.4971C28.7369 42.4971 28.5848 42.4211 28.4328 42.3451C28.3567 42.3451 28.2807 42.2691 28.2047 42.2691C28.1287 42.193 28.1287 42.193 27.9766 42.193C27.9006 42.193 27.8246 42.117 27.8246 42.041C27.7486 41.965 27.7486 41.889 27.6725 41.889C27.5965 41.889 27.5205 41.8129 27.4445 41.7369C27.3684 41.6609 27.3684 41.5849 27.3684 41.5088C27.2924 41.4328 27.2924 41.3568 27.2924 41.2808C27.2924 41.2047 27.2164 41.1287 27.1404 41.1287C27.0643 41.0527 26.9883 41.0527 26.9123 40.9767C26.8363 40.9006 26.8363 40.8246 26.9883 40.7486C26.9123 40.6726 26.9883 40.5966 26.9883 40.5205C26.9883 40.4445 26.9883 40.3685 26.9123 40.3685C26.9883 40.2925 26.9883 40.2164 26.9883 40.1404C26.9883 40.0644 26.9123 39.9884 26.9123 39.9884C26.9883 39.8363 27.0643 39.7603 26.9883 39.6082C26.9123 39.5322 26.9883 39.4562 26.9883 39.4562C26.9883 39.3802 27.0643 39.3802 27.0643 39.3042C26.9883 39.2281 27.0643 39.2281 27.1404 39.1521C27.2164 39.1521 27.2164 39.0761 27.2164 39.0001C27.2924 38.924 27.2924 38.772 27.3684 38.772C27.2924 38.6199 27.2924 38.6199 27.3684 38.6199C27.4445 38.6199 27.5205 38.6199 27.5965 38.6199C27.6725 38.6199 27.6725 38.5439 27.6725 38.4679C27.6725 38.3919 27.7486 38.3919 27.8246 38.4679C27.7486 38.3919 27.8246 38.3159 27.9006 38.3159C27.9766 38.3159 28.0527 38.3159 28.0527 38.3159C28.1287 38.3159 28.1287 38.1638 28.2807 38.2398C28.2807 38.0878 28.4328 38.2398 28.5088 38.1638C28.5848 38.2398 28.6608 38.0878 28.6608 38.0878C28.7369 38.0118 28.7369 38.0118 28.8129 38.0878C28.8889 38.0878 28.8889 38.0878 28.9649 38.0878C29.117 38.0878 29.193 38.0878 29.269 38.1638C29.269 38.3919 29.269 38.4679 29.269 38.4679Z" fill="#2BBD81"/>
<path d="M45.9942 32.7661C45.9182 32.69 45.9182 32.614 45.9182 32.538C45.9182 32.538 45.9182 32.538 45.9182 32.462V32.3859C45.9942 32.462 45.7661 32.2339 45.9182 32.3099C45.9942 32.3099 45.9182 32.3099 45.9182 32.2339C45.9182 32.1579 45.9942 32.2339 45.9182 32.1579C45.7661 32.0058 46.1462 32.3099 45.9182 32.0819C45.9182 32.0058 45.9182 32.0058 45.9182 32.0058C46.0702 32.0818 45.9182 32.0058 45.9182 31.9298C46.0702 32.0818 46.0702 31.9298 45.9942 31.8538C46.2223 32.0058 46.2223 32.0058 46.0702 31.7778C46.0702 31.7778 46.1462 31.7778 46.1462 31.7017C46.1462 31.7017 46.1462 31.6257 46.2223 31.6257C46.1462 31.4737 46.1462 31.4737 46.2983 31.5497C46.2223 31.3976 46.2983 31.3976 46.3743 31.4737C46.4503 31.5497 46.2983 31.3216 46.4503 31.3976C46.4503 31.3976 46.4503 31.3216 46.5263 31.3216C46.6024 31.3216 46.6784 31.3976 46.6024 31.2456C46.6024 31.1696 46.6024 31.0935 46.6784 31.1696C46.5263 31.0175 46.6784 31.0175 46.7544 31.0935C46.7544 31.0175 46.9065 31.0935 46.8304 31.0175C46.9065 31.0175 46.8304 30.8655 46.9065 30.9415C46.9825 30.9415 47.0585 30.9415 46.9825 30.8655C46.9065 30.7134 47.0585 30.8655 47.0585 30.7895C47.2106 30.8655 47.0585 30.7134 47.1345 30.7134C47.1345 30.6374 47.2866 30.7134 47.2106 30.6374C47.2106 30.5614 47.2106 30.5614 47.2866 30.5614C47.1345 30.3333 47.3626 30.5614 47.3626 30.4854C47.4386 30.5614 47.3626 30.4093 47.4386 30.4093C47.4386 30.3333 47.5907 30.4854 47.5146 30.3333C47.5907 30.3333 47.5146 30.2573 47.5907 30.2573C47.5146 30.1052 47.7427 30.3333 47.6667 30.1813C47.6667 30.1813 47.6667 30.1052 47.7427 30.1052C47.8948 30.2573 47.8187 30.1052 47.8187 30.0292C47.8187 30.0292 47.7427 29.8772 47.8948 29.9532C47.8948 29.9532 48.0468 30.0292 47.9708 29.9532C47.9708 29.8772 48.1989 30.1813 48.0468 29.9532C48.0468 29.8772 48.2749 30.1052 48.1228 29.9532C47.9708 29.8011 48.1989 29.9532 48.1989 29.9532H48.2749C48.4269 29.8772 48.579 29.9532 48.731 30.0292C48.807 30.1052 48.807 30.3333 48.731 30.4854C48.731 30.4854 48.807 30.6374 48.731 30.5614C48.731 30.5614 48.807 30.7134 48.731 30.6374C48.8831 30.7895 48.731 30.7134 48.731 30.7134C48.731 30.7134 48.655 30.7134 48.731 30.7895C48.807 30.8655 48.655 30.7895 48.655 30.8655C48.579 30.7895 48.579 30.8655 48.579 30.9415C48.503 30.8655 48.579 31.0175 48.503 31.0175C48.3509 30.9415 48.4269 31.0175 48.4269 31.0935C48.4269 31.1696 48.3509 31.0935 48.3509 31.1696C48.2749 31.1696 48.3509 31.2456 48.2749 31.2456C48.3509 31.3216 48.3509 31.3976 48.1989 31.3216C48.1989 31.3976 48.1228 31.3976 48.1228 31.3976C48.1228 31.4737 48.0468 31.4737 48.0468 31.4737C48.0468 31.5497 47.8187 31.3976 47.9708 31.5497C47.9708 31.6257 47.8948 31.5497 47.8948 31.6257C47.8187 31.6257 47.8187 31.6257 47.8187 31.7017C47.6667 31.5497 47.7427 31.7017 47.7427 31.7778C47.7427 31.8538 47.7427 31.8538 47.6667 31.8538C47.6667 31.9298 47.5907 31.9298 47.5907 31.9298C47.5907 32.0058 47.4386 31.9298 47.5146 32.0058C47.5146 32.0818 47.3626 32.0058 47.4386 32.0819C47.4386 32.1579 47.4386 32.2339 47.3626 32.1579C47.3626 32.1579 47.2106 32.0819 47.2866 32.2339C47.2866 32.3099 47.4386 32.462 47.2106 32.3099C47.2106 32.3859 47.0585 32.2339 47.1345 32.3859C46.9825 32.2339 47.0585 32.462 47.0585 32.462C46.9825 32.462 46.9065 32.462 46.9825 32.538C47.0585 32.614 46.9065 32.538 46.9065 32.614C46.9825 32.69 46.7544 32.538 46.8304 32.69C46.7544 32.69 46.8304 32.7661 46.7544 32.7661C46.9065 32.9941 46.7544 32.7661 46.6784 32.7661C46.6024 32.7661 46.7544 32.9181 46.6024 32.7661C46.7544 32.9181 46.6024 32.8421 46.5263 32.7661C46.4503 32.7661 46.5263 32.8421 46.4503 32.7661C46.5263 32.9181 46.3743 32.7661 46.3743 32.7661C46.2983 32.69 46.3743 32.7661 46.2983 32.7661C46.2983 32.7661 46.2983 32.8421 46.2223 32.7661C46.2223 32.7661 46.2223 32.7661 46.1462 32.7661C46.1462 32.8421 46.0702 32.8421 45.9942 32.7661Z" fill="#2BBD81"/>
<path d="M44.8538 36.2631C44.7778 36.1871 44.7778 36.1111 44.7778 36.0351C44.7778 36.0351 44.7778 36.0351 44.7778 35.959V35.883C44.8538 35.959 44.6257 35.731 44.7778 35.807C44.8538 35.807 44.7778 35.807 44.7778 35.731C44.7778 35.6549 44.8538 35.731 44.7778 35.6549C44.6257 35.5029 45.0058 35.807 44.7778 35.5789C44.7778 35.5029 44.7778 35.5029 44.7778 35.5029C44.9298 35.5789 44.7778 35.5029 44.7778 35.4269C44.9298 35.5789 44.9298 35.4269 44.8538 35.3509C45.0819 35.5029 45.0819 35.5029 44.9298 35.2748C44.9298 35.2748 45.0058 35.2748 45.0058 35.1988C45.0058 35.1988 45.0058 35.1228 45.0819 35.1228C45.0058 34.9707 45.0058 34.9707 45.1579 35.0468C45.0819 34.8947 45.1579 34.8947 45.2339 34.9707C45.3099 35.0468 45.1579 34.8187 45.3099 34.8947C45.3099 34.8947 45.3099 34.8187 45.386 34.8187C45.462 34.8187 45.538 34.8947 45.462 34.7427C45.462 34.6666 45.462 34.5906 45.538 34.6666C45.386 34.5146 45.538 34.5146 45.614 34.5906C45.614 34.5146 45.7661 34.5906 45.6901 34.5146C45.7661 34.5146 45.6901 34.3625 45.7661 34.4386C45.8421 34.4386 45.9181 34.4386 45.8421 34.3625C45.7661 34.2105 45.9181 34.3625 45.9181 34.2865C46.0702 34.3625 45.9181 34.2105 45.9942 34.2105C45.9942 34.1345 46.1462 34.2105 46.0702 34.1345C46.0702 34.0585 46.0702 34.0585 46.1462 34.0585C45.9942 33.8304 46.2222 34.0585 46.2222 33.9824C46.2982 34.0585 46.2222 33.9064 46.2982 33.9064C46.2982 33.8304 46.4503 33.9824 46.3743 33.8304C46.4503 33.8304 46.3743 33.7544 46.4503 33.7544C46.3743 33.6023 46.6023 33.8304 46.5263 33.6783C46.5263 33.6783 46.5263 33.6023 46.6023 33.6023C46.7544 33.7544 46.6784 33.6023 46.6784 33.5263C46.6784 33.5263 46.6023 33.3742 46.7544 33.4503C46.7544 33.4503 46.9064 33.5263 46.8304 33.4503C46.8304 33.3742 47.1345 33.6783 46.9064 33.4503C46.9064 33.3742 47.1345 33.6023 46.9825 33.4503C46.8304 33.2982 47.0585 33.4503 47.0585 33.4503H47.1345C47.2865 33.3742 47.4386 33.4503 47.5906 33.5263C47.6667 33.6023 47.6667 33.8304 47.5906 33.9824C47.5906 33.9824 47.6667 34.1345 47.5906 34.0585C47.5906 34.0585 47.6667 34.2105 47.5906 34.1345C47.7427 34.2865 47.5906 34.2105 47.5906 34.2105C47.5906 34.2105 47.5146 34.2105 47.5906 34.2865C47.6667 34.3625 47.5146 34.2865 47.5146 34.3625C47.4386 34.2865 47.4386 34.3625 47.4386 34.4386C47.3626 34.3625 47.4386 34.5146 47.3626 34.5146C47.2105 34.3625 47.2866 34.5146 47.2866 34.5906C47.2866 34.6666 47.2105 34.5906 47.2105 34.6666C47.1345 34.6666 47.2105 34.7427 47.1345 34.7427C47.2105 34.8187 47.2105 34.8947 47.0585 34.8187C47.0585 34.8947 46.9825 34.8947 46.9825 34.8947C46.9825 34.9707 46.9064 34.9707 46.9064 34.9707C46.9064 35.0468 46.6784 34.8947 46.8304 35.0468C46.8304 35.1228 46.7544 35.0468 46.7544 35.1228C46.6784 35.1228 46.6784 35.1228 46.6784 35.1988C46.5263 35.0468 46.6023 35.1988 46.6023 35.2748C46.6023 35.3509 46.6023 35.3509 46.5263 35.3509C46.5263 35.4269 46.4503 35.4269 46.4503 35.4269C46.4503 35.5029 46.2982 35.4269 46.3743 35.5029C46.3743 35.5789 46.2222 35.5029 46.2982 35.5789C46.2982 35.6549 46.2982 35.731 46.2222 35.6549C46.2222 35.6549 46.0702 35.5789 46.1462 35.731C46.1462 35.807 46.2982 35.959 46.0702 35.807C46.0702 35.883 45.9181 35.731 45.9942 35.883C45.8421 35.731 45.9181 35.959 45.9181 35.959C45.8421 35.959 45.7661 35.959 45.8421 36.0351C45.9181 36.1111 45.7661 36.0351 45.7661 36.1111C45.8421 36.1871 45.614 36.0351 45.6901 36.1871C45.614 36.1871 45.6901 36.2631 45.614 36.2631C45.7661 36.4912 45.614 36.2631 45.538 36.2631C45.462 36.2631 45.614 36.4152 45.462 36.2631C45.614 36.4152 45.462 36.3392 45.386 36.2631C45.3099 36.2631 45.386 36.3392 45.3099 36.2631C45.386 36.4152 45.2339 36.2631 45.2339 36.2631C45.1579 36.1871 45.2339 36.2631 45.1579 36.2631C45.1579 36.2631 45.1579 36.3392 45.0819 36.2631C45.0819 36.2631 45.0819 36.2631 45.0058 36.2631C44.9298 36.3392 44.8538 36.3392 44.8538 36.2631Z" fill="#2BBD81"/>
<path d="M9.73099 28.6608C9.80702 28.7368 9.57895 29.0409 9.1228 29.5731C9.04678 29.6491 8.97076 29.7251 8.89473 29.8771C8.81871 29.9532 8.74269 30.1052 8.59064 30.1812C8.43859 30.1812 8.51462 30.5614 8.28655 30.5614C8.1345 30.6374 8.05848 30.7894 7.90643 30.9415C7.83041 31.0935 7.60234 31.1695 7.52631 31.3216C7.52631 31.4736 7.37427 31.4736 7.29824 31.5497C7.22222 31.5497 7.22222 31.5497 7.1462 31.6257C7.07017 31.7017 7.07017 31.7017 6.99415 31.8538C6.91813 31.9298 6.8421 32.0818 6.69006 32.1578C6.46199 32.0818 6.23392 32.0818 6.08187 32.0058C5.92982 31.7777 5.62573 31.9298 5.39766 31.8538C5.16959 31.6257 4.94152 31.6257 4.63742 31.7017C4.5614 31.6257 4.5614 31.6257 4.5614 31.5497L4.48538 31.4736C4.40935 31.4736 4.33333 31.5497 4.40935 31.6257C4.40935 31.6257 4.33333 31.5497 4.25731 31.5497C4.18128 31.5497 4.18128 31.5497 4.18128 31.6257C4.18128 31.6257 4.18128 31.6257 4.10526 31.6257C4.10526 31.6257 4.02924 31.6257 3.95321 31.5497L4.02924 31.6257C4.48538 31.8537 4.33333 31.7777 4.10526 31.7017C4.33333 31.9298 4.40935 31.9298 4.40935 31.9298H4.33333C4.25731 31.9298 4.40935 32.0058 4.40935 32.0058H4.48538C4.48538 32.0058 4.48538 32.0058 4.5614 32.0818L4.63742 32.1578C4.86549 32.3859 5.09356 32.614 5.32164 32.8421V33.0701V33.1461V33.2222C5.32164 33.2222 5.32164 33.2222 5.32164 33.2982C5.47368 33.4502 5.62573 33.6023 5.77778 33.7543C5.77778 33.9064 5.77778 33.9824 5.77778 34.1345V34.3625V34.4385V34.5146C5.77778 34.5906 5.77778 34.6666 5.77778 34.7426C5.77778 34.8947 5.70175 35.0467 5.62573 35.1988C5.70175 35.3508 5.70175 35.5789 5.62573 35.7309C5.62573 35.807 5.62573 35.807 5.54971 35.883H5.47368C5.47368 35.883 5.47368 35.959 5.39766 35.959C5.39766 36.035 5.32164 36.035 5.39766 36.035C5.39766 36.1111 5.39766 36.1111 5.39766 36.035C5.39766 36.035 5.39766 36.035 5.32164 36.1871C5.32164 36.2631 5.24561 36.3391 5.32164 36.2631C5.32164 36.2631 5.39766 36.1871 5.47368 36.035C5.54971 35.883 5.54971 35.959 5.54971 35.959C5.54971 35.959 5.62573 36.035 5.62573 35.959C5.70175 36.035 5.70175 36.035 5.8538 35.807C5.92982 35.6549 6.08187 35.5029 6.23392 35.4268C6.38596 35.2748 6.46199 35.1988 6.61403 35.1228C6.69006 35.0467 6.76608 35.0467 6.8421 34.9707C6.91813 34.8947 6.91813 34.8187 6.99415 34.8187C7.07017 34.7426 7.22222 34.5906 7.29824 34.5146C7.52631 34.5906 7.75438 34.5906 7.98245 34.6666H8.05848H8.1345H8.21052C8.28655 34.6666 8.36257 34.7426 8.36257 34.7426C8.74269 34.5146 8.97076 34.9707 9.27485 34.9707L9.35087 35.0467C9.35087 35.0467 9.35087 35.0467 9.4269 35.0467H9.50292C9.57895 35.0467 9.57895 35.0467 9.57895 35.0467C9.57895 35.0467 9.65497 35.0467 9.73099 35.1228C9.80702 35.1988 9.88304 35.1988 9.80702 35.1228C9.88304 35.1228 9.88304 35.1228 9.88304 35.1228C9.88304 35.1228 9.88304 35.1228 10.0351 35.1228H10.1111C9.88304 34.9707 9.95906 35.0467 10.0351 35.0467C10.1111 35.0467 10.1871 35.0467 10.0351 34.9707C9.95906 34.9707 9.88304 34.9707 9.88304 34.8947C10.0351 34.8947 9.95906 34.8187 9.88304 34.7426C9.88304 34.7426 9.80702 34.7426 9.80702 34.6666C9.80702 34.6666 9.73099 34.6666 9.73099 34.5906C9.57895 34.3625 9.27485 34.2865 9.27485 34.0584C9.1228 33.9064 9.04678 33.6023 8.81871 33.5263C8.74269 33.4502 8.66666 33.3742 8.66666 33.2982C8.59064 33.2222 8.59064 33.1461 8.59064 33.0701C8.66666 32.9181 8.66666 32.8421 8.59064 32.69C8.59064 32.614 8.59064 32.614 8.59064 32.538C8.59064 32.538 8.59064 32.4619 8.66666 32.4619C8.66666 32.3859 8.74269 32.3859 8.74269 32.3099C8.81871 32.2339 8.81871 32.1578 8.74269 32.0058C8.59064 31.7777 8.81871 31.6257 8.89473 31.4736C8.97076 31.3216 8.97076 31.0935 9.04678 30.9415C9.35087 29.497 9.65497 28.6608 9.73099 28.6608C9.88304 28.7368 9.73099 29.8011 9.4269 31.6257C9.4269 31.7777 9.50292 32.0058 9.35087 32.1578C9.35087 32.2339 9.35087 32.3859 9.35087 32.4619C9.35087 32.538 9.35087 32.538 9.35087 32.614C9.4269 32.69 9.4269 32.69 9.4269 32.69C9.4269 32.69 9.4269 32.766 9.4269 32.8421C9.57895 32.9941 9.73099 33.2222 9.95906 33.3742C10.1871 33.4502 10.2632 33.7543 10.4912 33.9064C10.4912 33.9824 10.5672 34.0584 10.6433 34.1345C10.7193 34.2105 10.7953 34.2865 10.8713 34.3625C11.0234 34.5146 11.1754 34.6666 11.4035 34.8187C11.4795 34.9707 11.6316 35.1228 11.7836 35.2748C11.9357 35.4269 12.2398 35.6549 12.3918 35.807C12.3158 35.883 12.4678 36.035 12.6959 36.2631C12.924 36.4152 13.2281 36.7192 13.4561 36.9473C13.5322 37.0233 13.5322 37.0233 13.6082 37.0994C13.4561 37.0994 13.152 37.0233 12.924 36.9473C12.6959 36.8713 12.3918 36.7953 12.2398 36.7953C11.9357 36.7192 11.7076 36.6432 11.4795 36.6432C11.2515 36.5672 10.9474 36.5672 10.7193 36.4912C10.4912 36.4912 10.1871 36.4152 9.88304 36.4152C9.73099 36.4152 9.57895 36.3391 9.4269 36.3391H9.35087H9.27485L9.19883 36.2631C8.89474 36.2631 8.59064 36.1111 8.28655 36.035C8.21052 36.035 8.1345 36.035 8.05848 36.035H7.98245H7.90643C7.90643 36.035 7.90643 36.035 7.83041 36.035H7.75438C7.67836 36.1111 7.60234 36.1111 7.52631 36.1871C7.37427 36.2631 7.22222 36.4152 7.22222 36.5672C7.07017 36.7192 6.99415 36.7953 6.8421 36.9473L6.76608 37.0233L6.61403 37.1754C6.30994 37.1754 6.15789 37.2514 6.08187 37.4035C5.8538 37.6315 5.62573 37.7836 5.32164 38.0116C5.09356 38.2397 4.86549 38.4678 4.5614 38.7719C4.40935 38.7719 4.18128 38.9239 3.95321 39.152C3.72514 39.3801 3.42105 39.7602 3.11696 40.1403C3.11696 39.9122 3.19298 39.6081 3.269 39.228C3.34503 38.8479 3.42105 38.5438 3.5731 38.1637C3.72514 37.5555 3.87719 36.8713 4.02924 36.2631C4.02924 35.959 4.18128 35.5789 4.25731 35.4268C4.33333 35.2748 4.33333 35.1228 4.33333 34.8947C4.33333 34.7426 4.40935 34.5906 4.48538 34.4385C4.48538 34.3625 4.5614 34.2865 4.5614 34.2105V34.1345C4.5614 34.1345 4.5614 34.1345 4.48538 34.1345C4.48538 34.1345 4.48538 34.0584 4.40935 34.0584C4.40935 33.9824 4.33333 33.9824 4.33333 33.9064C4.10526 33.6783 4.02924 33.2982 3.64912 33.2222L3.5731 33.1461C3.5731 33.1461 3.49707 33.1461 3.42105 33.0701C3.269 32.766 3.19298 32.69 3.04093 32.614C2.81286 32.3859 2.58479 32.1578 2.58479 31.9298C2.35672 31.7017 2.20468 31.5497 2.05263 31.3216C1.97661 31.1695 1.82456 31.0175 1.52047 30.7134C1.59649 30.6374 1.44444 30.4853 1.2924 30.3333C1.06433 30.1812 0.836255 29.9532 0.608185 29.7251C0.608185 29.7251 0.684208 29.7251 0.760232 29.7251C1.06433 29.8011 1.36842 29.9532 1.67251 29.9532C1.90058 30.0292 2.12865 30.0292 2.2807 30.0292C2.43275 30.0292 2.73684 30.1052 2.96491 30.1812C3.19298 30.3333 3.42105 30.4093 3.5731 30.4093C3.72514 30.4093 4.02924 30.4853 4.25731 30.5614C4.33333 30.6374 4.48538 30.6374 4.5614 30.7134C4.63742 30.7134 4.78947 30.7894 4.86549 30.7134C5.09356 30.7894 5.32164 30.7894 5.54971 30.8654C5.8538 30.6374 6.00585 30.9415 6.23392 31.0175C6.30994 31.0935 6.30994 31.0175 6.38596 31.0175C6.38596 31.0175 6.38596 31.0175 6.46199 31.0175V30.9415C6.46199 30.8654 6.53801 30.8654 6.61403 30.8654C6.69006 30.7894 6.8421 30.7894 6.91813 30.7134C7.07017 30.7134 7.1462 30.4093 7.37427 30.4093C7.37427 30.1812 7.67836 30.2573 7.75438 30.1052C7.98245 30.0292 7.98245 29.8771 8.1345 29.8011C8.21052 29.6491 8.36257 29.573 8.43859 29.497C8.51462 29.421 8.66666 29.345 8.74269 29.269C9.35087 28.8128 9.65497 28.5847 9.73099 28.6608Z" fill="#121212"/>
<path d="M27.6725 2.16626e-06C27.7485 0.0760256 27.5205 0.380119 27.0643 0.912283C26.9883 0.988306 26.9123 1.06433 26.8363 1.21638C26.6842 1.2924 26.6082 1.44445 26.4561 1.52047C26.3041 1.52047 26.3801 1.90059 26.1521 1.90059C26 1.97661 25.924 2.12866 25.7719 2.2807C25.6959 2.43275 25.4678 2.50877 25.3918 2.66082C25.3918 2.81287 25.2398 2.81287 25.1637 2.88889C25.0877 2.88889 25.0877 2.88889 25.0117 2.96491L24.9357 3.04094C24.9357 3.04094 24.9357 3.11696 24.8597 3.19298C24.7836 3.26901 24.7076 3.42105 24.5556 3.49708C24.3275 3.42105 24.0994 3.42105 23.9474 3.34503C23.7953 3.11696 23.4912 3.26901 23.2632 3.19298C23.0351 2.96491 22.807 2.96491 22.5029 3.04094C22.4269 2.96491 22.4269 2.88889 22.4269 2.88889L22.3509 2.81287C22.2749 2.81287 22.1988 2.88889 22.2749 2.96491C22.2749 2.96491 22.1988 2.88889 22.1228 2.88889C22.0468 2.88889 22.0468 2.88889 22.0468 2.96491C22.0468 2.96491 22.0468 2.96491 21.9708 2.96491C21.9708 2.96491 21.8947 2.96491 21.8187 2.88889L21.8947 2.96491C22.2749 3.19298 22.1988 3.11696 21.9708 3.04094C22.1988 3.11696 22.2749 3.19298 22.2749 3.19298H22.1988C22.1228 3.19298 22.2749 3.26901 22.2749 3.26901H22.3509C22.3509 3.26901 22.3509 3.26901 22.3509 3.34503L22.4269 3.42105C22.655 3.64913 22.883 3.8772 23.1111 4.10527L23.1871 4.25731L23.2632 4.33334V4.40936C23.2632 4.40936 23.2632 4.40936 23.2632 4.48538C23.4152 4.63743 23.5673 4.78948 23.7193 4.94152C23.7193 5.09357 23.7193 5.16959 23.7193 5.32164V5.54971V5.62573V5.70176C23.7193 5.77778 23.7193 5.8538 23.7193 5.92983C23.7193 6.08187 23.6433 6.23392 23.5673 6.38597C23.6433 6.53801 23.6433 6.76608 23.5673 6.91813C23.4912 7.1462 23.4912 7.07018 23.4152 7.1462C23.4152 7.1462 23.4152 7.22222 23.3392 7.22222C23.3392 7.29825 23.2632 7.29825 23.3392 7.29825C23.3392 7.37427 23.3392 7.37427 23.3392 7.29825C23.3392 7.29825 23.3392 7.29825 23.2632 7.4503C23.2632 7.52632 23.1871 7.60234 23.2632 7.52632C23.2632 7.52632 23.3392 7.4503 23.4152 7.29825C23.4912 7.1462 23.4912 7.22222 23.4912 7.22222C23.4912 7.22222 23.5673 7.29825 23.5673 7.22222C23.5673 7.29825 23.6433 7.29825 23.6433 7.22222C23.6433 7.22222 23.7193 7.1462 23.7953 7.07018C23.8714 6.91813 24.0234 6.76608 24.1754 6.69006C24.3275 6.53801 24.4035 6.46199 24.5556 6.38597C24.6316 6.30994 24.7076 6.30994 24.7836 6.23392L24.8597 6.1579L24.9357 6.08187C25.0117 6.00585 25.0117 5.92983 25.0877 5.92983C25.1637 5.8538 25.3158 5.70176 25.3918 5.62573C25.6199 5.70176 25.848 5.70176 26.076 5.77778H26.1521H26.2281H26.3041C26.3801 5.77778 26.4561 5.8538 26.4561 5.8538C26.8363 5.62573 27.0643 6.08187 27.3684 6.08187L27.4445 6.1579C27.4445 6.1579 27.4445 6.1579 27.5205 6.1579H27.5965C27.6725 6.1579 27.6725 6.1579 27.6725 6.1579C27.6725 6.1579 27.7485 6.1579 27.8246 6.23392C27.9006 6.30994 27.9766 6.30994 27.9006 6.23392C27.9766 6.23392 27.9766 6.23392 27.9766 6.23392C27.9766 6.23392 27.9766 6.23392 28.1287 6.30994H28.2047C27.9766 6.1579 28.0526 6.23392 28.1287 6.23392C28.2047 6.23392 28.2807 6.23392 28.1287 6.1579C28.0526 6.08187 27.9766 6.08187 27.9766 6.00585C28.1287 6.00585 28.0526 5.92983 27.9766 5.8538C27.9766 5.8538 27.9006 5.8538 27.9006 5.77778H27.8246C27.6725 5.54971 27.3684 5.47369 27.3684 5.24562C27.2164 5.09357 27.1404 4.78948 26.9123 4.71345C26.8363 4.63743 26.7602 4.56141 26.7602 4.48538C26.6842 4.40936 26.6842 4.33334 26.6842 4.25731C26.7602 4.10527 26.7602 4.02924 26.6842 3.8772C26.6842 3.80117 26.6842 3.80117 26.6842 3.72515V3.64913V3.5731C26.6842 3.49708 26.7602 3.49708 26.7602 3.42105C26.8363 3.34503 26.8363 3.26901 26.7602 3.11696C26.6082 2.88889 26.8363 2.73684 26.9123 2.5848C26.9883 2.43275 26.9883 2.20468 27.0643 2.05263C27.2924 0.836259 27.5965 2.16626e-06 27.6725 2.16626e-06C27.8246 0.0760256 27.6725 1.14035 27.3684 2.96491C27.3684 3.11696 27.4445 3.34503 27.2924 3.49708C27.2924 3.5731 27.2924 3.72515 27.2924 3.80117C27.2924 3.8772 27.2924 3.8772 27.2924 3.95322C27.3684 3.95322 27.3684 4.02924 27.3684 4.02924C27.3684 4.02924 27.3684 4.10527 27.3684 4.18129C27.5205 4.33334 27.6725 4.56141 27.9006 4.71345C28.0526 4.8655 28.1287 5.16959 28.3567 5.32164C28.3567 5.32164 28.3567 5.32164 28.3567 5.39766C28.3567 5.47369 28.4328 5.47369 28.4328 5.54971C28.5088 5.62573 28.5848 5.70176 28.6608 5.77778C28.8129 5.92983 28.9649 6.08187 29.193 6.23392C29.269 6.38597 29.4211 6.53801 29.5731 6.69006C29.8012 6.84211 30.0292 7.07018 30.1813 7.22222C30.1053 7.29825 30.2573 7.4503 30.4854 7.67837C30.7135 7.83041 31.0175 8.13451 31.2456 8.36258C31.3216 8.4386 31.3216 8.4386 31.3977 8.51462C31.2456 8.51462 30.9415 8.4386 30.7135 8.36258C30.4854 8.28655 30.1813 8.21053 30.0292 8.21053C29.7252 8.13451 29.4971 8.05848 29.269 8.05848C29.0409 7.98246 28.7368 7.98246 28.5088 7.90644C28.2807 7.90644 27.9766 7.83041 27.6725 7.83041C27.5205 7.83041 27.3684 7.75439 27.2164 7.75439H27.1404H27.0643L26.9883 7.67837C26.6842 7.67837 26.3801 7.52632 26.076 7.4503C26 7.4503 25.924 7.4503 25.848 7.4503H25.7719H25.6959C25.6959 7.4503 25.6959 7.4503 25.6199 7.4503H25.5439C25.4678 7.52632 25.3918 7.52632 25.3158 7.60234C25.1637 7.67837 25.0117 7.83041 25.0117 7.98246C24.7836 8.28655 24.5556 8.36258 24.0234 8.89474C23.7953 9.12281 23.5673 9.27486 23.3392 9.50293C23.1111 9.731 22.883 9.95907 22.579 10.2632C22.4269 10.2632 22.1988 10.4152 21.9708 10.6433C21.7427 10.8713 21.4386 11.2515 21.1345 11.6316C21.1345 11.4035 21.2105 11.0994 21.2866 10.7193C21.3626 10.3392 21.4386 10.0351 21.5906 9.65497C21.7427 9.04679 21.8947 8.36258 22.0468 7.75439C22.1228 6.99415 22.3509 6.84211 22.3509 6.46199C22.3509 6.30994 22.4269 6.1579 22.5029 6.00585C22.5029 5.92983 22.579 5.8538 22.579 5.77778V5.70176H22.5029L22.3509 5.32164C22.3509 5.32164 22.3509 5.24562 22.2749 5.24562C22.2749 5.16959 22.1988 5.16959 22.1988 5.09357C21.9708 4.8655 21.8947 4.48538 21.5146 4.40936L21.4386 4.33334H21.3626C21.3626 4.33334 21.3626 4.33334 21.2866 4.33334H21.2105C21.0585 4.25731 20.9825 4.10527 20.8304 4.02924C20.7544 3.72515 20.5263 3.42106 20.5263 3.26901C20.2983 3.04094 20.1462 2.88889 19.9942 2.66082C19.8421 2.43275 19.7661 2.2807 19.462 2.05263C19.538 1.97661 19.386 1.82456 19.2339 1.67252C19.0059 1.52047 18.7778 1.2924 18.5497 1.06433C18.6257 1.06433 18.6257 1.06433 18.7018 1.06433C19.0059 1.14035 19.3099 1.2924 19.614 1.2924C19.8421 1.36842 20.0702 1.36842 20.2222 1.36842C20.3743 1.36842 20.6784 1.44445 20.9064 1.52047C21.1345 1.59649 21.4386 1.67252 21.5906 1.74854C21.7427 1.74854 22.0468 1.82456 22.2749 1.90059C22.3509 1.97661 22.5029 1.97661 22.579 2.05263C22.655 2.05263 22.807 2.12866 22.883 2.05263C23.1111 2.12866 23.3392 2.12866 23.5673 2.2807C23.8714 2.05263 24.0234 2.35673 24.2515 2.43275C24.3275 2.50877 24.3275 2.43275 24.4035 2.43275C24.4035 2.43275 24.4035 2.43275 24.4795 2.43275V2.35673C24.4795 2.2807 24.5556 2.2807 24.6316 2.2807C24.7076 2.20468 24.8597 2.20468 24.9357 2.12866C25.0877 2.05263 25.1638 1.82456 25.3918 1.74854C25.3918 1.52047 25.6959 1.59649 25.7719 1.44445C26 1.36842 26 1.21638 26.1521 1.14035C26.2281 0.988306 26.3801 0.912283 26.4561 0.836259C26.5322 0.760236 26.6082 0.684213 26.7602 0.608189C27.2924 0.152049 27.5965 -0.0760212 27.6725 2.16626e-06Z" fill="#121212"/>
<path d="M49.7193 12.3918C49.7953 12.4678 49.5672 12.7719 49.1111 13.304C49.0351 13.3801 48.9591 13.4561 48.883 13.6081C48.807 13.6842 48.731 13.8362 48.5789 13.9122C48.4269 13.9122 48.5029 14.2924 48.2748 14.2924C48.1228 14.3684 48.0468 14.5204 47.8947 14.6725C47.8187 14.8245 47.5906 14.9005 47.5146 15.0526C47.5146 15.2046 47.3626 15.2046 47.2865 15.2807C47.2105 15.2807 47.2105 15.2807 47.1345 15.3567C47.0585 15.4327 47.0585 15.4327 46.9824 15.5848C46.9064 15.6608 46.8304 15.8128 46.6784 15.8888C46.4503 15.8128 46.2222 15.8128 46.0702 15.7368C45.9181 15.5087 45.614 15.6608 45.386 15.5848C45.1579 15.3567 44.9298 15.3567 44.6257 15.4327C44.5497 15.3567 44.5497 15.2807 44.5497 15.2807L44.4737 15.2046C44.3977 15.2046 44.3216 15.2807 44.3977 15.3567C44.3977 15.3567 44.3216 15.2807 44.2456 15.2807C44.1696 15.2807 44.1696 15.2807 44.1696 15.3567C44.1696 15.3567 44.1696 15.3567 44.0936 15.3567C44.0936 15.3567 44.0175 15.3567 43.9415 15.2807L44.0175 15.3567C44.3977 15.5848 44.3216 15.5087 44.0936 15.4327C44.3216 15.5087 44.3977 15.5848 44.3977 15.5848H44.3216C44.2456 15.5848 44.3977 15.6608 44.3977 15.6608H44.4737C44.4737 15.6608 44.4737 15.6608 44.4737 15.7368L44.5497 15.8128C44.7778 16.0409 45.0058 16.269 45.2339 16.497L45.3099 16.6491L45.386 16.7251V16.8011C45.386 16.8011 45.386 16.8011 45.386 16.8771C45.538 17.0292 45.69 17.1812 45.8421 17.3333C45.8421 17.4853 45.8421 17.5614 45.8421 17.7134V17.9415V18.0175V18.0935C45.8421 18.1695 45.8421 18.2456 45.8421 18.3216C45.8421 18.4736 45.7661 18.6257 45.69 18.7777C45.7661 18.9298 45.7661 19.1578 45.69 19.3099C45.69 19.3859 45.69 19.3859 45.614 19.4619H45.538C45.538 19.4619 45.538 19.538 45.462 19.538C45.462 19.614 45.386 19.614 45.462 19.614C45.462 19.69 45.462 19.69 45.462 19.614C45.462 19.614 45.462 19.614 45.386 19.766C45.386 19.8421 45.3099 19.9181 45.386 19.8421C45.386 19.8421 45.462 19.766 45.538 19.614C45.614 19.4619 45.614 19.538 45.614 19.538C45.614 19.538 45.69 19.614 45.69 19.538C45.69 19.614 45.7661 19.614 45.7661 19.538C45.7661 19.538 45.8421 19.4619 45.9181 19.3859C45.9941 19.2339 46.1462 19.0818 46.2982 19.0058C46.4503 18.8538 46.5263 18.7777 46.6784 18.7017C46.7544 18.6257 46.8304 18.6257 46.9064 18.5497L46.9824 18.4736L47.0585 18.3976C47.1345 18.3216 47.1345 18.2456 47.2105 18.2456C47.2865 18.1695 47.4386 18.0175 47.5146 17.9415C47.7427 18.0175 47.9708 18.0175 48.1988 18.0935H48.2748H48.3509H48.4269C48.5029 18.0935 48.5789 18.1695 48.5789 18.1695C48.9591 17.9415 49.1871 18.3976 49.4912 18.3976L49.5672 18.4736C49.5672 18.4736 49.5672 18.4736 49.6433 18.4736H49.7193C49.7953 18.4736 49.7953 18.4736 49.7953 18.4736C49.7953 18.4736 49.8713 18.4736 49.9474 18.5497C50.0234 18.6257 50.0994 18.6257 50.0234 18.5497C50.0994 18.5497 50.0994 18.5497 50.0994 18.5497C50.0994 18.5497 50.0994 18.5497 50.2515 18.5497H50.3275C50.0994 18.3976 50.1754 18.4736 50.2515 18.4736C50.3275 18.4736 50.4035 18.4736 50.2515 18.3976C50.1754 18.3216 50.0994 18.3216 50.0994 18.2456C50.2515 18.2456 50.1754 18.1695 50.0994 18.0935C50.0994 18.0935 50.0234 18.0935 50.0234 18.0175C50.0234 18.0175 49.9474 18.0175 49.9474 17.9415C49.7953 17.7134 49.4912 17.6374 49.4912 17.4093C49.3392 17.2573 49.2631 16.9532 49.0351 16.8771C48.9591 16.8011 48.883 16.7251 48.883 16.6491C48.807 16.5731 48.807 16.497 48.807 16.421C48.883 16.269 48.883 16.1929 48.807 16.0409C48.807 15.9649 48.807 15.9649 48.807 15.8888C48.807 15.8888 48.807 15.8128 48.883 15.8128C48.883 15.7368 48.9591 15.7368 48.9591 15.6608C49.0351 15.5848 49.0351 15.5087 48.9591 15.3567C48.807 15.1286 49.0351 14.9766 49.1111 14.8245C49.1871 14.6725 49.1871 14.4444 49.2632 14.2924C49.3392 13.228 49.6433 12.3918 49.7193 12.3918C49.8713 12.4678 49.7193 13.5321 49.4152 15.3567C49.4152 15.5087 49.4912 15.7368 49.3392 15.8888C49.3392 15.9649 49.3392 16.1169 49.3392 16.1929C49.3392 16.269 49.3392 16.269 49.3392 16.345C49.3392 16.345 49.3392 16.345 49.3392 16.421C49.4152 16.497 49.4152 16.497 49.4152 16.497C49.4152 16.497 49.4152 16.5731 49.4152 16.6491C49.5672 16.8011 49.7193 17.0292 49.9474 17.1812C50.1754 17.2573 50.2515 17.5614 50.4795 17.7134C50.4795 17.7894 50.5555 17.8655 50.6316 17.9415C50.7076 18.0175 50.7836 18.0935 50.8596 18.1695C51.0117 18.3216 51.1637 18.4736 51.3918 18.6257C51.4678 18.7777 51.6199 18.9298 51.7719 19.0818C51.924 19.2339 52.2281 19.4619 52.3801 19.614C52.3041 19.69 52.4561 19.8421 52.6842 20.0701C52.9123 20.2222 53.2164 20.5263 53.4444 20.7543C53.5205 20.8304 53.5205 20.8304 53.5965 20.9064C53.4444 20.9064 53.1403 20.8304 52.9123 20.7543C52.6842 20.6783 52.3801 20.6023 52.2281 20.6023C51.924 20.5263 51.6959 20.4502 51.4678 20.4502C51.2398 20.3742 50.9357 20.3742 50.7076 20.2982C50.4795 20.2982 50.1754 20.2222 49.8713 20.2222C49.7193 20.2222 49.5672 20.1462 49.4152 20.1462H49.3392H49.2632C49.2632 20.1462 49.1871 20.1462 49.1871 20.0701C48.883 20.0701 48.5789 19.9181 48.2748 19.8421C48.1988 19.8421 48.1228 19.8421 48.0468 19.8421H47.9707H47.8947C47.8947 19.8421 47.8947 19.8421 47.8187 19.8421H47.7427C47.6667 19.9181 47.5906 19.9181 47.5146 19.9941C47.3626 20.0701 47.2105 20.2222 47.2105 20.3742C47.0585 20.5263 46.9824 20.6023 46.8304 20.7543C46.7544 20.8304 46.4503 21.0584 46.2222 21.2865C45.9941 21.5146 45.7661 21.6666 45.538 21.8947C45.3099 22.1228 45.0819 22.3508 44.7778 22.6549C44.6257 22.6549 44.3976 22.807 44.1696 23.035C43.9415 23.2631 43.6374 23.6432 43.3333 24.0233C43.3333 23.7953 43.4093 23.4912 43.4854 23.1111C43.5614 22.7309 43.6374 22.4269 43.7895 22.0467C43.9415 21.4386 44.0936 20.7543 44.2456 20.1462C44.2456 19.8421 44.3977 19.4619 44.4737 19.3099C44.5497 19.1578 44.5497 19.0058 44.5497 18.7777C44.5497 18.6257 44.6257 18.4736 44.7017 18.3216C44.7017 18.2456 44.7778 18.1695 44.7778 18.0935V18.0175C44.7778 18.0175 44.7778 18.0175 44.7017 18.0175C44.7017 18.0175 44.7017 17.9415 44.6257 17.9415C44.6257 17.8655 44.5497 17.8655 44.5497 17.7894C44.3216 17.5614 44.2456 17.1812 43.9415 17.1052L43.8655 17.0292H43.7895H43.7134C43.5614 16.9532 43.4854 16.8011 43.3333 16.7251C43.1053 16.497 42.8772 16.269 42.8772 16.0409C42.6491 15.8128 42.4971 15.6608 42.345 15.4327C42.193 15.2807 42.1169 15.0526 41.8129 14.8245C41.8889 14.7485 41.7368 14.5964 41.5848 14.4444C41.3567 14.2924 41.1286 14.0643 40.9006 13.8362C40.9006 13.8362 40.9766 13.8362 41.0526 13.8362C41.3567 13.9122 41.6608 14.0643 41.9649 14.0643C42.193 14.1403 42.421 14.1403 42.5731 14.1403C42.7251 14.1403 43.0292 14.2163 43.2573 14.2924C43.4854 14.3684 43.7895 14.4444 43.9415 14.5204C44.0936 14.5204 44.3977 14.5964 44.6257 14.6725C44.7017 14.7485 44.8538 14.7485 44.9298 14.8245C45.0058 14.8245 45.1579 14.9005 45.2339 14.8245C45.462 14.9005 45.69 14.9005 45.9181 14.9766C46.2222 14.7485 46.3743 15.0526 46.6023 15.1286C46.6784 15.2046 46.6784 15.1286 46.7544 15.1286C46.7544 15.1286 46.7544 15.1286 46.8304 15.1286V15.0526C46.8304 14.9766 46.9064 14.9766 46.9824 14.9766C47.0585 14.9005 47.2105 14.9005 47.2865 14.8245C47.4386 14.7485 47.5146 14.5204 47.7427 14.4444C47.7427 14.2163 48.0468 14.2924 48.1228 14.1403C48.3509 14.0643 48.3509 13.9122 48.5029 13.8362C48.5789 13.6842 48.731 13.6081 48.807 13.5321C48.883 13.4561 49.0351 13.3801 49.1111 13.304C49.3392 12.5438 49.6433 12.3157 49.7193 12.3918Z" fill="#121212"/>
<path d="M59.9064 40.6725C59.9825 40.7486 59.7544 41.0527 59.2982 41.5848C59.2222 41.6608 59.1462 41.7369 59.0702 41.8889C58.9941 41.9649 58.9181 42.117 58.7661 42.193C58.614 42.193 58.6901 42.5731 58.462 42.5731C58.3099 42.6491 58.2339 42.8012 58.0819 42.9532C58.0058 43.1053 57.7778 43.1813 57.7018 43.3334C57.7018 43.4854 57.5497 43.4854 57.4737 43.5614C57.3977 43.5614 57.3977 43.5614 57.3216 43.6375C57.2456 43.7135 57.2456 43.7135 57.1696 43.8655C57.0936 43.9415 57.0175 44.0936 56.8655 44.1696C56.6374 44.0936 56.4094 44.0936 56.2573 44.0176C56.1053 43.7895 55.8012 43.9415 55.5731 43.8655C55.345 43.6375 55.117 43.6375 54.8129 43.7135C54.7368 43.6375 54.7368 43.6375 54.7368 43.5614L54.6608 43.4854C54.5848 43.4854 54.5088 43.5614 54.5848 43.6375C54.5848 43.6375 54.5088 43.5614 54.4327 43.5614C54.3567 43.5614 54.2807 43.5614 54.3567 43.6375C54.3567 43.6375 54.3567 43.6375 54.2807 43.6375C54.2807 43.6375 54.2047 43.6375 54.1286 43.5614L54.2047 43.6375C54.5848 43.8655 54.5088 43.7895 54.2807 43.7135C54.5088 43.7895 54.5848 43.8655 54.5848 43.8655H54.5088C54.4327 43.8655 54.5848 43.9415 54.5848 43.9415H54.6608C54.6608 43.9415 54.6608 43.9415 54.6608 44.0176L54.7368 44.0936C54.9649 44.3217 55.193 44.5497 55.4211 44.7778L55.4971 44.9298L55.5731 45.0059V45.0819C55.5731 45.0819 55.5731 45.0819 55.5731 45.1579C55.7251 45.31 55.8772 45.462 56.0292 45.6141C56.0292 45.7661 56.0292 45.8421 56.0292 45.9942V46.2222V46.2983V46.3743V46.4503C56.0292 46.5263 56.0292 46.6024 56.0292 46.6784C56.0292 46.8304 55.9532 46.9825 55.8772 47.1345C55.9532 47.2866 55.9532 47.5146 55.8772 47.6667C55.8012 47.8948 55.8012 47.8187 55.7251 47.8948C55.7251 47.8948 55.7251 47.9708 55.6491 47.9708C55.6491 48.0468 55.5731 48.0468 55.6491 48.0468C55.6491 48.1228 55.6491 48.1228 55.6491 48.0468C55.6491 48.0468 55.6491 48.0468 55.5731 48.1989C55.5731 48.2749 55.4971 48.3509 55.5731 48.2749C55.5731 48.2749 55.6491 48.1989 55.7251 48.0468C55.8012 47.8948 55.8012 47.9708 55.8012 47.9708C55.8012 47.9708 55.8772 48.0468 55.8772 47.9708C55.9532 48.0468 55.9532 48.0468 56.1053 47.8187C56.1813 47.6667 56.3333 47.5146 56.4854 47.4386C56.6374 47.2866 56.7134 47.2106 56.8655 47.1345C56.9415 47.0585 57.0175 47.0585 57.0936 46.9825L57.1696 46.9065L57.2456 46.8304C57.3216 46.7544 57.3216 46.6784 57.3977 46.6784C57.4737 46.6024 57.6257 46.4503 57.7018 46.3743C57.9298 46.4503 58.1579 46.4503 58.386 46.5263H58.462H58.538H58.614C58.6901 46.5263 58.7661 46.6024 58.7661 46.6024C59.1462 46.3743 59.3743 46.8304 59.6784 46.8304L59.7544 46.9065C59.7544 46.9065 59.7544 46.9065 59.8304 46.9065H59.9064C59.9825 46.9065 59.9825 46.9065 59.9825 46.9065C59.9825 46.9065 60.0585 46.9065 60.1345 46.9825C60.2105 47.0585 60.2865 47.0585 60.2105 46.9825C60.2865 46.9825 60.2865 46.9825 60.2865 46.9825C60.2865 46.9825 60.2865 46.9825 60.4386 47.0585H60.5146C60.0585 47.0585 60.1345 47.1345 60.2105 47.1345C60.2865 47.1345 60.3626 47.1345 60.2105 47.0585C60.1345 46.9825 60.0585 46.9825 60.0585 46.9065C60.2105 46.9065 60.1345 46.8304 60.0585 46.7544C60.0585 46.7544 59.9825 46.7544 59.9825 46.6784H59.9064C59.7544 46.4503 59.4503 46.3743 59.4503 46.1462C59.2982 45.9942 59.2222 45.6901 58.9941 45.6141C58.9181 45.538 58.8421 45.462 58.8421 45.386C58.7661 45.31 58.7661 45.2339 58.7661 45.1579C58.8421 45.0059 58.8421 44.9299 58.7661 44.7778C58.7661 44.7018 58.7661 44.7018 58.7661 44.6258V44.5497V44.4737C58.7661 44.3977 58.8421 44.3977 58.8421 44.3217C58.9181 44.2456 58.9181 44.1696 58.8421 44.0176C58.6901 43.7895 58.9181 43.6375 58.9941 43.4854C59.0702 43.3334 59.0702 43.1053 59.1462 42.9532C59.5263 41.5088 59.8304 40.6725 59.9064 40.6725C60.0585 40.7486 59.9064 41.8129 59.6023 43.6375C59.6023 43.7895 59.6784 44.0176 59.5263 44.1696C59.5263 44.2456 59.5263 44.3977 59.5263 44.4737C59.5263 44.5497 59.5263 44.5497 59.5263 44.6258C59.6023 44.6258 59.6023 44.7018 59.6023 44.7018C59.6023 44.7018 59.6023 44.7778 59.6023 44.8538C59.7544 45.0059 59.9064 45.2339 60.1345 45.386C60.3626 45.462 60.4386 45.7661 60.6667 45.9182C60.6667 45.9942 60.7427 46.0702 60.8187 46.1462C60.8947 46.2222 60.9708 46.2983 61.0468 46.3743C61.1988 46.5263 61.3509 46.6784 61.5789 46.8304C61.655 46.9825 61.807 47.1345 61.9591 47.2866C62.1111 47.4386 62.4152 47.6667 62.5672 47.8187C62.4912 47.8948 62.6433 48.0468 62.8713 48.2749C63.0994 48.4269 63.4035 48.731 63.6316 48.9591C63.7076 49.0351 63.7076 49.0351 63.7836 49.1111C63.6316 49.1111 63.3275 49.0351 63.0994 48.9591C62.8713 48.8831 62.5672 48.807 62.4152 48.807C62.1111 48.731 61.883 48.655 61.655 48.655C61.4269 48.579 61.1228 48.579 60.8947 48.5029C60.6667 48.5029 60.3626 48.4269 60.0585 48.4269C59.9064 48.4269 59.7544 48.3509 59.6023 48.3509H59.5263H59.4503L59.3743 48.2749C59.0702 48.2749 58.7661 48.1228 58.462 48.0468C58.386 48.0468 58.3099 48.0468 58.2339 48.0468H58.1579H58.0819C58.0819 48.0468 58.0819 48.0468 58.0058 48.0468H57.9298C57.8538 48.1228 57.7778 48.1228 57.7018 48.1989C57.5497 48.2749 57.3977 48.4269 57.3977 48.579C57.2456 48.731 57.1696 48.807 57.0175 48.9591C56.9415 49.0351 56.6374 49.2632 56.4094 49.4913C56.1813 49.7193 55.9532 49.8714 55.7251 50.0994C55.4971 50.3275 55.269 50.5556 54.9649 50.8597C54.8129 50.8597 54.5848 51.0117 54.3567 51.2398C54.1287 51.4679 53.8246 51.848 53.5205 52.2281C53.5205 52 53.5965 51.6959 53.6725 51.3158C53.7485 50.9357 53.8246 50.6316 53.9766 50.2515C54.1287 49.6433 54.2807 48.9591 54.4327 48.3509C54.5848 47.5907 54.7368 47.4386 54.7368 47.0585C54.7368 46.9065 54.8129 46.7544 54.8889 46.6024C54.8889 46.5263 54.9649 46.4503 54.9649 46.3743V46.2983C54.9649 46.2983 54.9649 46.2983 54.8889 46.2983V46.2222L54.8129 46.1462C54.8129 46.0702 54.7368 46.0702 54.7368 45.9942C54.5088 45.7661 54.4327 45.386 54.0526 45.31L53.9766 45.2339H53.9006L53.8246 45.1579C53.6725 45.0819 53.5965 44.9299 53.4444 44.8538C53.2164 44.6258 52.9883 44.3977 52.9883 44.1696C52.7602 43.9415 52.6082 43.7895 52.4561 43.5614C52.3041 43.4094 52.2281 43.1813 51.8479 42.9532C51.924 42.8772 51.7719 42.7252 51.6199 42.5731C51.3918 42.4211 51.1637 42.193 50.9357 41.9649C51.0117 41.9649 51.0117 41.9649 51.0877 41.9649C51.3918 42.041 51.6959 42.193 52 42.193C52.2281 42.269 52.4561 42.269 52.6082 42.269C52.7602 42.269 53.0643 42.3451 53.2924 42.4211C53.5205 42.4971 53.8246 42.5731 53.9766 42.6491C54.1287 42.6491 54.4327 42.7252 54.6608 42.8012C54.7368 42.8772 54.8889 42.8772 54.9649 42.9532C55.0409 42.9532 55.193 43.0293 55.269 42.9532C55.4971 43.0293 55.7251 43.0293 55.9532 43.1813C56.2573 42.9532 56.4094 43.2573 56.6374 43.3334C56.7134 43.4094 56.7134 43.3334 56.7895 43.3334C56.7895 43.3334 56.7895 43.3334 56.8655 43.3334V43.2573C56.8655 43.1813 56.9415 43.1813 57.0175 43.1813C57.0936 43.1053 57.2456 43.1053 57.3216 43.0293C57.4737 42.9532 57.5497 42.7252 57.7778 42.6491C57.7778 42.4211 58.0819 42.4971 58.1579 42.3451C58.386 42.269 58.386 42.117 58.538 42.041C58.614 41.8889 58.7661 41.8129 58.8421 41.7369C58.9181 41.6608 59.0702 41.5848 59.1462 41.5088C59.5263 40.8246 59.9064 40.5965 59.9064 40.6725Z" fill="#121212"/>
</g>
<defs>
<clipPath id="clip0_2288_199">
<rect width="65" height="54.7368" fill="white"/>
</clipPath>
</defs>
</svg>
