<svg width="65" height="66" viewBox="0 0 65 66" fill="none" xmlns="http://www.w3.org/2000/svg">
<g clip-path="url(#clip0_2288_3203)">
<path d="M62.7692 2.15384C62.7692 2.15384 63 2.23076 63.3077 2.53845C63.6154 2.84614 64 3.38461 64.3846 4.15384C64.4615 4.38461 64.6154 4.6923 64.6923 4.99999C64.6923 5.07691 64.7692 5.15384 64.7692 5.23076C64.7692 5.30768 64.7692 5.38461 64.8462 5.46153C64.8462 5.53845 64.8462 5.61537 64.9231 5.6923C64.9231 5.76922 64.9231 5.84614 64.9231 5.99999C64.8462 6.15384 64.9231 6.38461 65 6.61538C65 6.84614 65.0769 6.99999 65 7.23076C64.9231 7.46153 64.9231 7.61537 64.9231 7.84614C64.8462 8.07691 64.8461 8.30768 64.7692 8.53845C64.7692 8.61538 64.6923 8.76922 64.6923 8.84614C64.6154 8.92307 64.6154 9.07691 64.5385 9.15384C64.4615 9.23076 64.4615 9.38461 64.3846 9.46153C64.3846 9.53845 64.3077 9.53845 64.3077 9.61537C64.3077 9.6923 64.2308 9.6923 64.2308 9.76922C64.2308 9.99999 64 10.2308 63.8462 10.3846C63.7692 10.4615 63.6154 10.5385 63.5385 10.6923C63.4615 10.7692 63.3846 10.9231 63.3077 11.0769C63.2308 11.1538 63.1538 11.3077 63.0769 11.3846C63 11.4615 62.9231 11.5385 62.8461 11.6923C62.6923 11.8461 62.4615 12.0769 62.3077 12.2308C61.8462 12.4615 61.5385 13 61.1538 13.3846C60.6154 13.6154 60.2308 14.1538 59.9231 14.6154C59.3077 14.8461 58.9231 15.3077 58.6154 15.9231C58.1538 16.3846 57.6923 16.7692 57.3077 17.3077C56.8462 17.7692 56.4615 18.3077 55.9231 18.7692C55.5385 19.3846 55.0769 19.8461 54.4615 20.2308C54.0769 20.8461 53.5385 21.3077 53 21.7692C52.3846 22.2308 52.0769 22.9231 51.4615 23.3077C50.9231 23.8461 50.4615 24.3846 49.8462 24.9231C49.5385 25.1538 49.2308 25.3846 49 25.6923C48.8462 25.8461 48.6923 26 48.6154 26.0769C48.4615 26.2308 48.3846 26.3846 48.2308 26.5385C47.6154 27.1538 46.9231 27.6923 46.0769 27.9231C45.9231 28.0769 45.6923 28.1538 45.4615 28.2308C45.2308 28.3077 45 28.3846 44.8462 28.3846C44.6154 28.3846 44.3846 28.4615 44.1538 28.4615C43.9231 28.4615 43.6923 28.4615 43.4615 28.3846C43.2308 28.3846 43 28.3846 42.7692 28.3846C42.5385 28.3077 42.3077 28.3077 42.0769 28.2308C41.8462 28.1538 41.6154 28.0769 41.3846 28.0769C41.1538 28 40.9231 27.9231 40.6923 27.9231C40.4615 27.8461 40.3077 27.6923 40.0769 27.6154C39.8462 27.5385 39.6923 27.3846 39.4615 27.3077C39.3077 27.1538 39.0769 27.0769 38.9231 26.9231C38.7692 26.7692 38.6154 26.6154 38.4615 26.4615C37.8462 25.7692 37.3846 25 36.9231 24.1538C36.8462 23.9231 36.6923 23.7692 36.6154 23.5385C36.5385 23.3077 36.5385 23.0769 36.4615 22.8461C36.4615 22.6154 36.3846 22.3846 36.3846 22.1538C36.3846 21.9231 36.3846 21.6923 36.3846 21.4615C36.4615 21.2308 36.4615 21 36.4615 20.7692C36.4615 20.5385 36.5385 20.3077 36.5385 20.0769C36.5385 19.8461 36.6154 19.6154 36.6154 19.3846C36.6923 19.1538 36.7692 18.9231 36.8462 18.7692C36.9231 18.5385 37 18.3846 37.1538 18.1538C37.2308 18 37.3846 17.7692 37.5385 17.6154C37.7692 17.2308 38.0769 16.9231 38.3077 16.6154C38.4615 16.4615 38.6154 16.3077 38.6923 16.1538C38.8462 16 38.9231 15.8461 39.0769 15.7692C39.3846 15.4615 39.6154 15.2308 39.9231 15C40.2308 14.2308 41.0769 14 41.5385 13.3846C42.1538 12.9231 42.5385 12.3077 43.0769 11.8461C43.5385 11.3077 44.1538 10.9231 44.6154 10.3077C45.1538 9.84614 45.5385 9.23076 46.0769 8.84614C46.4615 8.23076 47.0769 7.99999 47.5385 7.46153C48 6.99999 48.4615 6.53845 48.9231 6.15384C49.5385 5.84614 49.8462 5.30768 50.2308 4.84614C50.6923 4.46153 51 3.92307 51.4615 3.61537C51.8462 3.23076 52.3077 2.92307 52.6154 2.46153C52.7692 2.23076 53 2.15384 53.2308 1.99999C53.4615 1.84614 53.6154 1.6923 53.7692 1.38461C53.8462 1.53845 53.9231 1.46153 54.0769 1.38461C54.2308 1.30768 54.3077 1.23076 54.4615 1.23076C54.6154 1.07691 54.8462 0.99999 55 0.769221C55.0769 0.692298 55.0769 0.692298 55.1538 0.615375C55.2308 0.615375 55.2308 0.538452 55.3077 0.538452C55.3846 0.461529 55.5385 0.461529 55.6154 0.384606C55.6923 0.307683 55.8462 0.307683 56 0.307683C56.1538 0.307683 56.2308 0.23076 56.3077 0.23076C56.5385 0.153837 56.7692 0.153837 57 0.0769135C57.2308 0.0769135 57.4615 -9.56468e-06 57.6154 -9.56468e-06C58.5385 -0.0769326 59.3846 0.0769135 60.0769 0.307683C60.1538 0.307683 60.2308 0.384606 60.3077 0.384606C60.3846 0.384606 60.4615 0.461529 60.5385 0.461529C60.6154 0.461529 60.6923 0.538452 60.7692 0.538452C60.8462 0.538452 60.9231 0.615375 61 0.615375C61.1538 0.692298 61.2308 0.769221 61.3846 0.846144C61.4615 0.923067 61.6154 0.99999 61.6923 1.07691C61.7692 1.07691 61.7692 1.15384 61.8462 1.15384C61.9231 1.15384 61.9231 1.23076 62 1.23076C62.0769 1.30768 62.1538 1.38461 62.2308 1.46153C62.3846 1.61538 62.4615 1.6923 62.5385 1.76922C62.6923 2.07691 62.7692 2.15384 62.7692 2.15384C62.7692 2.15384 62.6154 2.07691 62.3846 1.92307C62.2308 1.84614 62.0769 1.76922 61.9231 1.61537C61.7692 1.53845 61.5385 1.38461 61.2308 1.23076C60.7692 0.99999 60.0769 0.769221 59.3077 0.692298C58.5385 0.615375 57.5385 0.615375 56.6154 0.923067C56.5385 0.923067 56.4615 0.99999 56.3077 1.07691C56.2308 1.15384 56.1538 1.15384 56 1.23076C55.9231 1.30768 55.8462 1.30768 55.6923 1.38461C55.6154 1.38461 55.6154 1.38461 55.5385 1.46153C55.4615 1.46153 55.4615 1.46153 55.3846 1.53845C55.2308 1.61537 55 1.76922 54.8462 1.92307C54.7692 1.99999 54.6923 2.07691 54.6154 2.15384C54.5385 2.23076 54.4615 2.30768 54.3077 2.38461C54.3077 2.46153 54.2308 2.46153 54.2308 2.53845C54.2308 2.53845 54.2308 2.61537 54.1538 2.61537L54.0769 2.6923C54 2.76922 53.9231 2.84614 53.7692 2.99999C53.5385 3.15384 53.3846 3.30768 53.1538 3.53845C52.7692 3.92307 52.3077 4.23076 52 4.6923C51.6923 5.15384 51.1538 5.46153 50.7692 5.92307C50.2308 6.23076 49.8462 6.6923 49.4615 7.23076C48.9231 7.61537 48.6154 8.15384 48.1538 8.61537C47.5385 8.92307 47.1538 9.53845 46.7692 10.0769C46.3077 10.6154 45.7692 11 45.3077 11.5385C44.7692 12 44.3077 12.5385 43.8462 13.0769C43.3846 13.6154 42.9231 14.2308 42.3077 14.6154C41.8462 15.1538 41.2308 15.6923 40.6923 16.2308C40.4615 16.5385 40.1538 16.7692 39.9231 17.0769C39.7692 17.2308 39.6154 17.3077 39.5385 17.4615C39.3846 17.6154 39.2308 17.7692 39.1538 17.8461C38.9231 18.0769 38.6923 18.3846 38.4615 18.6154C38.3846 18.7692 38.2308 18.9231 38.1538 19.0769C38.0769 19.2308 38 19.3846 38 19.6154C37.7692 20.3077 37.5385 21 37.6154 21.7692C37.6154 22.4615 37.6923 23.2308 38.0769 23.9231C38.0769 24.0769 38.1538 24.3077 38.2308 24.4615C38.3077 24.6154 38.3846 24.7692 38.5385 24.9231C38.6923 25.0769 38.7692 25.2308 38.9231 25.3846C39.0769 25.5385 39.2308 25.6154 39.3846 25.7692C39.9231 26.2308 40.5385 26.6923 41.2308 27C41.9231 27.2308 42.6154 27.3846 43.3846 27.4615C43.5385 27.4615 43.7692 27.4615 43.9231 27.3846C44.0769 27.3846 44.3077 27.3846 44.4615 27.3077C44.6154 27.3077 44.8462 27.2308 45 27.2308C45.1538 27.1538 45.3077 27.0769 45.5385 27C45.6923 26.9231 45.8462 26.8461 46 26.7692C46.1538 26.6923 46.3077 26.6154 46.4615 26.5385C46.5385 26.5385 46.6154 26.4615 46.6923 26.3846C46.7692 26.3077 46.8462 26.3077 46.9231 26.2308L47 26.1538L47.0769 26.0769C47.1538 26 47.2308 25.9231 47.2308 25.8461C47.3846 25.6923 47.4615 25.5384 47.6154 25.4615C47.7692 25.3077 47.8462 25.1538 48 25C48.3077 24.6923 48.5385 24.4615 48.8462 24.2308C49.3846 23.6923 50.0769 23.3077 50.4615 22.6154C50.9231 22.0769 51.3077 21.3846 52 21.0769C52.4615 20.5385 53.1538 20.1538 53.5385 19.5385C54.1538 19.2308 54.5385 18.5385 55 18.0769C55.5385 17.6154 56 17.2308 56.4615 16.6923C56.8462 16.1538 57.3846 15.8461 57.8461 15.3846C58.2308 14.8461 58.8462 14.6154 59.1538 14.0769C59.6154 13.6923 60 13.2308 60.3846 12.8461C60.6154 12.2308 61.1538 12.0769 61.5385 11.6923C61.7692 11.5385 61.9231 11.3077 62.0769 11.0769C62.1538 11 62.2308 10.8461 62.3077 10.7692C62.3846 10.6923 62.3846 10.6923 62.4615 10.6923C62.5385 10.6923 62.5385 10.6154 62.6154 10.6154C62.6154 10.4615 62.6923 10.3846 62.7692 10.3077C62.8462 10.2308 62.9231 10.1538 63 10.0769C63.1538 9.92307 63.3077 9.76922 63.4615 9.61537C63.4615 9.53845 63.5385 9.53845 63.5385 9.46153C63.5385 9.38461 63.6154 9.38461 63.6154 9.30768C63.6923 9.23076 63.6923 9.07691 63.6923 8.99999C63.7692 8.92307 63.7692 8.76922 63.7692 8.6923C63.7692 8.61537 63.8462 8.53845 63.9231 8.38461C63.9231 8.15384 64 7.99999 64.0769 7.76922C64.1538 7.61538 64.2308 7.38461 64.2308 7.23076C64.3077 7.07691 64.3077 6.84614 64.3077 6.6923C64.3077 6.53845 64.2308 6.30768 64.3077 6.15384C64.3077 6.07691 64.3077 5.99999 64.2308 5.92307C64.2308 5.84614 64.2308 5.76922 64.2308 5.6923C64.2308 5.61537 64.2308 5.53845 64.2308 5.46153C64.2308 5.38461 64.2308 5.30768 64.2308 5.23076C64.1538 4.92307 64.0769 4.6923 64 4.38461C63.7692 3.61537 63.3846 3.07691 63.1538 2.76922C62.8462 2.38461 62.7692 2.23076 62.7692 2.15384Z" fill="#2BBD81"/>
<path d="M37.1539 23.2307C37.2308 23.2307 37.3077 23.3845 37.3846 23.6922C37.5385 23.9999 37.6923 24.3845 38.0769 24.8461C38.1539 24.9999 38.3077 25.1538 38.4615 25.3845C38.5385 25.4615 38.6154 25.5384 38.6923 25.6153C38.7692 25.6922 38.8462 25.7692 38.9231 25.8461C39 25.9999 39.0769 25.9999 39.2308 26.0769C39.3846 26.1538 39.4615 26.1538 39.5385 26.3076C39.6923 26.5384 40 26.6153 40.3077 26.7692C40.3846 26.7692 40.4615 26.8461 40.5385 26.8461L40.6154 26.923L40.6923 26.9999C40.7692 27.0769 40.9231 27.0769 41 27.1538C41.0769 27.1538 41.0769 27.2307 41.1539 27.2307C41.2308 27.2307 41.3077 27.2307 41.3846 27.3076C41.6154 27.3076 41.7692 27.3845 41.9231 27.4615C42.0769 27.5384 42.1539 27.6153 42.3077 27.6153C42.3077 27.6153 42.3077 27.6153 42.3077 27.6922H42.2308C42.1539 27.6922 42.1539 27.7692 42.1539 27.7692C42.0769 27.8461 42.0769 27.923 42.0769 27.9999C41.9231 28.2307 41.6923 28.3845 41.4615 28.6153L41.3077 28.7692L41.1539 28.923C41.0769 28.9999 41 29.0769 40.9231 29.1538C40.5385 29.3076 40.3846 29.6922 40.0769 29.9999C39.6154 30.1538 39.3846 30.5384 39.1539 30.923C38.6923 31.0769 38.3846 31.3845 38.2308 31.923C37.9231 32.2307 37.5385 32.5384 37.2308 32.923C36.9231 33.3076 36.6154 33.6922 36.2308 33.9999C36 34.4615 35.6154 34.8461 35.1539 35.0769C34.9231 35.5384 34.4615 35.923 34.0769 36.2307C33.6154 36.5384 33.4615 37.0769 32.9231 37.3845C32.5385 37.7692 32.1539 38.2307 31.7692 38.5384C31.3077 38.8461 30.8462 39.2307 30.5385 39.7692C30.1539 40.2307 29.7692 40.6922 29.3077 40.9999C29 41.5384 28.5385 41.923 28.0769 42.2307C27.6923 42.6922 27.1539 42.9999 26.7692 43.5384C26.6923 43.6153 26.6923 43.6153 26.6154 43.6922L26.3846 43.923C26.2308 44.1538 26 44.3076 25.8462 44.5384C25.6923 44.7692 25.4615 44.923 25.3077 45.1538C25.2308 45.2307 25.1539 45.3076 25 45.4615C24.9231 45.5384 24.7692 45.6153 24.7692 45.6922C24.7692 45.6153 24.7692 45.4615 24.6923 45.3845L24.6154 44.923C24.6154 44.7692 24.5385 44.6153 24.5385 44.4615L24.6154 44.1538C24.6154 44.0769 24.6154 43.9999 24.5385 43.923C24.5385 43.7692 24.4615 43.6153 24.4615 43.5384V43.4615L24.3846 43.3845C24.3846 43.3076 24.3077 43.2307 24.3077 43.2307C24.2308 43.1538 24.1539 42.9999 24.0769 42.923C24 42.8461 23.9231 42.6922 23.8462 42.6153C23.7692 42.5384 23.7692 42.5384 23.6923 42.4615L23.6154 42.3845L23.5385 42.3076C23.4615 42.2307 23.3846 42.0769 23.3077 41.9999C23.2308 41.923 23.2308 41.923 23.1539 41.8461L23.0769 41.7692C23.0769 41.7692 23 41.7692 23 41.6922C22.8462 41.4615 22.6154 41.3076 22.3846 41.2307C22.2308 41.1538 22.1539 41.1538 22 41.0769C21.9231 41.0769 21.8462 40.9999 21.8462 40.9999C21.8462 40.9999 21.7692 40.9999 21.7692 40.923L21.5385 40.7692C21.3846 40.6922 21.1539 40.6922 21 40.6153H20.8462C20.7692 40.6153 20.7692 40.6153 20.6923 40.6153L20.3846 40.5384C20.2308 40.5384 20 40.4615 19.7692 40.4615C19.6154 40.4615 19.3846 40.3845 19.2308 40.3845L19.3077 40.3076C19.3077 40.3076 19.3077 40.3076 19.3077 40.2307L19.3846 40.1538L19.5385 39.9999C19.6154 39.923 19.7692 39.7692 19.8462 39.6922C20.1539 39.3076 20.5385 38.923 20.9231 38.5384L21.1539 38.3076C21.2308 38.2307 21.2308 38.2307 21.3077 38.1538C21.3846 38.0769 21.5385 37.9999 21.6154 37.8461C21.7692 37.2307 22.4615 37.0769 22.7692 36.6922C23.2308 36.3845 23.5385 35.923 23.9231 35.5384C24.2308 35.1538 24.7692 34.923 25.0769 34.4615C25.4615 34.0769 25.7692 33.6922 26.1539 33.3845C26.3846 32.923 26.9231 32.7692 27.2308 32.3845C27.5385 32.0769 27.9231 31.6922 28.2308 31.3845C28.6923 31.2307 28.9231 30.7692 29.2308 30.4615C29.5385 30.1538 29.7692 29.7692 30.1539 29.5384C30.4615 29.2307 30.8462 29.0769 31 28.6922C31.2308 28.3845 31.7692 28.3845 31.8462 27.923C32.0769 27.6153 32.5385 27.5384 32.6154 27.1538C32.6923 26.7692 33.0769 26.6922 33.3077 26.4615C33.5385 26.2307 33.7692 25.9999 34 25.8461C35.9231 24.1538 37.0769 23.1538 37.1539 23.2307C37.2308 23.3076 36.0769 24.7692 33.8462 27.0769C33.6154 27.3076 33.5385 27.6922 33.1538 27.7692C32.9231 27.9999 32.7692 28.3845 32.3846 28.5384C32.3077 28.923 31.8462 29.0769 31.6154 29.3845C31.3077 29.6922 31 29.923 30.7692 30.2307C30.5385 30.6153 30.1539 30.7692 29.8462 31.1538C29.4615 31.3845 29.1538 31.6922 28.9231 32.1538C28.5385 32.3845 28.3077 32.8461 27.9231 33.1538C27.4615 33.3845 27.2308 33.7692 26.9231 34.2307C26.6154 34.6153 26.1538 34.923 25.8462 35.3076C25.4615 35.6153 25.1539 36.0769 24.7692 36.4615C24.4615 36.923 24.0769 37.3076 23.6154 37.6153C23.3077 38.0769 22.8462 38.3845 22.4615 38.7692C22.3846 38.8461 22.3077 38.9999 22.1539 39.0769C22.0769 39.1538 22.0769 39.1538 22 39.2307C21.9231 39.3076 21.8462 39.3845 21.9231 39.3076L21.8462 39.3845H21.7692C21.7692 39.3845 21.7692 39.4615 21.8462 39.4615C21.8462 39.4615 22 39.4615 22.0769 39.4615L22.2308 39.5384L22.4615 39.6153C22.6154 39.6922 22.7692 39.7692 22.9231 39.8461C23.2308 39.9999 23.4615 40.2307 23.7692 40.3845C24.3077 40.8461 24.6923 41.3845 25.1539 41.923C25.2308 42.0769 25.2308 42.2307 25.3077 42.3845C25.3077 42.4615 25.3846 42.5384 25.3846 42.6153L25.4615 42.6922V42.7692C25.5385 42.8461 25.5385 42.8461 25.6154 42.8461L25.6923 42.7692L25.8462 42.6153C26.2308 42.1538 26.6923 41.7692 27.1539 41.3076C27.5385 40.8461 28.0769 40.5384 28.3846 40.0769C28.7692 39.6153 29.3077 39.3076 29.6154 38.8461C30 38.3845 30.3846 37.9999 30.8462 37.6153C31.2308 37.2307 31.7692 36.923 32 36.4615C32.3846 36.0769 32.5385 35.4615 33.1538 35.3076C33.4615 34.8461 34 34.6922 34.3077 34.2307C34.8462 33.9999 35.0769 33.5384 35.3846 33.1538C35.7692 32.8461 36.1539 32.5384 36.4615 32.1538C36.6923 31.7692 37.1539 31.5384 37.4615 31.1538C37.6923 30.7692 38.2308 30.6153 38.4615 30.2307C38.7692 29.923 39.0769 29.6153 39.3846 29.3076C39.4615 28.7692 40 28.6922 40.2308 28.4615C40.3077 28.3845 40.3846 28.3076 40.4615 28.2307C40.4615 28.2307 40.4615 28.2307 40.4615 28.1538V28.0769C40.4615 27.9999 40.4615 27.9999 40.6923 27.923C40.6154 27.923 40.6154 27.923 40.6154 27.8461C40.6154 27.8461 40.6154 27.8461 40.6154 27.7692V27.6922C40.6154 27.6922 40.6154 27.6922 40.5385 27.6922H40.4615C40.3846 27.6922 40.3846 27.6922 40.3077 27.6153H40.2308C40.1539 27.6153 40.1539 27.6153 40.0769 27.5384C40 27.4615 39.9231 27.4615 39.8462 27.3845C39.6923 27.3845 39.5385 27.2307 39.3846 27.1538C39.3077 26.9999 39.1539 26.923 39 26.8461C38.8462 26.6153 38.5385 26.4615 38.3846 26.2307C38.3077 26.1538 38.1539 26.0769 38.0769 25.923C38 25.8461 37.9231 25.6922 37.8462 25.6153C37.6923 25.3845 37.6154 25.2307 37.4615 24.9999C37.1539 24.4615 37 23.9999 36.9231 23.6153C37.1539 23.4615 37.1539 23.3076 37.1539 23.2307Z" fill="#2BBD81"/>
<path d="M23.7692 41.4615C23.7692 41.4615 23.9231 41.4615 24.0769 41.6154C24.1538 41.6154 24.1538 41.6923 24.2308 41.7692C24.3077 41.8461 24.3077 41.8461 24.3846 41.923C24.4615 42 24.5385 42.0769 24.5385 42.1538C24.6154 42.2307 24.6923 42.3077 24.6923 42.3846C24.7692 42.4615 24.7692 42.5384 24.8462 42.6154C24.8462 42.6923 24.9231 42.7692 25 42.8461C25.0769 42.923 25.0769 43 25.1538 43.0769C25.2308 43.1538 25.2308 43.2307 25.2308 43.3846C25.2308 43.4615 25.3077 43.5384 25.3846 43.6923C25.4615 43.7692 25.5385 43.8461 25.4615 44C25.4615 44.0769 25.4615 44.0769 25.4615 44.1538C25.4615 44.2307 25.4615 44.2307 25.4615 44.3077C25.4615 44.3846 25.5385 44.5384 25.5385 44.6154C25.5385 44.7692 25.5385 44.8461 25.5385 45C25.5385 45.0769 25.5385 45.1538 25.5385 45.1538C25.5385 45.2307 25.5385 45.3077 25.5385 45.3846C25.6154 45.5384 25.6154 45.6923 25.5385 45.7692C25.4615 45.923 25.3846 46 25.5385 46.1538C25.5385 46.3077 25.5385 46.4615 25.4615 46.6154C25.4615 46.7692 25.3846 46.923 25.3077 47.0769C25.1538 47.2307 25.1538 47.3077 25.0769 47.4615C25.0769 47.5384 25.0769 47.6154 25 47.6923C25 47.7692 24.9231 47.8461 24.9231 47.923C24.7692 48 24.6923 48.1538 24.6154 48.3077C24.5385 48.4615 24.4615 48.6154 24.4615 48.7692C24 48.8461 23.8462 49.1538 23.7692 49.5384C23.5385 49.7692 23.2308 49.923 23.0769 50.2307C22.8462 50.4615 22.6154 50.7692 22.3846 51C22.2308 51.3846 22 51.6154 21.6154 51.7692C21.4615 52.1538 21.1538 52.3846 20.8462 52.5384C20.7692 52.6154 20.6923 52.6154 20.6154 52.6923L20.5385 52.7692C20.5385 52.8461 20.4615 52.8461 20.4615 52.923C20.3077 53.0769 20.1538 53.3077 19.9231 53.3077C19.8462 53.3846 19.7692 53.4615 19.6923 53.5384C19.6154 53.6154 19.5385 53.6923 19.3846 53.6923C19.3077 53.7692 19.2308 53.8461 19.0769 53.8461C19 53.923 18.8462 53.923 18.7692 54C18.5385 54.0769 18.3077 54.0769 18.0769 54.1538C18 54.1538 17.8462 54.2307 17.7692 54.2307C17.6923 54.3077 17.5385 54.3077 17.4615 54.3846C17 54.5384 16.5385 54.6154 16.0769 54.4615C16.0769 54.6154 16 54.6154 15.8462 54.6154C15.6923 54.6154 15.6154 54.6154 15.4615 54.6154C15.3846 54.6154 15.3077 54.6154 15.3077 54.5384C15.2308 54.5384 15.2308 54.4615 15.1538 54.4615C15.0769 54.3846 14.9231 54.3846 14.8462 54.3077C14.3846 54.1538 14 53.923 13.5385 53.6923C13.1538 53.4615 12.6923 53.2307 12.3846 52.7692C12.0769 52.3846 11.8462 52 11.4615 51.6154C11.3846 51.5384 11.3077 51.4615 11.2308 51.3077C11.1538 51.2307 11.1538 51.0769 11.0769 51C11 50.923 11 50.7692 11 50.6154C11 50.4615 10.9231 50.3846 10.8462 50.3077C10.8462 50.1538 10.8462 50.0769 10.8462 49.923C10.8462 49.8461 10.8462 49.8461 10.7692 49.7692V49.6923C10.7692 49.6154 10.6923 49.4615 10.6923 49.3846C10.6923 49.2307 10.6923 49.1538 10.6923 49C10.6923 48.8461 10.6923 48.7692 10.6923 48.6154C10.6923 48.4615 10.6923 48.3846 10.7692 48.2307C10.7692 48.1538 10.7692 48 10.8462 47.923C10.8462 47.8461 10.8462 47.6923 10.8462 47.6154C10.8462 47.5384 10.8462 47.3846 10.9231 47.3077C10.9231 47.2307 11 47.0769 11 47C11.0769 46.7692 11.1538 46.5384 11.3077 46.3846C11.3077 46.2307 11.3077 46.1538 11.3846 46C11.4615 45.923 11.5385 45.8461 11.6154 45.6923C11.6923 45.6154 11.7692 45.5384 11.8462 45.4615C11.9231 45.3846 12 45.3077 12.0769 45.2307C12.2308 45.0769 12.3846 44.923 12.5385 44.7692L12.6154 44.6154L12.6923 44.5384C12.7692 44.4615 12.8462 44.3846 12.9231 44.3077C13.1538 44 13.5385 43.8461 13.6923 43.5384C14 43.3077 14.1538 42.923 14.4615 42.7692C14.6154 42.3846 15.0769 42.3846 15.2308 42.0769C15.4615 41.8461 15.6923 41.6154 15.9231 41.3846C16 41.3846 16.0769 41.3077 16.1538 41.3077C16.2308 41.2307 16.3077 41.2307 16.3077 41.1538C16.3846 41 16.5385 40.8461 16.6154 40.7692C16.7692 40.6923 16.8462 40.5384 17 40.4615C17.1538 40.3846 17.3077 40.3077 17.4615 40.2307C17.5385 40.1538 17.6154 40.1538 17.6923 40.1538C17.7692 40.1538 17.8462 40.0769 17.9231 40.0769C18 40.0769 18.0769 40 18.1538 40C18.2308 40 18.3077 39.923 18.3846 39.923C18.5385 39.8461 18.6923 39.8461 18.8462 39.923C19 39.923 19.1538 39.923 19.2308 39.7692C19.3846 39.6923 19.5385 39.7692 19.6154 39.7692C19.7692 39.7692 19.9231 39.8461 20 39.6923C20.0769 39.6154 20.1538 39.6154 20.2308 39.6154C20.3077 39.6154 20.3846 39.6154 20.4615 39.6154C20.6154 39.6154 20.6923 39.6923 20.8462 39.6923C21 39.6923 21.0769 39.7692 21.2308 39.7692C21.3077 39.7692 21.3077 39.7692 21.3846 39.7692C21.4615 39.7692 21.4615 39.7692 21.5385 39.8461C22.4615 40.1538 23.1538 40.5384 23.5385 40.923C23.7692 41.0769 23.8462 41.2307 23.9231 41.3846C23.7692 41.3077 23.7692 41.3846 23.7692 41.4615C23.7692 41.4615 23.6923 41.4615 23.5385 41.3846C23.4615 41.3077 23.3846 41.3077 23.3077 41.2307C23.2308 41.1538 23.0769 41.0769 23 41C23 41 22.9231 41 22.9231 40.923C22.9231 40.923 22.8462 40.923 22.8462 40.8461C22.7692 40.8461 22.6923 40.7692 22.6154 40.7692C22.5385 40.6923 22.4615 40.6923 22.3846 40.6923C22.3077 40.6923 22.2308 40.6154 22.0769 40.6154C21.6923 40.4615 21.2308 40.3846 20.6923 40.3846C20.6154 40.3846 20.4615 40.3846 20.3846 40.4615C20.3077 40.4615 20.3077 40.4615 20.2308 40.4615C20.1538 40.4615 20.1538 40.4615 20.0769 40.3846C20 40.3846 19.8462 40.3846 19.7692 40.4615C19.6923 40.4615 19.5385 40.5384 19.3846 40.4615C19.3077 40.6154 19.1538 40.6154 19.0769 40.6154C18.9231 40.6154 18.8462 40.6154 18.6923 40.6923C18.6154 40.6923 18.5385 40.7692 18.5385 40.7692C18.4615 40.7692 18.3846 40.8461 18.3846 40.8461C18.3077 40.8461 18.2308 40.923 18.2308 40.923C18.1538 40.923 18.1538 41 18.0769 41.0769C18 41.2307 17.8462 41.2307 17.7692 41.3077C17.6154 41.3846 17.5385 41.4615 17.4615 41.5384C17.3077 41.6154 17.1538 41.6923 17.0769 41.7692C17 41.8461 17 41.923 16.9231 41.923C16.8462 42 16.8462 42.0769 16.7692 42.1538C16.4615 42.3077 16.3077 42.6154 16.0769 42.8461C15.6923 42.923 15.5385 43.3077 15.3846 43.6154C15.1538 43.923 14.8462 44.0769 14.6154 44.3846C14.3077 44.6154 14.1538 44.923 13.8462 45.1538C13.7692 45.2307 13.7692 45.3077 13.6923 45.3846C13.6923 45.4615 13.6154 45.4615 13.6154 45.4615L13.5385 45.5384C13.4615 45.6923 13.3077 45.7692 13.1538 45.8461C13.1538 45.923 13.0769 46 13 46.0769C12.9231 46.1538 12.9231 46.2307 12.8462 46.3077C12.7692 46.3846 12.7692 46.4615 12.6923 46.5384C12.6154 46.6154 12.6154 46.6923 12.5385 46.7692C12.4615 46.923 12.4615 47.0769 12.3846 47.2307C12.3846 47.3077 12.3077 47.3846 12.3077 47.4615C12.3077 47.5384 12.2308 47.6154 12.2308 47.6923C12.2308 47.7692 12.2308 47.8461 12.1538 47.923C12.1538 48 12.0769 48.0769 12.0769 48.1538C12.0769 48.2307 12.0769 48.3077 12.0769 48.4615C12.0769 48.5384 12.0769 48.6154 12.1538 48.7692C12.1538 49.1538 12.2308 49.5384 12.3077 49.8461C12.3846 50.2307 12.5385 50.6154 12.7692 50.8461C12.7692 50.923 12.7692 51.0769 12.8462 51.1538C12.9231 51.2307 12.9231 51.3077 13 51.3846C13.0769 51.4615 13.1538 51.5384 13.2308 51.6154C13.3077 51.6923 13.3846 51.6923 13.4615 51.7692C13.7692 52 14.0769 52.2307 14.3846 52.4615C14.6923 52.6154 15.0769 52.7692 15.3846 52.923C15.4615 52.923 15.5385 52.923 15.6923 53C15.7692 53 15.7692 53 15.8462 53.0769C15.9231 53.0769 15.9231 53.0769 16 53.0769C16.0769 53.0769 16.1538 53.1538 16.3077 53.1538C16.3846 53.1538 16.4615 53.1538 16.6154 53.1538C16.6923 53.1538 16.7692 53.1538 16.9231 53.1538C17 53.1538 17.0769 53.1538 17.2308 53.1538C17.3077 53.1538 17.3846 53.1538 17.5385 53.1538C17.6154 53.1538 17.6923 53.1538 17.7692 53.0769C17.8462 53.0769 17.9231 53 18 53C18.0769 53 18.1538 52.923 18.2308 52.923C18.3846 52.8461 18.5385 52.8461 18.7692 52.7692C18.8462 52.7692 18.9231 52.6923 19 52.6923C19.0769 52.6923 19.1538 52.6154 19.2308 52.6154C19.3077 52.6154 19.3846 52.5384 19.4615 52.4615C19.5385 52.3846 19.6154 52.3077 19.6154 52.2307C19.7692 52.1538 19.8462 51.923 19.9231 51.8461L20 51.7692L20.0769 51.6923C20.1538 51.6154 20.2308 51.6154 20.3846 51.6154C20.6154 51.3077 21 51.1538 21.1538 50.8461C21.5385 50.7692 21.6923 50.3077 21.9231 50.0769C22.2308 49.8461 22.5385 49.6923 22.6923 49.3846C22.8462 49.0769 23.2308 48.923 23.3846 48.6923C23.3846 48.6154 23.4615 48.5384 23.5385 48.5384C23.6154 48.4615 23.6923 48.4615 23.7692 48.3846C23.9231 48.3077 24 48.2307 24.0769 48.0769C24.1538 48 24.2308 47.8461 24.3077 47.7692C24.3846 47.6154 24.4615 47.5384 24.5385 47.4615C24.5385 47.3846 24.5385 47.3077 24.5385 47.2307C24.5385 47.1538 24.6154 47.0769 24.6154 47.0769C24.6923 47 24.8462 46.923 24.8462 46.7692C24.9231 46.6923 24.9231 46.5384 24.9231 46.3846C24.9231 46.2307 24.9231 46.1538 25.0769 46.0769C25 45.923 25 45.8461 25 45.6923C25.0769 45.6154 25.0769 45.4615 25.1538 45.3846C25.1538 45.3077 25.1538 45.3077 25.1538 45.2307C25.1538 45.1538 25.1538 45.1538 25.1538 45.0769C25.1538 45 25.1538 44.8461 25.1538 44.7692C25.0769 44.6923 25.0769 44.5384 25.0769 44.4615C25.0769 44.3846 25.0769 44.3846 25.0769 44.3077C25.0769 44.2307 25.0769 44.2307 25.0769 44.1538C25.0769 44.0769 25.0769 43.923 25.0769 43.8461C25.0769 43.7692 25 43.6923 25 43.6154C24.9231 43.5384 24.9231 43.4615 24.9231 43.3846C24.9231 43.3077 24.8462 43.2307 24.8462 43.1538C24.8462 43.0769 24.7692 43 24.7692 42.923C24.7692 42.8461 24.6923 42.7692 24.6923 42.6923C24.6154 42.6154 24.6154 42.5384 24.5385 42.4615C24.4615 42.3846 24.4615 42.3077 24.3846 42.2307C24.3077 42.1538 24.3077 42.0769 24.3077 42C24.3077 41.923 24.2308 41.923 24.2308 41.8461C23.7692 41.5384 23.7692 41.4615 23.7692 41.4615Z" fill="#2BBD81"/>
<path d="M59.8461 5.1538C59.8461 5.1538 59.9231 5.1538 60.0769 5.1538C60.1538 5.1538 60.1538 5.23072 60.2308 5.23072C60.3077 5.30765 60.3846 5.38457 60.4615 5.46149C60.5385 5.53841 60.5385 5.53841 60.6154 5.61534L60.6923 5.69226C60.6923 5.69226 60.7692 5.76918 60.7692 5.84611C60.6923 5.99995 61.0769 5.92303 60.9231 6.07688C60.9231 6.23072 61 6.30765 61.0769 6.38457C61.1538 6.46149 61.0769 6.61534 61.1538 6.76918C61.2308 6.84611 61.2308 6.92303 61.1538 6.99995C61.0769 7.07688 61.0769 7.1538 61.2308 7.23072C61.3077 7.38457 61.3077 7.53841 61.2308 7.69226C61.1538 7.76918 61.1538 7.84611 61.1538 7.92303C61.1538 7.99995 61.2308 8.07688 61.2308 8.1538C61 8.23072 61.0769 8.46149 61.1538 8.61534C60.8461 8.69226 60.8461 8.84611 61 9.07688C61 9.1538 60.9231 9.23072 60.8461 9.30765L60.7692 9.38457C60.7692 9.46149 60.7692 9.46149 60.7692 9.53841C60.6923 9.61534 60.6923 9.69226 60.6154 9.76918C60.5385 9.84611 60.4615 9.92303 60.3846 9.99995C60.3846 10.1538 60.3077 10.2307 60.2308 10.3076C60.2308 10.3076 60.1538 10.3846 60.0769 10.3846C60 10.3846 60 10.3846 59.9231 10.3846C59.8461 10.6923 59.6154 10.6923 59.3846 10.6923C59.2308 10.6923 59.2308 10.7692 59.0769 10.8461C59 10.923 58.9231 11 58.7692 10.923C58.6923 10.923 58.5385 11 58.4615 11C58.3846 11 58.2308 11.0769 58.1538 11.0769C58.0769 11.0769 58.0769 11.0769 58 11.0769C57.9231 11.0769 57.9231 11.0769 57.8461 11.0769C57.7692 11.0769 57.6154 11.0769 57.5385 11.1538C57.4615 11.1538 57.3077 11.2307 57.1538 11.1538C57.0769 11.1538 56.9231 11.1538 56.8461 11.0769C56.5385 11.2307 56.3846 11.0769 56.1538 10.8461C56.0769 10.8461 55.9231 10.7692 55.8461 10.6923C55.7692 10.6153 55.6154 10.5384 55.5385 10.5384C55.4615 10.4615 55.3077 10.3846 55.2308 10.3076C55.1538 10.2307 55 10.1538 55 10.0769C54.9231 9.99995 54.8461 9.84611 54.7692 9.76918C54.6923 9.69226 54.6154 9.61534 54.5385 9.53841C54.3846 9.46149 54.3846 9.38457 54.3077 9.23072C54.2308 9.07688 54.2308 8.99995 54.1538 8.92303C54.1538 8.76918 54.1538 8.69226 54.0769 8.53841C54 8.46149 53.9231 8.30765 53.9231 8.23072C53.8461 8.1538 53.9231 7.99995 53.9231 7.92303C53.9231 7.84611 53.9231 7.69226 53.8461 7.61534C53.8461 7.53841 53.8461 7.53841 53.8461 7.46149C53.8461 7.38457 53.8461 7.38457 53.8461 7.30765C53.8461 7.23072 53.8461 7.23072 53.8461 7.1538C53.8461 6.92303 53.8461 6.84611 53.8461 6.84611C53.6923 6.69226 53.7692 6.61534 53.8461 6.53841C53.9231 6.46149 54 6.38457 54 6.23072C54.0769 6.1538 54.1538 6.07688 54.1538 5.92303C54.1538 5.84611 54.2308 5.69226 54.2308 5.61534C54.2308 5.53841 54.3077 5.46149 54.3846 5.38457C54.5385 5.30765 54.6154 5.23072 54.6154 5.07688C54.6154 5.07688 54.6923 4.99995 54.6923 4.92303C54.6923 4.84611 54.7692 4.84611 54.7692 4.76918C54.8461 4.69226 54.9231 4.61534 55 4.61534C55 4.46149 55.0769 4.46149 55.2308 4.38457C55.3077 4.38457 55.4615 4.30765 55.4615 4.23072L55.5385 4.1538L55.6923 4.07688C55.7692 3.99995 55.8461 3.99995 55.9231 3.99995C56.0769 4.07688 56.1538 4.07688 56.2308 3.99995C56.3077 3.92303 56.3846 3.84611 56.4615 3.84611C56.6154 3.84611 56.7692 3.61534 56.9231 3.76918C57 3.76918 57.0769 3.76918 57.1538 3.76918C57.2308 3.76918 57.3077 3.76918 57.3846 3.69226C57.4615 3.69226 57.5385 3.76918 57.6154 3.76918C57.6923 3.84611 57.7692 3.84611 57.8461 3.69226C57.9231 3.69226 58 3.69226 58.0769 3.76918C58.1538 3.84611 58.2308 3.84611 58.3077 3.76918C58.4615 3.61534 58.5385 3.84611 58.6923 3.84611C58.7692 3.84611 58.9231 3.92303 59 3.99995C59.4615 4.23072 59.6923 4.46149 59.8461 4.69226C59.8461 4.92303 59.8461 5.07688 59.8461 5.1538C59.8461 5.1538 59.7692 5.1538 59.6923 5.1538C59.6154 5.1538 59.5385 5.07688 59.3846 4.99995C59.1538 4.92303 58.7692 4.76918 58.3077 4.69226C58.2308 4.69226 58.0769 4.84611 58 4.69226C57.9231 4.69226 57.9231 4.69226 57.8461 4.69226C57.7692 4.69226 57.7692 4.69226 57.6923 4.69226C57.6154 4.76918 57.6154 4.76918 57.5385 4.76918C57.4615 4.76918 57.4615 4.69226 57.3846 4.69226C57.3077 4.69226 57.3077 4.69226 57.2308 4.69226C57.1538 4.69226 57.1538 4.69226 57.0769 4.76918C57 4.92303 56.8461 4.76918 56.7692 4.92303C56.6154 4.84611 56.4615 4.92303 56.4615 5.07688C56.3846 5.07688 56.3077 5.07688 56.3077 5.1538L56.2308 5.23072L56.1538 5.30765C56.0769 5.23072 56 5.30765 55.9231 5.38457C55.9231 5.46149 55.8461 5.53841 55.8461 5.61534C55.8461 5.69226 55.7692 5.76918 55.6923 5.76918L55.6154 5.84611C55.6154 5.84611 55.6154 5.92303 55.5385 5.92303C55.4615 5.92303 55.4615 6.07688 55.3846 6.1538C55.3846 6.23072 55.3846 6.30765 55.3846 6.38457C55.3846 6.46149 55.3077 6.53841 55.2308 6.53841C55.2308 6.61534 55.2308 6.69226 55.2308 6.76918C55.2308 6.84611 55.1538 6.92303 55.1538 6.99995C55.1538 7.07688 55.1538 7.07688 55.1538 7.07688V7.1538V7.23072V7.30765C55.1538 7.38457 55.1538 7.46149 55.0769 7.53841C55.0769 7.61534 55.0769 7.69226 55.1538 7.76918C55.2308 7.92303 55.2308 8.07688 55.3077 8.23072C55.3077 8.30765 55.3077 8.38457 55.3846 8.46149C55.4615 8.53841 55.4615 8.61534 55.5385 8.61534C55.4615 8.76918 55.5385 8.84611 55.6154 8.84611C55.6923 8.92303 55.7692 8.92303 55.8461 8.92303C55.9231 8.92303 56 8.99995 56.0769 9.07688C56.1538 9.1538 56.1538 9.1538 56.2308 9.23072C56.3077 9.23072 56.3846 9.30765 56.4615 9.30765C56.5385 9.38457 56.6154 9.38457 56.6923 9.38457C56.8461 9.38457 56.9231 9.61534 57.1538 9.53841C57.2308 9.53841 57.3077 9.53841 57.3846 9.61534C57.4615 9.69226 57.5385 9.69226 57.6154 9.61534C57.6923 9.61534 57.7692 9.53841 57.8461 9.53841H57.9231H58C58.0769 9.53841 58.1538 9.53841 58.2308 9.53841C58.3077 9.53841 58.3846 9.53841 58.4615 9.38457C58.5385 9.30765 58.5385 9.23072 58.6154 9.23072C58.6923 9.1538 58.6923 9.1538 58.8461 9.23072C58.9231 9.1538 59 9.1538 59.0769 9.1538C59.1538 9.1538 59.2308 9.07688 59.2308 8.99995C59.3077 8.99995 59.3077 8.99995 59.3846 8.99995L59.4615 8.92303C59.4615 8.84611 59.5385 8.76918 59.5385 8.76918C59.6154 8.76918 59.6923 8.69226 59.6923 8.69226C59.7692 8.61534 59.7692 8.61534 59.7692 8.53841C59.7692 8.46149 59.7692 8.46149 59.7692 8.46149L59.8461 8.38457C59.9231 8.30764 60 8.30765 60 8.23072C60 8.1538 60 8.07688 60.0769 8.07688C60.1538 7.99995 60.1538 7.99995 60.1538 7.92303C60.2308 7.84611 60.2308 7.69226 60.3077 7.61534C60.1538 7.53841 60.1538 7.46149 60.2308 7.46149C60.3077 7.38457 60.3846 7.38457 60.3846 7.30765C60.3846 7.23072 60.3846 7.23072 60.3077 7.1538C60.3077 7.07688 60.3077 7.07688 60.3846 6.99995C60.3077 6.92303 60.2308 6.92303 60.3077 6.84611C60.3077 6.76918 60.3846 6.76918 60.3846 6.69226C60.4615 6.61534 60.2308 6.53841 60.3846 6.38457C60.3077 6.38457 60.3077 6.30765 60.3077 6.23072C60.3077 6.1538 60.3846 6.1538 60.3077 6.07688C60.3846 5.92303 60.2308 5.92303 60.2308 5.84611L60.1538 5.76918C60.1538 5.76918 60.1538 5.69226 60.1538 5.61534C60.1538 5.53841 60.0769 5.46149 60.0769 5.46149C60 5.38457 60 5.30765 60 5.23072C60 5.1538 59.9231 5.07688 59.9231 5.07688C59.8461 5.23072 59.7692 5.1538 59.8461 5.1538Z" fill="#2BBD81"/>
<path d="M4.92308 60.3077C4.84616 60.2307 4.84616 60.1538 4.92308 60V59.9231C4.92308 59.9231 4.92308 59.8461 5 59.8461C5.07693 59.9231 4.92308 59.6923 5.07693 59.7692C5.15385 59.7692 5.15385 59.6923 5.15385 59.6923C5.15385 59.6154 5.23077 59.6923 5.23077 59.5384C5.15385 59.3846 5.46154 59.6154 5.30769 59.3846C5.30769 59.2307 5.30769 59.2307 5.38462 59.2307C5.53846 59.3077 5.46154 59.1538 5.46154 59.0769C5.61539 59.1538 5.61539 59.0769 5.53846 58.9231C5.76923 59.0769 5.76923 59 5.61539 58.7692C5.61539 58.6923 5.76923 58.7692 5.76923 58.6154C5.76923 58.5384 5.84616 58.4615 5.92308 58.4615C5.84616 58.3077 5.92308 58.2308 6.07693 58.3077C6 58.1538 6.07693 58.1538 6.23077 58.1538C6.38462 58.1538 6.23077 57.9231 6.38462 58C6.46154 57.9231 6.46154 57.8461 6.53846 57.8461C6.61539 57.8461 6.76923 57.8461 6.69231 57.6923C6.69231 57.6154 6.69231 57.5384 6.84616 57.5384C6.76923 57.3077 6.84616 57.3846 7 57.3846C7 57.3077 7.15385 57.3846 7.15385 57.2307C7.23077 57.2307 7.23077 57.0769 7.30769 57.0769C7.38462 57.0769 7.53846 57.0769 7.46154 56.9231C7.46154 56.7692 7.61539 56.8461 7.61539 56.7692C7.76923 56.8461 7.69231 56.6154 7.76923 56.6154C7.84616 56.5384 7.92308 56.6154 7.92308 56.4615C7.92308 56.3846 8 56.3077 8.07693 56.3077C7.92308 56.0769 8.23077 56.2307 8.23077 56.1538C8.38462 56.1538 8.30769 56 8.38462 56C8.38462 55.9231 8.61539 56 8.53846 55.8461C8.61539 55.8461 8.53846 55.6923 8.69231 55.6923C8.61539 55.5384 8.84616 55.6923 8.84616 55.5384C8.92308 55.4615 8.92308 55.4615 9 55.3846C9.23077 55.5384 9.07693 55.3077 9.15385 55.3077C9.23077 55.3077 9.15385 55.1538 9.3077 55.2308C9.38462 55.2308 9.46154 55.2307 9.46154 55.1538C9.46154 55.0769 9.76923 55.3077 9.61539 55.0769C9.61539 55 9.84616 55.1538 9.76923 55C9.69231 54.8461 9.84616 54.9231 9.92308 54.9231L10 54.8461C10.3077 54.6923 10.5385 54.6154 10.6154 54.6923C10.6923 54.7692 10.6154 55.0769 10.3846 55.4615C10.3846 55.4615 10.4615 55.6154 10.3077 55.6154C10.3077 55.6154 10.3077 55.7692 10.2308 55.7692C10.3077 55.9231 10.1538 55.8461 10.1538 55.9231C10.1538 56 10 55.9231 10.0769 56.0769C10.1538 56.2307 9.92308 56.0769 10 56.2307C9.84616 56.1538 9.84616 56.2308 9.92308 56.3846C9.76923 56.3077 9.84616 56.4615 9.76923 56.5384C9.61539 56.4615 9.61539 56.6154 9.61539 56.6923C9.61539 56.7692 9.46154 56.7692 9.46154 56.8461C9.38462 56.8461 9.38462 57 9.3077 57C9.3077 57.0769 9.30769 57.1538 9.15385 57.1538C9.15385 57.2308 9.07693 57.2307 9 57.3077C9 57.3846 8.92308 57.3846 8.84616 57.4615C8.84616 57.5384 8.61539 57.4615 8.69231 57.6154C8.69231 57.6923 8.53846 57.6923 8.53846 57.7692C8.46154 57.7692 8.38462 57.8461 8.38462 57.9231C8.15385 57.8461 8.23077 58 8.23077 58.0769C8.23077 58.1538 8.15385 58.2307 8.07693 58.2307C8 58.3077 8 58.3846 7.92308 58.3846C7.92308 58.4615 7.76923 58.4615 7.76923 58.5384C7.76923 58.6923 7.61539 58.6154 7.61539 58.6923C7.61539 58.7692 7.53846 58.8461 7.46154 58.8461C7.38462 58.9231 7.23077 58.8461 7.30769 59C7.30769 59.0769 7.38462 59.3077 7.15385 59.1538C7.15385 59.2307 6.92308 59.1538 7 59.3077C6.76923 59.2307 6.92308 59.3846 6.84616 59.4615C6.76923 59.4615 6.69231 59.4615 6.69231 59.6154C6.69231 59.7692 6.53846 59.6923 6.53846 59.7692C6.61539 59.9231 6.30769 59.7692 6.38462 59.8461C6.30769 59.8461 6.3077 59.9231 6.23077 59.9231C6.38462 60.1538 6.15385 60 6.07693 60C6 60 6.15385 60.2307 5.92308 60.0769C6 60.1538 5.84616 60 5.76923 60C5.69231 60 5.76923 60.1538 5.61539 60.0769C5.69231 60.2307 5.46154 60.0769 5.53846 60.1538C5.46154 60.0769 5.46154 60.2308 5.46154 60.2308C5.46154 60.3077 5.46154 60.3077 5.38462 60.3077H5.30769C5.07693 60.3846 5 60.3846 4.92308 60.3077Z" fill="#2BBD81"/>
<path d="M13.3846 65.2308C13.3077 65.2308 13.2308 65.077 13.2308 64.9231V64.8462V64.7693C13.3077 64.7693 13.0769 64.6154 13.2308 64.6154C13.3077 64.6154 13.2308 64.5385 13.2308 64.4616C13.2308 64.3847 13.3077 64.3847 13.2308 64.3077C13.0769 64.2308 13.4615 64.3077 13.2308 64.1539C13.1538 64.077 13.2308 64.077 13.2308 64C13.3846 64 13.2308 63.9231 13.2308 63.8462C13.4615 63.8462 13.3846 63.7693 13.2308 63.6924C13.5385 63.6924 13.4615 63.6154 13.2308 63.5385C13.2308 63.4616 13.3846 63.4616 13.2308 63.3847C13.2308 63.3077 13.2308 63.2308 13.2308 63.1539C13.0769 63.077 13.0769 63.0001 13.2308 62.9231C13.0769 62.7693 13.1538 62.7693 13.3077 62.6924C13.4615 62.6154 13.1538 62.5385 13.3846 62.4616C13.3846 62.3847 13.3846 62.3077 13.4615 62.2308C13.5385 62.1539 13.6923 62.1539 13.5385 62C13.5385 61.9231 13.4615 61.8462 13.6154 61.7693C13.4615 61.6154 13.5385 61.6154 13.6923 61.5385C13.6923 61.4616 13.8462 61.3847 13.7692 61.3077C13.8462 61.2308 13.6923 61.1539 13.8462 61.077C13.9231 61 14 60.9231 13.9231 60.8462C13.8462 60.7693 14 60.6924 14 60.6154C14.2308 60.6154 14 60.4616 14.0769 60.3847C14.0769 60.3077 14.2308 60.2308 14.1538 60.1539C14.1538 60.077 14.1538 60 14.2308 59.9231C14 59.7693 14.3077 59.7693 14.3077 59.6924C14.4615 59.6154 14.3077 59.5385 14.3846 59.4616C14.3846 59.3847 14.5385 59.3847 14.4615 59.2308C14.5385 59.1539 14.3846 59.077 14.5385 59.077C14.3846 59 14.6923 59 14.6154 58.9231C14.6154 58.8462 14.6154 58.7693 14.6923 58.7693C14.9231 58.7693 14.7692 58.6924 14.7692 58.6154C14.8462 58.5385 14.6923 58.4616 14.8462 58.4616C14.8462 58.3847 15 58.3847 14.9231 58.3077C14.9231 58.2308 15.3077 58.3077 15 58.1539C14.9231 58.077 15.2308 58.1539 15.0769 58C14.9231 57.9231 15.1538 57.9231 15.1538 57.8462C15.1538 57.7693 15.2308 57.7693 15.2308 57.7693C15.3846 57.4616 15.6154 57.3077 15.6923 57.3077C15.8462 57.3077 15.8462 57.6154 15.8462 58.077C15.8462 58.1539 16 58.2308 15.8462 58.2308C15.8462 58.3077 15.9231 58.3847 15.8462 58.3847C16 58.4616 15.8462 58.4616 15.8462 58.5385C15.8462 58.6154 15.7692 58.6154 15.8462 58.6924C15.9231 58.7693 15.7692 58.7693 15.8462 58.8462C15.6923 58.8462 15.6923 58.9231 15.8462 59C15.6923 59 15.8462 59.1539 15.8462 59.1539C15.6154 59.1539 15.7692 59.2308 15.8462 59.3847C15.9231 59.4616 15.7692 59.5385 15.8462 59.6154C15.7692 59.6924 15.8462 59.7693 15.8462 59.8462C15.9231 59.9231 15.9231 60 15.7692 60.077C15.8462 60.1539 15.7692 60.2308 15.6923 60.3077C15.7692 60.3847 15.6154 60.4616 15.6154 60.5385C15.6154 60.6154 15.3846 60.6154 15.5385 60.7693C15.5385 60.8462 15.4615 60.9231 15.4615 61.0001C15.3846 61.077 15.3846 61.1539 15.3846 61.2308C15.1538 61.2308 15.2308 61.3847 15.3077 61.4616C15.3077 61.5385 15.3077 61.6154 15.2308 61.6924C15.2308 61.7693 15.2308 61.8462 15.1538 61.9231C15.2308 62 15 62.077 15.0769 62.1539C15.1538 62.2308 14.9231 62.3077 15 62.3847C15.0769 62.4616 15.0769 62.5385 14.9231 62.6154C14.9231 62.6924 14.6923 62.6924 14.8462 62.8462C14.8462 62.9231 15.0769 63.077 14.7692 63.077C14.8462 63.1539 14.6154 63.1539 14.6923 63.3077C14.4615 63.3077 14.6154 63.4616 14.6154 63.5385C14.5385 63.6154 14.4615 63.6154 14.5385 63.6924C14.6154 63.7693 14.4615 63.7693 14.4615 63.8462C14.5385 63.9231 14.3077 63.9231 14.3846 64C14.3077 64.077 14.3846 64.1539 14.3077 64.1539C14.5385 64.3077 14.3077 64.2308 14.2308 64.3077C14.1538 64.3847 14.3846 64.4616 14.1538 64.4616C14.3846 64.5385 14.1538 64.5385 14.0769 64.6154C14 64.6154 14.1538 64.6924 14 64.7693C14.1538 64.8462 13.9231 64.8462 13.9231 64.8462C13.8462 64.8462 13.9231 64.9231 13.8462 64.9231C13.8462 65.0001 13.8462 65 13.7692 65C13.7692 65 13.7692 65.077 13.6923 65.077C13.5385 65.1539 13.4615 65.2308 13.3846 65.2308Z" fill="#121212"/>
<path d="M23.2308 65.2308C23.1538 65.2308 23.0769 65.1539 22.9231 65.0769C22.9231 65.0769 22.9231 65 22.8462 65L22.7692 64.9231C22.8462 64.8462 22.5385 64.9231 22.6923 64.8462C22.6923 64.7693 22.6923 64.7693 22.6154 64.7693C22.5385 64.7693 22.6923 64.6923 22.5385 64.6154C22.3077 64.6154 22.7692 64.4616 22.4615 64.4616C22.3846 64.4616 22.3846 64.3846 22.3846 64.3077C22.5385 64.2308 22.3846 64.2308 22.3077 64.1539C22.4615 64.077 22.3846 64 22.2308 64C22.4615 63.8462 22.3846 63.8462 22.1538 63.8462C22.1538 63.7693 22.2308 63.6923 22.0769 63.6923C22.0769 63.6154 22 63.6154 22 63.5385C21.8462 63.5385 21.7692 63.4616 21.9231 63.3846C21.6923 63.3846 21.7692 63.3077 21.8462 63.1539C21.9231 63.0769 21.6154 63.077 21.7692 62.9231C21.7692 62.8462 21.6923 62.7693 21.6923 62.6923C21.7692 62.6154 21.8462 62.5385 21.6154 62.4616C21.5385 62.3846 21.4615 62.3077 21.5385 62.2308C21.3077 62.2308 21.3846 62.077 21.4615 62C21.3846 61.9231 21.5385 61.8462 21.3846 61.7693C21.3846 61.6923 21.2308 61.6154 21.3077 61.5385C21.3077 61.4616 21.3846 61.3846 21.2308 61.3077C21.0769 61.2308 21.2308 61.1539 21.1538 61.077C21.3077 60.9231 21.0769 60.9231 21.0769 60.8462C21.0769 60.7693 21.1538 60.6923 21 60.6154C20.9231 60.5385 20.9231 60.4616 20.9231 60.3846C20.6154 60.3846 20.9231 60.2308 20.8462 60.1539C20.9231 60.0769 20.7692 60 20.7692 59.9231C20.6923 59.8462 20.8462 59.7693 20.6923 59.6923C20.6923 59.6154 20.5385 59.6154 20.6923 59.4616C20.5385 59.4616 20.7692 59.3077 20.6923 59.2308C20.6923 59.1539 20.6154 59.077 20.6923 59.077C20.9231 58.9231 20.6923 58.9231 20.6923 58.9231C20.6923 58.8462 20.5385 58.8462 20.6923 58.7693C20.6923 58.6923 20.7692 58.6154 20.6923 58.6154C20.6154 58.5385 21 58.4616 20.6923 58.4616C20.6154 58.4616 20.9231 58.3077 20.6923 58.3077C20.5385 58.3077 20.6923 58.2308 20.6923 58.1539C20.6923 58.077 20.6923 58.077 20.6923 58C20.6923 57.6154 20.7692 57.3846 20.8462 57.3846C21 57.3846 21.1538 57.5385 21.3846 57.9231C21.3846 58 21.5385 58 21.4615 58.077C21.4615 58.1539 21.6154 58.1539 21.5385 58.2308C21.7692 58.2308 21.6154 58.3077 21.6154 58.3846C21.6154 58.4616 21.6154 58.5385 21.6923 58.5385C21.8462 58.5385 21.6923 58.6923 21.7692 58.6923C21.6923 58.7693 21.6923 58.8462 21.8462 58.8462C21.7692 58.9231 21.9231 58.9231 21.9231 59C21.7692 59.0769 21.9231 59.1539 22 59.1539C22.0769 59.2308 22 59.3077 22.0769 59.3077C22.0769 59.3846 22.1538 59.4616 22.1538 59.5385C22.2308 59.6154 22.3077 59.6154 22.2308 59.7693C22.3077 59.8462 22.3077 59.9231 22.3077 60C22.3846 60.077 22.3077 60.1539 22.3846 60.2308C22.4615 60.3077 22.2308 60.4616 22.4615 60.4616C22.5385 60.5385 22.4615 60.6154 22.5385 60.6923C22.5385 60.7693 22.5385 60.8462 22.6154 60.9231C22.4615 61.0769 22.6154 61.077 22.6923 61.1539C22.7692 61.2308 22.7692 61.3077 22.7692 61.3846C22.8462 61.4616 22.8462 61.5385 22.8462 61.6154C22.9231 61.6923 22.7692 61.7693 22.9231 61.8462C23 61.9231 22.8462 62 23 62.0769C23.0769 62.1539 23.1538 62.2308 23.0769 62.3077C23.0769 62.3846 22.9231 62.5385 23.1538 62.5385C23.2308 62.6154 23.4615 62.6154 23.2308 62.7693C23.3077 62.8462 23.1538 62.9231 23.2308 63C23.0769 63.1539 23.2308 63.1539 23.2308 63.2308C23.2308 63.3077 23.1538 63.3846 23.2308 63.4616C23.3846 63.4616 23.2308 63.6154 23.2308 63.6154C23.3846 63.6154 23.0769 63.7693 23.2308 63.7693C23.2308 63.8462 23.3077 63.8462 23.2308 63.9231C23.5385 63.9231 23.2308 64 23.2308 64.077C23.2308 64.1539 23.4615 64.1539 23.2308 64.2308C23.4615 64.2308 23.3077 64.3077 23.2308 64.3846C23.1538 64.4616 23.3077 64.4616 23.2308 64.5385C23.3846 64.5385 23.1538 64.6154 23.2308 64.6923C23.1538 64.7693 23.2308 64.7693 23.2308 64.8462C23.3077 64.8462 23.3077 64.9231 23.2308 64.9231V65C23.3077 65.077 23.3077 65.1539 23.2308 65.2308Z" fill="#121212"/>
<path d="M31.6923 60.3077C31.6154 60.3846 31.5385 60.3846 31.3846 60.3077H31.3077C31.3077 60.3077 31.2308 60.3077 31.2308 60.2308C31.3077 60.1539 31.0769 60.3077 31.1538 60.1539C31.1538 60.0769 31.0769 60.0769 31.0769 60.0769C31 60.0769 31.0769 60 30.9231 60C30.7692 60.0769 31 59.7692 30.7692 59.9231C30.6923 59.9231 30.6923 59.8462 30.6154 59.8462C30.6923 59.6923 30.5385 59.7692 30.4615 59.7692C30.5385 59.6154 30.4615 59.6154 30.3077 59.6923C30.4615 59.4615 30.3846 59.4615 30.1538 59.6154C30.0769 59.6154 30.1538 59.4616 30 59.4616C29.9231 59.4616 29.8462 59.3846 29.8462 59.3077C29.6923 59.3846 29.6154 59.3077 29.6923 59.1539C29.5385 59.2308 29.5385 59.1539 29.5385 59C29.5385 58.8462 29.3077 59 29.3846 58.8462C29.3077 58.7692 29.2308 58.7692 29.2308 58.6923C29.2308 58.6154 29.2308 58.4615 29.0769 58.5385C29 58.5385 28.9231 58.5385 28.9231 58.3846C28.6923 58.4615 28.7692 58.3846 28.7692 58.2308C28.6923 58.2308 28.7692 58.0769 28.6154 58.0769C28.6154 58 28.4615 58 28.4615 57.9231C28.4615 57.8462 28.4615 57.6923 28.3077 57.7692C28.1538 57.7692 28.2308 57.6154 28.1538 57.6154C28.2308 57.4615 28 57.5385 28 57.4615C27.9231 57.3846 28 57.3077 27.8462 57.3077C27.7692 57.3077 27.6923 57.2308 27.6923 57.1539C27.4615 57.3077 27.6154 57 27.5385 57C27.5385 56.8462 27.3846 56.9231 27.3846 56.8462C27.3077 56.8462 27.3846 56.6154 27.2308 56.6923C27.2308 56.6154 27.0769 56.6923 27.0769 56.5385C26.9231 56.6154 27.0769 56.3846 26.9231 56.3846C26.8462 56.3077 26.8462 56.3077 26.7692 56.2308C26.9231 56 26.6923 56.1539 26.6923 56.0769C26.6923 56 26.5385 56.0769 26.6154 55.9231C26.6154 55.8462 26.6154 55.7692 26.5385 55.7692C26.4615 55.7692 26.6923 55.4615 26.4615 55.6154C26.3846 55.6154 26.5385 55.3846 26.3846 55.4615C26.2308 55.5385 26.3077 55.3846 26.3077 55.3077L26.2308 55.2308C26.0769 54.9231 26 54.6923 26.0769 54.6154C26.1538 54.5385 26.4615 54.6154 26.8462 54.8462C26.8462 54.8462 27 54.7692 27 54.9231C27 54.9231 27.1538 54.9231 27.1538 55C27.3077 54.9231 27.2308 55.0769 27.3077 55.0769C27.3846 55.0769 27.3077 55.2308 27.4615 55.1539C27.6154 55.0769 27.4615 55.3077 27.6154 55.2308C27.5385 55.3846 27.6154 55.3846 27.7692 55.3077C27.6923 55.4615 27.8462 55.3846 27.9231 55.4615C27.8462 55.6154 28 55.6154 28.0769 55.6154C28.1538 55.6154 28.1538 55.7692 28.2308 55.7692C28.2308 55.8462 28.3846 55.8462 28.3846 55.9231C28.5385 55.9231 28.5385 55.9231 28.5385 56.0769C28.6154 56.0769 28.6154 56.1539 28.6923 56.2308C28.7692 56.2308 28.7692 56.3077 28.8462 56.3846C28.9231 56.3846 28.8462 56.6154 29 56.5385C29.0769 56.5385 29.0769 56.6923 29.1538 56.6923C29.1538 56.7692 29.2308 56.8462 29.3077 56.8462C29 57 29.1538 56.9231 29.2308 56.9231C29.3077 56.9231 29.3846 57 29.3846 57.0769C29.4615 57.1539 29.5385 57.1539 29.5385 57.2308C29.6154 57.2308 29.6154 57.3846 29.6923 57.3846C29.8462 57.3846 29.7692 57.5385 29.8462 57.5385C29.9231 57.5385 30 57.6154 30 57.6923C30.0769 57.7692 30 57.9231 30.1538 57.8462C30.2308 57.8462 30.4615 57.7692 30.3077 58C30.3846 58 30.3077 58.2308 30.4615 58.1539C30.3846 58.3846 30.5385 58.2308 30.6154 58.3077C30.6154 58.3846 30.6154 58.4615 30.7692 58.4615C30.9231 58.4615 30.8462 58.6154 30.9231 58.6154C31.0769 58.5385 30.9231 58.8462 31 58.7692C31 58.8462 31.0769 58.8462 31.0769 58.9231C31.3077 58.7692 31.1538 59 31.1538 59.0769C31.1538 59.1539 31.3846 59 31.2308 59.2308C31.3846 59.0769 31.3077 59.3077 31.3077 59.3846C31.3077 59.4615 31.4615 59.3846 31.3846 59.5385C31.5385 59.4615 31.3846 59.6923 31.4615 59.6154C31.3846 59.6923 31.5385 59.6923 31.5385 59.6923C31.6154 59.6923 31.6154 59.6923 31.6154 59.7692V59.8462C31.6923 60.1539 31.7692 60.2308 31.6923 60.3077Z" fill="#121212"/>
<path d="M4.92308 33.5384C5 33.4615 5.07693 33.4615 5.23077 33.5384H5.30769C5.30769 33.5384 5.38462 33.5384 5.38462 33.6153C5.30769 33.6923 5.53846 33.5384 5.46154 33.6923C5.46154 33.7692 5.53846 33.7692 5.53846 33.7692C5.61539 33.7692 5.53846 33.8461 5.69231 33.8461C5.84616 33.7692 5.61539 34.0769 5.84616 33.923C5.92308 33.923 5.92308 33.9999 6 33.9999C5.92308 34.1538 6.07693 34.0769 6.15385 34.0769C6.07693 34.2307 6.15385 34.2307 6.30769 34.1538C6.15385 34.3846 6.23077 34.3846 6.46154 34.2307C6.53846 34.2307 6.46154 34.3846 6.61539 34.3846C6.69231 34.3846 6.76923 34.4615 6.76923 34.5384C6.92308 34.4615 6.92308 34.5384 6.92308 34.6923C7.07693 34.6153 7.07693 34.6923 7.07693 34.8461C7.07693 34.9999 7.30769 34.8461 7.23077 34.9999C7.30769 35.0769 7.38462 35.0769 7.38462 35.1538C7.38462 35.2307 7.38462 35.3846 7.53846 35.3076C7.61539 35.3076 7.69231 35.3076 7.69231 35.4615C7.92308 35.3846 7.84616 35.4615 7.84616 35.6153C7.92308 35.6153 7.84616 35.8461 8 35.7692C8 35.8461 8.15385 35.8461 8.15385 35.923C8.15385 35.9999 8.15385 36.1538 8.30769 36.0769C8.46154 36.0769 8.38462 36.2307 8.46154 36.2307C8.38462 36.3846 8.61539 36.3076 8.61539 36.3846C8.69231 36.4615 8.61539 36.5384 8.76923 36.5384C8.84616 36.5384 8.92308 36.6153 8.92308 36.6923C9.15385 36.5384 9 36.8461 9.07693 36.8461C9.07693 36.9999 9.23077 36.923 9.23077 36.9999C9.30769 36.9999 9.23077 37.2307 9.38462 37.1538C9.38462 37.2307 9.53846 37.1538 9.53846 37.3076C9.69231 37.2307 9.53846 37.4615 9.69231 37.4615C9.76923 37.5384 9.76923 37.5384 9.84616 37.6153C9.69231 37.8461 9.92308 37.6923 9.92308 37.7692C9.92308 37.8461 10.0769 37.7692 10 37.923C10 37.9999 10 38.0769 10.0769 38.0769C10.1538 38.0769 9.92308 38.3846 10.1538 38.2307C10.2308 38.2307 10.0769 38.4615 10.2308 38.3846C10.3846 38.3076 10.3077 38.4615 10.3077 38.5384L10.3846 38.6153C10.5385 38.923 10.6154 39.1538 10.5385 39.2307C10.4615 39.3076 10.1538 39.2307 9.76923 38.9999C9.76923 38.9999 9.61539 39.0769 9.61539 38.923C9.61539 38.923 9.46154 38.923 9.46154 38.8461C9.30769 38.923 9.38462 38.7692 9.30769 38.7692C9.23077 38.7692 9.30769 38.6153 9.15385 38.6923C9 38.7692 9.15385 38.5384 9 38.6153C9.07692 38.4615 9 38.4615 8.84616 38.5384C8.92308 38.3846 8.76923 38.4615 8.69231 38.3846C8.76923 38.2307 8.61539 38.2307 8.53846 38.2307C8.46154 38.2307 8.46154 38.0769 8.38462 38.0769C8.38462 37.9999 8.23077 37.9999 8.23077 37.923C8.15385 37.923 8.07693 37.923 8.07693 37.7692C8 37.7692 8 37.6923 7.92308 37.6153C7.84616 37.6153 7.84616 37.5384 7.76923 37.4615C7.69231 37.4615 7.76923 37.2307 7.61539 37.3076C7.53846 37.3076 7.53846 37.1538 7.46154 37.1538C7.46154 37.0769 7.38462 36.9999 7.30769 36.9999C7.38462 36.7692 7.23077 36.8461 7.15385 36.8461C7.07693 36.8461 7 36.7692 7 36.6923C6.92308 36.6153 6.84616 36.6153 6.84616 36.5384C6.76923 36.5384 6.76923 36.3846 6.69231 36.3846C6.53846 36.3846 6.61539 36.2307 6.53846 36.2307C6.46154 36.2307 6.38462 36.1538 6.38462 36.0769C6.30769 35.9999 6.38462 35.8461 6.23077 35.923C6.15385 35.923 5.92308 35.9999 6.07693 35.7692C6 35.7692 6.07693 35.5384 5.92308 35.6153C6.15385 35.3076 5.92308 35.3846 5.92308 35.3846C5.92308 35.3076 5.92308 35.2307 5.76923 35.2307C5.61539 35.2307 5.69231 35.0769 5.61539 35.0769C5.46154 35.1538 5.61539 34.8461 5.53846 34.923C5.53846 34.8461 5.46154 34.8461 5.46154 34.7692C5.23077 34.923 5.38462 34.6923 5.38462 34.6153C5.38462 34.5384 5.15385 34.6923 5.30769 34.4615C5.15385 34.6153 5.23077 34.3846 5.23077 34.3076C5.23077 34.2307 5.07693 34.3076 5.15385 34.1538C5 34.2307 5.15385 33.9999 5.07693 34.0769C5.15385 33.9999 5 33.9999 5 33.9999C4.92308 33.9999 4.92308 33.9999 4.92308 33.923V33.8461C4.84616 33.6923 4.84616 33.6153 4.92308 33.5384Z" fill="#121212"/>
<path d="M0 41.9999C0 41.923 0.153846 41.8461 0.307692 41.8461H0.384615H0.461538C0.461538 41.923 0.615385 41.6923 0.615385 41.8461C0.615385 41.923 0.692308 41.8461 0.769231 41.8461C0.846154 41.8461 0.846154 41.923 0.923077 41.8461C1 41.6923 0.923077 42.0769 1.07692 41.8461C1.15385 41.7692 1.15385 41.8461 1.23077 41.8461C1.23077 41.9999 1.30769 41.8461 1.38462 41.8461C1.38462 42.0769 1.46154 41.9999 1.53846 41.8461C1.53846 42.1538 1.61538 42.0769 1.69231 41.8461C1.76923 41.8461 1.76923 41.9999 1.84615 41.8461C1.92308 41.8461 2 41.8461 2.07692 41.8461C2.15385 41.6923 2.23077 41.6923 2.30769 41.8461C2.46154 41.6923 2.46154 41.7692 2.53846 41.923C2.61538 42.0769 2.69231 41.7692 2.76923 41.9999C2.84615 41.9999 2.92308 41.9999 3 42.0769C3.07692 42.1538 3.07692 42.3076 3.23077 42.1538C3.30769 42.1538 3.38462 42.0769 3.46154 42.2307C3.61538 42.0769 3.61538 42.1538 3.69231 42.3076C3.76923 42.3076 3.84615 42.4615 3.92308 42.3846C4 42.4615 4.07692 42.3076 4.15385 42.4615C4.23077 42.5384 4.30769 42.6153 4.38462 42.5384C4.46154 42.4615 4.53846 42.6153 4.61538 42.6153C4.61538 42.8461 4.76923 42.6153 4.84615 42.6922C4.92308 42.6922 5 42.8461 5.07692 42.7692C5.15385 42.7692 5.23077 42.7692 5.30769 42.8461C5.38462 42.5384 5.38462 42.923 5.46154 42.8461C5.53846 42.9999 5.61538 42.8461 5.69231 42.923C5.76923 42.923 5.76923 43.0769 5.92308 42.9999C6 43.0769 6.07692 42.923 6.15385 43.0769C6.15385 42.923 6.15385 43.2307 6.23077 43.1538C6.30769 43.1538 6.38462 43.1538 6.38462 43.2307C6.38462 43.4615 6.46154 43.3076 6.53846 43.3076C6.61538 43.3846 6.69231 43.2307 6.69231 43.3846C6.76923 43.3846 6.76923 43.5384 6.84615 43.4615C6.92308 43.4615 6.84615 43.8461 7 43.5384C7.07692 43.4615 7 43.7692 7.15385 43.6153C7.23077 43.4615 7.23077 43.6922 7.30769 43.6922L7.38462 43.7692C7.69231 43.923 7.84615 44.1538 7.84615 44.2307C7.84615 44.3846 7.53846 44.3846 7.07692 44.3846C7 44.3846 6.92308 44.5384 6.92308 44.3846C6.84615 44.3846 6.76923 44.4615 6.76923 44.3846C6.69231 44.5384 6.69231 44.3846 6.61539 44.3846C6.53846 44.3846 6.53846 44.3076 6.46154 44.3846C6.38462 44.4615 6.38462 44.3076 6.30769 44.3846C6.30769 44.2307 6.23077 44.2307 6.15385 44.3846C6.15385 44.2307 6 44.3846 6 44.3846C6 44.1538 5.92308 44.3076 5.76923 44.3846C5.69231 44.4615 5.61538 44.3076 5.53846 44.3846C5.46154 44.3076 5.38462 44.3846 5.30769 44.3076C5.23077 44.3846 5.15385 44.3846 5.07692 44.2307C5 44.3076 4.92308 44.2307 4.84615 44.1538C4.76923 44.2307 4.69231 44.0769 4.61538 44.0769C4.53846 44.0769 4.53846 43.8461 4.38462 43.9999C4.30769 43.9999 4.23077 43.923 4.15385 43.923C4.07692 43.8461 4 43.8461 3.92308 43.8461C3.92308 43.6153 3.76923 43.6923 3.69231 43.7692C3.61538 43.7692 3.53846 43.7692 3.46154 43.6922C3.38462 43.6922 3.30769 43.6923 3.23077 43.6153C3.15385 43.6923 3.07692 43.4615 3 43.5384C2.92308 43.6153 2.84615 43.3846 2.76923 43.4615C2.69231 43.5384 2.61538 43.5384 2.53846 43.3846C2.46154 43.3846 2.46154 43.1538 2.30769 43.3076C2.23077 43.3076 2.07692 43.5384 2.07692 43.2307C2 43.3076 2 43.0769 1.84615 43.1538C1.84615 42.923 1.69231 43.0769 1.69231 43.0769C1.61538 42.9999 1.61538 42.923 1.53846 42.9999C1.53846 43.1538 1.53846 42.923 1.46154 42.9999C1.38462 43.0769 1.38462 42.8461 1.30769 42.923C1.23077 42.8461 1.15385 42.923 1.15385 42.8461C1 43.0769 1.07692 42.8461 1 42.7692C0.923077 42.6922 0.846154 42.923 0.846154 42.6922C0.769231 42.923 0.769231 42.6923 0.692308 42.6153C0.692308 42.5384 0.615385 42.6922 0.538462 42.5384C0.461538 42.6922 0.461538 42.4615 0.461538 42.4615C0.461538 42.3846 0.384615 42.4615 0.384615 42.3846C0.307692 42.3846 0.307692 42.3846 0.307692 42.3076C0.307692 42.3076 0.230769 42.3076 0.230769 42.2307C0.0769231 42.2307 0 42.0769 0 41.9999Z" fill="#121212"/>
<path d="M0 51.8462C0 51.7693 0.0769231 51.6923 0.153846 51.5385C0.153846 51.5385 0.230769 51.5385 0.230769 51.4616L0.307692 51.3846C0.384615 51.4616 0.307692 51.1539 0.384615 51.3077C0.461538 51.3077 0.461538 51.3077 0.461538 51.2308C0.461538 51.1539 0.538462 51.3077 0.615385 51.1539C0.615385 50.9231 0.769231 51.3846 0.769231 51.077C0.769231 51 0.846154 51 0.923077 51C1 51.1539 1 51 1.07692 50.9231C1.15385 51.077 1.23077 51 1.23077 50.8462C1.38462 51.077 1.38462 51 1.38462 50.7693C1.46154 50.7693 1.53846 50.8462 1.53846 50.6923C1.61538 50.6923 1.61538 50.6154 1.69231 50.6154C1.69231 50.4616 1.76923 50.3846 1.84615 50.5385C1.84615 50.3077 1.92308 50.3846 2.07692 50.4616C2.30769 50.6923 2.30769 50.3846 2.38462 50.5385C2.46154 50.5385 2.53846 50.4616 2.61538 50.4616C2.69231 50.5385 2.76923 50.6154 2.84615 50.3846C2.92308 50.3077 3 50.2308 3.07692 50.3077C3.07692 50.077 3.23077 50.1539 3.30769 50.2308C3.38462 50.1539 3.46154 50.3077 3.53846 50.1539C3.61538 50.1539 3.69231 50 3.76923 50.077C3.84615 50.077 3.92308 50.1539 4 50C4.07692 49.8462 4.15385 50 4.23077 49.9231C4.38462 50.077 4.38462 49.8462 4.46154 49.8462C4.53846 49.8462 4.61538 49.9231 4.69231 49.7693C4.76923 49.6923 4.84615 49.6923 4.92308 49.6923C4.92308 49.3846 5.07692 49.6923 5.15385 49.6154C5.23077 49.6923 5.30769 49.5385 5.38462 49.5385C5.46154 49.4616 5.53846 49.6154 5.61539 49.4616C5.69231 49.4616 5.69231 49.3077 5.84615 49.4616C5.84615 49.3077 6 49.5385 6.07692 49.4616C6.15385 49.4616 6.23077 49.3846 6.23077 49.4616C6.38462 49.6923 6.38462 49.4616 6.38462 49.4616C6.46154 49.4616 6.46154 49.3077 6.53846 49.4616C6.61538 49.4616 6.69231 49.5385 6.69231 49.4616C6.76923 49.3846 6.84615 49.7693 6.84615 49.4616C6.84615 49.3846 7 49.6923 7 49.4616C7 49.2308 7.07692 49.4616 7.15385 49.4616C7.23077 49.4616 7.23077 49.4616 7.30769 49.4616C7.69231 49.4616 7.92308 49.5385 7.92308 49.6154C7.92308 49.7693 7.76923 49.9231 7.38462 50.1539C7.30769 50.1539 7.30769 50.3077 7.23077 50.2308C7.15385 50.2308 7.15385 50.3846 7.07692 50.3077C7.07692 50.5385 7 50.3846 6.92308 50.3846C6.84615 50.3846 6.76923 50.3846 6.76923 50.4616C6.76923 50.6154 6.61539 50.4616 6.61539 50.5385C6.53846 50.4616 6.46154 50.4616 6.46154 50.6154C6.38462 50.5385 6.38462 50.6923 6.30769 50.6923C6.23077 50.5385 6.15385 50.6923 6.15385 50.7693C6.07692 50.8462 6 50.7693 6 50.8462C5.92308 50.8462 5.84615 50.9231 5.76923 50.9231C5.69231 51 5.69231 51.077 5.53846 51C5.46154 51.077 5.38462 51.077 5.30769 51.077C5.23077 51.1539 5.15385 51.077 5.07692 51.1539C5 51.2308 4.84615 51 4.84615 51.2308C4.76923 51.3077 4.69231 51.2308 4.61538 51.3077C4.53846 51.3077 4.46154 51.3077 4.38462 51.3846C4.23077 51.2308 4.23077 51.3846 4.15385 51.4616C4.07692 51.5385 3.92308 51.4616 3.84615 51.4616C3.76923 51.5385 3.69231 51.5385 3.61538 51.5385C3.53846 51.6154 3.46154 51.4616 3.38462 51.6154C3.30769 51.6923 3.23077 51.5385 3.15385 51.6923C3.07692 51.7693 3.07692 51.7693 2.92308 51.6923C2.84615 51.6923 2.69231 51.5385 2.69231 51.7693C2.61538 51.8462 2.61538 52.077 2.46154 51.8462C2.46154 51.8462 2.30769 51.6923 2.30769 51.8462C2.15385 51.6923 2.15385 51.8462 2.07692 51.8462C2 51.8462 1.92308 51.7693 1.84615 51.8462C1.84615 52 1.69231 51.8462 1.69231 51.8462C1.69231 52 1.53846 51.6923 1.53846 51.8462C1.46154 51.8462 1.46154 51.9231 1.38462 51.8462C1.38462 52.1539 1.30769 51.8462 1.23077 51.8462C1.15385 51.8462 1.15385 52.077 1.07692 51.8462C1.07692 52.077 1 51.9231 0.923077 51.8462C0.846154 51.7693 0.846154 51.9231 0.769231 51.8462C0.769231 52 0.692308 51.7693 0.615385 51.8462C0.538462 51.7693 0.538462 51.8462 0.461538 51.8462C0.461538 51.9231 0.384615 51.9231 0.384615 51.8462H0.307692C0.153846 52 0 51.9231 0 51.8462Z" fill="#121212"/>
<path d="M43.1538 40.2308C43.2308 40.2308 43.1538 40.6154 42.8462 41.2308C42.7692 41.3077 42.7692 41.4616 42.6923 41.5385C42.6154 41.6923 42.6154 41.7693 42.5385 41.9231C42.3846 42 42.6154 42.3077 42.3846 42.3077C42.3077 42.3846 42.2308 42.6154 42.1538 42.7692C42.0769 42.9231 41.9231 43.0769 41.9231 43.2308C42 43.3846 41.8462 43.3846 41.7692 43.4616C41.6923 43.4616 41.6923 43.5385 41.6923 43.5385C41.6923 43.5385 41.6923 43.6154 41.7692 43.6154V43.6923C41.7692 43.7693 41.8462 43.7693 41.8462 43.8462V43.9231V44C41.8462 44.0769 41.9231 44.0769 41.9231 44.1539C42 44.2308 42.0769 44.3077 42.1538 44.3846C42.1538 44.5385 42.1538 44.6154 42.2308 44.7693C42.2308 44.8462 42.3077 44.8462 42.3846 44.9231L42.4615 45L42.5385 45.0769C42.4615 45.4616 42.6154 45.6154 43.1538 46.1539C43.2308 46.3077 43.3077 46.5385 43.3846 46.6923C43.4615 46.8462 43.5385 47.0769 43.7692 47.3077C43.9231 47.5385 44 47.7692 44.1538 47.9231C44.3077 48.1539 44.3846 48.3846 44.4615 48.5385C44.5385 48.6154 44.6154 48.6923 44.6154 48.7693C44.5385 48.8462 44 48.5385 43.3846 48.0769C43.3077 48.1539 43.0769 48.0769 42.8462 47.9231C42.6154 47.7692 42.3077 47.6154 42.0769 47.3846C41.8462 47.1539 41.6154 47.1539 41.3846 47.0769C41.1538 47 40.9231 46.9231 40.6923 46.6923L40.5385 46.6154L40.4615 46.5385C40.3846 46.5385 40.3077 46.4616 40.2308 46.4616C40.0769 46.3846 39.9231 46.3077 39.8462 46.2308L39.6923 46.0769L39.6154 46C39.6154 46 39.5385 45.9231 39.5385 46V46.0769C39.4615 46.1539 39.3846 46.1539 39.3077 46.2308C39.1538 46.3077 39 46.3846 38.8462 46.3846C38.7692 46.4616 38.7692 46.5385 38.6923 46.6154L38.6154 46.6923C38.6154 46.6923 38.6154 46.6923 38.5385 46.6923L38.4615 47C38.1538 47.1539 37.8462 47.2308 37.6154 47.3077C37.3846 47.4616 37.0769 47.5385 36.8462 47.6923C36.6154 47.7693 36.3846 47.9231 36 48.1539C35.7692 48.2308 35.4615 48.4616 35.1538 48.6154C34.8462 48.7693 34.5385 49 34.3846 49C34.6154 48.6154 34.7692 48.3077 34.9231 48.0769C35.0769 47.7693 35.1538 47.6154 35.2308 47.3846C35.2308 47.2308 35.4615 46.9231 35.6154 46.6154C35.7692 46.3077 36 46.0769 36.0769 45.7693C36.3077 45.4616 36.4615 45.3077 36.5385 45V44.9231C36.5385 44.9231 36.5385 44.9231 36.5385 44.8462V44.7693V44.6923C36.5385 44.6154 36.6154 44.5385 36.6154 44.4616C36.6923 44.3077 36.7692 44.1539 36.8462 44.0769C36.9231 44 36.9231 43.9231 37 43.8462V43.7693C37 43.6923 37 43.6923 36.9231 43.6154C36.6923 43.5385 36.6923 43.3846 36.6154 43.2308C36.6154 43.1539 36.6154 43.0769 36.6154 43V42.9231C36.6154 42.9231 36.6154 42.8462 36.5385 42.7692C36.4615 42.5385 36.3846 42.3077 36.2308 42.0769C36.0769 41.8462 35.9231 41.6154 35.8462 41.3846C35.6923 41.1539 35.6154 40.9231 35.5385 40.7693C35.4615 40.6154 35.3846 40.3846 35.1538 40.0769C35.0769 39.9231 34.9231 39.6923 34.7692 39.4616C34.6154 39.2308 34.5385 39 34.4615 38.9231C34.5385 38.9231 34.6154 39 34.6154 39.0769C34.6923 39 34.9231 39.2308 35.2308 39.3846C35.5385 39.5385 35.7692 39.7693 35.8462 39.7693C36.2308 40 36.6154 40.1539 37 40.3846C37.2308 40.6154 37.3846 40.7693 37.5385 40.7693C37.6923 40.8462 37.8462 40.8462 38.0769 40.9231C38.1538 40.9231 38.1538 41 38.2308 41H38.3077C38.3846 41 38.3846 41 38.4615 41.0769C38.5385 41.1539 38.6923 41.1539 38.7692 41.3077C38.8462 41.3846 38.9231 41.4616 39 41.5385C39.0769 41.5385 39.0769 41.6154 39.1538 41.6154H39.2308H39.3077L39.3846 41.6923C39.3846 41.7693 39.4615 41.7693 39.4615 41.8462C39.5385 41.8462 39.5385 41.7693 39.5385 41.6923C39.5385 41.6923 39.5385 41.6923 39.6154 41.6923H39.6923H39.7692C39.8462 41.6923 40 41.6923 40 41.5385C40.0769 41.3077 40.3077 41.3846 40.4615 41.3077C40.6154 41.2308 40.7692 41.1539 40.9231 41.0769C42.3846 40.4616 43.1538 40.1539 43.1538 40.2308C43.2308 40.3846 42.3846 40.9231 40.9231 41.8462C40.7692 41.9231 40.6923 42.1539 40.4615 42.1539C40.3846 42.2308 40.3077 42.2308 40.2308 42.3077C40.2308 42.3077 40.2308 42.3077 40.1538 42.3846C40.1538 42.3846 40.1538 42.3846 40.0769 42.4616C40 42.4616 39.9231 42.5385 39.8462 42.5385C39.7692 42.6923 39.6154 42.7693 39.5385 42.8462C39.3846 42.7693 39.1538 42.5385 39 42.4616C38.9231 42.4616 38.9231 42.4616 38.9231 42.3846V42.3077C38.8462 42.3077 38.8462 42.2308 38.7692 42.2308C38.6923 42.1539 38.5385 42.1539 38.4615 42.0769C38.3077 42.0769 38.2308 42 38.1538 41.9231C38.0769 41.9231 38.0769 41.8462 38 41.8462C38 41.6923 37.7692 41.6154 37.7692 41.7693C37.6923 41.6923 37.6923 41.6154 37.6154 41.6923V41.7693C37.4615 41.5385 37.3846 41.5385 37.3846 41.5385C37.3846 41.5385 37.4615 41.6923 37.5385 41.7693C37.6154 41.8462 37.6154 41.8462 37.5385 41.8462C37.5385 41.8462 37.5385 41.8462 37.6154 41.9231C37.6154 41.9231 37.6154 42 37.6923 42C37.6923 42.0769 37.7692 42.0769 37.7692 42.0769C37.8462 42.1539 37.9231 42.1539 37.9231 42.1539C37.9231 42.1539 37.9231 42.1539 37.8462 42.2308C37.8462 42.2308 37.8462 42.2308 37.9231 42.3077L38 42.3846C38.0769 42.4616 38.0769 42.5385 38.0769 42.6154C38.1538 42.7693 38.2308 42.9231 38.3077 43C38.3846 43.0769 38.3846 43.0769 38.3846 43.1539C38.3846 43.1539 38.3846 43.2308 38.4615 43.2308L38.5385 43.3846C38.6154 43.6154 38.7692 43.7693 38.8462 44C38.7692 44.0769 38.6923 44.2308 38.6923 44.3077C38.6923 44.3846 38.6154 44.4616 38.6154 44.4616L38.5385 44.5385V44.6154C38.4615 44.6923 38.4615 44.7693 38.3846 44.7693C38.3077 44.9231 38.2308 45 38.2308 45.2308C38.2308 45.3077 38.1538 45.3846 38.1538 45.4616L38.0769 45.5385V45.6154V45.6923L38 45.7693C37.7692 45.9231 37.6923 46 37.7692 46C37.7692 46 37.9231 45.9231 38 45.8462C38.0769 45.7692 38.0769 45.7693 38.0769 45.7693C38.0769 45.7693 38.0769 45.7692 38.0769 45.8462C38.1538 45.7692 38.1538 45.7693 38.1538 45.7693C38.1538 45.6923 38.1538 45.7693 38.2308 45.7693H38.3077C38.3077 45.7693 38.3846 45.7693 38.3846 45.6923C38.4615 45.6923 38.5385 45.6154 38.6154 45.5385C38.7692 45.4616 38.8462 45.3846 39 45.3077C39.0769 45.3077 39.1538 45.2308 39.2308 45.2308H39.3077L39.3846 45.1539C39.4615 45.1539 39.5385 45.0769 39.5385 45C39.6154 44.9231 39.7692 44.8462 39.8462 44.7693C40.0769 44.8462 40.2308 44.9231 40.4615 45.0769L40.5385 45.1539C40.5385 45.1539 40.5385 45.1539 40.6154 45.1539C40.6154 45.1539 40.6923 45.1539 40.6923 45.2308C40.7692 45.2308 40.7692 45.3077 40.8462 45.3846C41 45.4616 41.0769 45.5385 41.2308 45.6923C41.3077 45.7693 41.3846 45.7693 41.3846 45.7693H41.4615H41.5385L41.6154 45.6923C41.6154 45.6923 41.6154 45.6923 41.6923 45.9231C41.6923 45.8462 41.7692 45.9231 41.7692 46C41.8462 46.0769 41.9231 46.1539 41.8462 46C42 46.2308 42.0769 46.2308 42.0769 46.2308C42.0769 46.2308 42 46.1539 42 46.0769C42 46.0769 42.0769 46.1539 42.0769 46.0769C42.0769 46.0769 42.0769 46 41.9231 45.9231C41.8462 45.8462 41.8462 45.8462 41.8462 45.8462C41.8462 45.8462 41.9231 45.8462 41.8462 45.7693C41.7692 45.6923 41.7692 45.6923 41.8462 45.6923C41.8462 45.6923 41.9231 45.6154 41.7692 45.6154C41.7692 45.6154 41.7692 45.6154 41.7692 45.5385C41.7692 45.4616 41.6923 45.4616 41.6923 45.3846C41.6154 45.3077 41.6154 45.1539 41.5385 45.0769C41.3846 45.0769 41.3077 44.9231 41.3077 44.8462C41.3077 44.7693 41.3077 44.6923 41.3077 44.6923V44.6154C41.3077 44.6154 41.3077 44.6154 41.3077 44.5385C41.3077 44.5385 41.3077 44.5385 41.3077 44.4616C41.2308 44.3077 41.0769 44.1539 40.9231 43.9231C41 43.7692 41.0769 43.6923 41.2308 43.6154C41.2308 43.5385 41.2308 43.4616 41.2308 43.3846C41.2308 43.3846 41.2308 43.3846 41.2308 43.3077C41.2308 43.3077 41.2308 43.2308 41.3077 43.2308C41.3846 43.1539 41.4615 43.0769 41.5385 43C41.6923 42.8462 41.6154 42.6154 41.8462 42.5385C41.7692 42.3077 42.0769 42.3077 42.0769 42.1539C42.2308 42.0769 42.2308 41.9231 42.3077 41.7693C42.3077 41.6154 42.3846 41.5385 42.5385 41.4616C42.6154 41.3846 42.6923 41.2308 42.7692 41.1539C42.8462 40.4616 43.0769 40.2308 43.1538 40.2308Z" fill="#121212"/>
<path d="M38.1538 2.84616C38.2308 2.84616 38.1538 3.23078 37.9231 3.84616C37.8461 3.92309 37.8461 4.07693 37.7692 4.15386C37.6923 4.3077 37.6923 4.38462 37.6154 4.53847C37.4615 4.61539 37.6923 4.92309 37.4615 4.92309C37.3846 5.07693 37.3077 5.23078 37.2308 5.38462C37.1538 5.53847 36.9231 5.69232 36.9231 5.84616C37 6.00001 36.9231 6.07693 36.8462 6.15386C36.7692 6.15386 36.7692 6.23078 36.7692 6.23078C36.7692 6.23078 36.7692 6.3077 36.8462 6.3077V6.38463C36.8462 6.46155 36.9231 6.46155 36.9231 6.53847V6.61539V6.69232C36.9231 6.76924 37 6.76924 37 6.84616C37.0769 6.92309 37.1538 7.00001 37.2308 7.07693C37.2308 7.23078 37.2308 7.3077 37.3077 7.46155C37.3077 7.53847 37.3846 7.53847 37.4615 7.61539L37.5385 7.69232L37.6154 7.76924C37.5385 8.15386 37.6923 8.3077 38.2308 8.84616C38.3077 9.00001 38.3846 9.23078 38.4615 9.38463C38.5385 9.53847 38.6154 9.76924 38.8462 10C39 10.2308 39.0769 10.4615 39.2308 10.6154C39.3846 10.8462 39.4615 11.0769 39.5385 11.2308C39.6154 11.3077 39.6923 11.3846 39.6923 11.4615C39.6154 11.5385 39.0769 11.2308 38.4615 10.7692C38.3846 10.8462 38.1538 10.7692 37.9231 10.6154C37.6923 10.4615 37.3846 10.3077 37.1538 10.0769C36.9231 9.84616 36.6923 9.84616 36.4615 9.76924C36.2308 9.69232 36 9.61539 35.7692 9.38463L35.6154 9.3077L35.5385 9.23078C35.3846 9.23078 35.3077 9.23078 35.3077 9.23078C35.1538 9.15386 35 9.07693 34.9231 9.00001L34.7692 8.84616L34.6923 8.76924C34.6923 8.76924 34.6154 8.69232 34.6154 8.76924V8.84616C34.5385 8.92309 34.4615 8.92309 34.3846 9.00001C34.2308 9.07693 34.0769 9.15386 33.9231 9.15386C33.8461 9.23078 33.8462 9.3077 33.7692 9.38463L33.6923 9.46155C33.6923 9.46155 33.6923 9.46155 33.6154 9.46155L33.5385 9.53847C33.2308 9.69232 32.9231 9.76924 32.6923 9.84616C32.4615 10 32.1538 10.0769 31.9231 10.2308C31.6923 10.3077 31.4615 10.4615 31.0769 10.6923C30.8461 10.7692 30.5385 11 30.2308 11.1539C29.9231 11.3077 29.6154 11.5385 29.4615 11.5385C29.6923 11.1539 29.8461 10.8462 30 10.6154C30.1538 10.3077 30.2308 10.1539 30.3077 9.92309C30.3077 9.76924 30.5385 9.46155 30.6923 9.15386C30.8461 8.84616 31.0769 8.6154 31.1538 8.3077C31.3846 8.00001 31.5385 7.84616 31.6154 7.53847V7.46155C31.6154 7.46155 31.6154 7.46155 31.6154 7.38463V7.3077C31.6154 7.23078 31.6154 7.23078 31.6154 7.23078C31.6154 7.15386 31.6923 7.07693 31.6923 7.00001C31.7692 6.84616 31.8461 6.69232 31.9231 6.61539C32 6.53847 32 6.46155 32.0769 6.38463V6.3077C32.0769 6.23078 32 6.23078 32 6.15386C31.7692 6.07693 31.7692 5.92309 31.6923 5.76924C31.6923 5.69232 31.6923 5.61539 31.6923 5.53847V5.46155C31.6923 5.46155 31.6923 5.38463 31.6154 5.3077C31.5385 5.07693 31.4615 4.84616 31.3077 4.61539C31.1538 4.38462 31 4.15386 30.9231 3.92309C30.7692 3.69232 30.6923 3.46155 30.6154 3.3077C30.5385 3.15386 30.4615 2.92309 30.2308 2.61539C30.1538 2.46155 30 2.23078 29.8461 2.00001C29.6923 1.76924 29.6154 1.53847 29.5385 1.46155C29.6154 1.46155 29.6154 1.53847 29.6923 1.61539C29.7692 1.53847 30 1.76924 30.3077 1.92309C30.6154 2.07693 30.8461 2.3077 30.9231 2.3077C31.3077 2.53847 31.6923 2.69232 32.0769 2.92309C32.3077 3.15386 32.4615 3.3077 32.6154 3.3077C32.7692 3.38463 32.9231 3.38462 33.1538 3.46155C33.2308 3.46155 33.2308 3.53847 33.3077 3.53847C33.3846 3.53847 33.3846 3.61539 33.4615 3.61539C33.5385 3.61539 33.5385 3.61539 33.6154 3.69232C33.6923 3.69232 33.7692 3.69232 33.8461 3.84616C33.9231 3.92309 34 4.00001 34.0769 4.07693C34.1538 4.07693 34.1538 4.15386 34.2308 4.15386H34.3077H34.3846L34.4615 4.23078C34.4615 4.3077 34.5385 4.3077 34.5385 4.38462C34.6154 4.38462 34.6154 4.38462 34.6154 4.23078C34.6154 4.23078 34.6154 4.23078 34.6923 4.23078H34.7692H34.8461C34.9231 4.23078 35.0769 4.23078 35.0769 4.07693C35.1538 3.76924 35.3846 3.84616 35.5385 3.76924C35.6923 3.69232 35.8461 3.61539 36 3.53847C37.3077 3.00001 38.0769 2.76924 38.1538 2.84616C38.2308 3.00001 37.3846 3.53847 35.9231 4.46155C35.7692 4.53847 35.6923 4.76924 35.4615 4.76924C35.3846 4.84616 35.3077 4.84616 35.2308 4.92309C35.2308 4.92309 35.2308 4.92309 35.1538 5.00001H35.0769C35 5.00001 34.9231 5.07693 34.8461 5.07693C34.7692 5.23078 34.6154 5.3077 34.5385 5.38462C34.3846 5.3077 34.1538 5.07693 34 5.00001C33.9231 5.00001 33.9231 5.00001 33.9231 4.92309H33.8461C33.7692 4.92309 33.7692 4.84616 33.6923 4.84616C33.6154 4.76924 33.5385 4.76924 33.3846 4.69232C33.2308 4.69232 33.1538 4.61539 33.0769 4.53847C33 4.53847 33 4.46155 32.9231 4.46155C32.9231 4.46155 32.9231 4.46155 32.8461 4.46155C32.8461 4.3077 32.6154 4.23078 32.6154 4.38462C32.5385 4.3077 32.5385 4.23078 32.4615 4.3077V4.38462C32.3077 4.15386 32.2308 4.15386 32.2308 4.15386C32.2308 4.15386 32.3077 4.23078 32.3846 4.38462C32.4615 4.46155 32.4615 4.46155 32.3846 4.46155C32.3846 4.46155 32.3846 4.46155 32.4615 4.53847C32.4615 4.53847 32.4615 4.61539 32.5385 4.61539C32.5385 4.69232 32.6154 4.69232 32.6154 4.69232C32.6923 4.76924 32.7692 4.76924 32.7692 4.76924C32.7692 4.76924 32.7692 4.76924 32.6923 4.84616C32.6923 4.84616 32.6923 4.84616 32.7692 4.92309L32.8461 5.00001C32.9231 5.07693 32.9231 5.15386 32.9231 5.23078C33 5.23078 33 5.38462 33.0769 5.46155C33.1538 5.53847 33.1538 5.53847 33.1538 5.61539C33.1538 5.61539 33.1538 5.69232 33.2308 5.69232L33.3077 5.84616C33.3846 6.07693 33.5385 6.23078 33.6154 6.46155C33.5385 6.53847 33.4615 6.69232 33.4615 6.76924C33.4615 6.84616 33.3846 6.92309 33.3846 6.92309L33.3077 7.00001V7.07693C33.2308 7.15386 33.2308 7.23078 33.1538 7.23078C33.0769 7.38462 33 7.46155 33 7.69232C33 7.76924 32.9231 7.84616 32.9231 7.92309L32.8461 8.00001V8.07693V8.15386L32.7692 8.23078C32.5385 8.38463 32.4615 8.46155 32.5385 8.46155C32.5385 8.46155 32.6923 8.38463 32.7692 8.3077C32.8461 8.23078 32.8461 8.23078 32.8461 8.23078C32.8461 8.23078 32.8461 8.23078 32.8461 8.3077C32.9231 8.23078 32.9231 8.23078 32.9231 8.23078C32.9231 8.15386 32.9231 8.23078 33 8.23078H33.0769C33.0769 8.23078 33.1538 8.23078 33.1538 8.15386C33.2308 8.15386 33.3077 8.07693 33.3846 8.00001C33.5385 7.92309 33.6154 7.84616 33.7692 7.76924C33.8462 7.76924 33.9231 7.69232 34 7.69232H34.0769L34.1538 7.61539C34.2308 7.61539 34.3077 7.53847 34.3077 7.46155C34.3846 7.38462 34.5385 7.3077 34.6154 7.23078C34.8461 7.3077 35 7.38463 35.2308 7.53847L35.3077 7.61539C35.3077 7.61539 35.3077 7.61539 35.3846 7.61539C35.3846 7.61539 35.4615 7.6154 35.4615 7.69232C35.5385 7.69232 35.5385 7.76924 35.6154 7.84616C35.7692 7.92309 35.8461 8.00001 36 8.15386C36.0769 8.23078 36.1538 8.23078 36.1538 8.23078H36.2308H36.3077L36.3846 8.15386C36.3846 8.15386 36.3846 8.15386 36.4615 8.38463C36.4615 8.3077 36.5385 8.38463 36.5385 8.46155C36.6154 8.53847 36.6923 8.6154 36.6154 8.46155C36.7692 8.69232 36.8462 8.69232 36.8462 8.69232C36.8462 8.69232 36.7692 8.6154 36.7692 8.53847C36.7692 8.53847 36.8462 8.6154 36.8462 8.53847C36.8462 8.53847 36.8462 8.46155 36.6923 8.38463C36.6154 8.3077 36.6154 8.3077 36.6154 8.3077C36.6154 8.3077 36.6923 8.3077 36.6154 8.23078C36.5385 8.15386 36.5385 8.15386 36.6154 8.15386C36.6154 8.15386 36.6923 8.07693 36.5385 8.07693C36.5385 8.07693 36.5385 8.07693 36.5385 8.00001C36.5385 7.92309 36.4615 7.92309 36.4615 7.84616C36.3846 7.76924 36.3846 7.61539 36.3077 7.53847C36.1538 7.53847 36.0769 7.38463 36.0769 7.3077C36.0769 7.23078 36.0769 7.15386 36.0769 7.15386V7.07693V7.00001C36 6.84616 35.8462 6.69232 35.6923 6.46155C35.7692 6.3077 35.8461 6.23078 36 6.15386C36 6.07693 36 6.00001 36 5.92309C36 5.92309 36 5.92309 36 5.84616C36 5.84616 36 5.76924 36.0769 5.76924C36.1538 5.69232 36.2308 5.61539 36.3077 5.53847C36.4615 5.38462 36.3846 5.15386 36.6154 5.07693C36.5385 4.84616 36.8462 4.84616 36.8462 4.69232C36.9231 4.53847 36.9231 4.38462 37 4.23078C37 4.07693 37.0769 4.00001 37.2308 3.92309C37.3077 3.84616 37.3846 3.69232 37.4615 3.61539C37.7692 3.07693 38.0769 2.76924 38.1538 2.84616Z" fill="#121212"/>
<path d="M64.6154 65.2308C64.6154 65.3077 64 65.3847 62.7692 65.4616C62.5385 65.4616 62.3846 65.4616 62.1538 65.4616C61.9231 65.4616 61.6923 65.5385 61.4615 65.4616C61.2308 65.3847 60.9231 65.6924 60.6154 65.4616C60.3077 65.3847 60 65.4616 59.6923 65.4616C59.3846 65.4616 59.0769 65.3847 58.6923 65.4616C58.3846 65.6924 58 65.2308 57.6154 65.4616C57.2308 65.5385 56.8462 65.5385 56.4615 65.4616C56.0769 65.3077 55.6923 65.4616 55.3077 65.4616C54.9231 65.2308 54.4615 65.3847 54.0769 65.4616C53.6154 65.2308 53.2308 65.2308 52.7692 65.4616C52.3077 65.4616 51.8462 65.3847 51.3846 65.4616C50.9231 65.4616 50.4615 65.5385 49.9231 65.4616C49.4615 65.6154 48.9231 65.6154 48.4615 65.4616C47.9231 65.6154 47.4615 65.5385 46.9231 65.4616C46.3846 65.3847 45.8462 65.6154 45.3077 65.4616C44.7692 65.4616 44.2308 65.5385 43.6923 65.4616C43.1538 65.3847 42.6154 65.3077 42 65.4616C41.4615 65.5385 40.8462 65.5385 40.3077 65.4616C39.7692 65.6924 39.1538 65.5385 38.5385 65.4616C37.9231 65.4616 37.3846 65.3847 36.7692 65.4616C36.1538 65.4616 35.6154 65.5385 35 65.4616C34.3846 65.3847 33.7692 65.3077 33.2308 65.4616C32.6154 65.6154 32.0769 65.3847 31.4615 65.4616C30.8462 65.3077 30.3077 65.5385 29.6923 65.4616C29.1538 65.4616 28.5385 65.3847 28 65.4616C27.4615 65.4616 26.8462 65.5385 26.3077 65.4616C25.7692 65.7693 25.2308 65.3847 24.6923 65.4616C24.1538 65.3077 23.6154 65.4616 23.0769 65.4616C22.5385 65.5385 22.0769 65.3077 21.5385 65.4616C21 65.4616 20.5385 65.5385 20.0769 65.4616C19.6154 65.6154 19.1538 65.3077 18.6154 65.4616C18.1538 65.4616 17.6923 65.4616 17.2308 65.4616C16.7692 65.2308 16.3077 65.3847 15.9231 65.4616C15.4615 65.4616 15.0769 65.6154 14.6923 65.4616C14.3077 65.4616 13.9231 65.3077 13.5385 65.4616C13.1538 65.4616 12.7692 65.1539 12.3846 65.4616C12 65.5385 11.6923 65.2308 11.3077 65.4616C11 65.6154 10.6154 65.4616 10.3077 65.4616C10 65.4616 9.69231 65.4616 9.38461 65.4616C6.84615 65.3847 5.38461 65.2308 5.38461 65.1539C5.38461 65 7.23077 64.9231 10.3077 64.7693C10.6154 64.7693 10.9231 64.6154 11.3077 64.7693C11.6154 64.7693 12 64.6154 12.3846 64.7693C12.7692 64.5385 13.1538 64.7693 13.5385 64.7693C13.9231 64.7693 14.3077 64.8462 14.6923 64.7693C15.0769 64.6154 15.5385 64.8462 15.9231 64.7693C16.3846 64.9231 16.7692 64.8462 17.2308 64.7693C17.6923 64.9231 18.1538 64.7693 18.6154 64.7693C19.0769 65 19.5385 64.8462 20.0769 64.7693C20.5385 64.6923 21.0769 64.7693 21.5385 64.7693C22.0769 64.7693 22.5385 64.6923 23.0769 64.7693C23.6154 64.6923 24.1538 64.6154 24.6923 64.7693C25.2308 64.6923 25.7692 64.7693 26.3077 64.7693C26.8462 64.6923 27.3846 64.7693 28 64.7693C28.5385 64.6923 29.1538 65 29.6923 64.7693C30.2308 64.7693 30.8462 64.7693 31.4615 64.7693C32.0769 64.7693 32.6154 64.8462 33.2308 64.7693C33.8462 65 34.4615 64.8462 35 64.7693C35.6154 64.6923 36.2308 64.7693 36.7692 64.7693C37.3846 64.7693 37.9231 64.7693 38.5385 64.7693C39.1538 64.6923 39.6923 64.8462 40.3077 64.7693C40.8462 64.6923 41.4615 64.8462 42 64.7693C42.5385 64.6923 43.1538 64.6923 43.6923 64.7693C44.2308 64.7693 44.7692 65 45.3077 64.7693C45.8462 64.6923 46.3846 64.4616 46.9231 64.7693C47.4615 64.6923 47.9231 64.9231 48.4615 64.7693C49 65 49.4615 64.7693 49.9231 64.7693C50.3846 64.8462 50.9231 64.8462 51.3846 64.7693C51.8462 64.6923 52.3077 64.8462 52.7692 64.7693C53.2308 64.6154 53.6923 64.9231 54.0769 64.7693C54.5385 64.7693 54.9231 64.7693 55.3077 64.7693C55.6923 64.4616 56.0769 64.7693 56.4615 64.7693C56.8462 64.8462 57.2308 64.5385 57.6154 64.7693C58 64.5385 58.3077 64.7693 58.6923 64.7693C59 64.8462 59.3846 64.6923 59.6923 64.7693C60 64.6154 60.3077 64.8462 60.6154 64.7693C60.9231 64.8462 61.1538 64.7693 61.4615 64.7693C61.6923 64.7693 61.9231 64.7693 62.1538 64.7693C62.3846 64.7693 62.6154 64.7693 62.7692 64.7693C63.9231 65.077 64.6154 65.1539 64.6154 65.2308Z" fill="#121212"/>
</g>
<defs>
<clipPath id="clip0_2288_3203">
<rect width="65" height="66" fill="white"/>
</clipPath>
</defs>
</svg>
