<svg width="65" height="46" viewBox="0 0 65 46" fill="none" xmlns="http://www.w3.org/2000/svg">
<g clip-path="url(#clip0_2288_62)">
<path d="M7.12121 18.8636C7.12121 18.9393 6.9697 18.9393 6.66667 19.0151C6.51515 19.0151 6.28788 19.0908 6.13636 19.1666C6.06061 19.1666 5.90909 19.2424 5.75758 19.2424C5.60606 19.3181 5.5303 19.3181 5.37879 19.3939C5.30303 19.3939 5.22727 19.4696 5.07576 19.4696C5 19.5454 4.84848 19.5454 4.77273 19.6211C4.62121 19.6211 4.54545 19.6969 4.4697 19.6969C4.39394 19.7727 4.24242 19.8484 4.16667 19.8484C4.01515 19.8484 3.93939 19.9999 3.86364 20.0757C3.78788 20.1514 3.71212 20.303 3.56061 20.303C3.40909 20.3787 3.33333 20.4545 3.18182 20.5302C3.10606 20.606 2.95455 20.7575 2.87879 20.8333C2.80303 20.909 2.80303 20.909 2.72727 20.9848C2.65151 21.0605 2.65152 21.0605 2.57576 21.1363C2.5 21.2121 2.34848 21.3636 2.27273 21.5151C2.27273 21.7424 2.12121 21.8181 1.9697 21.8939C1.81818 21.9696 1.74242 22.1211 1.74242 22.3484C1.66667 22.4999 1.59091 22.6514 1.51515 22.803L1.43939 22.9545L1.36364 23.106C1.36364 23.1817 1.28788 23.2575 1.28788 23.3333C1.13636 23.4848 1.13636 23.6363 1.06061 23.8636C1.06061 23.9393 1.06061 24.0151 1.06061 24.1666C1.06061 24.2424 1.06061 24.3939 1.06061 24.4696C0.984848 24.5454 0.984848 24.6211 0.909091 24.7727C0.909091 24.8484 0.909091 24.9999 0.909091 25.0757C0.909091 25.1514 0.909091 25.303 0.909091 25.3787C0.909091 25.4545 0.984848 25.606 0.984848 25.6818C0.757576 26.0605 0.833333 26.5151 1.21212 26.8939C1.28788 27.2727 1.36364 27.7272 1.66667 28.106C1.89394 28.4848 2.12121 28.8636 2.42424 29.2424C2.87879 29.4696 3.10606 29.7727 3.40909 30.2272C3.56061 30.2272 3.63636 30.303 3.71212 30.3787C3.71212 30.3787 3.78788 30.3787 3.78788 30.4545C3.86364 30.4545 3.93939 30.4545 4.01515 30.4545C4.16667 30.4545 4.24242 30.5302 4.39394 30.5302C4.92424 30.606 5.45455 30.3787 5.98485 30.5302C6.51515 30.5302 7.04545 30.4545 7.65151 30.5302C8.18182 30.606 8.78788 30.6817 9.31818 30.5302C9.92424 30.4545 10.4545 30.4545 11.0606 30.5302C11.6667 30.303 12.197 30.4545 12.803 30.5302C13.4091 30.5302 14.0152 30.606 14.6212 30.5302C15.2273 30.5302 15.8333 30.4545 16.4394 30.5302C17.0455 30.606 17.6515 30.6817 18.2576 30.5302C18.8636 30.3787 19.4697 30.606 20.0758 30.5302C20.2273 30.606 20.3788 30.606 20.5303 30.606C20.6061 30.606 20.6061 30.606 20.6061 30.606C20.6061 30.5302 20.6061 30.5302 20.6061 30.5302V30.4545C20.6061 30.4545 20.6061 30.3787 20.6818 30.3787C20.6818 30.303 20.7576 30.2272 20.7576 30.2272C20.8333 30.0757 20.8333 29.9999 20.9091 29.8484C20.9848 29.6969 20.9848 29.6211 21.0606 29.4696C21.1364 29.2424 21.2121 28.9393 21.2121 28.7121C21.2879 28.1818 21.2121 27.7272 21.2879 27.1969C21.2121 27.0454 21.1364 26.9696 21.1364 26.8181C21.1364 26.7424 21.1364 26.6666 21.1364 26.6666C21.1364 26.5908 21.1364 26.5151 21.1364 26.5151V26.3636C21.1364 26.2878 21.1364 26.2121 21.1364 26.2121C21.1364 26.1363 21.1364 26.0605 21.1364 26.0605C21.1364 25.9848 21.0606 25.909 21.0606 25.909C21.0606 25.8333 21.0606 25.7575 21.0606 25.7575C21.0606 25.6817 21.0606 25.606 20.9848 25.606C20.9848 25.5302 20.9091 25.4545 20.9091 25.4545L20.8333 25.303L20.7576 25.1514L20.6818 24.9999C20.6818 24.9242 20.6061 24.9242 20.6061 24.8484C20.6061 24.7727 20.5303 24.7727 20.5303 24.6969C20.4545 24.6211 20.4545 24.6211 20.4545 24.5454C20.4545 24.4696 20.3788 24.4696 20.3788 24.3939L20.303 24.2424L20.2273 24.0908C20.2273 24.0151 20.1515 24.0151 20.1515 23.9393C20.1515 23.8636 20.0758 23.8636 20 23.7878C19.9242 23.7121 19.9242 23.7121 19.8485 23.6363C19.7727 23.6363 19.7727 23.5605 19.697 23.5605C19.6212 23.4848 19.6212 23.4848 19.5455 23.409C19.4697 23.409 19.4697 23.3333 19.3939 23.3333L19.2424 23.2575C19.2424 23.2575 19.1667 23.2575 19.1667 23.1818H19.0909L18.9394 22.6514C18.8636 22.5757 18.7879 22.4999 18.6364 22.4242C18.6364 22.4242 18.5606 22.4242 18.5606 22.3484V22.2727V22.1211V21.9696V21.8939V21.8181C18.5606 21.7424 18.5606 21.6666 18.5606 21.6666C18.4848 21.5908 18.4848 21.4393 18.4091 21.3636C18.4091 21.2878 18.3333 21.1363 18.3333 21.0605C18.2576 20.8333 18.2576 20.606 18.1061 20.4545C18.0303 20.3787 18.0303 20.2272 17.9545 20.1514C17.8788 20.0757 17.803 19.9999 17.803 19.8484L17.7273 19.6969C17.7273 19.6211 17.6515 19.6211 17.6515 19.5454C17.5758 19.4696 17.5 19.3939 17.5 19.3181C17.5 19.1666 17.4242 19.0908 17.3485 19.0151C17.2727 18.9393 17.197 18.8636 17.1212 18.7878C17.0455 18.7121 16.9697 18.6363 16.8939 18.6363C16.8182 18.5605 16.7424 18.4848 16.6667 18.4848C16.5152 18.3333 16.3636 18.2575 16.1364 18.1818C16.0606 18.106 15.9848 18.106 15.9091 18.0302C15.8333 17.9545 15.7576 17.8787 15.6818 17.803C15.6061 17.7272 15.5303 17.7272 15.4545 17.6514C15.3788 17.5757 15.303 17.5757 15.2273 17.4999C15.1515 17.4242 15.0758 17.4242 15 17.3484C14.9242 17.3484 14.8485 17.2727 14.697 17.2727C14.6212 17.2727 14.5455 17.1969 14.4697 17.1969C14.3939 17.1211 14.3182 17.1211 14.2424 17.0454C14.1667 16.9696 14.0909 16.9696 14.0152 16.9696C13.9394 16.9696 13.8636 16.9696 13.7121 17.0454C13.6364 17.0454 13.5606 17.0454 13.4848 16.9696C13.4091 16.9696 13.3333 16.8939 13.2576 16.8939C13.1061 16.8181 12.9545 16.8181 12.7273 16.8939C12.5758 16.9696 12.4242 16.9696 12.2727 16.9696C12.1212 16.9696 11.9697 16.8939 11.8182 16.9696C11.5152 17.0454 11.2121 17.0454 10.9848 17.1211C9.77273 17.4242 8.93939 18.0302 8.40909 18.4848L8.33333 18.5605L8.25758 18.6363C8.18182 18.7121 8.10606 18.7121 8.10606 18.7878C8.10606 18.7878 8.10606 18.7878 8.0303 18.7878C8.0303 18.7878 8.0303 18.7878 7.95454 18.7878H7.87879C7.80303 18.7878 7.72727 18.7878 7.72727 18.7878C7.19697 18.8636 7.12121 18.8636 7.12121 18.8636C7.12121 18.8636 7.12121 18.8636 7.19697 18.7878C7.27273 18.7878 7.34848 18.7878 7.42424 18.7121C7.5 18.7121 7.65151 18.7121 7.72727 18.5605L7.80303 18.4848L7.87879 18.409C7.95454 18.3333 8.0303 18.2575 8.10606 18.1818C8.40909 17.8787 8.86364 17.4999 9.39394 17.1969C9.92424 16.8939 10.6061 16.5908 11.4394 16.3636C11.7424 16.2878 12.1212 16.1363 12.5 16.2121C12.6515 16.2121 12.8788 16.2121 13.0303 16.2121C13.1061 16.2121 13.2576 16.2121 13.3333 16.2121C13.4091 16.2121 13.5606 16.2121 13.6364 16.2878C13.7121 16.2121 13.8636 16.2121 13.9394 16.2121C14.0152 16.2121 14.1667 16.2121 14.2424 16.2878C14.3182 16.2878 14.4697 16.3636 14.5455 16.3636C14.6212 16.3636 14.7727 16.4393 14.8485 16.5151C14.9242 16.5151 15.0758 16.5908 15.1515 16.5908C15.2273 16.5908 15.3788 16.6666 15.4545 16.7424C15.5303 16.8181 15.6818 16.8181 15.7576 16.8939C15.8333 16.9696 15.9848 16.9696 16.0606 17.0454C16.1364 17.0454 16.2879 17.1211 16.3636 17.1969C16.4394 17.2727 16.5152 17.3484 16.6667 17.4242C16.8182 17.5757 17.0455 17.7272 17.197 17.803C17.2727 17.8787 17.3485 18.0302 17.4242 18.106C17.5 18.1818 17.5758 18.2575 17.6515 18.3333C17.7273 18.409 17.803 18.4848 17.9545 18.5605C18.0303 18.6363 18.1818 18.7121 18.2576 18.7878C18.3333 18.9393 18.4091 19.0151 18.4091 19.0908C18.4091 19.1666 18.4848 19.1666 18.4848 19.2424C18.4848 19.3181 18.5606 19.3181 18.5606 19.3939C18.6364 19.4696 18.7121 19.6211 18.7879 19.6969C18.8636 19.7727 18.9394 19.9242 19.0152 19.9999C19.0909 20.303 19.1667 20.5302 19.2424 20.7575C19.3182 20.909 19.3182 20.9848 19.3939 21.1363C19.4697 21.2878 19.5455 21.3636 19.5455 21.5151C19.5455 21.5908 19.6212 21.6666 19.6212 21.7424V21.8181L19.697 21.8939L19.8485 22.0454L20 22.1969C20.0758 22.2727 20.0758 22.2727 20.1515 22.3484C20.5303 22.7272 20.9848 23.106 21.2879 23.6363C21.6667 24.0908 21.9697 24.6211 22.0455 25.2272C22.2727 25.7575 22.4242 26.3636 22.4242 26.9696C22.5758 27.5757 22.4242 28.1817 22.3485 28.7878C22.3485 29.0908 22.197 29.3939 22.0455 29.6969C21.9697 29.8484 21.8939 29.9999 21.8939 30.1514C21.8182 30.303 21.8182 30.4545 21.8182 30.606C21.8182 30.6818 21.7424 30.7575 21.7424 30.8333L21.6667 30.909C21.6667 30.9848 21.6667 30.9848 21.5909 31.0605C21.4394 31.2878 21.2879 31.5151 21.1364 31.7424C20.8333 31.7424 20.6061 31.7424 20.303 31.7424C20.1515 31.7424 20 31.7424 19.8485 31.7424C19.2424 31.7424 18.6364 31.6666 18.0303 31.7424C17.4242 31.5151 16.8182 31.6666 16.2121 31.7424C15.6061 31.8181 15 31.7424 14.3939 31.7424C13.7879 31.7424 13.1818 31.7424 12.5758 31.7424C11.9697 31.8181 11.3636 31.6666 10.8333 31.7424C10.2273 31.8181 9.69697 31.6666 9.09091 31.7424C8.48485 31.8181 7.95455 31.8181 7.42424 31.7424C6.89394 31.7424 6.28788 31.5151 5.75758 31.7424C5.22727 31.8181 4.69697 32.0454 4.16667 31.7424C4.01515 31.7424 3.93939 31.7424 3.78788 31.7424C3.71212 31.7424 3.63636 31.7424 3.56061 31.7424H3.25758H3.18182L3.0303 31.6666C2.95455 31.5908 2.87879 31.5908 2.80303 31.5151C2.65152 31.4393 2.57576 31.3636 2.42424 31.2878C2.34848 31.1363 2.27273 31.0605 2.19697 30.9848C2.12121 30.909 1.9697 30.8333 1.89394 30.6817C1.81818 30.606 1.66667 30.5302 1.59091 30.4545C1.51515 30.3787 1.51515 30.3787 1.43939 30.303C1.59091 30.0757 1.51515 29.9999 1.51515 29.9242C1.21212 29.4696 0.984848 29.0151 0.681818 28.5605C0.530303 28.3333 0.454545 28.106 0.378788 27.8787C0.378788 27.7272 0.30303 27.6514 0.30303 27.4999C0.30303 27.3484 0.227273 27.2727 0.227273 27.1211C0.151515 27.0454 0.151515 26.8939 0.151515 26.7424C0.151515 26.5908 0.151515 26.5151 0.151515 26.3636C0.151515 26.2121 0.151515 26.1363 0.151515 25.9848C0.151515 25.909 0.151515 25.8333 0.151515 25.8333C0 25.8333 0 25.8333 0 25.7575C0 25.606 0 25.5302 0 25.3787C0 25.2272 0 25.1514 0 24.9999C0 24.8484 0 24.7727 0 24.6969C0 24.6211 0.0757576 24.4696 0.0757576 24.3939C0.0757576 24.2424 0 24.1666 0 24.0151C0 23.9393 0.0757576 23.7878 0.0757576 23.7121C0.151515 23.4848 0.30303 23.3333 0.378788 23.106C0.454545 23.0302 0.454545 22.8787 0.454545 22.803V22.6514C0.454545 22.5757 0.454545 22.5757 0.530303 22.4999C0.606061 22.2727 0.681818 22.1211 0.833333 21.9696C0.833333 21.7424 0.909091 21.5908 1.06061 21.4393C1.21212 21.2878 1.36364 21.2121 1.51515 21.0605C1.66667 20.909 1.74242 20.7575 1.89394 20.6817C1.9697 20.606 1.9697 20.5302 2.04545 20.4545C2.19697 20.4545 2.27273 20.3787 2.34848 20.3787C2.42424 20.2272 2.57576 20.0757 2.72727 19.9999C2.87879 19.9242 3.0303 19.8484 3.10606 19.7727C3.25758 19.6969 3.40909 19.6211 3.48485 19.5454C3.63636 19.4696 3.71212 19.3939 3.86364 19.3181C4.01515 19.2424 4.09091 19.1666 4.24242 19.1666C4.39394 19.0908 4.4697 19.0908 4.62121 19.0908C4.77273 19.0908 4.84848 19.0151 4.92424 19.0151C5 19.0151 5.15151 18.9393 5.22727 18.9393C5.37879 18.9393 5.5303 18.8636 5.68182 18.8636C5.83333 18.8636 5.98485 18.8636 6.06061 18.7878C6.28788 18.7878 6.51515 18.7878 6.66667 18.7878C6.9697 18.7878 7.12121 18.7878 7.12121 18.8636Z" fill="black"/>
<path d="M42.1212 24.3939C42.1212 24.3939 42.0454 24.4697 41.9697 24.4697C41.8182 24.4697 41.6666 24.5454 41.4394 24.5454C40.9091 24.6212 40.2272 24.7727 39.3939 25C39.2424 25.0757 39.0909 25.0757 38.9394 25.1515C38.7879 25.2272 38.6363 25.303 38.4848 25.303C38.1818 25.4545 37.8788 25.606 37.5 25.7575C37.2727 25.8333 37.1969 25.9091 37.0454 26.0606C36.8939 26.2121 36.7424 26.3636 36.5151 26.3636C36.3636 26.4394 36.1363 26.5909 35.9848 26.7424C35.9091 26.8182 35.8333 26.8939 35.7575 26.9697C35.6818 27.0454 35.606 27.1212 35.5303 27.1969C35.2272 27.5 34.8485 27.803 34.6212 28.2575C34.5454 28.4848 34.3939 28.7121 34.1666 28.8636C34.0909 28.9394 34.0151 29.0151 33.9394 29.1666C33.8636 29.2424 33.8636 29.3939 33.7878 29.5454C33.5606 30 33.3333 30.5303 33.1818 31.0606C32.8788 31.5151 32.8788 32.1212 32.803 32.7272C32.5 33.2576 32.5757 33.9394 32.7272 34.5454C32.5 35.1515 32.6515 35.8333 33.0303 36.4394C33.1818 37.0454 33.3333 37.7272 33.7121 38.2576C34.0151 38.8636 34.3939 39.3939 34.8485 40C35.4545 40.4545 35.9091 40.9091 36.3636 41.5151C36.5151 41.5909 36.6666 41.6666 36.8182 41.7424L36.9697 41.8182H37.0454H37.1969C37.2727 41.8182 37.4242 41.8182 37.5 41.8182C37.7272 41.8182 37.8788 41.8939 38.106 41.8939C38.8636 41.9697 39.6969 41.7424 40.5303 41.8939C41.3636 41.8939 42.1969 41.8182 43.0303 41.8939C43.8636 41.9697 44.6969 42.0454 45.5303 41.8939C46.3636 41.8182 47.2727 41.8182 48.106 41.8939C48.9394 41.6666 49.8485 41.8182 50.7575 41.8939C51.6666 41.8939 52.5757 41.9697 53.4091 41.8939C54.3182 41.8939 55.2272 41.8182 56.1363 41.8939C57.0454 41.9697 57.9545 42.0454 58.8636 41.8939C59.7727 41.7424 60.6818 41.9697 61.5151 41.8939C61.7424 41.9697 61.9697 41.9697 62.1969 41.9697C62.5 41.9697 62.4242 41.9697 62.5 41.9697V41.8939L62.5757 41.7424C62.6515 41.5909 62.7272 41.3636 62.8788 41.2121C62.9545 41.0606 63.0303 40.8333 63.106 40.6818C63.1818 40.5303 63.2575 40.303 63.3333 40.1515C63.4091 40 63.4848 39.7727 63.4848 39.5454C63.4848 39.4697 63.5606 39.3182 63.5606 39.2424C63.5606 39.1666 63.5606 39.0151 63.5606 38.9394C63.6363 38.1818 63.6363 37.3485 63.6363 36.5909C63.5606 36.5151 63.5606 36.4394 63.5606 36.2879C63.5606 36.2121 63.4848 36.1363 63.4848 35.9848C63.4848 35.9091 63.4848 35.8333 63.4091 35.6818C63.4091 35.606 63.4091 35.5303 63.4091 35.3788V35.0757C63.4091 35 63.4091 34.8485 63.3333 34.7727C63.3333 34.6969 63.3333 34.6212 63.2575 34.4697C63.2575 34.3939 63.1818 34.3182 63.1818 34.1666C63.1818 34.0909 63.106 34.0151 63.106 33.8636C63.106 33.7879 63.0303 33.7121 63.0303 33.5606C63.0303 33.4848 62.9545 33.4091 62.9545 33.3333L62.803 33.106L62.6515 32.8788L62.5 32.6515L62.3485 32.5757C62.2727 32.5 62.2727 32.4242 62.1969 32.3485C62.1212 32.2727 62.1212 32.1969 62.0454 32.1212C61.9697 32.0454 61.9697 31.9697 61.8939 31.8939L61.7424 31.6666L61.5909 31.4394C61.5151 31.3636 61.5151 31.2879 61.4394 31.2121C61.3636 31.1363 61.2878 31.0606 61.2878 30.9848C61.2121 30.9091 61.1363 30.8333 61.0606 30.7575C60.9848 30.6818 60.9091 30.6818 60.8333 30.606C60.7575 30.5303 60.6818 30.4545 60.606 30.4545C60.5303 30.3788 60.4545 30.3788 60.3788 30.303L60.1515 30.1515C60.0757 30.0757 60 30.0757 59.9242 30L59.8485 29.8485L59.6212 29.6969H59.5454V29.5454L59.4697 29.3182V29.2424V29.1666V29.0151C59.4697 28.9394 59.4697 28.8636 59.4697 28.7879C59.4697 28.7121 59.3939 28.6363 59.3939 28.5606C59.3939 28.4848 59.3182 28.4091 59.3182 28.3333C59.3182 28.2576 59.2424 28.1818 59.2424 28.106V27.9545L59.0909 27.7272C59.0151 27.4242 58.9394 27.0454 58.7121 26.8182C58.6363 26.6666 58.5606 26.5151 58.4848 26.3636C58.4091 26.2121 58.3333 26.0606 58.1818 25.9848L58.0303 25.7575C57.9545 25.6818 57.9545 25.606 57.8788 25.5303C57.803 25.3788 57.6515 25.303 57.5757 25.1515C57.5757 25.0757 57.5 25 57.5 24.9242C57.4242 24.8485 57.4242 24.7727 57.3485 24.6969C57.2727 24.5454 57.1212 24.4697 57.0454 24.3182C56.8939 24.2424 56.8182 24.0909 56.6666 24.0151C56.5909 23.9394 56.5151 23.9394 56.5151 23.8636C56.4394 23.7879 56.3636 23.7879 56.3636 23.7121C56.1363 23.4848 55.9091 23.3333 55.606 23.1818C55.4545 23.106 55.3788 23.0303 55.2272 22.9545C55.0757 22.8788 55 22.803 54.8485 22.6515C54.6969 22.5757 54.6212 22.5 54.4697 22.4242C54.3182 22.3485 54.2424 22.2727 54.0909 22.1969C53.9394 22.1212 53.8636 22.0454 53.7121 22.0454C53.5606 21.9697 53.4091 21.9697 53.3333 21.9697C53.1818 21.9697 53.106 21.8939 52.9545 21.8182C52.803 21.7424 52.7272 21.7424 52.5757 21.6666C52.4242 21.5909 52.3485 21.5909 52.1969 21.5151C52.0454 21.5151 51.8939 21.5151 51.8182 21.5909C51.6666 21.5909 51.5909 21.5909 51.4394 21.5151C51.2878 21.5151 51.2121 21.4394 51.0606 21.4394C50.8333 21.3636 50.5303 21.3636 50.303 21.4394C50.0757 21.5151 49.8485 21.5151 49.6212 21.5151C49.4697 21.5151 49.3939 21.5151 49.2424 21.5151C49.0909 21.5151 49.0151 21.5151 48.8636 21.5151C48.7878 21.5151 48.6363 21.5151 48.5606 21.5909C48.4848 21.5909 48.3333 21.6666 48.2575 21.6666C48.0303 21.7424 47.803 21.7424 47.6515 21.8182C46.7424 22.1212 45.9848 22.4242 45.3788 22.803C44.7727 23.1818 44.2424 23.5606 43.8636 23.9394C43.7879 24.0151 43.7121 24.0909 43.5606 24.1666C43.4848 24.2424 43.4091 24.3182 43.2575 24.3939H43.1818H43.106C43.0303 24.3939 43.0303 24.3939 42.9545 24.3939C42.8788 24.3939 42.803 24.3939 42.7272 24.3939C42.2727 24.4697 42.1212 24.4697 42.1212 24.3939C42.1212 24.3939 42.2727 24.3182 42.6515 24.3182C42.803 24.3182 42.9545 24.3939 43.106 24.1666C43.1818 24.0909 43.2575 24.0151 43.3333 23.8636C43.4091 23.7879 43.5606 23.6363 43.6363 23.5606C44.0909 23.106 44.6969 22.5757 45.5303 22.1212C45.9091 21.8939 46.3636 21.6666 46.8939 21.4394C47.4242 21.2121 47.9545 21.0606 48.5606 20.9848C48.7121 20.9848 48.7878 20.9091 48.9394 20.9091C49.0909 20.9091 49.1666 20.8333 49.3182 20.8333C49.5454 20.7575 49.8485 20.7575 50.0757 20.8333C50.303 20.8333 50.606 20.8333 50.9091 20.8333C51.0606 20.8333 51.2121 20.8333 51.3636 20.8333C51.5151 20.8333 51.6666 20.9091 51.8182 20.9091C51.9697 20.9091 52.1212 20.8333 52.2727 20.9091C52.4242 20.9091 52.5757 20.9848 52.7272 20.9848C52.8788 21.0606 53.0303 21.0606 53.1818 21.1363C53.3333 21.2121 53.4848 21.2879 53.6363 21.2879C53.7879 21.3636 53.9394 21.3636 54.0909 21.4394C54.2424 21.5151 54.3939 21.5909 54.5454 21.5909C54.6969 21.6666 54.8485 21.7424 55 21.7424C55.1515 21.8182 55.303 21.8939 55.4545 21.9697C55.606 22.0454 55.7575 22.0454 55.9091 22.1969C56.0606 22.2727 56.2121 22.3485 56.2879 22.5C56.5909 22.6515 56.8182 22.9545 57.1212 23.106C57.1969 23.1818 57.2727 23.2575 57.2727 23.3333C57.3485 23.4091 57.3485 23.4848 57.4242 23.5606C57.5757 23.7121 57.6515 23.7879 57.803 23.9394C57.9545 24.0909 58.0303 24.1666 58.1818 24.3182C58.2575 24.3939 58.3333 24.4697 58.4091 24.4697C58.4848 24.5454 58.5606 24.6212 58.6363 24.6212C58.7121 24.7727 58.7878 24.9242 58.9394 25.0757C59.0151 25.1515 59.0151 25.2272 59.0909 25.303C59.1666 25.3788 59.1666 25.4545 59.2424 25.5303C59.3181 25.6818 59.4697 25.8333 59.5454 25.9848C59.6212 26.1363 59.7727 26.2879 59.8485 26.4394C59.9242 26.8182 60.0757 27.1969 60.2272 27.5L60.303 27.6515L60.3788 27.803C60.4545 27.8788 60.4545 27.9545 60.5303 28.0303C60.606 28.106 60.606 28.1818 60.6818 28.3333C60.7575 28.4091 60.7575 28.4848 60.7575 28.6363C60.7575 28.7121 60.8333 28.7879 60.8333 28.9394L60.9091 29.1666C60.9091 29.1666 60.9091 29.1666 60.9091 29.2424C60.9848 29.3182 61.0606 29.3939 61.1363 29.3939L61.3636 29.6212L61.5909 29.8485C61.6666 29.9242 61.7424 30 61.8181 30.0757C62.3485 30.6818 62.9545 31.2121 63.4091 31.9697C63.9394 32.6515 64.3939 33.4091 64.5454 34.2424C64.9242 35 65 35.9091 65.1515 36.8182C65.303 37.7272 65.1515 38.6363 65.0757 39.4697C65.0757 39.5454 65.0757 39.6969 65 39.7727C65 39.8485 64.9242 40 64.9242 40.0757C64.8484 40.303 64.7727 40.5303 64.6969 40.7575C64.6212 40.9848 64.5454 41.2121 64.4697 41.4394C64.3939 41.6666 64.3182 41.8939 64.3182 42.1212C64.2424 42.3485 64.0909 42.5757 64.0151 42.7272C63.8636 43.0303 63.6363 43.3333 63.4848 43.6363H63.4091H63.3333H63.1818H62.8788H62.4242C62.1969 43.6363 61.9697 43.6363 61.7424 43.6363C60.8333 43.6363 59.9242 43.5606 59.0909 43.6363C58.1818 43.4091 57.2727 43.5606 56.3636 43.6363C55.4545 43.7121 54.5454 43.6363 53.6363 43.6363C52.7272 43.6363 51.8182 43.6363 50.9848 43.6363C50.0757 43.7121 49.2424 43.5606 48.3333 43.6363C47.5 43.7121 46.5909 43.5606 45.7575 43.6363C44.9242 43.7121 44.0909 43.7121 43.2575 43.6363C42.4242 43.6363 41.5909 43.4091 40.7575 43.6363C39.9242 43.7121 39.1666 43.9394 38.3333 43.6363C38.106 43.6363 37.9545 43.6363 37.7272 43.6363C37.6515 43.6363 37.5 43.6363 37.4242 43.6363H37.2727H37.0454H36.8939H36.8182L36.5909 43.1818L36.3636 43.0303L36.2121 42.9545L36.0606 42.8788C35.9091 42.803 35.7575 42.6515 35.5303 42.5757C35.3788 42.4242 35.303 42.2727 35.1515 42.1212C35 41.9697 34.8485 41.8182 34.6969 41.7424C34.6212 41.6666 34.5454 41.5909 34.4697 41.5151L34.2424 41.2879C34.1666 41.2121 34.0909 41.1363 34.0151 41.0606C33.9394 40.9848 33.8636 40.9091 33.8636 40.8333C33.4091 40.2272 33.0303 39.5454 32.6515 38.8636C32.4242 38.5606 32.2727 38.1818 32.1969 37.8788C32.1969 37.803 32.1212 37.7272 32.1212 37.6515C32.1212 37.5757 32.0454 37.5 32.0454 37.3485C31.9697 37.1969 31.9697 36.9697 31.8939 36.8182C31.8182 36.6666 31.7424 36.4394 31.7424 36.2879C31.7424 36.1363 31.7424 35.9091 31.6666 35.7576C31.6666 35.606 31.6666 35.3788 31.6666 35.2272C31.6666 35.1515 31.6666 35.0757 31.6666 35C31.6666 34.9242 31.6666 34.8485 31.5909 34.7727C31.5909 34.0909 31.5909 33.4091 31.7424 32.803C31.8182 32.5757 31.8182 32.4242 31.8182 32.2727C31.8182 32.1212 31.8939 31.9697 31.9697 31.8182C32.1212 31.5151 32.2727 31.2121 32.3485 30.9848C32.4242 30.8333 32.4242 30.6818 32.5 30.5303C32.5 30.4545 32.5757 30.3788 32.5757 30.303C32.5757 30.2272 32.6515 30.1515 32.6515 30.0757C32.7272 29.7727 32.8788 29.5454 33.106 29.3182C33.106 29.1666 33.1818 29.0151 33.2575 28.8636C33.3333 28.7121 33.4091 28.6363 33.4848 28.4848C33.6363 28.2575 33.8636 28.106 34.0909 27.8788C34.2424 27.6515 34.3939 27.5 34.6212 27.2727C34.7727 27.0454 34.9242 26.8939 35.1515 26.7424C35.2272 26.5909 35.303 26.5151 35.3788 26.4394C35.4545 26.3636 35.5303 26.2879 35.6818 26.2121C35.9091 26.0606 36.0606 25.9848 36.2879 25.8333C36.7424 25.6818 37.0454 25.3788 37.3485 25.1515C37.6515 24.9242 38.0303 24.7727 38.4091 24.6969C38.5606 24.6212 38.7121 24.5454 38.8636 24.5454C39.0151 24.4697 39.1666 24.4697 39.3182 24.3939C40.2272 24.1666 40.9091 24.0909 41.4394 24.0909C41.6666 24.0909 41.8939 24.0909 41.9697 24.0909C42.0454 24.3939 42.1212 24.3939 42.1212 24.3939Z" fill="#2BBD81"/>
<path d="M28.3333 13.6363C28.3333 13.7121 28.2575 13.7121 28.106 13.7878C28.0303 13.7878 27.9545 13.8636 27.803 13.8636C27.6515 13.8636 27.5757 13.9393 27.4242 14.0151C27.3485 14.0151 27.1969 14.0909 27.1212 14.1666C27.0454 14.1666 27.0454 14.2424 26.9697 14.2424C26.8939 14.2424 26.8182 14.3181 26.8182 14.3181C26.5151 14.1666 26.5151 14.4696 26.2878 14.3939C26.1363 14.3939 25.9848 14.5454 25.9091 14.6212C25.8333 14.7727 25.606 14.6969 25.5303 14.9242C25.5303 15.0757 25.4545 15.0757 25.303 15.0757C25.2272 15.0757 25.0757 15.1515 25.1515 15.303C25.0757 15.3787 25.0757 15.4545 25 15.5302C24.9242 15.606 24.8485 15.6818 24.7727 15.7575C24.6212 15.7575 24.6212 15.8333 24.5454 15.9848C24.4697 16.0606 24.4697 16.2121 24.4697 16.2878C24.2424 16.3636 24.1666 16.5909 24.1666 16.8181C24.0151 16.8939 23.8636 16.8939 23.8636 17.0454C23.8636 17.1212 23.8636 17.2727 23.9394 17.4242C23.9394 17.4999 23.8636 17.6515 23.7878 17.7272C23.7878 17.803 23.7878 17.803 23.7121 17.8787C23.7121 17.9545 23.7121 18.0302 23.7121 18.0302C23.7121 18.1818 23.7121 18.2575 23.7121 18.409C23.7121 18.5606 23.7121 18.6363 23.7121 18.7878C23.7878 18.9393 23.8636 19.0151 23.8636 19.1666C23.8636 19.2424 23.8636 19.3181 23.8636 19.3181C23.8636 19.3939 23.8636 19.4696 23.7878 19.4696C24.0151 19.6969 24.0151 19.9242 23.9394 20.1515C23.9394 20.303 24.0151 20.3787 24.0909 20.5302C24.1666 20.606 24.2424 20.7575 24.2424 20.909C24.2424 20.909 24.2424 20.9848 24.3182 20.9848C24.3182 20.9848 24.3182 21.0606 24.3939 21.0606L24.4697 21.2121C24.5454 21.2878 24.6212 21.4393 24.6969 21.5151C24.6969 21.5909 24.7727 21.6666 24.7727 21.7424C24.7727 21.8181 24.8485 21.8939 24.8485 21.8939C24.9242 21.9696 24.9242 21.9696 25 22.0454C25.0757 22.0454 25.1515 22.1212 25.2272 22.1212C25.3788 22.1969 25.4545 22.2727 25.606 22.3484C25.6818 22.4242 25.8333 22.4999 25.9091 22.6515C26.2121 22.6515 26.4394 22.803 26.6666 23.0302C26.8182 23.0302 26.8939 23.106 27.0454 23.1818C27.1969 23.2575 27.3485 23.2575 27.5 23.2575C27.6515 23.2575 27.803 23.3333 27.9545 23.3333C28.106 23.3333 28.2575 23.3333 28.4091 23.409C28.5606 23.409 28.7121 23.4848 28.8636 23.4848C29.0151 23.4848 29.1666 23.409 29.2424 23.3333C29.3939 23.2575 29.4697 23.1818 29.6212 23.1818C29.7727 23.1818 29.9242 23.106 30 23.106C30.0757 23.106 30.1515 23.106 30.2272 23.106C30.303 23.106 30.3788 23.0302 30.3788 23.0302L30.4545 22.9545L30.5303 22.8787C30.606 22.803 30.606 22.803 30.6818 22.803C30.8333 22.7272 30.9091 22.6515 31.0606 22.5757C31.2121 22.4999 31.2879 22.4242 31.3636 22.2727C31.4394 22.1969 31.4394 22.1969 31.5151 22.1212C31.5909 22.0454 31.5909 22.0454 31.6666 21.9696C31.7424 21.8939 31.7424 21.8939 31.8182 21.8181C31.8939 21.7424 31.8939 21.7424 31.9697 21.6666C31.9697 21.4393 32.0454 21.3636 32.1212 21.2878C32.1969 21.2121 32.1969 21.2121 32.2727 21.1363L32.3485 21.0606V20.9848C32.4242 20.909 32.5 20.7575 32.5757 20.6818C32.5757 20.5302 32.6515 20.4545 32.6515 20.303C32.6515 20.1515 32.7272 20.0757 32.803 19.9242C32.803 19.9242 32.803 19.8484 32.8788 19.8484V19.7727C32.8788 19.6969 32.8788 19.6212 32.8788 19.6212C32.8788 19.5454 32.8788 19.4696 32.8788 19.4696C32.8788 19.3939 32.8788 19.3181 32.8788 19.3181C32.8788 19.1666 32.8788 19.0909 32.9545 18.9393C32.8788 18.7878 32.8788 18.7121 32.9545 18.5606C32.9545 18.409 33.0303 18.3333 32.9545 18.1818C32.9545 18.106 32.9545 18.106 32.9545 18.0302C32.9545 17.9545 32.9545 17.9545 32.8788 17.8787C32.8788 17.803 32.803 17.6515 32.803 17.5757C32.8788 17.4242 32.8788 17.3484 32.803 17.1969C32.7272 17.1212 32.6515 17.0454 32.5757 16.9696C32.5 16.7424 32.2727 16.6666 32.2727 16.4393C32.1969 16.3636 32.1969 16.2878 32.1212 16.1363C32.0454 16.0606 32.0454 15.9848 31.8939 15.909C31.8182 15.8333 31.8182 15.7575 31.8182 15.606C31.8182 15.5302 31.7424 15.4545 31.5909 15.4545C31.5151 15.3787 31.5151 15.303 31.4394 15.2272C31.3636 15.1515 31.3636 15.0757 31.2121 15.0757C30.9848 15.1515 30.9848 14.8484 30.8333 14.7727C30.6818 14.6969 30.606 14.6212 30.4545 14.5454C29.8485 14.2424 29.3939 14.0909 29.0151 14.0151C28.4848 13.7121 28.3333 13.7121 28.3333 13.6363C28.3333 13.6363 28.4091 13.5606 28.4848 13.5606C28.5606 13.5606 28.6363 13.5606 28.7121 13.5606C28.7878 13.5606 28.7878 13.5606 28.8636 13.5606C28.9394 13.5606 28.9394 13.5606 29.0151 13.5606C29.4697 13.5606 30.2272 13.6363 31.0606 14.0909C31.2121 14.1666 31.4394 14.1666 31.5151 14.3939C31.5909 14.4696 31.6666 14.4696 31.8182 14.5454C31.8939 14.6212 31.9697 14.6969 32.0454 14.7727C32.1969 14.7727 32.2727 14.8484 32.3485 14.9242C32.4242 14.9999 32.4242 15.1515 32.5 15.2272C32.5757 15.303 32.6515 15.3787 32.7272 15.5302C32.803 15.606 32.8788 15.6818 32.9545 15.7575C33.1818 15.909 33.1818 16.2121 33.3333 16.3636C33.3333 16.5151 33.4091 16.5909 33.4091 16.7424C33.4848 16.8939 33.5606 16.9696 33.6363 17.0454C33.6363 17.1969 33.6363 17.3484 33.7121 17.4242C33.7121 17.4999 33.7878 17.5757 33.7878 17.6515C33.7878 17.7272 33.8636 17.803 33.8636 17.8787C33.7878 18.0302 33.7878 18.1818 33.8636 18.3333C33.8636 18.4848 33.9394 18.6363 34.0151 18.7878C34.0909 18.9393 34.0151 19.0909 34.0151 19.2424C34.0151 19.3181 34.0151 19.3939 34.0151 19.4696C34.0151 19.5454 34.0151 19.6212 34.0151 19.6969C33.9394 19.9999 33.9394 20.303 33.8636 20.606C33.8636 20.7575 33.8636 20.909 33.7878 21.0606C33.7121 21.2121 33.6363 21.3636 33.4848 21.4393C33.4848 21.5151 33.4848 21.5151 33.4848 21.5909C33.4848 21.5909 33.4848 21.6666 33.4091 21.6666C33.3333 21.7424 33.3333 21.8181 33.2575 21.8939C33.1818 22.0454 33.0303 22.1969 32.9545 22.2727C32.9545 22.3484 32.8788 22.4242 32.803 22.4999C32.7272 22.5757 32.7272 22.6515 32.6515 22.6515L32.5 22.803C32.4242 22.8787 32.3485 22.8787 32.3485 22.9545C32.1969 23.106 32.0454 23.1818 31.8939 23.2575C31.7424 23.3333 31.5909 23.409 31.5151 23.6363C31.2121 23.8636 30.9091 23.9393 30.606 24.0909C30.4545 24.1666 30.2272 24.1666 30.0757 24.2424C29.9242 24.3181 29.6969 24.3181 29.5454 24.3939C29.3182 24.3181 29.1666 24.3181 29.0151 24.3939C28.8636 24.3939 28.6363 24.4696 28.4848 24.5454C28.3333 24.5454 28.106 24.5454 27.9545 24.5454C27.803 24.5454 27.5757 24.4696 27.4242 24.4696C27.2727 24.4696 27.0454 24.3939 26.8939 24.3181C26.7424 24.2424 26.5909 24.1666 26.3636 24.0909C26.2878 24.0909 26.2121 24.0151 26.1363 24.0151C26.0606 23.9393 25.9848 23.9393 25.9091 23.8636L25.8333 23.7878L25.7575 23.7121C25.6818 23.6363 25.606 23.6363 25.5303 23.5606C25.3788 23.4848 25.2272 23.409 25.0757 23.2575C24.9242 23.106 24.8485 23.0302 24.6969 22.9545C24.6212 22.8787 24.5454 22.8787 24.4697 22.803C24.3939 22.7272 24.3182 22.6515 24.3182 22.6515C24.2424 22.5757 24.2424 22.4999 24.1666 22.4242C24.0909 22.3484 24.0909 22.2727 24.0909 22.1969C24.0151 22.0454 23.9394 21.8939 23.8636 21.7424C23.8636 21.6666 23.7878 21.5909 23.7121 21.5151L23.6363 21.4393L23.5606 21.3636C23.4848 21.2121 23.3333 21.1363 23.2575 20.9848C23.1818 20.8333 23.106 20.6818 23.1818 20.4545C23.106 20.303 23.106 20.1515 23.106 19.9999C23.106 19.9242 23.106 19.9242 23.106 19.8484C23.106 19.7727 23.106 19.7727 23.106 19.6969C23.106 19.6212 23.106 19.5454 23.0303 19.4696C23.106 19.3939 23.106 19.3181 23.106 19.2424C23.106 19.1666 23.106 19.0909 23.106 19.0151C23.106 18.8636 23.0303 18.7121 23.0303 18.5606C23.0303 18.409 23.106 18.2575 23.106 18.106C23.106 17.9545 23.1818 17.803 23.106 17.6515C23.106 17.5757 23.106 17.4999 23.106 17.4242C23.106 17.3484 23.1818 17.2727 23.1818 17.1969C23.2575 17.0454 23.2575 16.9696 23.3333 16.8181C23.3333 16.6666 23.4091 16.5909 23.4848 16.4393C23.5606 16.3636 23.6363 16.2121 23.6363 16.0606C23.7879 15.8333 23.8636 15.606 24.0151 15.4545C23.9394 15.303 24.0151 15.1515 24.1666 15.0757C24.2424 14.9999 24.3939 14.9242 24.4697 14.8484C24.5454 14.7727 24.6212 14.6969 24.6969 14.5454C24.7727 14.4696 24.8485 14.3939 25 14.3939C25 14.2424 25.0757 14.1666 25.1515 14.0909C25.2272 14.0151 25.3788 14.0151 25.4545 14.0151C25.606 13.9393 25.7575 13.7121 25.9091 13.7121C25.9848 13.5606 26.0606 13.5606 26.1363 13.5606C26.2121 13.5606 26.3636 13.5606 26.3636 13.4848C26.5151 13.4848 26.6666 13.3333 26.8182 13.3333C26.8939 13.2575 26.9697 13.2575 27.0454 13.2575C27.1212 13.2575 27.1969 13.2575 27.2727 13.2575C27.4242 13.2575 27.5 13.1818 27.6515 13.1818C27.803 13.1818 27.9545 13.1818 28.106 13.1818C28.2575 13.1818 28.3333 13.1818 28.4091 13.1818C28.2575 13.5606 28.3333 13.5606 28.3333 13.6363Z" fill="#2BBD81"/>
<path d="M17.2727 0.151467C17.2727 0.227225 17.197 0.227225 17.0455 0.302982C16.9697 0.302982 16.894 0.37874 16.7424 0.37874C16.5909 0.37874 16.5152 0.454497 16.3637 0.530255C16.2879 0.530255 16.1364 0.606013 16.0606 0.606013C15.9849 0.606013 15.9849 0.68177 15.9091 0.68177C15.8334 0.68177 15.7576 0.757528 15.7576 0.757528C15.6061 0.68177 15.6061 1.06056 15.3788 0.909043C15.2273 0.909043 15.0758 1.06056 15 1.13632C14.9243 1.28783 14.697 1.21207 14.6212 1.43935C14.6212 1.59086 14.5455 1.59086 14.394 1.59086C14.3182 1.59086 14.1667 1.66662 14.2424 1.81813C14.1667 1.89389 14.1667 1.96965 14.0909 2.04541C14.0152 2.12116 13.9394 2.19692 13.8637 2.27268C13.7121 2.27268 13.7121 2.34844 13.6364 2.49995C13.5606 2.57571 13.5606 2.72722 13.5606 2.80298C13.3334 2.87874 13.2576 3.10601 13.2576 3.33329C13.1061 3.40904 12.9546 3.4848 12.9546 3.56056C12.9546 3.63632 12.9546 3.78783 13.0303 3.93935C13.0303 4.0151 12.9546 4.16662 12.8788 4.24238C12.8788 4.31813 12.8788 4.31813 12.8031 4.39389C12.8031 4.46965 12.8031 4.54541 12.8031 4.54541C12.8031 4.69692 12.8031 4.77268 12.8031 4.92419C12.8031 5.07571 12.8031 5.15147 12.8031 5.30298C12.8031 5.30298 12.8788 5.4545 12.8788 5.53025C12.8788 5.60601 12.8788 5.68177 12.8788 5.68177C12.8788 5.75753 12.8788 5.83328 12.8031 5.83328C13.0303 6.06056 13.0303 6.28783 12.9546 6.5151C12.9546 6.66662 13.0303 6.74238 13.1061 6.89389C13.1818 6.96965 13.2576 7.12116 13.2576 7.27268C13.2576 7.27268 13.2576 7.34844 13.3334 7.34844C13.3334 7.34844 13.3334 7.42419 13.4091 7.42419L13.4849 7.57571C13.5606 7.65147 13.6364 7.80298 13.7121 7.87874C13.7121 7.9545 13.7879 8.03026 13.7879 8.10601C13.7879 8.18177 13.8637 8.25753 13.8637 8.25753C13.9394 8.33329 13.9394 8.33329 14.0152 8.40904C14.0909 8.4848 14.1667 8.4848 14.2424 8.4848C14.394 8.56056 14.4697 8.63632 14.6212 8.71207C14.7727 8.78783 14.8485 8.86359 14.9243 9.0151C15.2273 9.0151 15.4546 9.16662 15.6818 9.39389C15.7576 9.39389 15.8334 9.46965 15.9091 9.46965C15.9849 9.46965 16.0606 9.54541 16.1364 9.54541C16.2879 9.62116 16.4394 9.62116 16.5909 9.62116C16.7424 9.62116 16.894 9.69692 17.0455 9.69692C17.197 9.69692 17.3485 9.69692 17.5 9.77268C17.6515 9.77268 17.8031 9.84844 17.9546 9.84844C18.1061 9.84844 18.2576 9.77268 18.3334 9.69692C18.4849 9.62116 18.5606 9.54541 18.7121 9.54541C18.8637 9.54541 19.0152 9.46965 19.0909 9.46965C19.1667 9.46965 19.2424 9.46965 19.3182 9.46965C19.394 9.46965 19.4697 9.39389 19.4697 9.39389L19.5455 9.31813L19.6212 9.24238C19.697 9.16662 19.697 9.16662 19.7727 9.16662C19.9243 9.09086 20 9.0151 20.1515 8.93935C20.3031 8.86359 20.3788 8.78783 20.4546 8.63632C20.5303 8.56056 20.5303 8.56056 20.6061 8.4848C20.6818 8.40904 20.6818 8.40904 20.7576 8.33329C20.8334 8.25753 20.8334 8.25753 20.9091 8.18177C20.9849 8.10601 20.9849 8.10601 21.0606 8.03026C21.0606 7.80298 21.1364 7.72723 21.2121 7.65147C21.2879 7.57571 21.2879 7.57571 21.3637 7.49995L21.4394 7.42419V7.34844C21.5152 7.27268 21.5909 7.12116 21.6667 7.04541C21.6667 6.89389 21.7424 6.81813 21.7424 6.66662C21.7424 6.5151 21.8182 6.43935 21.894 6.28783C21.894 6.28783 21.894 6.21207 21.9697 6.21207V6.13632C21.9697 6.06056 21.9697 5.9848 21.9697 5.9848C21.9697 5.90904 21.9697 5.83328 21.9697 5.83328C21.9697 5.75753 21.9697 5.68177 21.9697 5.68177C21.9697 5.53025 21.9697 5.4545 22.0455 5.30298C21.9697 5.15147 21.9697 5.07571 22.0455 4.92419C22.0455 4.77268 22.1212 4.69692 22.0455 4.54541C22.0455 4.46965 22.0455 4.46965 22.0455 4.39389C22.0455 4.31813 22.0455 4.31813 21.9697 4.24238C21.9697 4.16662 21.894 4.0151 21.894 3.93935C21.9697 3.78783 21.9697 3.71207 21.894 3.56056C21.8182 3.4848 21.7424 3.40904 21.6667 3.33329C21.5909 3.10601 21.3637 3.03025 21.3637 2.80298C21.2879 2.72722 21.2879 2.65147 21.2121 2.49995C21.1364 2.42419 21.1364 2.34844 20.9849 2.27268C20.9091 2.19692 20.9091 2.12116 20.9091 1.96965C20.9091 1.89389 20.8334 1.81813 20.6818 1.81813C20.6061 1.74238 20.6061 1.66662 20.5303 1.59086C20.4546 1.5151 20.4546 1.43935 20.3031 1.43935C20.0758 1.5151 20.0758 1.21207 19.9243 1.13632C19.7727 1.06056 19.697 0.9848 19.5455 0.909043C18.9394 0.606013 18.4849 0.454497 18.1061 0.37874C17.4243 0.227225 17.2727 0.227225 17.2727 0.151467C17.2727 0.151467 17.3485 0.0757095 17.4243 0.0757095C17.5 0.0757095 17.5758 0.0757095 17.6515 0.0757095C17.7273 0.0757095 17.7273 0.0757095 17.8031 0.0757095C17.8788 0.0757095 17.8788 0.0757095 17.9546 0.0757095C18.4091 0.0757095 19.1667 0.151467 20 0.606013C20.1515 0.68177 20.3788 0.68177 20.4546 0.909043C20.5303 0.9848 20.6061 0.9848 20.7576 1.06056C20.8334 1.13632 20.9091 1.21207 20.9849 1.28783C21.1364 1.28783 21.2121 1.36359 21.2879 1.43935C21.3637 1.5151 21.3637 1.66662 21.4394 1.74238C21.5152 1.81813 21.5909 1.89389 21.6667 2.04541C21.7424 2.12116 21.8182 2.19692 21.894 2.27268C22.1212 2.42419 22.1212 2.72722 22.2727 2.87874C22.2727 3.03025 22.3485 3.10601 22.3485 3.25753C22.4243 3.40904 22.5 3.4848 22.5758 3.56056C22.5758 3.71207 22.5758 3.86359 22.6515 3.93935C22.6515 4.0151 22.7273 4.09086 22.7273 4.16662C22.7273 4.24238 22.8031 4.31813 22.8031 4.39389C22.7273 4.54541 22.7273 4.69692 22.8031 4.84844C22.8031 4.99995 22.8788 5.15147 22.9546 5.30298C23.0303 5.4545 22.9546 5.60601 22.9546 5.75753C22.9546 5.83328 22.9546 5.90904 22.9546 5.9848C22.9546 6.06056 22.9546 6.13632 22.9546 6.21207C22.9546 6.28783 22.9546 6.36359 22.8788 6.43935V6.59086V6.74238C22.8788 6.89389 22.8031 7.04541 22.8031 7.19692C22.8031 7.34844 22.8031 7.49995 22.7273 7.65147C22.6515 7.80298 22.5758 7.9545 22.4243 8.03026C22.4243 8.10601 22.4243 8.10601 22.4243 8.18177C22.4243 8.25753 22.4243 8.25753 22.3485 8.25753C22.2727 8.33329 22.2727 8.40904 22.197 8.4848C22.1212 8.63632 21.9697 8.78783 21.894 8.86359C21.894 8.93935 21.8182 9.0151 21.7424 9.09086C21.6667 9.16662 21.6667 9.24238 21.5909 9.24238L21.4394 9.39389C21.3637 9.46965 21.2879 9.46965 21.2879 9.54541C21.2121 9.69692 20.9849 9.77268 20.8334 9.84844C20.6818 9.92419 20.5303 9.99995 20.4546 10.2272C20.1515 10.4545 19.8485 10.5303 19.5455 10.6818C19.394 10.7575 19.1667 10.7575 19.0152 10.8333C18.8637 10.909 18.6364 10.909 18.4849 10.9848C18.2576 10.909 18.1061 10.909 17.9546 10.9848C17.8031 10.9848 17.5758 11.0606 17.4243 11.1363C17.2727 11.1363 17.0455 11.1363 16.894 11.1363C16.7424 11.1363 16.5152 11.0606 16.3637 11.0606C16.2121 11.0606 15.9849 10.9848 15.8334 10.909C15.7576 10.909 15.6818 10.8333 15.6061 10.8333L15.1515 10.606C15.0758 10.606 15 10.5303 14.9243 10.5303C14.8485 10.4545 14.7727 10.4545 14.697 10.3787L14.6212 10.303L14.5455 10.2272C14.4697 10.1515 14.394 10.1515 14.3182 10.0757C14.1667 9.99995 14.0152 9.92419 13.8637 9.77268C13.7121 9.62116 13.6364 9.54541 13.4849 9.46965C13.4091 9.39389 13.3334 9.39389 13.2576 9.31813C13.1818 9.24238 13.1061 9.16662 13.1061 9.16662C12.8788 9.09086 12.8788 9.0151 12.8031 8.93935C12.7273 8.86359 12.7273 8.78783 12.7273 8.71207C12.6515 8.56056 12.5758 8.40904 12.5 8.25753C12.5 8.18177 12.4243 8.10601 12.3485 8.03026L12.2727 7.9545L12.197 7.87874C12.1212 7.72722 11.9697 7.65147 11.894 7.49995C11.8182 7.34844 11.7424 7.19692 11.8182 6.96965C11.7424 6.81813 11.7424 6.66662 11.7424 6.5151C11.7424 6.43935 11.7424 6.43935 11.7424 6.36359C11.7424 6.28783 11.7424 6.28783 11.7424 6.21207C11.7424 6.13632 11.7424 6.06056 11.6667 5.9848C11.7424 5.90904 11.7424 5.83328 11.7424 5.75753C11.7424 5.68177 11.7424 5.60601 11.7424 5.53025C11.7424 5.37874 11.6667 5.22722 11.6667 5.07571C11.6667 4.92419 11.7424 4.77268 11.7424 4.62116C11.7424 4.46965 11.8182 4.31813 11.7424 4.16662C11.7424 4.09086 11.7424 4.0151 11.7424 3.93935C11.7424 3.86359 11.8182 3.78783 11.8182 3.71207C11.894 3.56056 11.9697 3.4848 11.9697 3.33329C11.9697 3.18177 12.0455 3.10601 12.1212 2.9545C12.1212 3.10601 12.1212 3.03025 12.197 2.9545C12.197 2.87874 12.2727 2.80298 12.2727 2.80298C12.4243 2.57571 12.5 2.34844 12.6515 2.19692C12.5758 2.04541 12.6515 1.89389 12.8031 1.81813C12.8788 1.74238 13.0303 1.66662 13.1061 1.59086C13.1818 1.5151 13.2576 1.43935 13.2576 1.28783C13.3334 1.21207 13.4091 1.13632 13.5606 1.13632C13.5606 0.9848 13.6364 0.909043 13.7121 0.833285C13.7879 0.757528 13.9394 0.757528 14.0152 0.757528C14.1667 0.68177 14.3182 0.454497 14.4697 0.454497C14.5455 0.302982 14.6212 0.302982 14.697 0.302982C14.7727 0.302982 14.8485 0.302982 14.9243 0.227225C15.0758 0.227225 15.2273 0.0757095 15.3788 0.0757095C15.4546 -4.8086e-05 15.5303 -4.8086e-05 15.6061 -4.8086e-05C15.6818 -4.8086e-05 15.7576 -4.8086e-05 15.8334 -4.8086e-05C15.9849 -4.8086e-05 16.0606 -0.0758057 16.2121 -0.0758057C16.3637 -0.0758057 16.5152 -0.0758057 16.6667 -0.0758057C16.8182 -0.0758057 16.894 -0.0758057 16.9697 -0.0758057C17.197 0.0757095 17.2727 0.0757095 17.2727 0.151467Z" fill="#2BBD81"/>
<path d="M40.3788 1.43938C40.3788 1.51514 40.303 1.51514 40.1515 1.5909C40.0757 1.5909 40 1.66666 39.8485 1.66666C39.6969 1.66666 39.6212 1.74241 39.4697 1.81817C39.3939 1.81817 39.2424 1.89393 39.1666 1.96969C39.0909 1.96969 39.0909 2.04544 39.0151 2.04544C38.9394 2.04544 38.8636 2.1212 38.8636 2.1212C38.7121 2.04544 38.7121 2.42423 38.4848 2.27272C38.3333 2.27272 38.1818 2.42423 38.106 2.49999C38.0303 2.6515 37.803 2.57575 37.7272 2.80302C37.7272 2.95453 37.6515 2.95453 37.5 2.95453C37.4242 2.95453 37.2727 3.03029 37.3485 3.18181C37.2727 3.25756 37.2727 3.33332 37.1969 3.40908C37.1212 3.48484 37.0454 3.56059 36.9697 3.63635C36.8182 3.63635 36.8182 3.71211 36.7424 3.86363C36.6666 3.93938 36.6666 4.0909 36.6666 4.16666C36.4394 4.24241 36.3636 4.46969 36.3636 4.69696C36.2121 4.77272 36.0606 4.84847 36.0606 4.92423C36.0606 4.99999 36.0606 5.1515 36.1363 5.30302C36.1363 5.37878 36.0606 5.53029 35.9848 5.60605C35.9848 5.68181 35.9848 5.68181 35.9091 5.75756C35.9091 5.83332 35.9091 5.90908 35.9091 5.90908C35.9091 5.98484 35.9091 6.13635 35.9091 6.28787C35.9091 6.43938 35.9091 6.51514 35.9091 6.66666C35.9848 6.81817 36.0606 6.89393 36.0606 7.04544C36.0606 7.1212 36.0606 7.19696 36.0606 7.19696C36.0606 7.27272 36.0606 7.34847 35.9848 7.34847C36.2121 7.57575 36.2121 7.80302 36.1363 8.03029C36.1363 8.18181 36.2121 8.25756 36.2879 8.40908C36.3636 8.48484 36.4394 8.63635 36.4394 8.78787C36.4394 8.78787 36.4394 8.86362 36.5151 8.86362C36.5151 8.86362 36.5151 8.93938 36.5909 8.93938L36.6666 9.0909C36.7424 9.16665 36.8182 9.31817 36.8939 9.39393C36.8939 9.46968 36.9697 9.54544 36.9697 9.6212C36.9697 9.69696 37.0454 9.77272 37.0454 9.77272C37.1212 9.84847 37.1212 9.84847 37.1969 9.92423C37.2727 9.99999 37.3485 9.99999 37.4242 9.99999C37.5757 10.0757 37.6515 10.1515 37.803 10.2273C37.8788 10.303 38.0303 10.3788 38.106 10.5303C38.4091 10.5303 38.6363 10.6818 38.8636 10.9091C39.0151 10.9091 39.0909 10.9848 39.2424 11.0606C39.3939 11.1364 39.5454 11.1364 39.6969 11.1364C39.8485 11.1364 40 11.2121 40.1515 11.2121C40.303 11.2121 40.4545 11.2121 40.606 11.2879C40.7576 11.2879 40.9091 11.3636 41.0606 11.3636C41.2121 11.3636 41.3636 11.2879 41.4394 11.2121C41.5909 11.1364 41.6666 11.0606 41.8182 11.0606C41.9697 11.0606 42.1212 10.9848 42.1969 10.9848C42.2727 10.9848 42.3485 10.9848 42.4242 10.9848C42.5 10.9848 42.5757 10.9091 42.5757 10.9091L42.6515 10.8333L42.7272 10.7576C42.803 10.6818 42.803 10.6818 42.8788 10.6818C43.0303 10.606 43.106 10.5303 43.2576 10.4545C43.4091 10.3788 43.4848 10.303 43.5606 10.1515C43.6363 10.0757 43.6363 10.0757 43.7121 9.99999C43.7879 9.92423 43.7879 9.92423 43.8636 9.84847C43.9394 9.77272 43.9394 9.77272 44.0151 9.69696C44.0909 9.6212 44.0909 9.6212 44.1666 9.54544C44.1666 9.31817 44.2424 9.24241 44.3182 9.16666C44.3939 9.0909 44.3939 9.0909 44.4697 9.01514L44.5454 8.93938V8.86362C44.6212 8.78787 44.6969 8.63635 44.7727 8.56059C44.7727 8.40908 44.8485 8.33332 44.8485 8.18181C44.8485 8.03029 44.9242 7.95453 45 7.80302C45 7.80302 45 7.72726 45.0757 7.72726V7.6515C45.0757 7.57575 45.0757 7.49999 45.0757 7.49999C45.0757 7.42423 45.0757 7.34847 45.0757 7.34847C45.0757 7.27272 45.0757 7.19696 45.0757 7.19696C45.0757 7.04544 45.0757 6.96969 45.1515 6.81817C45.0757 6.66666 45.0757 6.5909 45.1515 6.43938C45.1515 6.28787 45.2272 6.21211 45.1515 6.06059C45.1515 5.98484 45.1515 5.98484 45.1515 5.90908C45.1515 5.83332 45.1515 5.83332 45.0757 5.75756C45.0757 5.68181 45 5.53029 45 5.45453C45.0757 5.30302 45.0757 5.22726 45 5.07575C44.9242 4.99999 44.8485 4.92423 44.7727 4.84847C44.6969 4.6212 44.4697 4.54544 44.4697 4.31817C44.3939 4.24241 44.3939 4.16666 44.3182 4.01514C44.2424 3.93938 44.2424 3.86363 44.0909 3.78787C44.0151 3.71211 44.0151 3.63635 44.0151 3.48484C44.0151 3.40908 43.9394 3.33332 43.7879 3.33332C43.7121 3.25756 43.7121 3.18181 43.6363 3.10605C43.5606 3.03029 43.5606 2.95453 43.4091 2.95453C43.1818 3.03029 43.1818 2.72726 43.0303 2.6515C42.8788 2.57575 42.803 2.49999 42.6515 2.42423C42.0454 2.1212 41.5909 1.96969 41.2121 1.89393C40.5303 1.51514 40.3788 1.43938 40.3788 1.43938C40.3788 1.43938 40.4545 1.36363 40.5303 1.36363C40.606 1.36363 40.6818 1.36363 40.7576 1.36363C40.8333 1.36363 40.8333 1.36363 40.9091 1.36363C40.9848 1.36363 40.9848 1.36363 41.0606 1.36363C41.5151 1.36363 42.2727 1.43938 43.106 1.89393C43.2576 1.96969 43.4848 1.96969 43.5606 2.19696C43.6363 2.27272 43.7121 2.27272 43.8636 2.34847C43.9394 2.27272 44.0151 2.34847 44.0909 2.42423C44.2424 2.42423 44.3182 2.49999 44.3939 2.57575C44.4697 2.6515 44.4697 2.80302 44.5454 2.87878C44.6212 2.95453 44.6969 3.03029 44.7727 3.18181C44.8485 3.25756 44.9242 3.33332 45 3.40908C45.2272 3.56059 45.2272 3.86363 45.3788 4.01514C45.3788 4.16666 45.4545 4.24241 45.4545 4.39393C45.5303 4.54544 45.606 4.6212 45.6818 4.69696C45.6818 4.84847 45.6818 4.99999 45.7576 5.07575C45.7576 5.1515 45.8333 5.22726 45.8333 5.30302C45.8333 5.37878 45.9091 5.45453 45.9091 5.53029C45.8333 5.68181 45.8333 5.83332 45.9091 5.98484C45.9091 6.13635 45.9848 6.28787 46.0606 6.43938C46.1363 6.5909 46.0606 6.74241 46.0606 6.89393C46.0606 6.96969 46.0606 7.04544 46.0606 7.1212C46.0606 7.19696 46.0606 7.27272 46.0606 7.34847C46.0606 7.42423 46.0606 7.49999 45.9848 7.57575V7.72726V7.87878C45.9848 8.03029 45.9091 8.18181 45.9091 8.33332C45.9091 8.48484 45.9091 8.63635 45.8333 8.78787C45.7576 8.93938 45.6818 9.0909 45.5303 9.16666C45.5303 9.24241 45.5303 9.24241 45.5303 9.31817C45.5303 9.39393 45.5303 9.39393 45.4545 9.39393C45.3788 9.46968 45.3788 9.54544 45.303 9.6212C45.2272 9.77272 45.0757 9.92423 45 9.99999C45 10.0757 44.9242 10.1515 44.8485 10.2273C44.7727 10.303 44.7727 10.3788 44.6969 10.3788L44.4697 10.606C44.3939 10.6818 44.3182 10.6818 44.3182 10.7576C44.2424 10.9091 44.0151 10.9848 43.8636 11.0606C43.7121 11.1364 43.5606 11.2121 43.4848 11.4394C43.1818 11.6667 42.8788 11.7424 42.5757 11.8939C42.4242 11.9697 42.1969 11.9697 42.0454 12.0454C41.8939 12.1212 41.6666 12.1212 41.5151 12.197C41.2879 12.1212 41.1363 12.1212 40.9848 12.197C40.8333 12.197 40.606 12.2727 40.4545 12.3485C40.303 12.3485 40.0757 12.3485 39.9242 12.3485C39.7727 12.3485 39.5454 12.2727 39.3939 12.2727C39.2424 12.2727 39.0151 12.197 38.8636 12.1212C38.7121 12.0454 38.5606 11.9697 38.3333 11.8939C38.2576 11.8939 38.1818 11.8182 38.106 11.8182C38.0303 11.7424 37.9545 11.7424 37.8788 11.6667L37.803 11.5909L37.7272 11.5151C37.6515 11.4394 37.5757 11.4394 37.5 11.3636C37.3485 11.2879 37.1969 11.2121 37.0454 11.0606C36.8939 10.9091 36.8182 10.8333 36.6666 10.7576C36.5909 10.6818 36.5151 10.6818 36.4394 10.606C36.3636 10.5303 36.2879 10.4545 36.2879 10.4545C36.2121 10.3788 36.2121 10.303 36.1363 10.2273C36.0606 10.1515 36.0606 10.0757 36.0606 9.99999C35.9848 9.84847 35.9091 9.69696 35.8333 9.54544C35.8333 9.46969 35.7576 9.39393 35.6818 9.31817L35.606 9.24241L35.5303 9.16666C35.4545 9.01514 35.303 8.93938 35.2272 8.78787C35.1515 8.63635 35.0757 8.48484 35.1515 8.25756C34.8485 8.10605 34.8485 7.95453 34.8485 7.80302C34.8485 7.72726 34.8485 7.72726 34.8485 7.6515C34.8485 7.57575 34.8485 7.57575 34.8485 7.49999C34.8485 7.42423 34.8485 7.34847 34.7727 7.27272C34.8485 7.19696 34.8485 7.1212 34.8485 7.04544C34.8485 6.96969 34.8485 6.89393 34.8485 6.81817C34.8485 6.66666 34.7727 6.51514 34.7727 6.36362C34.7727 6.21211 34.8485 6.06059 34.8485 5.90908C34.8485 5.75756 34.9242 5.60605 34.8485 5.45453C34.8485 5.37878 34.8485 5.30302 34.8485 5.22726C34.7727 5.30302 34.8485 5.22726 34.8485 5.1515C34.9242 4.99999 34.9242 4.92423 35 4.77272C35 4.6212 35.0757 4.54544 35.1515 4.39393C35.2273 4.31817 35.303 4.16666 35.303 4.01514C35.4545 3.78787 35.5303 3.56059 35.6818 3.40908C35.606 3.25756 35.6818 3.10605 35.8333 3.03029C35.9091 2.95453 36.0606 2.87878 36.1363 2.80302C36.2121 2.72726 36.2879 2.6515 36.2879 2.49999C36.3636 2.42423 36.4394 2.34847 36.5909 2.34847C36.5909 2.19696 36.6666 2.1212 36.7424 2.04544C36.8182 1.96969 36.9697 1.96969 37.0454 1.96969C37.1969 1.89393 37.3485 1.66666 37.5 1.66666C37.5757 1.51514 37.6515 1.51514 37.7272 1.51514C37.803 1.51514 37.8788 1.51514 37.9545 1.43938C38.106 1.43938 38.2576 1.28787 38.4091 1.28787C38.4848 1.21211 38.5606 1.21211 38.6363 1.21211C38.7121 1.21211 38.7879 1.21211 38.8636 1.21211C39.0151 1.21211 39.0909 1.13635 39.2424 1.13635C39.3939 1.13635 39.5454 1.13635 39.6969 1.13635C39.8485 1.13635 39.9242 1.13635 40 1.13635C40.303 1.36363 40.3788 1.36363 40.3788 1.43938Z" fill="#2BBD81"/>
<path d="M40.3788 14.7726C40.3788 14.8484 40.303 14.8484 40.303 14.9242C40.303 14.9242 40.2273 14.9999 40.1515 14.9999C40.0758 14.9999 40.0758 15.0757 40 15.0757C39.9243 15.0757 39.9243 15.1514 39.8485 15.1514C39.8485 15.1514 39.7727 15.1514 39.7727 15.2272H39.697C39.6212 15.1514 39.697 15.4545 39.5455 15.3029C39.4697 15.3029 39.394 15.3787 39.394 15.3787C39.394 15.4545 39.2424 15.3787 39.2424 15.5302C39.2424 15.606 39.2424 15.606 39.1667 15.606C39.0909 15.606 39.0152 15.606 39.0909 15.6817C39.0909 15.7575 39.0152 15.8332 38.9394 15.8332C38.8637 15.8332 38.8637 15.8332 38.7879 15.909C38.7879 15.9848 38.7879 15.9848 38.7879 16.0605C38.5606 16.0605 38.6364 16.1363 38.7121 16.2878C38.4091 16.212 38.4091 16.3635 38.6364 16.5151C38.6364 16.5908 38.5606 16.5908 38.5606 16.6666C38.5606 16.7423 38.5606 16.7423 38.5606 16.8181C38.5606 16.8938 38.5606 16.8938 38.5606 16.9696C38.5606 17.0454 38.5606 17.0454 38.5606 17.1211C38.6364 17.1969 38.7121 17.1969 38.7121 17.2726C38.7121 17.3484 38.7121 17.3484 38.6364 17.4241C38.8637 17.4999 38.7879 17.5757 38.7121 17.6514C38.7121 17.7272 38.7121 17.7272 38.7879 17.8029C38.8637 17.8029 38.8637 17.8787 38.8637 17.9545C38.8637 18.0302 39.0152 18.106 39.0152 18.1817V18.2575V18.3332C39.0152 18.409 39.0909 18.409 39.1667 18.409C39.2424 18.409 39.2424 18.409 39.3182 18.4848C39.394 18.4848 39.394 18.5605 39.394 18.6363C39.5455 18.4848 39.6212 18.6363 39.697 18.7878C39.7727 18.7878 39.7727 18.8635 39.8485 18.8635C39.9243 18.8635 39.9243 18.9393 40 18.8635C40.0758 18.8635 40.0758 18.8635 40.1515 18.8635C40.2273 18.8635 40.2273 18.8635 40.303 18.8635C40.3788 18.8635 40.3788 18.9393 40.4546 18.9393C40.5303 18.9393 40.5303 18.9393 40.6061 18.8635C40.6061 18.7878 40.6818 18.7878 40.7576 18.7878C40.8333 18.7878 40.8334 18.7878 40.9091 18.7878C40.9849 18.8635 41.0606 18.7878 41.0606 18.7878C41.0606 18.712 41.1364 18.6363 41.1364 18.712C41.2121 18.712 41.2121 18.6363 41.2879 18.6363C41.3637 18.6363 41.3637 18.5605 41.3637 18.4848C41.3637 18.409 41.4394 18.409 41.4394 18.3332C41.4394 18.3332 41.5152 18.2575 41.5909 18.2575C41.5152 18.106 41.5152 18.106 41.5909 18.106C41.6667 18.106 41.7424 18.106 41.7424 18.0302C41.8182 18.0302 41.8182 17.9545 41.8182 17.9545C41.8182 17.8787 41.8182 17.8787 41.8182 17.8029C41.8182 17.7272 41.8182 17.7272 41.894 17.6514C41.9697 17.6514 41.9697 17.5757 41.894 17.4999V17.4241V17.3484C41.894 17.2726 41.894 17.2726 41.9697 17.1969C41.894 17.1211 41.894 17.1211 41.9697 17.0454C41.9697 16.9696 42.0455 16.9696 41.9697 16.8938C41.9697 16.8181 41.9697 16.8181 41.9697 16.7423C41.9697 16.6666 41.9697 16.6666 41.9697 16.5908C42.0455 16.5151 42.0455 16.4393 42.0455 16.4393C42.0455 16.4393 41.9697 16.3635 41.894 16.3635C41.894 16.2878 41.7424 16.2878 41.8182 16.1363C41.8182 16.0605 41.8182 15.909 41.6667 15.909C41.5909 15.909 41.6667 15.8332 41.6667 15.7575C41.6667 15.6817 41.6667 15.6817 41.5152 15.7575C41.4394 15.7575 41.5152 15.6817 41.5152 15.606C41.5152 15.5302 41.5152 15.5302 41.4394 15.606C41.2879 15.6817 41.3637 15.5302 41.2879 15.4545C41.2121 15.3787 41.2121 15.3787 41.1364 15.3787C40.7576 14.9241 40.3788 14.8484 40.3788 14.7726C40.3788 14.7726 40.3788 14.6969 40.4546 14.6969C40.5303 14.6969 40.6061 14.6211 40.6818 14.6211C40.9091 14.6211 41.2879 14.6211 41.6667 14.7726C41.7424 14.7726 41.894 14.6969 41.894 14.9242C41.9697 14.9242 41.9697 14.9241 42.0455 14.9999C42.1212 14.9999 42.1212 15.0757 42.1212 15.1514C42.3485 15.0757 42.2727 15.3029 42.3485 15.3787C42.4243 15.4545 42.4243 15.606 42.5758 15.606C42.7273 15.6817 42.6515 15.8332 42.803 15.909C42.7273 16.0605 42.803 16.1363 42.9546 16.2878C42.9546 16.3635 42.9546 16.4393 42.9546 16.5151C43.0303 16.5908 43.0303 16.6666 43.0303 16.7423C42.9546 16.8181 42.9546 16.8938 42.9546 16.9696C42.9546 17.0454 43.0303 17.1211 43.1061 17.1969C43.1818 17.2726 43.1061 17.3484 43.1061 17.4241V17.4999C43.1061 17.4999 43.1061 17.5757 43.1061 17.6514C43.0303 17.8029 43.1061 17.9545 43.0303 18.106C43.0303 18.1817 43.0303 18.2575 43.0303 18.3332C43.0303 18.409 42.9546 18.4848 42.8788 18.5605C42.8788 18.712 42.7273 18.8635 42.6515 19.0151C42.6515 19.0908 42.6515 19.0908 42.5758 19.1666L42.5 19.2423C42.4243 19.3181 42.3485 19.3181 42.2727 19.3938C42.197 19.4696 42.1212 19.4696 42.0455 19.5454C41.9697 19.5454 41.894 19.6211 41.894 19.7726C41.7424 19.9241 41.5909 19.9241 41.4394 19.9999C41.2879 20.0757 41.0606 20.0757 40.9091 20.1514C40.8334 20.0757 40.6818 20.0757 40.6061 20.0757C40.5303 20.0757 40.4546 20.1514 40.303 20.2272C40.2273 20.2272 40.0758 20.2272 40 20.2272C39.9243 20.2272 39.8485 20.1514 39.697 20.1514C39.6212 20.1514 39.5455 20.1514 39.394 20.0757C39.3182 20.0757 39.2424 19.9999 39.1667 19.9999C39.0909 19.9999 39.0152 19.9241 38.9394 19.8484C38.8637 19.7726 38.7879 19.6969 38.7121 19.6969C38.6364 19.6969 38.5606 19.6211 38.4849 19.5454C38.4091 19.4696 38.4091 19.3938 38.2576 19.3938C38.1818 19.3938 38.1061 19.3181 38.0303 19.2423L37.9546 19.1666C37.9546 19.0908 37.9546 19.0908 37.9546 19.0151C37.8788 18.9393 37.8788 18.8635 37.8788 18.7878C37.8788 18.712 37.803 18.6363 37.7273 18.6363C37.6515 18.5605 37.5758 18.5605 37.5 18.4848C37.4243 18.409 37.4243 18.3332 37.5758 18.1817C37.5 18.106 37.5 18.0302 37.5758 17.9545C37.5758 17.8787 37.5758 17.8029 37.5 17.7272C37.5758 17.6514 37.5758 17.5757 37.5758 17.4999C37.5758 17.4241 37.5 17.3484 37.5 17.2726C37.5 17.1969 37.5758 17.1211 37.5758 17.0454C37.5758 16.9696 37.5758 16.8938 37.5758 16.8181C37.5 16.7423 37.5758 16.6666 37.5758 16.5908C37.6515 16.5151 37.6515 16.4393 37.6515 16.4393C37.6515 16.3635 37.6515 16.2878 37.7273 16.2878C37.803 15.909 37.8788 15.909 37.8788 15.8332C37.9546 15.7575 37.9546 15.606 38.1061 15.5302C38.0303 15.3787 38.0303 15.3787 38.1061 15.3029C38.1818 15.3029 38.2576 15.3029 38.3334 15.2272C38.4091 15.2272 38.4091 15.1514 38.4091 15.0757C38.4091 14.9999 38.4849 14.9999 38.5606 14.9999C38.5606 14.8484 38.5606 14.8484 38.6364 14.8484C38.7121 14.8484 38.7879 14.8484 38.8637 14.8484C38.9394 14.8484 38.9394 14.6969 39.0909 14.6969C39.0909 14.5454 39.3182 14.6969 39.3182 14.6211C39.394 14.6969 39.4697 14.5454 39.5455 14.5454L39.6212 14.4696H39.697C39.7727 14.4696 39.8485 14.4696 39.8485 14.4696C39.9243 14.4696 40 14.4696 40.0758 14.4696C40.1515 14.4696 40.1515 14.4696 40.2273 14.5454C40.303 14.6969 40.3788 14.6969 40.3788 14.7726Z" fill="#2BBD81"/>
<path d="M27.8788 4.54544C27.8788 4.62119 27.8031 4.62119 27.8031 4.69695C27.8031 4.69695 27.7273 4.77271 27.6515 4.77271C27.5758 4.77271 27.5758 4.84847 27.5 4.84847C27.4243 4.84847 27.4243 4.92422 27.3485 4.92422C27.3485 4.92422 27.2727 4.92422 27.2727 4.99998H27.197C27.1212 4.92422 27.197 5.22725 27.0455 5.07574C26.9697 5.07574 26.9697 5.1515 26.894 5.1515C26.894 5.22725 26.7424 5.1515 26.7424 5.30301C26.7424 5.37877 26.7424 5.37877 26.6667 5.37877C26.5909 5.37877 26.5152 5.37877 26.5909 5.45453C26.5909 5.53028 26.5152 5.60604 26.4394 5.60604C26.3637 5.60604 26.3637 5.60604 26.2879 5.6818C26.2879 5.75756 26.2879 5.75756 26.2879 5.83331C26.0606 5.83331 26.1364 5.90907 26.2121 6.06059C25.9091 5.98483 25.9091 6.13635 26.1364 6.28786C26.1364 6.36362 26.0606 6.36362 26.0606 6.43938C26.0606 6.51513 26.0606 6.51513 26.0606 6.59089C26.0606 6.66665 26.0606 6.66665 26.0606 6.74241C26.0606 6.81816 26.0606 6.81816 26.0606 6.89392C26.1364 6.96968 26.2121 6.96968 26.2121 7.04544C26.2121 7.12119 26.2121 7.12119 26.1364 7.19695C26.3637 7.27271 26.2879 7.34847 26.2121 7.42422C26.2121 7.49998 26.2121 7.49998 26.2879 7.57574C26.3637 7.57574 26.3637 7.6515 26.3637 7.72725C26.3637 7.80301 26.5152 7.87877 26.5152 7.95453V8.03028V8.10604C26.5152 8.1818 26.5909 8.1818 26.6667 8.1818C26.7424 8.1818 26.7424 8.1818 26.8182 8.25756C26.894 8.25756 26.894 8.33332 26.894 8.40907C27.0455 8.25756 27.1212 8.40907 27.197 8.56059C27.2727 8.56059 27.2727 8.63634 27.3485 8.63634C27.4243 8.63634 27.4243 8.7121 27.5 8.63634C27.5758 8.63634 27.5758 8.63634 27.6515 8.63634C27.7273 8.63634 27.7273 8.63634 27.8031 8.63634C27.8788 8.63634 27.8788 8.7121 27.9546 8.7121C28.0303 8.7121 28.0303 8.7121 28.1061 8.63634C28.1818 8.56059 28.1818 8.56059 28.2576 8.56059C28.3334 8.56059 28.3334 8.56059 28.4091 8.56059C28.4849 8.63635 28.5606 8.56059 28.5606 8.56059C28.5606 8.48483 28.6364 8.40907 28.6364 8.48483C28.7121 8.48483 28.7121 8.40907 28.7879 8.40907C28.8637 8.40907 28.8637 8.33331 28.8637 8.25756C28.8637 8.1818 28.9394 8.1818 28.9394 8.10604C28.9394 8.10604 28.9394 8.10604 29.0152 8.03028H29.0909C29.0152 7.87877 29.0152 7.87877 29.0909 7.87877C29.1667 7.87877 29.2424 7.87877 29.2424 7.80301C29.3182 7.80301 29.3182 7.72725 29.3182 7.72725C29.3182 7.6515 29.3182 7.6515 29.3182 7.57574C29.3182 7.49998 29.3182 7.49998 29.394 7.42422C29.4697 7.42422 29.4697 7.34847 29.394 7.27271V7.19695V7.12119C29.5455 6.89392 29.5455 6.81816 29.6212 6.81816C29.5455 6.74241 29.5455 6.74241 29.6212 6.66665C29.6212 6.59089 29.697 6.59089 29.6212 6.51513C29.6212 6.43938 29.6212 6.43938 29.6212 6.36362C29.6212 6.28786 29.6212 6.28786 29.6212 6.2121C29.697 6.13635 29.697 6.06059 29.697 6.06059C29.5455 6.06059 29.4697 6.06059 29.4697 6.06059C29.4697 5.98483 29.3182 5.98483 29.394 5.83331C29.394 5.75756 29.394 5.60604 29.2424 5.60604C29.2424 5.60604 29.2424 5.53028 29.2424 5.45453C29.2424 5.37877 29.2424 5.37877 29.0909 5.45453C29.0152 5.45453 29.0909 5.37877 29.0909 5.30301C29.0909 5.22725 29.0909 5.22725 29.0152 5.30301C28.8637 5.37877 28.9394 5.22725 28.8637 5.1515C28.7879 5.07574 28.7879 5.07574 28.7121 5.07574C28.2576 4.77271 27.8788 4.69695 27.8788 4.54544C27.8788 4.54544 27.8788 4.46968 27.9546 4.46968C28.0303 4.46968 28.1061 4.39392 28.1818 4.39392C28.4091 4.39392 28.7879 4.39392 29.1667 4.54544C29.2424 4.54544 29.394 4.46968 29.394 4.69695C29.4697 4.69695 29.4697 4.69695 29.5455 4.77271C29.6212 4.77271 29.6212 4.84847 29.6212 4.92422C29.8485 4.84847 29.7727 5.07574 29.8485 5.1515C29.9243 5.22725 29.9243 5.37877 30.0758 5.37877C30.2273 5.45453 30.1515 5.60604 30.3031 5.6818C30.2273 5.83331 30.3031 5.90907 30.4546 6.06059C30.4546 6.13635 30.4546 6.2121 30.4546 6.28786C30.5303 6.36362 30.5303 6.43938 30.5303 6.51513C30.4546 6.59089 30.4546 6.66665 30.4546 6.74241C30.4546 6.81816 30.5303 6.89392 30.6061 6.96968C30.6818 7.04544 30.6061 7.12119 30.6061 7.19695V7.27271C30.6061 7.27271 30.6061 7.34847 30.6061 7.42422C30.5303 7.57574 30.6061 7.72725 30.5303 7.87877C30.5303 7.95453 30.5303 8.03028 30.5303 8.10604C30.5303 8.1818 30.4546 8.25756 30.3788 8.33331C30.3788 8.48483 30.2273 8.63635 30.1515 8.78786C30.1515 8.86362 30.1515 8.86362 30.0758 8.93938L30 9.01513C29.9243 9.09089 29.8485 9.09089 29.7727 9.16665C29.697 9.24241 29.6212 9.24241 29.5455 9.31816C29.4697 9.31816 29.394 9.39392 29.394 9.54544C29.2424 9.69695 29.0909 9.69695 28.9394 9.77271C28.7879 9.84847 28.5606 9.84847 28.4091 9.92422C28.3334 9.84847 28.1818 9.84847 28.1061 9.84847C28.0303 9.84847 27.9546 9.92422 27.8031 9.99998C27.7273 9.99998 27.5758 9.99998 27.5 9.99998C27.4243 9.99998 27.3485 9.92422 27.197 9.92422C27.1212 9.92422 27.0455 9.92422 26.894 9.84847C26.8182 9.84847 26.7424 9.77271 26.6667 9.77271C26.5909 9.77271 26.5152 9.69695 26.4394 9.62119C26.3637 9.54544 26.2879 9.46968 26.2121 9.46968C26.1364 9.46968 26.0606 9.39392 25.9849 9.31816C25.9091 9.24241 25.9091 9.16665 25.7576 9.16665C25.6818 9.16665 25.6061 9.09089 25.5303 9.01513L25.4546 8.93938C25.4546 8.86362 25.4546 8.86362 25.4546 8.78786C25.3788 8.7121 25.3788 8.63635 25.3788 8.56059C25.3788 8.48483 25.303 8.40907 25.2273 8.40907C25.1515 8.33332 25.0758 8.33331 25 8.25756C24.9243 8.1818 24.9243 8.10604 25.0758 7.95453C25 7.87877 25 7.80301 25.0758 7.72725C25.0758 7.6515 25.0758 7.57574 25 7.49998C25.0758 7.42422 25.0758 7.34847 25.0758 7.27271C25.0758 7.19695 25 7.12119 25 7.04544C25 6.96968 25.0758 6.89392 25.0758 6.81816C25.0758 6.74241 25.0758 6.66665 25.0758 6.59089C25 6.51513 25.0758 6.43938 25.0758 6.36362C25.1515 6.28786 25.1515 6.2121 25.1515 6.2121C25.1515 6.13635 25.1515 6.06059 25.2273 6.06059C25.303 5.98483 25.3788 5.98483 25.3031 5.90907C25.3788 5.83331 25.3788 5.6818 25.5303 5.60604C25.4546 5.45453 25.4546 5.45453 25.5303 5.37877C25.6061 5.37877 25.6818 5.37877 25.7576 5.30301C25.8334 5.30301 25.8334 5.22725 25.8334 5.1515C25.8334 5.07574 25.9091 5.07574 25.9849 5.07574C25.9849 4.92422 25.9849 4.92422 26.0606 4.92422C26.1364 4.92422 26.2121 4.92422 26.2879 4.92422C26.3637 4.92422 26.3637 4.77271 26.5152 4.77271C26.5152 4.62119 26.7424 4.77271 26.7424 4.69695C26.8182 4.77271 26.894 4.62119 26.9697 4.62119L27.0455 4.54544H27.1212C27.197 4.54544 27.2727 4.54544 27.2727 4.54544C27.3485 4.54544 27.4243 4.54544 27.5 4.54544C27.5758 4.54544 27.5758 4.54544 27.6515 4.62119C27.8788 4.46968 27.8788 4.46968 27.8788 4.54544Z" fill="#2BBD81"/>
<path d="M5.07575 3.93936C5.07575 4.01511 5 4.01511 5 4.09087C5 4.09087 4.92424 4.16663 4.84848 4.16663C4.77272 4.16663 4.77272 4.24239 4.69697 4.24239C4.62121 4.24239 4.62121 4.24239 4.54545 4.31814C4.54545 4.31814 4.46969 4.31814 4.46969 4.3939H4.39394C4.31818 4.31814 4.39394 4.62118 4.24242 4.46966C4.16666 4.46966 4.16666 4.54542 4.09091 4.62117C4.09091 4.69693 3.93939 4.62118 3.93939 4.77269C3.93939 4.84845 3.93939 4.84845 3.86363 4.84845C3.78787 4.77269 3.78787 4.77269 3.78787 4.84845C3.78787 4.92421 3.71212 4.99996 3.63636 4.99996C3.5606 4.99996 3.5606 4.99996 3.48484 5.07572C3.48484 5.15148 3.48484 5.15148 3.48484 5.22724C3.33333 5.22724 3.40909 5.30299 3.48484 5.45451C3.18181 5.45451 3.18181 5.53027 3.40909 5.68178C3.40909 5.75754 3.33333 5.75754 3.33333 5.8333C3.33333 5.90905 3.33333 5.90905 3.33333 5.98481C3.33333 6.06057 3.33333 6.06057 3.33333 6.13633C3.33333 6.21208 3.33333 6.21208 3.33333 6.28784C3.40909 6.3636 3.48484 6.3636 3.48484 6.43936V6.51511L3.40909 6.59087C3.63636 6.66663 3.5606 6.74239 3.48484 6.81814C3.48484 6.8939 3.48484 6.8939 3.5606 6.96966C3.63636 6.96966 3.63636 7.04542 3.63636 7.12117C3.63636 7.19693 3.78787 7.27269 3.78787 7.34845V7.42421V7.49996C3.78787 7.57572 3.86363 7.57572 3.93939 7.57572C4.01515 7.57572 4.01515 7.57572 4.09091 7.65148C4.16666 7.65148 4.16666 7.72724 4.16666 7.80299C4.31818 7.65148 4.39394 7.80299 4.46969 7.95451C4.54545 7.95451 4.54545 8.03027 4.62121 8.03027C4.69697 8.03027 4.69697 8.10602 4.77272 8.03027C4.84848 8.03027 4.84848 8.03027 4.92424 8.03027C5 8.03027 5 8.03027 5.07575 8.03027C5.15151 8.03027 5.15151 8.10602 5.22727 8.10602C5.30303 8.10602 5.30303 8.10602 5.37878 8.03027C5.45454 7.95451 5.45454 7.95451 5.5303 7.95451C5.60606 7.95451 5.60606 7.95451 5.68181 7.95451C5.75757 8.03027 5.83333 7.95451 5.83333 7.95451C5.83333 7.87875 5.90909 7.80299 5.90909 7.87875C5.98484 7.57572 6.0606 7.57572 6.0606 7.57572C6.13636 7.57572 6.13636 7.49996 6.13636 7.42421C6.13636 7.34845 6.21212 7.34845 6.21212 7.27269C6.21212 7.27269 6.21212 7.27269 6.28787 7.19693H6.36363C6.28787 7.04542 6.28787 7.04542 6.36363 7.04542C6.43939 7.04542 6.51515 7.04542 6.51515 6.96966C6.59091 6.96966 6.59091 6.8939 6.59091 6.8939C6.59091 6.81814 6.59091 6.81814 6.59091 6.74239C6.59091 6.66663 6.59091 6.66663 6.66666 6.59087C6.74242 6.51511 6.74242 6.51511 6.66666 6.43936V6.3636V6.28784C6.66666 6.21208 6.66666 6.21208 6.74242 6.13633C6.66666 6.21208 6.74242 6.13633 6.74242 6.06057C6.81818 6.06057 6.81818 5.98481 6.74242 5.98481C6.74242 5.90905 6.74242 5.90905 6.74242 5.8333C6.74242 5.75754 6.74242 5.75754 6.74242 5.68178C6.81818 5.60602 6.81818 5.60602 6.81818 5.53027C6.81818 5.53027 6.74242 5.45451 6.66666 5.45451C6.66666 5.37875 6.51515 5.37875 6.59091 5.22724C6.59091 5.15148 6.59091 4.99996 6.43939 4.99996C6.43939 4.99996 6.43939 4.92421 6.43939 4.84845C6.43939 4.77269 6.43939 4.77269 6.28787 4.84845C6.21212 4.84845 6.28787 4.77269 6.28787 4.69693C6.28787 4.62117 6.28787 4.62117 6.21212 4.69693C5.98484 4.84845 6.0606 4.62117 6.0606 4.62117C5.98484 4.54542 5.90909 4.54542 5.90909 4.46966C5.45454 4.16663 5.07575 4.09087 5.07575 3.93936C5.07575 3.93936 5.07575 3.8636 5.15151 3.8636C5.22727 3.8636 5.30303 3.78784 5.37878 3.78784C5.60606 3.78784 5.98484 3.78784 6.36363 3.93936C6.43939 3.93936 6.59091 3.8636 6.59091 4.09087C6.66666 4.09087 6.66666 4.09087 6.74242 4.16663C6.81818 4.16663 6.81818 4.24239 6.81818 4.31814C7.04545 4.24239 6.96969 4.46966 7.04545 4.54542C7.19697 4.54542 7.19697 4.69693 7.34848 4.69693C7.5 4.77269 7.42424 4.92421 7.57575 4.99996C7.5 5.22724 7.57575 5.30299 7.72727 5.37875C7.72727 5.45451 7.72727 5.53027 7.72727 5.60602C7.80303 5.68178 7.80303 5.75754 7.80303 5.8333C7.72727 5.90905 7.72727 5.98481 7.72727 6.06057C7.72727 6.13633 7.80303 6.21208 7.87878 6.28784C7.95454 6.3636 7.87878 6.43936 7.87878 6.51511C7.87878 6.59087 7.87878 6.66663 7.87878 6.74239C7.80303 6.8939 7.87878 7.04542 7.80303 7.19693C7.80303 7.27269 7.80303 7.34845 7.80303 7.42421C7.80303 7.49996 7.72727 7.57572 7.65151 7.65148C7.65151 7.80299 7.5 7.95451 7.42424 8.10602C7.42424 8.18178 7.42424 8.18178 7.34848 8.25754L7.27272 8.3333C7.19697 8.40905 7.12121 8.40905 7.04545 8.48481C6.96969 8.56057 6.89394 8.56057 6.81818 8.63633C6.74242 8.63633 6.66666 8.71208 6.66666 8.8636C6.51515 9.01511 6.36363 9.01511 6.21212 9.09087C6.0606 9.16663 5.83333 9.16663 5.68181 9.24239C5.5303 9.01511 5.45454 9.01511 5.30303 9.09087C5.22727 9.09087 5.15151 9.16663 5 9.24239C4.92424 9.24239 4.77272 9.24239 4.69697 9.24239C4.62121 9.24239 4.54545 9.16663 4.39394 9.16663C4.31818 9.16663 4.24242 9.16663 4.09091 9.09087C4.01515 9.09087 3.93939 9.01511 3.86363 9.01511C3.78787 9.01511 3.71212 8.93936 3.63636 8.8636C3.5606 8.78784 3.48484 8.71208 3.40909 8.71208C3.33333 8.71208 3.25757 8.63633 3.18181 8.56057C3.10606 8.48481 3.10606 8.40905 2.95454 8.40905C3.0303 8.3333 2.95454 8.3333 2.87878 8.25754L2.80303 8.18178C2.80303 8.10602 2.80303 8.10602 2.80303 8.03027C2.72727 7.95451 2.72727 7.87875 2.72727 7.80299C2.72727 7.72724 2.65151 7.65148 2.57575 7.65148C2.42424 7.49996 2.34848 7.42421 2.27272 7.42421C2.19697 7.34845 2.19697 7.19693 2.34848 7.12117C2.27272 7.04542 2.27272 6.96966 2.27272 6.8939C2.27272 6.81814 2.34848 6.74239 2.27272 6.66663C2.27272 6.59087 2.27272 6.59087 2.34848 6.51511V6.43936C2.34848 6.3636 2.27272 6.28784 2.27272 6.21208C2.27272 6.13633 2.27272 6.06057 2.27272 5.98481C2.27272 5.90905 2.27272 5.8333 2.27272 5.75754C2.27272 5.68178 2.27272 5.60602 2.34848 5.60602C2.42424 5.53027 2.42424 5.45451 2.42424 5.45451C2.42424 5.37875 2.42424 5.30299 2.5 5.30299C2.57575 5.22724 2.65151 5.22724 2.57575 5.15148C2.65151 5.07572 2.65151 4.92421 2.80303 4.84845C2.65151 4.62118 2.72727 4.54542 2.80303 4.54542C2.87878 4.54542 2.95454 4.54542 3.0303 4.46966C3.0303 4.46966 3.0303 4.3939 3.10606 4.31814C3.10606 4.24239 3.18181 4.24239 3.25757 4.24239C3.25757 4.09087 3.25757 4.09087 3.33333 4.09087C3.40909 4.09087 3.48484 4.09087 3.5606 4.09087C3.63636 4.09087 3.63636 3.93936 3.78787 3.93936C3.78787 3.78784 4.01515 3.93936 4.01515 3.8636C4.09091 3.93936 4.09091 3.78784 4.16666 3.78784C4.24242 3.78784 4.24242 3.78784 4.31818 3.78784H4.39394C4.46969 3.78784 4.54545 3.78784 4.54545 3.78784C4.62121 3.78784 4.69697 3.78784 4.77272 3.78784C4.84848 3.78784 4.84848 3.78784 4.92424 3.8636C5 3.8636 5.07575 3.93936 5.07575 3.93936Z" fill="#2BBD81"/>
<path d="M53.7121 8.03031C53.7879 8.03031 53.7879 8.4091 53.6364 9.09092C53.6364 9.16667 53.5606 9.31819 53.5606 9.4697C53.5606 9.62122 53.5606 9.69698 53.4849 9.84849C53.3334 9.92425 53.5606 10.1515 53.4091 10.303C53.3334 10.4546 53.3334 10.6061 53.2576 10.7576C53.2576 10.9091 53.1061 11.0606 53.1061 11.2879C53.1818 11.4394 53.1061 11.5152 53.0303 11.5909C52.9546 11.6667 52.9546 11.6667 52.9546 11.7424C52.9546 11.8182 52.9546 11.8939 52.9546 11.9697C52.9546 12.1212 52.8788 12.197 52.8788 12.3485C52.7273 12.4242 52.5 12.5 52.2727 12.5C52.197 12.5 52.197 12.5 52.197 12.5H52.1212C52.0455 12.5 52.0455 12.5 51.9697 12.5758C51.894 12.6515 51.7424 12.7273 51.6667 12.7273C51.5152 12.6515 51.4394 12.6515 51.2879 12.7273C51.2121 12.7273 51.2121 12.803 51.1364 12.803L51.0606 12.8788C51.0606 12.8788 51.0606 12.8788 51.0606 12.9546C50.9091 12.7273 50.6061 12.8788 50.8334 13.0303C50.8334 13.0303 50.7576 13.0303 50.6818 13.0303C50.6061 13.0303 50.6061 13.0303 50.6818 13.1061C50.6818 13.1061 50.6818 13.1061 50.6818 13.1818C50.6818 13.1818 50.6818 13.1818 50.5303 13.1818C50.6061 13.1818 50.6061 13.1818 50.6818 13.1818C51.1364 13.1818 51.0606 13.1818 50.7576 13.2576C50.9849 13.2576 51.0606 13.2576 51.0606 13.2576C51.0606 13.2576 50.9849 13.2576 50.9849 13.3333C50.9091 13.4091 51.0606 13.3333 51.0606 13.3333H51.1364C51.4394 13.4091 51.7424 13.4849 51.9697 13.5606L52.1212 13.6364H52.2727H52.3485H52.4243C52.6515 13.7121 52.8031 13.7879 53.0303 13.7879C53.1061 13.8636 53.1061 14.0152 53.1818 14.0909L53.2576 14.3182C53.2576 14.3939 53.3334 14.4697 53.3334 14.4697C53.3334 14.5455 53.4091 14.6212 53.4091 14.697C53.4849 14.8485 53.4849 15 53.4849 15.1515C53.6364 15.303 53.7121 15.4546 53.7121 15.6061C53.7121 15.6061 53.6364 15.6061 53.6364 15.6818V15.7576C53.6364 15.8333 53.6364 15.9091 53.7121 15.7576C53.7121 15.7576 53.7121 15.6818 53.7121 15.9091C53.7121 15.9849 53.7121 16.0606 53.7121 16.0606C53.7121 16.0606 53.7121 15.9849 53.7121 15.8333C53.7121 15.6818 53.7121 15.6818 53.7121 15.7576H53.7879C53.8637 15.7576 53.8637 15.7576 53.8637 15.7576C53.8637 15.7576 53.8637 15.7576 53.8637 15.6818C53.8637 15.5303 53.8637 15.3788 53.9394 15.2273C53.9394 15.0758 54.0152 14.9242 54.0909 14.7727C54.0909 14.697 54.1667 14.6212 54.1667 14.5455C54.1667 14.5455 54.1667 14.3939 54.2424 14.3939C54.2424 14.3182 54.2424 14.2424 54.2424 14.1667C54.2424 14.0152 54.3182 13.9394 54.3182 13.7879C54.5455 13.7121 54.7727 13.6364 54.9243 13.5606H55H55.0758H55.1515C55.2273 13.5606 55.3031 13.5606 55.3031 13.5606C55.5303 13.1818 55.9091 13.4849 56.1364 13.3333C56.1364 13.3333 56.1364 13.3333 56.2121 13.3333C56.2121 13.3333 56.2121 13.2576 56.2879 13.2576C56.2879 13.2576 56.3637 13.2576 56.4394 13.2576C56.5152 13.2576 56.5909 13.2576 56.5152 13.2576C56.5909 13.2576 56.5909 13.2576 56.5152 13.2576C56.5152 13.2576 56.5152 13.2576 56.5909 13.2576H56.6667C56.4394 13.2576 56.5152 13.2576 56.5152 13.2576C56.5909 13.2576 56.6667 13.1818 56.5152 13.1818C56.4394 13.1818 56.3637 13.1818 56.3637 13.1061C56.4394 13.0303 56.4394 13.0303 56.3637 13.0303C56.2879 13.0303 56.2121 13.0303 56.2121 13.0303H56.1364C56.0606 13.0303 55.9849 13.0303 55.9849 13.0303C55.8334 13.0303 55.7576 12.9546 55.6818 12.8788C55.6061 12.803 55.4546 12.803 55.3788 12.7273C55.3031 12.7273 55.3031 12.6515 55.2273 12.6515H55.1515H55.0758C55 12.6515 54.9243 12.5758 54.8485 12.5C54.7727 12.4242 54.697 12.3485 54.6212 12.3485C54.6212 12.197 54.5455 12.1212 54.394 12.0455C54.394 11.9697 54.3182 11.8939 54.3182 11.8182C54.3182 11.7424 54.3182 11.7424 54.3182 11.6667C54.3182 11.5909 54.3182 11.4394 54.1667 11.4394C53.9394 11.2879 54.0909 11.0606 54.0152 10.9091C53.9394 10.7576 53.9394 10.6061 53.8637 10.4546C53.7879 8.86364 53.6364 8.03031 53.7121 8.03031C53.8637 7.95455 54.2424 8.9394 54.8485 10.5303C54.9243 10.6818 55.0758 10.8333 55 11.0606C55 11.1364 55.0758 11.2121 55.1515 11.2879C55.1515 11.3636 55.2273 11.3636 55.2273 11.4394V11.5152C55.3031 11.5152 55.3031 11.5152 55.3031 11.5152C55.3031 11.5152 55.3031 11.5909 55.3788 11.5909H55.4546H55.5303C55.6061 11.5909 55.6061 11.6667 55.6818 11.6667C55.7576 11.6667 55.9091 11.7424 55.9849 11.7424C56.1364 11.7424 56.2121 11.7424 56.2879 11.8182C56.3637 11.8182 56.3637 11.8939 56.4394 11.8939H56.5152C56.5909 11.8939 56.5909 11.8939 56.6667 11.8939C56.9697 12.1212 57.2727 12.197 57.8788 12.2727C58.0303 12.3485 58.1818 12.4242 58.4091 12.5C58.6364 12.5758 58.9394 12.5758 59.1667 12.6515C59.1667 12.7273 59.3182 12.803 59.5455 12.8788C59.7727 12.9546 60.1515 13.0303 60.5303 13.0303C60.6061 13.0303 60.6818 13.0303 60.7576 13.1061C60.6061 13.1818 60.3788 13.2576 60.1515 13.3333C59.9243 13.4091 59.697 13.4849 59.5455 13.5606C59.2424 13.6364 59.0909 13.7121 58.8637 13.7879C58.6364 13.8636 58.4091 13.9394 58.1061 14.0152C57.9546 14.0909 57.6515 14.2424 57.4243 14.3182C57.2728 14.3939 57.1212 14.3939 57.0455 14.3939C56.9697 14.3939 56.894 14.3939 56.8182 14.4697H56.7424H56.6667C56.4394 14.6212 56.1364 14.6212 55.8334 14.7727C55.7576 14.7727 55.7576 14.8485 55.6818 14.8485H55.6061H55.5303C55.5303 14.8485 55.5303 14.8485 55.4546 14.8485C55.3788 15 55.3031 15.0758 55.3031 15.1515C55.2273 15.303 55.1515 15.4546 55.2273 15.6061C55.2273 15.7576 55.1515 15.9091 55.0758 16.0606C55 16.2121 55 16.3636 54.9243 16.5152C54.8485 16.6667 54.8485 16.8182 54.7728 16.9697C54.697 17.2727 54.5455 17.5 54.4697 17.803C54.394 18.1061 54.3182 18.4091 54.2424 18.7121C54.0909 18.7879 54.0152 19.0152 53.9394 19.3182C53.8637 19.6212 53.7879 20.0758 53.7121 20.5303C53.6364 20.303 53.4849 20.0758 53.4091 19.697C53.3334 19.3939 53.2576 19.0152 53.1061 18.7121C52.8788 18.1818 52.7273 17.5 52.5758 16.9697C52.5 16.7424 52.4243 16.3636 52.3485 16.1364C52.3485 15.9849 52.2727 15.8333 52.197 15.6818C52.1212 15.5303 52.1212 15.3788 52.0455 15.2273C52.0455 15.1515 52.0455 15.0758 51.9697 15C51.9697 14.9242 51.9697 14.9243 51.9697 14.9243C51.9697 14.9243 51.9697 14.9243 51.894 14.9243H51.8182C51.8182 14.9243 51.7424 14.9242 51.7424 14.8485C51.6667 14.8485 51.6667 14.7727 51.5909 14.7727C51.2879 14.697 51.0606 14.3939 50.7576 14.4697C50.6818 14.4697 50.6061 14.4697 50.6061 14.4697C50.5303 14.4697 50.4546 14.4697 50.3788 14.4697C50.2273 14.4697 50.0758 14.3939 49.9243 14.3939C49.6212 14.3182 49.3182 14.2424 49.3182 14.0909C49.0152 14.0152 48.7879 13.9394 48.6364 13.8636C48.4849 13.7879 48.2576 13.7121 47.8788 13.6364C47.8788 13.5606 47.7273 13.4849 47.5 13.4091C47.2727 13.3333 46.894 13.2576 46.6667 13.2576C46.6667 13.2576 46.7424 13.2576 46.8182 13.1818C47.1212 13.1061 47.4243 13.0303 47.6515 12.9546C47.8788 12.8788 48.1061 12.803 48.1818 12.7273C48.2576 12.6515 48.5606 12.5758 48.7879 12.5C49.0152 12.4242 49.3182 12.4242 49.4697 12.3485C49.6212 12.2727 49.8485 12.197 50.0758 12.197C50.3031 12.197 50.5303 12.1212 50.6818 12.0455C50.7576 12.0455 50.7576 12.0455 50.8334 12.0455H50.9091C50.9849 12.0455 50.9849 12.0455 51.0606 11.9697C51.1364 11.9697 51.2879 11.8939 51.3637 11.8939C51.4394 11.7424 51.5152 11.6667 51.6667 11.6667C51.7424 11.6667 51.8182 11.6667 51.8182 11.6667H51.894H51.9697C52.0455 11.6667 52.0455 11.5909 52.0455 11.5909C52.0455 11.5909 52.0455 11.5909 52.1212 11.5909C52.0455 11.5152 52.0455 11.5152 52.0455 11.5152C52.0455 11.4394 52.0455 11.4394 52.1212 11.3636C52.197 11.2879 52.2727 11.2121 52.3485 11.1364C52.5 10.9849 52.3485 10.7576 52.5 10.6061C52.4243 10.3788 52.6515 10.303 52.6515 10.1515C52.8031 10 52.7273 9.84849 52.803 9.69698C52.803 9.54546 52.8788 9.39395 52.9546 9.31819C53.0303 9.16667 53.0303 9.09092 53.1061 9.01516C53.4849 8.33334 53.6364 7.95455 53.7121 8.03031Z" fill="#2BBD81"/>
<path d="M24.3182 33.106C24.3939 33.106 24.3939 33.4848 24.2424 34.1666C24.2424 34.2424 24.1667 34.3939 24.1667 34.5454C24.1667 34.6969 24.1667 34.7727 24.0909 34.9242C23.9394 34.9999 24.1667 35.2272 24.0151 35.3787C23.9394 35.5302 23.9394 35.6818 23.8636 35.8333C23.8636 35.9848 23.7121 36.1363 23.7121 36.3636C23.7879 36.5151 23.7121 36.5909 23.6364 36.6666C23.5606 36.7424 23.5606 36.7424 23.5606 36.8181C23.5606 36.8939 23.5606 36.9696 23.5606 37.0454C23.5606 37.1969 23.4848 37.2727 23.4848 37.4242C23.3333 37.4999 23.1061 37.5757 22.8788 37.5757C22.803 37.5757 22.803 37.5757 22.803 37.5757H22.7273C22.6515 37.5757 22.6515 37.5757 22.5757 37.6515C22.5 37.7272 22.3485 37.803 22.2727 37.803C22.1212 37.7272 22.0454 37.7272 21.8939 37.803C21.8182 37.803 21.8182 37.8787 21.7424 37.8787L21.6667 37.9545C21.6667 37.9545 21.6667 37.9545 21.6667 38.0302C21.4394 37.803 21.2121 37.9545 21.4394 38.106C21.4394 38.106 21.3636 38.106 21.2879 38.106C21.2121 38.106 21.2121 38.106 21.2879 38.1818C21.2879 38.1818 21.2879 38.1818 21.2879 38.2575C21.2879 38.2575 21.2879 38.2575 21.1364 38.2575C21.2121 38.2575 21.2121 38.2575 21.2879 38.2575C21.7424 38.2575 21.6667 38.2575 21.3636 38.3333C21.5909 38.3333 21.6667 38.3333 21.6667 38.3333C21.6667 38.3333 21.5909 38.3333 21.5909 38.409C21.5151 38.4848 21.6667 38.409 21.6667 38.409H21.7424C22.0454 38.4848 22.3485 38.5606 22.5757 38.6363L22.7273 38.7121L22.803 38.7878H22.8788H22.9545C23.106 38.8636 23.3333 38.9393 23.5606 38.9393C23.6364 39.0151 23.6364 39.1666 23.7121 39.2424L23.7879 39.4696L23.8636 39.5454C23.8636 39.6212 23.9394 39.6969 23.9394 39.7727C24.0151 39.9242 24.0151 40.0757 24.0151 40.2272C24.1667 40.3787 24.2424 40.5302 24.2424 40.6818C24.2424 40.6818 24.1667 40.6818 24.1667 40.7575V40.8333C24.1667 40.909 24.1667 40.9848 24.2424 40.8333C24.2424 40.8333 24.2424 40.7575 24.2424 40.9848C24.2424 41.0605 24.2424 41.1363 24.2424 41.1363C24.2424 41.1363 24.2424 41.0606 24.2424 40.909C24.2424 40.7575 24.2424 40.7575 24.2424 40.8333H24.3182C24.3939 40.8333 24.3939 40.8333 24.3939 40.8333C24.3939 40.6818 24.3939 40.5302 24.4697 40.3787C24.5454 40.2272 24.5454 40.0757 24.6212 39.9242C24.6212 39.8484 24.697 39.7727 24.697 39.6969C24.697 39.6969 24.697 39.6212 24.7727 39.5454C24.7727 39.4696 24.7727 39.3939 24.7727 39.3181C24.7727 39.1666 24.8485 39.0909 24.8485 38.9393C25.0757 38.8636 25.303 38.7878 25.4545 38.7121H25.5303H25.606H25.6818C25.7576 38.7121 25.8333 38.7121 25.8333 38.7121C26.0606 38.3333 26.4394 38.6363 26.6667 38.4848C26.6667 38.4848 26.6667 38.4848 26.7424 38.4848C26.7424 38.4848 26.7424 38.409 26.8182 38.409C26.8182 38.409 26.8939 38.409 26.9697 38.409C27.0454 38.409 27.1212 38.409 27.0454 38.409C27.1212 38.409 27.1212 38.409 27.0454 38.409C27.0454 38.409 27.0454 38.409 27.197 38.409H27.2727C26.9697 38.409 27.1212 38.409 27.1212 38.409C27.197 38.409 27.2727 38.3333 27.1212 38.409C27.0454 38.409 26.9697 38.409 26.9697 38.3333C27.0454 38.2575 27.0454 38.1818 26.9697 38.1818C26.8939 38.1818 26.8182 38.1818 26.8182 38.1818H26.7424C26.6667 38.1818 26.5909 38.1818 26.5909 38.1818C26.4394 38.1818 26.3636 38.106 26.2879 38.0302C26.2121 37.9545 26.0606 37.9545 25.9848 37.8787C25.9091 37.8787 25.9091 37.803 25.8333 37.803H25.7576H25.6818C25.6061 37.803 25.5303 37.7272 25.4545 37.6515C25.3788 37.5757 25.303 37.4999 25.2273 37.4999C25.2273 37.3484 25.1515 37.2727 25 37.1969C25 37.1212 24.9242 37.0454 24.9242 36.9696C24.9242 36.8939 24.9242 36.8939 24.9242 36.8181C24.9242 36.7424 24.9242 36.5909 24.7727 36.5909C24.5454 36.4393 24.697 36.2121 24.6212 36.0606C24.5454 35.909 24.5454 35.7575 24.4697 35.606C24.3182 33.9393 24.1667 33.1818 24.3182 33.106C24.4697 33.0303 24.8485 34.0151 25.4545 35.606C25.5303 35.7575 25.6818 35.909 25.606 36.1363C25.606 36.2121 25.6818 36.2878 25.7576 36.3636C25.7576 36.4393 25.8333 36.4393 25.8333 36.5151V36.5909C25.9091 36.5909 25.9091 36.5909 25.9091 36.5909C25.9091 36.5909 25.9091 36.6666 25.9848 36.6666H26.0606H26.1364C26.2121 36.6666 26.2121 36.7424 26.2879 36.7424C26.3636 36.7424 26.5151 36.8181 26.5909 36.8181C26.7424 36.8181 26.8182 36.8181 26.8939 36.8939C26.9697 36.8939 26.9697 36.9696 27.0454 36.9696H27.1212C27.197 36.9696 27.197 36.9696 27.2727 36.9696C27.5757 37.1969 27.8788 37.2727 28.4848 37.3484C28.6364 37.4242 28.7879 37.4999 29.0151 37.5757C29.2424 37.6515 29.5454 37.6515 29.7727 37.7272C29.7727 37.803 29.9242 37.8787 30.1515 37.9545C30.3788 38.0302 30.7576 38.106 31.1364 38.106C31.2121 38.106 31.2879 38.106 31.2879 38.1818C31.1364 38.2575 30.9091 38.3333 30.6818 38.409C30.4545 38.4848 30.2273 38.5606 30.0757 38.6363C29.7727 38.7121 29.6212 38.7878 29.3939 38.8636C29.1667 38.9393 28.9394 39.0151 28.6364 39.0909C28.4848 39.1666 28.1818 39.3181 27.9545 39.3939C27.803 39.4696 27.6515 39.4696 27.5757 39.5454C27.5 39.5454 27.4242 39.5454 27.3485 39.6212H27.2727H27.197C26.9697 39.7727 26.6667 39.7727 26.3636 39.9242C26.2879 39.9242 26.2879 39.9999 26.2121 39.9999H26.1364H26.0606C26.0606 39.9999 26.0606 39.9999 25.9848 39.9999C25.9848 39.9999 25.9848 39.9999 25.9848 40.0757C25.9848 40.1515 25.9091 40.2272 25.8333 40.303C25.7576 40.3787 25.7576 40.5302 25.7576 40.7575C25.7576 40.909 25.6818 41.0606 25.606 41.2121L25.5303 41.4393L25.4545 41.6666C25.3788 41.8181 25.3788 41.9696 25.303 42.1212C25.2273 42.4242 25.0757 42.6515 25 42.9545C24.9242 43.2575 24.8485 43.5606 24.7727 43.8636C24.6212 43.9393 24.5454 44.1666 24.4697 44.4696C24.3939 44.7727 24.3182 45.2272 24.2424 45.6818C24.1667 45.4545 24.0909 45.2272 23.9394 44.8484C23.8636 44.5454 23.7879 44.1666 23.6364 43.8636C23.4091 43.3333 23.2576 42.6515 23.1061 42.1212C23.0303 41.8939 22.9545 41.5151 22.8788 41.2878C22.8788 41.1363 22.803 40.9848 22.7273 40.8333C22.6515 40.6818 22.6515 40.5302 22.5757 40.3787C22.5757 40.303 22.5757 40.2272 22.5 40.1515V40.0757C22.5 40.0757 22.5 40.0757 22.4242 40.0757H22.3485C22.3485 40.0757 22.2727 40.0757 22.2727 39.9999C22.197 39.9999 22.197 39.9242 22.1212 39.9242C21.8182 39.8484 21.5909 39.5454 21.2879 39.6212C21.2121 39.6212 21.1364 39.6212 21.1364 39.6212C21.0606 39.6212 20.9848 39.6212 20.9091 39.6212C20.7576 39.6212 20.6061 39.5454 20.4545 39.5454C20.1515 39.4696 19.8485 39.3939 19.8485 39.2424C19.5454 39.1666 19.3182 39.0909 19.1667 39.0151C19.0151 38.9393 18.7879 38.8636 18.4091 38.7878C18.4091 38.7121 18.2576 38.6363 18.0303 38.5606C17.803 38.4848 17.4242 38.409 17.197 38.409C17.197 38.409 17.2727 38.409 17.3485 38.3333C17.6515 38.2575 17.9545 38.1818 18.1818 38.106C18.4091 38.0302 18.6364 37.9545 18.7121 37.8787C18.7879 37.803 19.0909 37.7272 19.3182 37.6515C19.5454 37.5757 19.8485 37.5757 20 37.4999C20.1515 37.4242 20.3788 37.3484 20.6061 37.3484C20.8333 37.3484 21.0606 37.2727 21.2121 37.1969C21.2879 37.1969 21.2879 37.1969 21.3636 37.1969H21.4394C21.5151 37.1969 21.5151 37.1969 21.5909 37.1212C21.6667 37.1212 21.8182 37.0454 21.8939 37.0454C21.9697 36.8939 22.0454 36.8181 22.197 36.8181C22.2727 36.8181 22.3485 36.8181 22.3485 36.8181H22.4242H22.5C22.5757 36.8181 22.5757 36.7424 22.5757 36.7424C22.5757 36.7424 22.5757 36.7424 22.6515 36.7424C22.7273 36.5151 22.7273 36.5151 22.7273 36.5151C22.7273 36.4393 22.7273 36.4393 22.803 36.3636C22.8788 36.2878 22.9545 36.2121 23.0303 36.1363C23.1818 35.9848 23.0303 35.7575 23.1818 35.606C23.1061 35.3787 23.3333 35.303 23.3333 35.1515C23.4848 34.9999 23.4091 34.8484 23.4848 34.6969C23.4848 34.5454 23.5606 34.3939 23.6364 34.3181C23.7121 34.1666 23.7121 34.0909 23.7879 34.0151C24.0151 33.409 24.2424 33.106 24.3182 33.106Z" fill="#2BBD81"/>
</g>
<defs>
<clipPath id="clip0_2288_62">
<rect width="65" height="45.6061" fill="white"/>
</clipPath>
</defs>
</svg>
