<svg width="65" height="60" viewBox="0 0 65 60" fill="none" xmlns="http://www.w3.org/2000/svg">
<g clip-path="url(#clip0_2015_1935)">
<path d="M31.8276 32.9482C31.8276 32.9482 31.6782 33.0229 31.454 33.0229C31.2299 33.0976 30.931 33.1724 30.4828 33.3218C30.2586 33.3965 30.1092 33.5459 29.8851 33.7701C29.6609 33.9195 29.5115 34.1436 29.3621 34.4425C29.2126 34.7413 29.0632 35.0402 28.9885 35.339C28.9885 35.4884 28.9138 35.7126 28.9138 35.862C28.9138 35.9367 28.9138 36.0862 28.9138 36.1609C28.9138 36.2356 28.9138 36.385 28.9138 36.4597C28.9138 37.0574 28.9138 37.6551 28.9138 38.3275C28.9138 38.9999 28.9885 39.6724 28.9138 40.4195C28.8391 41.1666 29.1379 41.9137 28.9138 42.7356C28.8391 43.5574 28.9138 44.454 28.9138 45.3505C28.9138 46.2471 28.8391 47.2183 28.9138 48.1896C29.1379 49.1609 28.6897 50.1321 28.9138 51.1781C28.9885 52.2241 28.9885 53.2701 28.9138 54.3908C29.1379 54.7643 29.1379 55.0632 29.1379 55.362C29.1379 55.5114 29.1379 55.6609 29.1379 55.7356C29.1379 55.8103 29.1379 55.885 29.1379 55.9597V56.1091C29.2126 56.3333 29.2874 56.5574 29.4368 56.7816C29.5862 57.0057 29.7356 57.2298 29.8851 57.3793C30.0345 57.6034 30.1839 57.7528 30.408 57.9022C30.6322 58.0517 30.8563 58.1264 31.1552 58.2011H31.2299H31.3046C31.3793 58.2011 31.454 58.2011 31.5287 58.2011H31.7529C31.8276 58.2011 31.9023 58.2011 31.977 58.2011C32.2759 58.2011 32.5747 58.1264 32.8736 58.1264C34.1437 58.3505 35.3391 58.3505 36.6839 58.1264C37.954 58.1264 39.2988 58.2011 40.6437 58.1264C41.9885 58.1264 43.408 58.0517 44.7529 58.1264C46.1724 57.977 47.5919 57.977 49.0115 58.1264C50.431 57.977 51.9253 58.0517 53.4195 58.1264C54.9138 58.2011 56.408 57.977 57.977 58.1264C58.3506 58.1264 58.7241 58.1264 59.1724 58.1264C59.3965 58.1264 59.546 58.1264 59.7701 58.1264H59.9195C59.9942 58.1264 59.9943 58.1264 60.069 58.1264C60.1437 58.1264 60.2184 58.1264 60.2931 58.1264C60.8908 58.0517 61.4885 57.7528 61.9368 57.2298C62.1609 57.0057 62.3103 56.7068 62.4598 56.408L62.5345 56.1838L62.6092 55.9597V55.7356C62.6092 55.6609 62.6092 55.5114 62.6092 55.4367C62.6092 54.6149 62.6092 53.793 62.5345 53.0459C62.4598 51.4022 62.4598 49.7586 62.5345 48.1149C62.3103 46.4712 62.4598 44.7528 62.5345 43.1091C62.5345 41.3907 62.6092 39.7471 62.5345 38.0287C62.5345 37.5804 62.5345 37.1321 62.5345 36.7586V36.4597V36.3103V36.2356V36.1609C62.5345 36.0114 62.5345 35.7873 62.4598 35.6379C62.3103 34.9655 61.8621 34.4425 61.2644 34.0689C60.9655 33.9195 60.5919 33.7701 60.2931 33.7701H60.1437H59.9943C59.8448 33.7701 59.7701 33.7701 59.6207 33.7701C59.3965 33.7701 59.0977 33.6953 58.8736 33.6206C58.3506 33.4712 57.9023 33.1724 57.5287 32.7241C57.1552 32.2758 56.931 31.8275 56.8563 31.3045C56.7069 30.7816 56.7069 30.3333 56.7816 29.8103C56.8563 29.2873 56.931 28.839 57.1552 28.3907C57.2299 28.1666 57.3793 27.9425 57.5287 27.7183C57.6782 27.4942 57.9023 27.2701 58.1264 27.1206C58.2759 27.0459 58.4253 26.9712 58.5747 26.8965C58.6494 26.8965 58.7241 26.8218 58.7988 26.8218C58.8736 26.8218 58.9483 26.8218 59.0977 26.8218H59.3965C59.4713 26.8218 59.6207 26.8218 59.6954 26.8218C60.4425 26.8218 61.1896 26.5229 61.7873 26.0747C61.8621 25.9999 61.9368 25.9252 62.0115 25.9252C62.0862 25.8505 62.1609 25.7758 62.2356 25.7758L62.4598 25.5517L62.5345 25.477L62.6092 25.4022C62.7586 25.2528 62.8333 25.1034 62.9828 24.954L63.1322 24.7298C63.2069 24.6551 63.2069 24.5804 63.2816 24.5057C63.3563 24.3563 63.431 24.2068 63.5057 23.9827C63.5805 23.908 63.5805 23.8333 63.5805 23.7586L63.6552 23.5344C63.7299 23.385 63.7299 23.1609 63.8046 23.0114L63.8793 22.7126V22.5632C63.8793 22.4885 63.8793 22.4885 63.8793 22.4137C63.954 21.6666 63.8793 20.9195 63.5057 20.3218L63.431 20.1724L63.3563 20.0229L63.2069 19.7988C63.1322 19.6494 62.9828 19.4999 62.908 19.3505C62.7586 19.2011 62.6839 19.0517 62.6092 18.9022L62.4598 18.6781L62.3851 18.6034L62.3103 18.5287C61.7874 18.0804 61.1897 17.7068 60.5172 17.408C60.4425 17.408 60.3678 17.408 60.2184 17.408C60.1437 17.408 60.069 17.408 59.9943 17.408C59.8448 17.408 59.6207 17.408 59.4713 17.3333C59.3965 17.3333 59.3218 17.3333 59.2471 17.3333H58.9483C58.8736 17.3333 58.7241 17.3333 58.6494 17.2586C58.5 17.1839 58.3506 17.1091 58.2011 16.9597C58.0517 16.8103 57.977 16.6609 57.977 16.5114C57.977 16.4367 57.977 16.4367 57.9023 16.362C57.9023 16.2873 57.9023 16.2873 57.9023 16.2126C57.9023 16.1379 57.9023 16.0632 57.9023 16.0632C57.9023 15.9137 57.9023 15.839 57.9023 15.6896C57.9023 15.4655 57.9023 15.2413 57.9023 15.0172C57.9023 14.5689 57.977 14.1953 57.977 13.8218V13.6724V13.5976V13.5229V13.4482V13.3735C57.9023 13.3735 57.9023 13.3735 57.8276 13.3735C57.6782 13.3735 57.454 13.3735 57.3046 13.3735C56.5575 13.3735 55.8103 13.4482 55.0632 13.3735C53.569 13.4482 52.0747 13.2241 50.6552 13.3735C49.2356 13.3735 47.7414 13.4482 46.3965 13.3735C44.977 13.5229 43.6322 13.2241 42.2874 13.3735C40.9425 13.3735 39.5977 13.3735 38.3276 13.3735C37.0575 13.1494 35.7874 13.2988 34.5172 13.3735H34.2931H34.2184C34.1437 13.3735 34.1437 13.3735 34.069 13.3735C34.069 13.3735 34.069 13.3735 34.069 13.4482V13.5229V13.6724C34.1437 14.2701 34.1437 14.8678 34.069 15.5402C34.069 15.6896 34.069 15.839 33.9942 15.9885C33.9942 16.0632 33.9942 16.0632 33.9942 16.1379V16.2126V16.2873C33.9942 16.362 33.9942 16.4367 33.9195 16.4367C33.9195 16.5114 33.8448 16.5114 33.8448 16.5862C33.7701 16.8103 33.6207 16.9597 33.3965 17.0344C33.3218 17.0344 33.3218 17.0344 33.2471 17.1091H33.0977H32.9483H32.8736C32.3506 17.1091 31.8276 17.2586 31.3793 17.4827C31.2299 17.5574 31.1552 17.5574 31.0057 17.6321C30.8563 17.7068 30.7816 17.7068 30.6322 17.7816C30.4828 17.8563 30.408 17.8563 30.2586 17.931C30.1839 18.0057 30.0345 18.0804 29.9598 18.1551C29.5115 18.454 29.1379 18.8275 28.9885 19.2758C28.9138 19.3505 28.8391 19.4999 28.7644 19.5747L28.6897 19.7241C28.6897 19.7988 28.6149 19.7988 28.6149 19.8735C28.5402 19.9482 28.4655 20.0976 28.4655 20.1724C28.3908 20.2471 28.3908 20.3965 28.3161 20.4712C28.2414 20.5459 28.2414 20.6953 28.1667 20.7701L28.0919 20.9195C28.0919 20.9942 28.0919 21.0689 28.0919 21.0689C28.0919 21.2183 28.0919 21.293 28.0919 21.4425V21.5172V21.5919C28.0919 21.6666 28.0919 21.7413 28.0919 21.7413C28.1667 22.1896 28.1667 22.6379 28.2414 23.0862C28.3161 23.3103 28.3161 23.5344 28.3908 23.6839C28.3908 23.7586 28.4655 23.908 28.4655 23.9827C28.5402 24.0574 28.5402 24.2068 28.6149 24.2816C28.9885 25.0287 29.5115 25.7011 30.1092 26.1494C30.7816 26.6724 31.6034 26.9712 32.3506 27.1206C32.4253 27.1206 32.5747 27.1206 32.6494 27.1953C32.7241 27.1953 32.8736 27.1953 32.9483 27.1953H33.0977H33.1724H33.2471C33.3218 27.1953 33.3965 27.1953 33.3965 27.1953C33.4713 27.1953 33.546 27.1953 33.546 27.2701C33.7701 27.3448 33.9195 27.4942 34.069 27.6436C34.1437 27.7183 34.2184 27.793 34.2931 27.8678C34.3678 27.9425 34.3678 28.0172 34.4425 28.0919C34.8161 28.7643 34.9655 29.4367 34.9655 30.1091C34.9655 30.7816 34.8908 31.3045 34.5919 31.8275C34.3678 32.2758 33.9942 32.6494 33.6954 32.8735C33.3218 33.0976 33.023 33.1724 32.7988 33.1724C32.5747 33.1724 32.3506 33.2471 32.2011 33.1724C31.9023 32.9482 31.8276 32.9482 31.8276 32.9482C31.8276 32.9482 31.9023 32.9482 32.0517 32.8735C32.1264 32.8735 32.1264 32.8735 32.2011 32.8735C32.2759 32.8735 32.2759 32.8735 32.3506 32.8735C32.4253 32.8735 32.5 32.8735 32.5 32.7988C32.5747 32.7988 32.6494 32.7241 32.7241 32.7241C33.023 32.6494 33.3218 32.4252 33.6954 32.1264C33.9942 31.8275 34.2184 31.3793 34.3678 30.7816C34.4425 30.1839 34.4425 29.5862 34.2184 28.9137C34.1437 28.6149 33.9942 28.2413 33.7701 27.9425C33.546 27.6436 33.2471 27.4195 32.9483 27.4195C32.5 27.4195 31.977 27.3448 31.5287 27.2701C31.3046 27.1953 31.0805 27.1206 30.7816 27.0459C30.6322 26.9712 30.5575 26.9712 30.408 26.8965C30.2586 26.8218 30.1839 26.8218 30.0345 26.7471C29.1379 26.2241 28.2414 25.4022 27.7184 24.3563C27.6437 24.2816 27.6437 24.1321 27.569 24.0574C27.4942 23.9827 27.4942 23.8333 27.4195 23.6839C27.3448 23.4597 27.2701 23.2356 27.1954 23.0114C27.046 22.4884 27.046 21.9655 27.1207 21.4425V21.2183V21.1436V21.0689C27.1207 20.9195 27.1207 20.7701 27.1954 20.6953C27.1954 20.6206 27.1954 20.5459 27.1954 20.4712L27.2701 20.2471C27.2701 20.0976 27.3448 19.9482 27.3448 19.8735C27.4195 19.7241 27.4195 19.6494 27.4942 19.4999C27.569 19.3505 27.6437 19.2758 27.6437 19.1264C27.6437 19.0517 27.7184 18.977 27.7184 18.977L27.8678 18.8275C27.9425 18.6781 28.0172 18.6034 28.0919 18.454C28.3161 17.931 28.7644 17.4827 29.2126 17.1091C29.3621 17.0344 29.4368 16.9597 29.5862 16.885C29.7356 16.8103 29.8103 16.7356 29.9598 16.6609C30.1092 16.5862 30.2586 16.5114 30.3333 16.4367C30.4828 16.362 30.6322 16.2873 30.7816 16.2873C31.3046 16.0632 31.977 15.9137 32.5747 15.9137H32.7241H32.7988C32.8736 15.9137 32.8736 15.839 32.9483 15.7643V15.6896C32.9483 15.6896 32.9483 15.6896 32.9483 15.6149V15.5402C32.9483 15.3907 32.9483 15.316 32.9483 15.1666C32.9483 14.6436 32.8736 14.0459 32.8736 13.4482C32.8736 13.2241 32.8736 12.9252 32.8736 12.7011V12.3275V12.2528V12.1781H33.023C33.2471 12.1781 33.546 12.1781 33.7701 12.1781C33.9195 12.1781 33.9942 12.1781 34.1437 12.1781H34.3678C35.6379 12.3275 36.8333 12.2528 38.1782 12.1781C39.4483 12.3275 40.7931 12.1781 42.1379 12.1781C43.4828 12.4022 44.8276 12.2528 46.2471 12.1781C47.6667 12.1034 49.0862 12.1781 50.5057 12.1781C51.9253 12.1781 53.4195 12.1034 54.9138 12.1781C55.6609 12.1034 56.408 12.1034 57.1552 12.1034H57.454H57.6034H57.6782H57.8276C58.2011 12.1034 58.5747 12.1034 58.8736 12.1034H59.023H59.0977V12.4022C59.0977 12.5517 59.0977 12.7758 59.0977 12.9252C59.0977 13.0747 59.0977 13.2988 59.023 13.4482V13.5976V13.6724V13.8218C59.023 14.1953 59.023 14.5689 59.023 14.9425C59.023 15.0919 59.023 15.316 59.023 15.4655C59.023 15.5402 59.023 15.6149 59.023 15.6896V15.7643C59.023 15.7643 59.023 15.839 59.0977 15.839H59.3965C59.6207 15.839 59.8448 15.9137 60.069 15.9137L60.3678 15.9885C60.4425 15.9885 60.5919 16.0632 60.6667 16.0632C61.4885 16.2873 62.3103 16.8103 62.9828 17.408L63.1322 17.5574C63.2069 17.6321 63.2069 17.6321 63.2816 17.7068L63.5057 17.931C63.6552 18.0804 63.8046 18.3045 63.8793 18.454C64.0287 18.6781 64.1034 18.8275 64.2529 19.0517L64.4023 19.3505L64.477 19.4999L64.5517 19.6494C64.9253 20.4712 65 21.4425 64.9253 22.339C64.9253 22.4137 64.9253 22.4885 64.9253 22.4885V22.6379L64.8506 22.9367C64.7759 23.1609 64.7759 23.385 64.7011 23.6091L64.6264 23.908C64.6264 23.9827 64.5517 24.1321 64.477 24.2068C64.4023 24.431 64.3276 24.6551 64.1782 24.8793C63.7299 25.7011 63.0575 26.3735 62.2356 26.8965C61.4138 27.4195 60.5172 27.7183 59.6207 27.8678C59.4713 27.8678 59.3965 27.8678 59.2471 27.8678H58.8736C58.7988 27.8678 58.7241 27.8678 58.6494 27.9425C58.5747 28.0172 58.4253 28.0919 58.3506 28.2413C58.2759 28.3907 58.2011 28.5402 58.1264 28.6896C57.977 28.9885 57.9023 29.362 57.8276 29.7356C57.8276 30.1091 57.8276 30.4827 57.9023 30.7816C57.9023 31.1551 58.0517 31.454 58.2011 31.7528C58.4253 31.977 58.6494 32.2011 59.023 32.2758C59.1724 32.3505 59.3965 32.3505 59.546 32.3505C59.6207 32.3505 59.6954 32.3505 59.8448 32.3505H60.2184C60.7414 32.3505 61.2644 32.4999 61.7126 32.7241C62.6839 33.1724 63.3563 34.0689 63.6552 35.1149C63.7299 35.339 63.7299 35.6379 63.7299 35.9367V36.0114V36.0861V36.2356V36.5344C63.7299 36.9827 63.7299 37.431 63.7299 37.8045C63.7299 39.5229 63.7299 41.2413 63.7299 42.885C63.8046 44.6034 63.6552 46.2471 63.7299 47.8907C63.8046 49.5344 63.6552 51.1781 63.7299 52.8218C63.7299 53.6436 63.8046 54.4655 63.8046 55.2126C63.8046 55.2873 63.8046 55.4367 63.8046 55.5114C63.8046 55.6609 63.8046 55.7356 63.8046 55.885C63.8046 56.0344 63.7299 56.1091 63.7299 56.2586C63.7299 56.408 63.6552 56.4827 63.6552 56.6321C63.5057 57.0804 63.2816 57.5287 62.908 57.9022C62.3103 58.6494 61.4138 59.0976 60.4425 59.1724C60.2931 59.1724 60.2184 59.1724 60.069 59.1724C59.9943 59.1724 59.8448 59.1724 59.7701 59.1724C59.546 59.1724 59.3965 59.1724 59.1724 59.1724C58.7988 59.1724 58.4253 59.1724 57.977 59.2471C56.408 59.3218 54.9138 59.5459 53.4195 59.2471C51.9253 59.3218 50.431 59.0976 49.0115 59.2471C47.5919 59.0229 46.0977 59.2471 44.7529 59.2471C43.3333 59.1724 41.9885 59.1724 40.6437 59.2471C39.2988 59.3218 37.954 59.1724 36.6839 59.2471C35.4138 59.3965 34.1437 59.0976 32.8736 59.2471C32.5747 59.2471 32.2759 59.2471 31.977 59.2471H31.8276C31.8276 59.2471 31.7529 59.2471 31.6782 59.2471H31.3793C31.3046 59.2471 31.2299 59.2471 31.0805 59.2471H30.931H30.7816C30.408 59.1724 30.1092 59.0229 29.8103 58.8735C29.5115 58.7241 29.2126 58.4999 29.0632 58.2011C28.4655 57.8275 28.1667 57.1551 28.0919 56.4827V56.2586C28.0919 56.1839 28.0919 56.1091 28.0919 56.0344C28.0919 55.885 28.0919 55.7356 28.0919 55.5862C28.0919 55.2873 28.1667 54.9884 28.1667 54.7643C28.2414 53.6436 27.9425 52.5976 28.1667 51.5517C27.9425 50.5057 28.1667 49.5344 28.1667 48.5632C28.2414 47.5919 28.0919 46.6206 28.1667 45.7241C28.0172 44.8275 28.2414 43.931 28.1667 43.1091C28.2414 42.2873 28.1667 41.5402 28.1667 40.793C28.1667 40.0459 28.1667 39.3735 28.1667 38.7011C28.1667 38.0287 28.1667 37.431 28.1667 36.8333C28.1667 36.7586 28.1667 36.6091 28.1667 36.5344C28.1667 36.4597 28.1667 36.3103 28.1667 36.2356C28.1667 36.0114 28.2414 35.7873 28.2414 35.6379C28.3161 35.2643 28.5402 34.8907 28.6897 34.5919C28.9138 34.293 29.1379 34.0689 29.3621 33.9195C29.5862 33.7701 29.8103 33.6206 30.0345 33.5459C30.4828 33.3218 30.8563 33.3218 31.0805 33.3218C31.6782 32.9482 31.8276 32.9482 31.8276 32.9482Z" fill="#2BBD81"/>
<path d="M36.908 4.6322C36.9828 4.6322 37.0575 5.2299 37.1322 6.27588C37.1322 6.4253 37.1322 6.64944 37.1322 6.87358C37.1322 7.09772 37.2069 7.32186 37.1322 7.54599C37.0575 7.77013 37.3563 7.99427 37.1322 8.29312C37.0575 8.51726 37.1322 8.81611 37.1322 9.04025C37.1322 9.3391 37.0575 9.56323 37.1322 9.86209C37.3563 10.1609 36.908 10.4598 37.1322 10.7586C37.2069 11.0575 37.2069 11.4311 37.1322 11.7299C37.1322 11.7299 37.1322 11.7299 37.1322 11.8046C37.1322 11.8046 37.1322 11.8046 37.1322 11.8793V11.954C37.1322 12.0288 37.1322 12.0288 37.2069 12.1035C37.2816 12.1035 37.2816 12.1035 37.3563 12.1035C37.3563 12.1782 37.3563 12.1782 37.431 12.1782H37.5057H37.5805C37.7299 12.1782 37.954 12.1035 38.1034 12.0288C38.477 12.2529 38.8506 12.2529 39.2241 12.0288C39.5977 12.0288 40.046 12.1035 40.4195 12.0288C40.7931 12.0288 41.2414 11.954 41.6897 12.0288C42.1379 11.8793 42.5115 11.8793 42.9598 12.0288C43.408 11.8793 43.8563 11.954 44.3046 12.0288C44.7529 12.1035 45.2011 11.8793 45.7241 12.0288C46.1724 12.0288 46.6954 11.954 47.1437 12.0288C47.592 12.1035 48.1149 12.1782 48.6379 12.0288C49.1609 11.954 49.6092 11.954 50.1322 12.0288C50.6552 11.8046 51.1782 11.954 51.6264 12.0288C52.1494 12.0288 52.6724 12.1035 53.1954 12.0288C53.4195 12.0288 53.7184 12.0288 53.9425 12.0288H54.0172C54.0172 12.0288 54.0172 12.0288 54.092 12.0288C54.092 12.0288 54.092 12.0288 54.1667 12.0288V11.954C54.1667 11.6552 54.1667 11.4311 54.092 11.2069C53.9425 10.6839 54.1667 10.1609 54.092 9.63795C54.2414 9.11496 54.0172 8.59197 54.092 8.14369C54.092 7.62071 54.1667 7.17243 54.092 6.64944C54.092 6.4253 54.092 6.12645 54.0172 5.90232V5.75289V5.37933C54.0172 5.37933 54.0172 5.37933 54.092 5.30461C54.0172 5.30461 54.0172 5.37933 54.0172 5.37933C53.9425 5.45404 54.0172 5.37933 54.0172 5.30461C54.0172 5.30461 53.9425 5.30461 53.8678 5.30461C53.7931 5.30461 53.6437 5.30461 53.569 5.30461C53.1207 5.15519 52.6724 5.30461 52.1494 5.30461C51.7011 5.37933 51.2529 5.15519 50.8046 5.30461C50.3563 5.30461 49.908 5.37933 49.5345 5.30461C49.0862 5.45404 48.7126 5.15519 48.2644 5.30461C47.8908 5.30461 47.4425 5.30461 47.069 5.30461C46.6954 5.08048 46.3218 5.2299 45.9483 5.30461C45.5747 5.30461 45.2011 5.45404 44.8276 5.30461C44.454 5.30461 44.1552 5.15519 43.7816 5.30461C43.4828 5.30461 43.1092 5.00576 42.8103 5.30461C42.5115 5.37933 42.2126 5.08048 41.9138 5.30461C41.6149 5.45404 41.3161 5.30461 41.092 5.30461C40.7931 5.30461 40.569 5.30461 40.3448 5.30461C38.2529 4.85634 36.908 4.78163 36.908 4.6322C36.908 4.48278 38.477 4.33335 41.2414 4.25864C41.5402 4.25864 41.7644 4.10921 42.0632 4.25864C42.3621 4.25864 42.6609 4.10921 42.9598 4.25864C43.2586 4.0345 43.6322 4.18393 43.931 4.25864C44.3046 4.25864 44.6034 4.33335 44.977 4.25864C45.3506 4.10921 45.7241 4.33335 46.0977 4.25864C46.4713 4.40806 46.8448 4.33335 47.2184 4.25864C47.592 4.40806 48.0402 4.25864 48.4138 4.25864C48.7874 4.48278 49.2356 4.33335 49.6839 4.25864C50.1322 4.18393 50.5805 4.25864 50.954 4.25864C51.4023 4.25864 51.8506 4.18393 52.2988 4.25864C52.7471 4.18393 53.1954 4.10921 53.7184 4.25864C53.7931 4.25864 53.9425 4.25864 54.0172 4.25864H54.1667H54.4655C54.8391 4.25864 55.2126 4.25864 55.5862 4.25864C55.5862 4.40806 55.5862 4.55749 55.5862 4.70691C55.5862 4.93105 55.5862 5.15519 55.5862 5.37933V5.67818V5.8276C55.5862 6.05174 55.5862 6.35059 55.5862 6.57473C55.6609 7.09772 55.3621 7.54599 55.5862 8.06898C55.5862 8.59197 55.5862 9.11496 55.5862 9.56324C55.5862 10.0862 55.5115 10.6092 55.5862 11.1322C55.5115 11.3563 55.4368 11.6552 55.5115 11.8793C55.5115 11.954 55.5115 12.1035 55.5115 12.1782C55.5115 12.3276 55.5115 12.4023 55.5115 12.5517C55.5115 12.7759 55.5862 13.0747 55.5862 13.2989C55.3621 13.2989 55.1379 13.2989 54.8391 13.2989H54.4655H54.1667C53.8678 13.2989 53.6437 13.2989 53.4195 13.2989C52.8965 13.2989 52.3736 13.2989 51.8506 13.2989C51.3276 13.3736 50.8046 13.2242 50.3563 13.2989C49.8333 13.3736 49.3851 13.2242 48.8621 13.2989C48.3391 13.3736 47.8908 13.3736 47.3678 13.2989C46.9195 13.2989 46.3965 13.0747 45.9483 13.2989C45.5 13.3736 45.0517 13.5977 44.5287 13.2989C44.0805 13.3736 43.6322 13.1494 43.1839 13.2989C42.7356 13.0747 42.2874 13.2989 41.9138 13.2989C41.4655 13.2242 41.092 13.2242 40.6437 13.2989C40.2701 13.3736 39.8218 13.2242 39.4483 13.2989C39.0747 13.4483 38.7011 13.1494 38.3276 13.2989C38.1034 13.2989 37.954 13.2989 37.8046 13.2989H37.5805C37.5057 13.2989 37.431 13.2989 37.3563 13.2989C37.2069 13.2989 37.0575 13.2989 36.908 13.2989C36.7586 13.3736 36.5345 13.3736 36.3851 13.4483C36.3851 13.2242 36.3851 12.9253 36.4598 12.7012C36.4598 12.5517 36.5345 12.477 36.5345 12.3276C36.5345 12.2529 36.5345 12.2529 36.5345 12.1782C36.5345 12.1035 36.5345 12.1035 36.5345 12.0288C36.6092 11.6552 36.3103 11.3563 36.5345 11.0575C36.3103 10.7586 36.5345 10.4598 36.5345 10.1609C36.6092 9.86209 36.4598 9.56323 36.5345 9.3391C36.3851 9.04025 36.6092 8.81611 36.5345 8.59197C36.6092 8.36783 36.5345 8.06898 36.5345 7.84484C36.5345 7.62071 36.5345 7.39657 36.5345 7.17243C36.5345 6.94829 36.5345 6.79887 36.5345 6.57473C36.7586 5.2299 36.8333 4.6322 36.908 4.6322Z" fill="#2BBD81"/>
<path d="M40.8678 4.63218C40.7931 4.63218 40.7184 4.33333 40.6437 3.81034C40.6437 3.73563 40.6437 3.66092 40.6437 3.51149C40.6437 3.43678 40.569 3.28736 40.6437 3.21264C40.7184 3.06322 40.4195 2.98851 40.6437 2.83908C40.6437 2.76437 40.6437 2.68966 40.6437 2.61494C40.6437 2.54023 40.6437 2.46552 40.6437 2.3908C40.6437 2.31609 40.6437 2.24138 40.7184 2.16667C40.7184 2.09195 40.7931 2.01724 40.7931 1.86782C40.7184 1.71839 40.7931 1.64368 40.9425 1.64368C41.0172 1.56897 41.092 1.56897 41.092 1.34483C41.1667 1.12069 41.3161 0.971264 41.4655 0.896552C41.6149 0.896552 41.6897 0.821839 41.7644 0.747126C41.8391 0.672414 41.9138 0.597701 41.9885 0.522988C42.2874 0.597701 42.4368 0.448276 42.6609 0.298851C42.7356 0.373563 42.8103 0.373563 42.8851 0.448276C42.9598 0.448276 43.0345 0.448276 43.0345 0.448276C43.1092 0.448276 43.2586 0.373563 43.3333 0.224138C43.5575 0.224138 43.7069 0.298851 43.931 0.224138C44.1552 0.224138 44.3793 0.149425 44.6034 0.224138C44.8276 0.0747126 45.0517 0.0747126 45.2759 0.224138C45.5 0.0747126 45.7241 0.149425 45.9483 0.224138C46.1724 0.298851 46.3966 0.0747126 46.6954 0.224138C46.9195 0.224138 47.1437 0.149425 47.4425 0.224138C47.6667 0.298851 47.9655 0.373563 48.1897 0.224138C48.4138 0.149425 48.7126 0.149425 48.9368 0.224138C48.7874 0 48.9368 0 49.0115 0C49.0115 0 49.0862 0 49.1609 0C49.2356 0 49.2356 0 49.3103 0C49.3851 0 49.4598 0.0747126 49.5345 0.0747126C49.6839 0.0747126 49.908 0.149425 50.0575 0.224138C50.1322 0.298851 50.2069 0.298851 50.2816 0.373563C50.3563 0.448276 50.431 0.448276 50.5057 0.448276C50.5805 0.522988 50.6552 0.522988 50.7299 0.597701C50.8046 0.747126 50.8793 0.821839 50.954 0.896552C51.1034 1.04598 51.1782 1.12069 51.2529 1.34483C51.4023 1.71839 51.477 2.01724 51.6264 2.31609C51.7011 2.3908 51.7011 2.46552 51.7011 2.54023C51.7011 2.61494 51.7011 2.61494 51.7011 2.68966C51.7011 2.76437 51.7011 2.76437 51.7011 2.76437C51.7011 2.91379 51.6264 3.06322 51.7011 3.13793C51.5517 3.28736 51.5517 3.43678 51.6264 3.58621C51.6264 3.66092 51.6264 3.73563 51.7011 3.81034V3.88506C51.7011 3.88506 51.7011 3.88506 51.7011 3.95977V4.03448C51.7011 4.25862 51.7011 4.48276 51.7011 4.63218C51.7011 4.85632 51.7011 5.00575 51.7011 5.22988H51.6264C51.4023 5.22988 51.1782 5.22988 50.954 5.22988C50.8046 5.22988 50.7299 5.22988 50.5805 5.22988C50.5057 5.22988 50.431 5.22988 50.431 5.22988H50.3563H50.2816C50.0575 5.52874 49.7586 5.15517 49.5345 5.22988C49.3103 5.08046 49.0862 5.22988 48.7874 5.22988C48.5632 5.3046 48.3391 5.08046 48.1149 5.22988C47.8908 5.22988 47.6667 5.3046 47.4425 5.22988C47.2184 5.37931 46.9943 5.08046 46.7701 5.22988C46.546 5.22988 46.3218 5.22988 46.1724 5.22988C45.9483 5.00575 45.7989 5.15517 45.5747 5.22988C45.3506 5.22988 45.2011 5.37931 44.977 5.22988C44.8276 5.22988 44.6034 5.08046 44.454 5.22988C44.3046 5.22988 44.0805 4.93103 43.931 5.22988C43.7816 5.3046 43.6322 5.00575 43.4828 5.22988C43.3333 5.37931 43.1839 5.22988 43.0345 5.22988C42.8851 5.22988 42.7356 5.22988 42.6609 5.22988C41.5402 4.85632 40.8678 4.78161 40.8678 4.63218C40.8678 4.48276 41.6897 4.33333 43.0345 4.25862C43.1839 4.25862 43.3333 4.1092 43.4828 4.25862C43.6322 4.25862 43.7816 4.1092 43.931 4.25862C44.0805 4.03448 44.2299 4.18391 44.454 4.25862C44.6034 4.25862 44.8276 4.33333 44.977 4.25862C45.1264 4.1092 45.3506 4.33333 45.5747 4.25862C45.7989 4.40805 45.9483 4.33333 46.1724 4.25862C46.3966 4.40805 46.546 4.25862 46.7701 4.25862C46.9943 4.48276 47.2184 4.33333 47.4425 4.25862C47.6667 4.18391 47.8908 4.25862 48.1149 4.25862C48.3391 4.25862 48.5632 4.18391 48.7874 4.25862C49.0115 4.18391 49.2356 4.1092 49.5345 4.25862C49.7586 4.18391 49.9828 4.25862 50.2816 4.25862C50.2816 4.25862 50.2816 4.25862 50.3563 4.25862H50.431H50.5057C50.5057 4.25862 50.5057 4.18391 50.431 4.18391V4.1092V4.03448C50.431 3.95977 50.431 3.88506 50.431 3.81034C50.431 3.66092 50.431 3.58621 50.431 3.43678C50.431 3.28736 50.431 3.13793 50.431 3.06322V2.98851V2.91379C50.431 2.83908 50.431 2.83908 50.3563 2.76437C50.431 2.68966 50.431 2.68966 50.431 2.61494C50.431 2.54023 50.431 2.54023 50.431 2.46552C50.3563 2.3908 50.2816 2.31609 50.2069 2.24138C50.0575 2.09195 49.9828 2.01724 49.8333 1.86782C49.6092 1.56897 49.4598 1.49425 49.3103 1.41954C49.2356 1.41954 49.2356 1.41954 49.1609 1.41954H49.0862H49.0115C48.8621 1.41954 48.7874 1.41954 48.6379 1.41954C48.4138 1.49425 48.1149 1.34483 47.8908 1.41954C47.6667 1.49425 47.3678 1.49425 47.1437 1.41954C46.9195 1.41954 46.6207 1.1954 46.3965 1.41954C46.1724 1.49425 45.9483 1.71839 45.6494 1.41954C45.4253 1.49425 45.2011 1.27011 44.977 1.41954C44.7529 1.1954 44.5287 1.41954 44.3046 1.41954C44.0805 1.34483 43.8563 1.34483 43.6322 1.41954C43.408 1.49425 43.1839 1.34483 43.0345 1.41954C42.9598 1.41954 42.9598 1.41954 42.8851 1.41954H42.8103H42.7356C42.6609 1.41954 42.6609 1.41954 42.6609 1.49425C42.5115 1.49425 42.3621 1.56897 42.2874 1.56897C42.2874 1.71839 42.2126 1.7931 42.1379 1.71839C42.0632 1.71839 41.9885 1.71839 41.9138 1.71839L41.8391 1.7931V1.86782C41.8391 1.94253 41.7644 1.94253 41.6897 1.94253C41.7644 2.09195 41.6897 2.09195 41.6897 2.16667C41.6149 2.24138 41.5402 2.24138 41.5402 2.31609C41.4655 2.3908 41.4655 2.3908 41.4655 2.46552C41.4655 2.54023 41.4655 2.61494 41.3908 2.61494C41.4655 2.68966 41.4655 2.76437 41.3908 2.76437L41.3161 2.83908V2.91379C41.2414 3.06322 41.3161 3.13793 41.3161 3.28736C41.3161 3.43678 41.3161 3.51149 41.3161 3.58621C41.3161 3.66092 41.3161 3.81034 41.3161 3.88506C41.0172 4.40805 40.9425 4.63218 40.8678 4.63218Z" fill="#2BBD81"/>
<path d="M36.0115 37.8793C36.0862 37.8793 36.1609 38.7011 36.2356 40.1207C36.2356 40.3448 36.2356 40.6436 36.2356 40.8678C36.2356 41.1666 36.3104 41.4655 36.2356 41.7643C36.1609 42.0632 36.4598 42.4367 36.2356 42.7356C36.1609 43.1092 36.2356 43.408 36.2356 43.8563C36.2356 44.2298 36.1609 44.6034 36.2356 45.0517C36.4598 45.4252 36.0115 45.8735 36.2356 46.3218C36.3104 46.7701 36.3104 47.2183 36.2356 47.6666C36.0862 48.1149 36.2356 48.6379 36.2356 49.0862C36.0115 49.6092 36.1609 50.0574 36.2356 50.5804C36.0115 51.1034 36.0115 51.6264 36.2356 52.1494C36.2356 52.4482 36.2356 52.6724 36.2356 52.9712V53.1206V53.1954C36.2356 53.2701 36.2356 53.2701 36.3104 53.2701C36.3851 53.2701 36.3851 53.2701 36.4598 53.2701H36.5345H36.6092H36.6839C36.9828 53.2701 37.2816 53.2701 37.5805 53.2701C38.1782 53.1207 38.7759 53.1207 39.3736 53.2701C39.9713 53.1207 40.6437 53.1954 41.2414 53.2701C41.8391 53.3448 42.5115 53.1207 43.1839 53.2701C43.8563 53.2701 44.5287 53.1954 45.1264 53.2701C45.7989 53.3448 46.4713 53.4195 47.1437 53.2701C47.8161 53.1954 48.4885 53.1954 49.2356 53.2701C49.9081 53.0459 50.6552 53.1954 51.3276 53.2701C52.0747 53.2701 52.7471 53.3448 53.4943 53.2701C53.8678 53.2701 54.2414 53.2701 54.615 53.2701H54.9885H55.0632C55.0632 53.2701 55.0632 53.2701 55.1379 53.1954V53.1206V52.8218C55.1379 52.4482 55.1379 52.0747 55.0632 51.7011C54.9138 50.954 55.1379 50.2816 55.0632 49.5344C55.2127 48.7873 54.9885 48.1149 55.0632 47.4425C55.0632 46.7701 55.1379 46.0229 55.0632 45.3505C55.0632 44.6781 54.9885 44.0057 55.0632 43.3333C54.7644 42.6609 55.1379 41.9885 55.0632 41.3908C55.2127 40.7184 55.0632 40.1206 55.0632 39.4482C55.0632 39.1494 55.0632 38.9252 55.0632 38.7011C55.0632 38.6264 55.0632 38.7011 55.0632 38.6264C55.0632 38.6264 55.0632 38.6264 55.0632 38.5517C55.0632 38.477 55.0632 38.477 55.0632 38.477H54.9885C54.9885 38.477 54.9885 38.477 54.9138 38.477C54.7644 38.477 54.615 38.477 54.4655 38.477C54.1667 38.477 53.8678 38.477 53.569 38.4023C52.9713 38.5517 52.3736 38.2528 51.8506 38.4023C51.2529 38.4023 50.7299 38.4023 50.2069 38.4023C49.6839 38.1781 49.1609 38.3275 48.6379 38.4023C48.1149 38.4023 47.592 38.5517 47.1437 38.4023C46.6207 38.4023 46.1724 38.2528 45.7241 38.4023C45.2759 38.4023 44.8276 38.1034 44.3793 38.4023C43.931 38.477 43.4828 38.1781 43.1092 38.4023C42.7356 38.5517 42.2874 38.4023 41.9138 38.4023C41.5402 38.4023 41.1667 38.4023 40.7931 38.4023C37.8046 38.1034 36.0115 38.0287 36.0115 37.8793C36.0115 37.7298 38.2529 37.5804 41.9885 37.5057C42.3621 37.5057 42.7356 37.3563 43.1839 37.5057C43.5575 37.5057 44.0058 37.3563 44.454 37.5057C44.9023 37.2816 45.3506 37.431 45.7989 37.5057C46.2471 37.5057 46.7701 37.5804 47.2184 37.5057C47.7414 37.3563 48.1897 37.5804 48.7126 37.5057C49.2356 37.6551 49.7586 37.5804 50.2816 37.5057C50.8046 37.6551 51.4023 37.5057 51.9253 37.5057C52.523 37.7298 53.046 37.5804 53.6437 37.5057C53.9425 37.5057 54.2414 37.5057 54.5402 37.5057C54.6897 37.5057 54.8391 37.5057 54.9885 37.5057C55.1379 37.5057 55.2127 37.5057 55.3621 37.5057C55.5115 37.5057 55.6609 37.5057 55.8104 37.5057C55.9598 37.5057 56.1839 37.5057 56.3333 37.5057C56.3333 37.7298 56.3333 37.954 56.3333 38.1781C56.3333 38.4023 56.3333 38.6264 56.3333 38.8505C56.3333 39.0747 56.3333 39.3735 56.3333 39.5977C56.4081 40.1954 56.4828 40.8678 56.3333 41.5402C56.4081 42.2126 56.3333 42.885 56.3333 43.4827C56.4081 44.1551 56.3333 44.8275 56.3333 45.5C56.4081 46.1724 56.1092 46.8448 56.3333 47.5919C56.3333 48.2643 56.3333 49.0115 56.3333 49.6839C56.3333 50.431 56.2586 51.1034 56.3333 51.8505C56.2586 52.2241 56.1839 52.5977 56.2586 52.9712C56.2586 53.5689 56.3333 54.1666 56.3333 54.6896C56.0345 54.6896 55.6609 54.6896 55.2874 54.6896H54.8391H54.5402C54.1667 54.6896 53.7931 54.6896 53.4195 54.6896C52.6724 54.6896 52 54.6896 51.2529 54.6896C50.5058 54.7643 49.8333 54.6149 49.1609 54.6896C48.4885 54.7643 47.7414 54.6149 47.069 54.6896C46.3966 54.7643 45.7241 54.7643 45.0517 54.6896C44.3793 54.6896 43.7069 54.4655 43.1092 54.6896C42.4368 54.7643 41.8391 54.9885 41.1667 54.6896C40.569 54.7643 39.8966 54.5402 39.2989 54.6896C38.7012 54.4655 38.1035 54.6896 37.5058 54.6896C37.2069 54.6896 36.9081 54.6149 36.6092 54.6149H36.5345H36.3851C36.2356 54.6149 36.1609 54.6149 36.0115 54.6149C35.7874 54.6149 35.4885 54.6149 35.2644 54.6896H35.1897C35.1897 54.4655 35.1897 54.2413 35.1897 53.9425C35.1897 53.7931 35.1897 53.7183 35.1897 53.5689V53.4195V53.3448V53.2701C35.1897 52.9712 35.2644 52.7471 35.1897 52.4482C35.0402 51.9252 35.3391 51.4023 35.1897 50.8793C35.1897 50.3563 35.1897 49.8333 35.1897 49.385C34.8908 48.862 35.1897 48.4138 35.1897 47.9655C35.2644 47.5172 34.9655 47.0689 35.1897 46.6207C34.9655 46.1724 35.1897 45.7241 35.1897 45.3505C35.2644 44.977 35.1149 44.5287 35.1897 44.1551C35.0402 43.7816 35.2644 43.408 35.1897 43.0344C35.2644 42.6609 35.1897 42.362 35.1897 42.0632C35.1897 41.7643 35.1897 41.4655 35.1897 41.1666C35.1897 40.8678 35.1897 40.6436 35.1897 40.4195C35.7874 38.7011 35.8621 37.8793 36.0115 37.8793Z" fill="#2BBD81"/>
<path d="M22.4885 16.5862C22.4885 16.5862 22.4138 16.6609 22.1897 16.6609C22.1149 16.6609 21.9655 16.6609 21.8161 16.6609C21.7414 16.6609 21.6667 16.6609 21.592 16.6609C21.5172 16.6609 21.4425 16.6609 21.2931 16.6609C21.069 16.6609 20.8448 16.7356 20.6207 16.7356C20.3966 16.7356 20.0977 16.8103 19.7989 16.885C19.5 16.9598 19.2012 16.9597 18.8276 17.0345C18.5287 17.1092 18.1552 17.1839 17.7816 17.2586C17.5575 17.3333 17.2586 17.408 17.0345 17.4827C16.7356 17.5575 16.5115 17.6322 16.2126 17.7069C15.9138 17.7816 15.6897 17.931 15.3908 18.0057C15.092 18.1552 14.7931 18.2299 14.4943 18.3793C14.1954 18.454 13.8966 18.6781 13.5977 18.8276C13.4483 18.9023 13.2989 19.0517 13.1494 19.1264C13.0747 19.2011 13 19.2011 12.9253 19.2758C12.7012 19.4253 12.6264 19.4253 12.5517 19.4253C12.4023 19.5 12.2529 19.5747 12.0287 19.6494C11.8793 19.7241 11.7299 19.8735 11.5805 19.9483C11.2816 20.1724 10.9828 20.3965 10.6092 20.6207C10.5345 20.6954 10.4598 20.7701 10.3851 20.7701L10.2356 20.8448L10.1609 20.9195C10.0862 20.9942 10.0115 21.0689 9.86207 21.1437C9.78736 21.2184 9.63793 21.2931 9.56322 21.3678H9.63793H9.71265C9.78736 21.3678 9.86207 21.3678 9.93678 21.3678C10.0862 21.3678 10.1609 21.3678 10.3103 21.4425H10.3851L10.5345 21.5172C10.6839 21.5919 10.8333 21.6666 10.9828 21.6666C11.2816 21.8161 11.5805 21.8908 11.8793 21.9655C12.1782 22.0402 12.5517 22.1149 13.0747 22.2643C13.4483 22.3391 13.8218 22.4885 14.1954 22.5632C13.6724 22.7126 13.1494 22.9368 12.5517 23.0862C11.954 23.2356 11.431 23.4598 10.8333 23.6092L10.4598 23.908C10.3851 23.908 10.3103 23.908 10.2356 23.9827C10.0862 23.9827 9.93679 24.0575 9.78736 24.1322C9.63793 24.2069 9.48851 24.2069 9.33908 24.2816C9.26437 24.2816 9.26437 24.3563 9.18966 24.3563L9.11495 24.431V24.5804V24.6552V24.8046C9.04023 25.0287 9.04023 25.1781 8.96552 25.4023C8.89081 25.477 8.89081 25.6264 8.8161 25.7011V25.7758L8.74138 25.9253L8.66667 26.1494C8.51725 26.4483 8.44253 26.8218 8.36782 27.1207C8.14368 27.7931 7.99426 28.5402 7.77012 29.4368C7.69541 29.2873 7.62069 29.1379 7.54598 28.9138C7.17242 27.6437 6.94828 26.8965 6.72414 26.0747L6.64943 25.7758L6.57472 25.6264L6.5 25.5517V25.477V25.4023C6.5 25.4023 6.5 25.3276 6.42529 25.3276C6.35058 25.1781 6.27587 25.1781 6.20115 25.1781L6.12644 25.2529L6.05173 25.3276L5.97701 25.4023L5.9023 25.477V25.5517L5.82759 25.6264C5.45403 26.0747 5.15518 26.5977 4.93104 27.1207C4.33334 28.1666 3.81035 29.2873 3.36207 30.408C3.06322 31.6034 2.76437 32.7988 2.39081 34.0689C2.31609 35.3391 2.16667 36.6092 2.09196 37.954C2.09196 38.2529 2.09196 38.6264 2.09196 38.9253C2.09196 39.0747 2.09196 39.2241 2.16667 39.4483C2.16667 39.5977 2.24138 39.7471 2.24138 39.9712C2.31609 40.2701 2.39081 40.6437 2.39081 40.9425C2.39081 41.0919 2.46552 41.2414 2.46552 41.4655C2.46552 41.6149 2.54023 41.7643 2.54023 41.9885C2.83908 43.3333 3.28736 44.6034 3.81035 45.8735C3.95977 46.1724 4.03449 46.546 4.18391 46.8448C4.33334 47.1437 4.48276 47.5172 4.63219 47.8161C4.7069 47.9655 4.78161 48.1149 4.93104 48.2643C5.00575 48.4138 5.08046 48.5632 5.22989 48.7126L5.37931 48.9368C5.37931 48.9368 5.37931 48.9368 5.45403 49.0115H5.52874V48.9368V48.862V48.7873L5.60345 48.4885C5.67816 48.1896 5.75288 47.8908 5.82759 47.6666C5.9023 47.2931 6.05173 46.9942 6.12644 46.6207C6.35058 45.9483 6.57472 45.2758 6.72414 44.7529L6.94828 43.931C7.32184 44.9023 7.77012 46.2471 8.14368 47.5919L8.29311 48.1149L8.36782 48.3391V48.4885C8.44253 48.6379 8.44253 48.7873 8.51724 49.0115C8.59196 49.1609 8.59196 49.3103 8.66667 49.5345V49.6839C8.66667 49.6839 8.66667 49.6839 8.66667 49.7586C8.59196 49.7586 9.04023 49.908 9.33908 49.9827C9.78736 50.1322 10.1609 50.2816 10.6092 50.431C11.2069 50.5804 11.7299 50.8046 12.3276 50.954C12.9253 51.1034 13.4483 51.3276 14.1207 51.477C13.8218 51.5517 13.523 51.7011 13.1494 51.7758C12.1035 52.0747 11.1322 52.3735 10.0862 52.7471C9.63793 52.8965 9.18966 53.046 8.66667 53.1954V53.1207L8.74138 52.9712L8.8161 53.046C9.11495 53.3448 9.4138 53.5689 9.63793 53.7931C9.78736 53.9425 9.93678 54.0172 10.0862 54.1666C10.2356 54.3161 10.3851 54.3908 10.5345 54.5402C11.1322 54.9885 11.8046 55.362 12.477 55.6609C12.6264 55.7356 12.8506 55.8103 13 55.885C13.1494 55.9598 13.3736 56.0345 13.523 56.1092C13.8218 56.2586 14.1954 56.408 14.569 56.5574C14.7184 56.6322 14.9425 56.7069 15.092 56.7816L15.6149 57.0057C15.9885 57.1552 16.2874 57.2299 16.6609 57.3793C17.3333 57.6781 18.0805 57.8276 18.8276 57.9023C18.977 57.9023 19.2012 57.977 19.3506 57.977C19.5 57.977 19.7241 57.977 19.8736 58.0517C20.023 58.0517 20.2471 58.1264 20.3966 58.1264C20.546 58.1264 20.7701 58.1264 20.9195 58.2011C22.3391 58.2758 23.8333 58.3506 25.2529 58.0517C25.4023 58.0517 25.5517 57.977 25.7759 57.977C25.9253 57.977 26.0747 57.9023 26.2989 57.9023C26.4483 57.9023 26.5977 57.8276 26.8218 57.8276C26.9713 57.7529 27.1207 57.7528 27.3448 57.6781L27.569 57.6034L27.7931 57.5287C27.9425 57.454 28.092 57.454 28.2414 57.3793H28.3161H28.3908C28.3161 57.3793 28.3161 57.3046 28.2414 57.3046V57.2299C28.2414 57.1552 28.1667 57.1552 28.1667 57.0804C28.1667 57.0057 28.092 56.8563 28.092 56.7816C28.0172 56.5574 28.0172 56.3333 28.0172 56.1092V55.9598V55.885V55.8103V55.5115C28.092 54.8391 28.1667 54.0919 28.092 53.4195C28.2414 52 28.092 50.6552 28.092 49.3103C28.0172 47.9655 28.2414 46.6207 28.092 45.2758C28.092 43.931 28.0172 42.6609 28.092 41.3908C27.9425 40.1207 28.2414 38.8506 28.092 37.6552C28.092 37.3563 28.092 37.0575 28.092 36.7586C28.092 36.6092 28.092 36.4597 28.092 36.3103C28.092 36.2356 28.092 36.1609 28.092 36.0862C28.092 36.0115 28.092 35.9368 28.092 35.7873C28.1667 35.4138 28.2414 35.1149 28.3908 34.8161C28.5402 34.5172 28.6897 34.2184 28.9138 33.9195C29.1379 33.6954 29.4368 33.4712 29.7356 33.3218C30.0345 33.1724 30.3333 33.023 30.6322 32.8735C30.7069 32.8735 30.7816 32.7988 30.8563 32.7988H31.0058H31.1552L31.3793 32.7241H31.6035C31.7529 32.7241 31.9023 32.7241 31.977 32.6494C32.1264 32.6494 32.2012 32.5747 32.3506 32.5747C32.5 32.5747 32.5747 32.5 32.6494 32.5C32.7241 32.5 32.7241 32.4253 32.7989 32.4253L32.9483 32.3506C33.0977 32.2011 33.3218 32.1264 33.3966 31.9023C33.546 31.7529 33.6207 31.5287 33.6954 31.3793C33.7701 31.1552 33.8448 30.931 33.9195 30.7069C33.9195 30.4827 33.9943 30.2586 33.9943 30.0345C33.9943 29.8103 33.9943 29.5862 33.9195 29.362C33.8448 28.9138 33.6207 28.4655 33.3218 28.1666C33.1724 28.0172 33.023 27.8678 32.9483 27.7931C32.9483 27.7931 32.8736 27.7931 32.8736 27.7184C32.8736 27.7184 32.8736 27.7184 32.7989 27.7184C32.7989 27.7184 32.7989 27.7184 32.7241 27.7184C32.5747 27.7184 32.5 27.6437 32.3506 27.6437C32.2759 27.6437 32.2012 27.6437 32.1264 27.6437V27.4195C31.977 27.4195 31.9023 27.3448 31.7529 27.3448C31.6035 27.3448 31.5287 27.2701 31.3793 27.2701C31.3046 27.2701 31.2299 27.2701 31.1552 27.2701C31.0805 27.2701 31.0058 27.2701 30.931 27.2701C30.7816 27.1954 30.7069 27.1954 30.5575 27.1207C30.4828 27.046 30.3333 26.9712 30.2586 26.9712L30.1092 26.8965L29.9598 26.8218C29.8851 26.7471 29.7356 26.6724 29.6609 26.5977C29.2874 26.2988 28.9138 26 28.5402 25.7011C28.3161 25.5517 28.1667 25.4023 28.0172 25.1781C27.9425 25.1034 27.8678 24.954 27.7931 24.8793C27.7184 24.8046 27.7184 24.6552 27.6437 24.5804C27.569 24.5057 27.569 24.3563 27.4943 24.2816C27.4195 24.2069 27.4195 24.0574 27.4195 23.9827C27.3448 23.7586 27.2701 23.5345 27.2701 23.385C27.046 22.5632 27.046 21.7414 27.1954 20.9195C27.1954 20.8448 27.1954 20.7701 27.2701 20.6954C27.2701 20.6207 27.3448 20.546 27.3448 20.4712C27.3448 20.3965 27.4195 20.3218 27.4195 20.2471V20.0977C27.4195 20.023 27.4195 20.023 27.4943 19.9483C27.569 19.7988 27.6437 19.6494 27.6437 19.5C27.7184 19.3506 27.7931 19.2011 27.8678 19.0517C27.8678 18.977 27.9425 18.9023 28.0172 18.8276C28.092 18.7529 28.092 18.6781 28.1667 18.6034C28.2414 18.5287 28.2414 18.454 28.3161 18.454L28.3908 18.3793C28.5402 18.2299 28.6149 18.0804 28.7644 18.0057H28.6897C28.6149 18.0057 28.6149 18.0057 28.5402 17.931C28.4655 17.931 28.3908 17.8563 28.3161 17.8563C28.2414 17.8563 28.1667 17.7816 28.092 17.7816C27.9425 17.7816 27.8678 17.7069 27.7184 17.7069C27.4943 17.6322 27.2701 17.5575 27.046 17.5575C26.8218 17.4827 26.5977 17.4827 26.3736 17.408C25.5517 17.1839 24.8046 17.1092 24.2816 17.0345C23.9828 17.0345 23.7586 16.9598 23.5345 16.9598C23.3103 16.9598 23.1609 16.9598 23.0115 16.885C22.6379 16.6609 22.4885 16.5862 22.4885 16.5862C22.4885 16.5862 22.6379 16.5115 22.9368 16.5115C23.0862 16.5115 23.3103 16.5115 23.5345 16.5115C23.7586 16.5115 24.0575 16.5115 24.2816 16.5115C24.8793 16.5115 25.6264 16.5862 26.4483 16.7356C26.6724 16.7356 26.8966 16.8103 27.1207 16.885C27.3448 16.9598 27.569 16.9597 27.7931 17.0345C27.9425 17.0345 28.0172 17.1092 28.1667 17.1092C28.3161 17.1839 28.4655 17.1839 28.6897 17.2586C28.8391 17.3333 29.0632 17.3333 29.2126 17.408C29.2874 17.408 29.3621 17.4827 29.5115 17.4827L29.6609 17.5575H29.7356C29.6609 17.6322 29.5115 17.7816 29.4368 17.8563C29.3621 17.931 29.3621 17.931 29.2874 18.0057C29.2126 18.0804 29.2126 18.1552 29.1379 18.1552C29.0632 18.3046 28.9138 18.3793 28.8391 18.5287L28.7644 18.6034L28.6897 18.6781C28.6897 18.7529 28.6149 18.7529 28.6149 18.8276C28.3908 19.2011 28.1667 19.5747 28.0172 20.023C27.7931 20.9195 27.7184 21.9655 28.0172 22.9368C28.092 23.0862 28.1667 23.3103 28.2414 23.4597C28.2414 23.5345 28.3161 23.6092 28.3908 23.6839C28.4655 23.7586 28.4655 23.8333 28.5402 23.908C28.7644 24.2069 28.9885 24.5804 29.2126 24.8793C29.5115 25.1781 29.8103 25.4023 30.1839 25.6264C30.2586 25.7011 30.3333 25.7011 30.4828 25.7758L30.6322 25.8506L30.7816 25.9253C30.8563 26 31.0057 26 31.0805 26.0747C31.1552 26.1494 31.3046 26.1494 31.3793 26.2241C31.454 26.2241 31.454 26.2241 31.5287 26.2241H31.6782C31.7529 26.2241 31.9023 26.2241 31.977 26.2988C32.0517 26.2988 32.2012 26.2988 32.2759 26.3735H32.4253C32.5 26.3735 32.5 26.3735 32.5747 26.3735C32.6494 26.3735 32.7989 26.3735 32.8736 26.3735H33.023C33.0977 26.3735 33.0977 26.3735 33.1724 26.3735C33.2471 26.3735 33.3218 26.4483 33.4713 26.4483C33.8448 26.5977 34.069 26.8218 34.2184 27.046C34.592 27.4942 34.8161 28.0172 34.9655 28.6149C35.1149 29.1379 35.1149 29.7356 35.1149 30.3333C35.1149 30.6322 35.0402 30.931 34.9655 31.2299C34.8161 31.5287 34.6667 31.8276 34.4425 32.0517C34.2184 32.2758 33.9195 32.5 33.6954 32.6494L33.4713 32.7988C33.3966 32.7988 33.3218 32.8735 33.2471 32.8735C33.0977 32.9483 32.9483 32.9483 32.7989 33.023C32.6494 33.023 32.5 33.023 32.3506 33.023C32.2012 33.023 32.0517 33.023 31.9023 33.023H31.7529C31.6782 33.023 31.6035 33.023 31.6035 33.023H31.5287H31.454C31.3793 33.023 31.3046 33.023 31.3046 33.0977C31.0805 33.1724 30.8563 33.3218 30.6322 33.4712C30.408 33.6207 30.2586 33.8448 30.1092 33.9942C29.9598 34.1437 29.8103 34.3678 29.6609 34.5919C29.5862 34.8161 29.5115 35.0402 29.5115 35.3391C29.5115 35.4138 29.5115 35.4885 29.5115 35.5632C29.5115 35.6379 29.5115 35.7126 29.5115 35.7873C29.5115 35.9368 29.5115 36.0862 29.5115 36.2356C29.5115 36.5345 29.5115 36.8333 29.5115 37.1322C29.2874 38.3276 29.4368 39.5977 29.5115 40.8678C29.5862 42.1379 29.5115 43.408 29.5115 44.7529C29.5115 46.0977 29.5862 47.3678 29.5115 48.7873C29.5862 50.1322 29.6609 51.5517 29.5115 52.8965C29.5115 53.5689 29.5115 54.3161 29.5115 54.9885V55.2873V55.362V55.4368V55.5115C29.5115 55.6609 29.5115 55.8103 29.5862 55.9598C29.5862 56.0345 29.6609 56.1092 29.6609 56.1839V56.2586V56.3333V56.408C29.7356 56.5574 29.8103 56.7069 29.9598 56.8563L30.2586 57.3046C30.3333 57.3793 30.408 57.5287 30.4828 57.6034C30.4828 57.6034 30.408 57.6034 30.408 57.6781L30.3333 57.7529L30.1092 57.8276L29.6609 57.977L29.0632 58.2758L28.8391 58.3506H28.7644H28.6897C28.5402 58.4253 28.3161 58.4253 28.1667 58.5L27.9425 58.5747L27.6437 58.7241C27.4943 58.7988 27.2701 58.7988 27.1207 58.8735C26.9713 58.8735 26.7471 58.9483 26.5977 58.9483C26.4483 58.9483 26.2241 59.023 26.0747 59.023C25.9253 59.023 25.7012 59.0977 25.5517 59.0977C25.477 59.0977 25.4023 59.0977 25.2529 59.1724H24.954C24.7299 59.1724 24.5805 59.1724 24.3563 59.2471C24.1322 59.2471 23.9828 59.2471 23.7586 59.2471C23.5345 59.2471 23.3851 59.2471 23.1609 59.2471C22.7874 59.2471 22.4138 59.2471 22.0402 59.2471C21.8161 59.2471 21.6667 59.2471 21.4425 59.2471C21.2184 59.2471 21.069 59.2471 20.8448 59.2471C19.2759 59.1724 17.7816 58.8735 16.2874 58.4253C14.7931 57.977 13.2989 57.3046 11.8793 56.6322C11.2069 56.1839 10.6092 55.7356 9.93678 55.2873L9.4138 54.9138C9.26437 54.7643 9.11495 54.6896 8.89081 54.5402C8.59196 54.3161 8.21839 54.0919 7.91954 53.7931L7.77012 53.6437L7.54598 53.4942C7.39656 53.3448 7.24713 53.2701 7.0977 53.1207C7.24713 52.6724 7.39655 52.2241 7.47127 51.7758C7.84483 51.6264 8.29311 51.5517 8.66667 51.4023C8.89081 51.3276 9.18966 51.2529 9.4138 51.1781C9.48851 51.1781 9.56322 51.1781 9.63793 51.1781H9.71265C9.63793 51.1781 9.56322 51.1034 9.48851 51.1034C8.89081 50.8793 8.21839 50.7299 7.62069 50.5057H7.47127C7.39655 50.2069 7.32184 49.9827 7.17242 49.6839L7.02299 49.1609L6.87357 48.6379V48.4885C6.87357 48.4138 6.87357 48.3391 6.87357 48.3391C6.87357 48.2643 6.87357 48.1896 6.79885 48.1896V48.2643C6.79885 48.3391 6.79885 48.4138 6.79885 48.4138C6.79885 48.4138 6.79885 48.4138 6.79885 48.4885L6.72414 48.6379L6.64943 48.9368L6.72414 49.1609C6.72414 49.2356 6.64943 49.3103 6.64943 49.385C6.57472 49.6839 6.42529 49.908 6.27586 50.1322C6.20115 50.2816 6.12644 50.3563 6.05173 50.431L5.97701 50.5057H5.9023L5.67816 50.5804L5.45403 50.6552H5.37931L5.3046 50.5804L5.00575 50.3563L4.7069 50.1322V50.0574C4.7069 50.0574 4.7069 50.0575 4.7069 49.9827V49.908L4.63219 49.8333C4.48276 49.6092 4.33334 49.385 4.18391 49.1609C4.1092 49.0115 3.95977 48.862 3.88506 48.7126C3.81035 48.5632 3.66092 48.4138 3.58621 48.2643C3.43678 47.9655 3.21265 47.5919 3.06322 47.2931C2.9138 46.9942 2.76437 46.6207 2.61495 46.2471C2.54023 46.0977 2.46552 45.8735 2.39081 45.7241C2.31609 45.5747 2.24138 45.3506 2.16667 45.2011C2.09196 44.8276 1.94253 44.5287 1.86782 44.1552C1.79311 44.0057 1.79311 43.7816 1.71839 43.6322C1.64368 43.4827 1.64368 43.2586 1.56897 43.1092L1.49426 42.885L1.41954 42.5862C1.34483 42.4368 1.34483 42.2126 1.27012 42.0632L1.12069 41.5402C1.04598 41.3908 1.04598 41.1666 0.971267 41.0172C0.896555 40.6437 0.821842 40.3448 0.747129 39.9712C0.747129 39.8218 0.672417 39.5977 0.672417 39.4483C0.672417 39.2988 0.672417 39.0747 0.672417 38.9253C0.672417 38.5517 0.672417 38.2529 0.747129 37.8793C0.747129 37.7299 0.747129 37.5057 0.747129 37.3563C0.747129 37.2069 0.747129 36.9827 0.747129 36.8333C0.747129 36.4597 0.821842 36.1609 0.821842 35.7873C0.896555 35.4138 0.896555 35.1149 0.971267 34.7414C1.04598 34.4425 1.04598 34.0689 1.12069 33.7701C1.27012 33.4712 1.34483 33.0977 1.41954 32.7988C1.49426 32.5 1.56897 32.1264 1.64368 31.8276C1.71839 31.5287 1.79311 31.1552 1.86782 30.8563C1.94253 30.5575 2.01724 30.2586 2.16667 29.9597C2.68966 28.7643 3.28736 27.6437 3.88506 26.523C4.18391 25.9253 4.55747 25.477 4.93104 24.954C5.08046 24.8046 5.22989 24.6552 5.37931 24.431C5.52874 24.2069 5.67816 24.0575 5.82759 23.8333C5.97701 23.6092 6.12644 23.4598 6.27586 23.2356L6.5 22.9368V23.0115L6.72414 23.2356C6.87357 23.6839 7.02299 24.1322 7.17242 24.6552L7.24713 25.0287L7.32184 25.1781V25.2529V25.3276V25.4023V25.477C7.32184 25.5517 7.32184 25.7011 7.39655 25.7758C7.39655 25.8506 7.47127 26 7.47127 26C7.47127 26.0747 7.47127 26.0747 7.54598 26.1494C7.62069 26 7.62069 25.8506 7.69541 25.7011C7.69541 25.6264 7.77012 25.5517 7.77012 25.477C7.84483 25.3276 7.91954 25.1781 7.91954 24.954C7.91954 24.7299 7.91954 24.5057 7.99426 24.3563V24.2069V24.1322L8.06897 23.9827C8.14368 23.8333 8.14368 23.6092 8.21839 23.4597L8.66667 23.3103C8.8161 23.3103 8.96552 23.2356 9.04023 23.2356C9.18966 23.2356 9.33908 23.1609 9.48851 23.1609C9.63793 23.1609 9.78736 23.0862 9.93678 23.0862C10.0862 23.0862 10.1609 23.0115 10.3103 23.0115C10.4598 23.0115 10.6092 22.9368 10.6839 22.862C10.7586 22.7873 10.7586 22.7873 10.9828 22.7873V22.7126C10.7586 22.7126 10.6092 22.7126 10.5345 22.7126C10.4598 22.7126 10.3851 22.7126 10.3103 22.6379C10.3103 22.6379 10.2356 22.6379 10.2356 22.5632L10.0862 22.4885L9.86207 22.4138C9.56322 22.2643 9.26437 22.1896 8.96552 22.0402C8.8161 21.9655 8.66667 21.9655 8.51724 21.8908L8.21839 21.8161H8.06897L8.14368 21.7414C8.36782 21.5172 8.59196 21.3678 8.89081 21.1437C9.11495 20.9195 9.4138 20.7701 9.63793 20.546L9.71265 20.4712H9.78736L9.93678 20.3965C10.0115 20.3218 10.0862 20.3218 10.2356 20.2471C10.5345 19.9483 10.908 19.7241 11.2069 19.5747C11.3563 19.5 11.5805 19.4253 11.7299 19.2758C11.8793 19.2011 12.1035 19.1264 12.2529 18.977C12.3276 18.977 12.4023 18.9023 12.477 18.9023C12.5517 18.9023 12.6264 18.8276 12.7012 18.8276C12.8506 18.7529 13 18.6781 13.1494 18.6034C13.4483 18.454 13.7471 18.3046 14.1207 18.1552C14.4195 18.0057 14.7184 17.8563 15.0172 17.7816C15.3161 17.7069 15.6149 17.5575 15.9138 17.5575C16.2126 17.4827 16.5115 17.408 16.7356 17.3333C17.0345 17.2586 17.2586 17.1839 17.5575 17.1839C17.931 17.1092 18.3046 17.0345 18.6782 16.9598C19.0517 16.885 19.3506 16.885 19.6494 16.8103C19.9483 16.8103 20.2471 16.7356 20.4713 16.7356C20.6954 16.7356 20.9195 16.7356 21.1437 16.7356C21.2184 16.7356 21.3678 16.7356 21.4425 16.7356C21.5172 16.7356 21.592 16.7356 21.6667 16.7356C21.8161 16.7356 21.9655 16.7356 22.0402 16.7356C22.3391 16.5862 22.4885 16.5862 22.4885 16.5862Z" fill="#2BBD81"/>
<path d="M22.4885 22.4138C22.4885 22.4885 21.4425 22.4885 19.5747 22.9368C19.4253 22.9368 19.2759 23.0115 19.1264 23.0862C18.977 23.1609 18.8276 23.1609 18.6034 23.2356C18.454 23.3103 18.2299 23.385 18.0805 23.385C17.931 23.4597 17.7069 23.5345 17.5575 23.6092C17.3333 23.6092 17.1839 23.7586 16.9598 23.8333C16.8103 23.9827 16.5862 24.0574 16.3621 24.0574C16.2874 24.0574 16.1379 24.1322 16.0632 24.2069C15.9885 24.2816 15.8391 24.2816 15.7644 24.3563C15.6897 24.431 15.5402 24.5057 15.4655 24.5057C15.3908 24.5804 15.2414 24.6551 15.1667 24.7299C15.092 24.8046 14.9425 24.8793 14.8678 24.954C14.7931 25.0287 14.6437 25.1034 14.569 25.1781C14.4943 25.2528 14.3448 25.3276 14.2701 25.4023C14.1954 25.477 14.046 25.5517 13.9713 25.7011C13.8218 25.9253 13.5977 26.0747 13.2988 26.1494C13.1494 26.2241 13.0747 26.2988 12.9253 26.3735C12.8506 26.4482 12.7011 26.5977 12.6264 26.7471C12.4023 26.9712 12.2529 27.1954 12.0287 27.3448C11.8046 27.5689 11.5805 27.7931 11.431 28.0172C11.2816 28.0919 11.2069 28.2414 11.0575 28.3161C10.9828 28.4655 10.8333 28.5402 10.7586 28.6896C10.6839 28.7643 10.6839 28.8391 10.6092 28.9138C10.5345 28.9885 10.5345 29.0632 10.4598 29.1379C10.3851 29.2873 10.3103 29.4368 10.2356 29.5115C10.0862 29.5862 10.0115 29.7356 9.86207 29.885C9.78735 29.9597 9.78735 30.0345 9.71264 30.1092C9.63793 30.1839 9.63793 30.2586 9.56322 30.3333C9.4885 30.4827 9.41379 30.6322 9.33908 30.7816C9.26437 30.931 9.26437 31.0804 9.18965 31.2299C8.66667 31.7528 8.44253 32.4253 8.44253 33.0977C8.44253 33.1724 8.36781 33.2471 8.36781 33.3218C8.36781 33.3965 8.2931 33.4712 8.2931 33.5459C8.21839 33.6954 8.14368 33.9195 8.14368 34.0689C8.06896 34.4425 7.99425 34.7414 7.99425 35.1149C7.91954 35.4885 7.91954 35.862 7.84483 36.2356C7.84483 36.6092 7.77011 36.9827 7.77011 37.3563C7.84483 37.7299 7.91954 38.1034 7.91954 38.477C7.91954 38.8505 7.91954 39.2241 7.91954 39.6724C8.21839 40.4195 8.2931 41.1666 8.44253 41.9885C8.44253 42.2126 8.51724 42.362 8.59195 42.5862C8.66667 42.8103 8.74138 42.9597 8.81609 43.1092C8.8908 43.2586 8.96552 43.4827 9.11494 43.6322C9.18965 43.7816 9.26437 44.0057 9.33908 44.2299C9.71264 44.977 10.1609 45.6494 10.6839 46.3965C11.1322 47.1436 11.6552 47.8161 12.4023 48.339C13.0747 48.9367 13.7471 49.385 14.4943 49.9827C15.3161 50.2816 16.0632 50.8046 16.8851 51.2528C17.7069 51.5517 18.5287 52 19.5 52.0747C20.3966 52.2988 21.2931 52.2988 22.2644 52.3735C23.1609 52.4482 24.1322 52.4482 25.0287 52.1494C25.2529 52.0747 25.477 52 25.7011 52C25.9253 51.9253 26.1494 51.9253 26.3736 51.8505C26.8218 51.7758 27.2701 51.6264 27.6437 51.477C27.7931 51.477 27.8678 51.477 27.9425 51.4023C28.0172 51.4023 28.0172 51.4023 28.092 51.3276H28.1667V51.2528V51.1781V51.0287C28.1667 50.8793 28.1667 50.8046 28.1667 50.6551C28.1667 50.431 28.1667 50.2069 28.1667 49.9827C28.1667 49.0862 28.2414 48.1149 28.1667 47.2184C28.1667 46.3218 28.092 45.4253 28.1667 44.5287C27.8678 43.6322 28.2414 42.7356 28.1667 41.9138C28.3161 41.0172 28.1667 40.1954 28.1667 39.3735C28.092 38.5517 28.3161 37.7299 28.1667 36.908C28.1667 36.6839 28.1667 36.5345 28.1667 36.3103V36.2356V36.1609V36.0115C28.1667 35.862 28.1667 35.7873 28.1667 35.6379C28.2414 35.1896 28.3908 34.7414 28.6897 34.3678C28.9138 33.9195 29.2126 33.6207 29.5862 33.3965C29.9598 33.1724 30.408 33.023 30.7816 32.8735C30.8563 32.8735 31.0057 32.7988 31.0805 32.7988C31.1552 32.7988 31.3046 32.7241 31.3793 32.7241C31.5287 32.7241 31.7529 32.7241 31.9023 32.7241C32.2011 32.7241 32.5 32.6494 32.7989 32.5C33.0977 32.5 33.3966 32.2758 33.546 32.0517C33.6954 31.8276 33.7701 31.5287 33.8448 31.2299C33.9195 30.931 33.9195 30.6322 33.9195 30.3333C33.9195 30.0345 33.8448 29.7356 33.8448 29.4368C33.7701 29.1379 33.6954 28.8391 33.6207 28.6149C33.4713 28.3908 33.3218 28.1666 33.1724 28.0172C33.0977 27.9425 33.023 27.8678 32.9483 27.8678C32.8736 27.8678 32.8736 27.7931 32.7989 27.7931C32.7989 27.7931 32.7988 27.7931 32.7241 27.7931H32.6494H32.5C32.4253 27.7931 32.3506 27.7931 32.2759 27.7184C32.2011 27.7184 32.1264 27.7184 32.0517 27.7184C31.977 27.7184 31.9023 27.7184 31.8276 27.7184C31.7529 27.7184 31.6782 27.7184 31.6034 27.7184C31.5287 27.7184 31.454 27.7184 31.3793 27.6436C31.3046 27.6436 31.2299 27.5689 31.1552 27.5689C31.0805 27.5689 31.0057 27.4942 30.931 27.4942C30.8563 27.4942 30.7816 27.4195 30.7069 27.4195C30.5575 27.3448 30.408 27.2701 30.3333 27.1954C30.1839 27.1207 30.0345 27.1207 29.8851 27.0459C29.5862 26.9712 29.3621 26.8218 29.1379 26.5977C29.0632 26.523 28.9138 26.3735 28.8391 26.2988C28.7644 26.2241 28.6897 26.0747 28.5402 26C28.1667 25.6264 27.8678 25.1781 27.6437 24.7299C27.569 24.5804 27.4943 24.5057 27.4943 24.3563C27.4943 24.2816 27.4195 24.2069 27.4195 24.2069C27.4195 24.1322 27.3448 24.0574 27.3448 24.0574C27.3448 23.9827 27.2701 23.908 27.2701 23.8333H27.1954C27.1954 23.8333 27.1207 23.8333 27.1207 23.7586C27.046 23.6839 26.8966 23.6839 26.8218 23.6092C26.7471 23.6092 26.5977 23.5345 26.523 23.5345C26.4483 23.5345 26.2988 23.4597 26.2241 23.4597C26.1494 23.4597 26 23.385 25.9253 23.385C25.1782 23.1609 24.5057 23.0115 23.9828 22.9368C23.6839 22.862 23.4598 22.862 23.2356 22.862C23.1609 22.862 23.0115 22.862 22.9368 22.7873C22.8621 22.7873 22.7874 22.7873 22.7126 22.7873C22.6379 22.4138 22.4885 22.4138 22.4885 22.4138C22.4885 22.3391 23.2356 22.2643 24.5805 22.3391C25.2529 22.4138 26.0747 22.5632 27.046 22.7873C27.1954 22.7873 27.2701 22.862 27.4195 22.862C27.569 22.9368 27.7184 22.9368 27.9425 23.0115V23.0862L28.0172 23.2356C28.0172 23.3103 28.092 23.385 28.092 23.4597V23.5345C28.092 23.5345 28.092 23.5345 28.092 23.6092L28.1667 23.6839C28.1667 23.7586 28.2414 23.8333 28.2414 23.8333C28.4655 24.2816 28.8391 24.7299 29.2126 25.1781C29.2874 25.2528 29.3621 25.3276 29.5115 25.4023C29.5862 25.477 29.7356 25.5517 29.8103 25.6264C30.0345 25.7758 30.1839 25.8505 30.408 26.0747C30.4828 26.1494 30.6322 26.1494 30.7816 26.2241C30.931 26.2988 31.0057 26.2988 31.1552 26.3735C31.2299 26.3735 31.3046 26.4482 31.3046 26.4482C31.3793 26.4482 31.454 26.4482 31.5287 26.523C31.6034 26.523 31.6782 26.5977 31.7529 26.5977C31.8276 26.5977 31.9023 26.6724 31.977 26.6724C32.0517 26.6724 32.1264 26.6724 32.2011 26.6724C32.2759 26.6724 32.3506 26.6724 32.4253 26.6724C32.5 26.6724 32.5747 26.6724 32.6494 26.6724C32.7241 26.6724 32.7988 26.6724 32.8736 26.6724C32.9483 26.6724 33.023 26.6724 33.0977 26.6724C33.2471 26.6724 33.3218 26.6724 33.4713 26.7471C33.6954 26.8218 33.8448 26.9712 33.9943 27.0459C34.2931 27.2701 34.5172 27.6437 34.6667 27.9425C34.8161 28.2414 34.9655 28.6149 35.0402 28.9138C35.1897 29.2873 35.1897 29.6609 35.1897 30.0345C35.1897 30.408 35.1149 30.7816 35.0402 31.1551C34.8908 31.5287 34.6667 31.9023 34.4425 32.2011C34.2184 32.5 33.9195 32.8735 33.546 33.0977C33.0977 33.2471 32.7241 33.3218 32.2759 33.3965C32.2011 33.3965 32.0517 33.3965 31.977 33.3965C31.9023 33.3965 31.9023 33.3965 31.8276 33.3965H31.6782C31.6034 33.3965 31.5287 33.3965 31.454 33.4712C31.3793 33.4712 31.3046 33.4712 31.2299 33.5459C30.931 33.5459 30.5575 33.6954 30.3333 33.8448C30.1092 34.0689 29.8851 34.3678 29.7356 34.5919C29.5862 34.8908 29.4368 35.1896 29.4368 35.4885C29.4368 35.5632 29.4368 35.6379 29.3621 35.7126V35.862V35.9368V36.0115C29.3621 36.2356 29.3621 36.385 29.3621 36.6092C29.3621 37.431 29.4368 38.2528 29.3621 39.0747C29.4368 39.8965 29.5115 40.7931 29.3621 41.6149C29.4368 42.5115 29.3621 43.3333 29.3621 44.2299C29.4368 45.1264 29.3621 46.023 29.3621 46.9195C29.4368 47.8161 29.1379 48.7126 29.3621 49.6839C29.3621 49.908 29.3621 50.1322 29.3621 50.3563C29.3621 50.6551 29.3621 50.8793 29.3621 51.1781C29.3621 51.4023 29.3621 51.6264 29.3621 51.8505H29.2874H29.2126L29.1379 52.0747L28.8391 52.2241L28.3908 52.3735C28.3161 52.4482 28.1667 52.4482 28.0172 52.523C27.1207 52.8218 26.1494 53.0459 25.1782 53.2701C24.1322 53.1954 23.1609 53.4195 22.1897 53.4942C21.1437 53.5689 20.1724 53.4195 19.2011 53.1207C18.1552 53.0459 17.1839 52.7471 16.2874 52.2988C15.3161 52 14.569 51.4023 13.7471 50.954C13.2988 50.7299 12.9253 50.431 12.5517 50.1322C12.4023 49.9827 12.1782 49.8333 12.0287 49.6839C11.954 49.6092 11.8793 49.5345 11.7299 49.4597C11.6552 49.385 11.5805 49.3103 11.431 49.2356C10.6839 48.6379 10.0862 47.9655 9.56322 47.1436C9.41379 46.9195 9.33908 46.7701 9.18965 46.5459C9.11494 46.3218 8.96552 46.1724 8.8908 45.9482C8.81609 45.7241 8.66667 45.5747 8.59195 45.3505C8.44253 45.1264 8.36781 44.977 8.21839 44.7528C8.06896 44.5287 7.99425 44.3793 7.91954 44.1551C7.84483 44.0804 7.77011 43.931 7.77011 43.8563C7.6954 43.7816 7.6954 43.6322 7.62069 43.5574C7.54598 43.3333 7.47126 43.1839 7.39655 42.9597C7.32184 42.7356 7.32184 42.5115 7.32184 42.2873C7.24713 42.0632 7.17241 41.8391 7.0977 41.6896C7.02299 41.4655 7.02299 41.2414 7.02299 41.0172C6.94827 40.7931 6.94827 40.5689 6.94827 40.4195C6.94827 40.3448 6.87356 40.1954 6.87356 40.1207C6.87356 40.0459 6.79885 39.8965 6.79885 39.8218C6.87356 39.3735 6.79885 39 6.79885 38.5517C6.79885 38.1781 6.72414 37.7299 6.72414 37.3563C6.72414 36.9827 6.79885 36.5345 6.87356 36.1609C6.94827 35.7873 6.94827 35.4138 7.02299 34.9655C7.02299 34.5919 7.17241 34.2184 7.24712 33.8448C7.32184 33.6954 7.39655 33.4712 7.39655 33.3218C7.39655 33.2471 7.47126 33.1724 7.47126 33.023C7.47126 32.9482 7.54598 32.8735 7.54598 32.7241C7.54598 32.5747 7.62069 32.3505 7.6954 32.2011C7.77011 32.0517 7.84483 31.9023 7.91954 31.6781C7.99425 31.5287 8.06896 31.3793 8.14368 31.2299C8.21839 31.0804 8.2931 30.931 8.36781 30.7069C8.44253 30.5574 8.51724 30.408 8.59195 30.2586C8.66667 30.1092 8.74138 29.9597 8.81609 29.8103C8.8908 29.7356 8.8908 29.6609 8.96552 29.5862C9.04023 29.5115 9.04023 29.4368 9.11494 29.362C9.18965 29.2126 9.33908 29.0632 9.41379 28.9138C9.4885 28.7643 9.4885 28.5402 9.63793 28.4655C9.71264 28.3908 9.71264 28.3161 9.78736 28.2414C9.86207 28.1666 9.86207 28.0919 9.93678 28.0919C10.0862 27.9425 10.1609 27.8678 10.3103 27.7184C10.4598 27.6436 10.5345 27.4942 10.6839 27.4195C10.908 27.1954 11.0575 26.9712 11.2816 26.6724C11.5057 26.4482 11.7299 26.2241 12.0287 26.0747C12.3276 25.5517 12.9253 25.2528 13.3736 25.0287C13.523 24.954 13.5977 24.8793 13.7471 24.8046C13.8218 24.7299 13.9713 24.6551 14.046 24.5804C14.1207 24.5057 14.2701 24.431 14.3448 24.3563C14.4943 24.2816 14.569 24.2069 14.7184 24.2069C14.7931 24.1322 14.9425 24.0574 15.0172 23.9827C15.092 23.908 15.2414 23.908 15.3908 23.8333C15.5402 23.7586 15.6149 23.7586 15.7644 23.6839C15.9138 23.6092 15.9885 23.6092 16.0632 23.5345C16.2874 23.4597 16.5115 23.385 16.7356 23.3103C16.9598 23.2356 17.1092 23.0862 17.3333 23.0862C17.5575 23.0115 17.7069 22.9368 17.931 22.862C18.1552 22.7873 18.3046 22.7873 18.5287 22.7873C18.6782 22.7126 18.9023 22.7126 19.0517 22.6379C19.2011 22.6379 19.4253 22.5632 19.5747 22.5632C20.546 22.4138 21.2931 22.4138 21.8161 22.4138C22.1897 22.3391 22.4885 22.3391 22.4885 22.4138Z" fill="#2BBD81"/>
<path d="M20.6954 28.316C20.7701 28.316 20.7701 28.6896 20.6207 29.362C20.6207 29.4367 20.546 29.5861 20.546 29.7356C20.546 29.885 20.546 30.0344 20.4713 30.1091C20.3218 30.1838 20.546 30.4827 20.3965 30.5574C20.3218 30.7068 20.3218 30.8563 20.2471 31.0057C20.2471 31.1551 20.0977 31.3045 20.0977 31.5287C20.1724 31.6781 20.0977 31.7528 20.023 31.8275C19.9483 31.9022 19.9483 31.9022 19.9483 31.9769C19.9483 32.0517 19.9483 32.1264 19.9483 32.2011C19.9483 32.3505 19.8736 32.4252 19.8736 32.5746C19.7241 32.6494 19.5 32.7241 19.2759 32.7241H19.2011C19.2011 32.7241 19.2011 32.7241 19.1264 32.7241H19.0517C18.977 32.7241 18.977 32.7241 18.9023 32.7988C18.8276 32.8735 18.6782 32.9482 18.6034 32.9482C18.454 32.8735 18.3793 32.8735 18.2299 32.9482C18.1552 32.9482 18.1552 33.0229 18.0805 33.0229C18.0057 33.0976 17.931 33.0976 18.0057 33.1724C17.8563 32.9482 17.5575 33.0976 17.7816 33.2471C17.7816 33.2471 17.7069 33.2471 17.6322 33.2471C17.5575 33.2471 17.5575 33.2471 17.6322 33.3218C17.6322 33.3218 17.6322 33.3218 17.6322 33.3965C17.6322 33.3965 17.6322 33.3965 17.4828 33.3965C17.5575 33.3965 17.5575 33.3965 17.6322 33.3965C18.0805 33.3965 18.0057 33.3965 17.7069 33.4712C17.931 33.4712 18.0057 33.4712 18.0057 33.4712C18.0057 33.4712 17.931 33.4712 17.931 33.5459C17.931 33.6206 18.0057 33.5459 18.0057 33.5459H18.0805C18.0805 33.5459 18.0805 33.5459 18.1552 33.6206C18.454 33.6953 18.7529 33.7701 19.0517 33.8448L19.2011 33.9195L19.2759 33.9942H19.3506H19.4253C19.6494 34.0689 19.7988 34.1436 20.023 34.1436C20.0977 34.2183 20.0977 34.3678 20.1724 34.4425L20.2471 34.6666L20.3218 34.7413C20.3218 34.816 20.3965 34.8907 20.3965 34.9655C20.4713 35.1149 20.4713 35.2643 20.4713 35.4137C20.6207 35.5632 20.6954 35.7126 20.6954 35.862C20.6954 35.9367 20.6954 35.9367 20.6954 35.9367C20.6954 35.9367 20.6954 36.0114 20.6207 36.0114V36.0861C20.6207 36.1609 20.6207 36.2356 20.6954 36.0861C20.6954 36.0861 20.6954 36.0114 20.6954 36.2356C20.6954 36.3103 20.6954 36.385 20.6954 36.385C20.6954 36.385 20.6954 36.3103 20.6954 36.1609C20.6954 36.0114 20.6954 36.0114 20.6954 36.0861H20.7701C20.8448 36.0861 20.8448 36.0861 20.8448 36.0861C20.8448 36.0861 20.8448 36.0861 20.8448 36.0114C20.8448 35.862 20.8448 35.7126 20.9195 35.5632C20.9943 35.4137 20.9943 35.2643 21.069 35.1149C21.069 35.0402 21.1437 34.9655 21.1437 34.8907V34.816V34.7413C21.1437 34.6666 21.1437 34.5919 21.2184 34.5172C21.2184 34.3678 21.2931 34.293 21.2931 34.1436C21.5172 34.0689 21.7414 33.9942 21.8908 33.9195H21.9655H22.0402H22.1149C22.1897 33.9195 22.2644 33.9195 22.2644 33.9195C22.4885 33.5459 22.8621 33.8448 23.1609 33.6953C23.3851 33.7701 23.3103 33.6206 23.3851 33.6206C23.3851 33.6206 23.4598 33.6206 23.5345 33.6206C23.6092 33.6206 23.6839 33.6206 23.6092 33.6206C23.6839 33.6206 23.6839 33.6206 23.6092 33.6206C23.6092 33.6206 23.6092 33.6206 23.7586 33.6206H23.8333C23.5345 33.6206 23.6839 33.6206 23.6839 33.6206C23.7586 33.6206 23.8333 33.5459 23.6092 33.5459C23.5345 33.5459 23.4598 33.5459 23.4598 33.4712C23.5345 33.3965 23.5345 33.3218 23.4598 33.3218C23.3851 33.3218 23.3103 33.3218 23.3103 33.3218C23.3103 33.3218 23.2356 33.3218 23.1609 33.3218C23.0862 33.3218 23.0115 33.3218 23.0115 33.3218C22.8621 33.3218 22.7874 33.2471 22.7126 33.1724C22.6379 33.0976 22.4885 33.0976 22.4138 33.0229C22.3391 33.0229 22.3391 32.9482 22.2644 32.9482H22.1897C22.1897 32.9482 22.1897 32.9482 22.1149 32.9482C22.1149 32.9482 22.1149 32.9482 22.0402 32.9482C21.9655 32.9482 21.8161 32.8735 21.7414 32.7988C21.6667 32.7241 21.592 32.6494 21.5172 32.6494C21.5172 32.4999 21.4425 32.4252 21.2931 32.3505C21.2931 32.2758 21.2184 32.2011 21.2184 32.1264C21.2184 32.0517 21.2184 32.0517 21.2184 31.9769C21.2184 31.9022 21.2184 31.7528 21.069 31.7528C20.8448 31.6034 20.9943 31.3792 20.9195 31.2298C20.8448 31.0804 20.8448 30.931 20.7701 30.7815C20.7701 29.2126 20.6207 28.3907 20.6954 28.316C20.8448 28.2413 21.2184 29.2126 21.8908 30.8563C21.9655 31.0057 22.1149 31.1551 22.0402 31.3792C22.0402 31.454 22.1149 31.5287 22.1897 31.6034C22.1897 31.6781 22.2644 31.6781 22.2644 31.7528V31.8275C22.3391 31.8275 22.3391 31.8275 22.3391 31.8275C22.3391 31.8275 22.3391 31.9022 22.4138 31.9022H22.4885H22.5632C22.6379 31.9022 22.6379 31.9769 22.7126 31.9769C22.7874 31.9769 22.9368 32.0517 23.0115 32.0517C23.1609 32.0517 23.2356 32.0517 23.3103 32.1264C23.3851 32.1264 23.3851 32.2011 23.4598 32.2011C23.5345 32.2011 23.5345 32.2011 23.6839 32.2758C23.9828 32.4999 24.3563 32.5747 24.8793 32.6494C25.0287 32.7241 25.1782 32.7988 25.4023 32.8735C25.6264 32.9482 25.9253 32.9482 26.1494 33.0229C26.1494 33.0976 26.2988 33.1724 26.523 33.2471C26.7471 33.3218 27.1207 33.3965 27.4943 33.3965C27.569 33.3965 27.6437 33.3965 27.6437 33.4712C27.6437 33.5459 27.4195 33.6206 27.1954 33.6206C26.9713 33.6953 26.7471 33.7701 26.523 33.8448C26.2241 33.9195 26 33.9942 25.8506 34.0689C25.6264 34.1436 25.4023 34.2183 25.1034 34.293C24.8793 34.3678 24.6552 34.5172 24.431 34.5919C24.2816 34.6666 24.1322 34.6666 24.0575 34.7413C23.9828 34.7413 23.908 34.7413 23.8333 34.816H23.7586H23.6839C23.3851 34.9655 23.0862 34.9655 22.8621 35.1149C22.7874 35.1149 22.7874 35.1896 22.7126 35.1896H22.6379H22.5632C22.5632 35.1896 22.5632 35.1896 22.4885 35.1896C22.4885 35.1896 22.4885 35.1896 22.4885 35.2643C22.4138 35.339 22.4138 35.4137 22.3391 35.4884C22.2644 35.6379 22.1897 35.7873 22.2644 35.9367C22.2644 36.0861 22.1897 36.2356 22.1149 36.385L21.9655 36.6091L21.8908 36.8333C21.8161 36.9827 21.8161 37.1321 21.7414 37.2815C21.6667 37.5804 21.5172 37.8045 21.4425 38.1034C21.3678 38.4022 21.2931 38.7011 21.2184 39.0747C21.069 39.1494 20.9943 39.3735 20.9195 39.6724C20.8448 39.9712 20.7701 40.4195 20.6954 40.8678C20.6207 40.6436 20.4713 40.3448 20.3965 40.0459C20.3218 39.7471 20.2471 39.3735 20.0977 39.0747C19.8736 38.5517 19.7241 37.8792 19.5747 37.2815C19.5 37.1321 19.5 36.9827 19.4253 36.8333V36.6091C19.4253 36.5344 19.3506 36.4597 19.3506 36.4597C19.3506 36.3103 19.2759 36.1609 19.2011 36.0114C19.1264 35.862 19.1264 35.7126 19.0517 35.5632C19.0517 35.4884 19.0517 35.4137 18.977 35.339V35.2643C18.977 35.2643 18.977 35.2643 18.9023 35.2643H18.8276C18.8276 35.2643 18.7529 35.2643 18.7529 35.1896C18.7529 35.1149 18.6782 35.1149 18.6782 35.0402C18.3793 34.9655 18.1552 34.6666 17.8563 34.7413C17.8563 34.7413 17.8563 34.7413 17.7816 34.7413H17.7069C17.6322 34.7413 17.5575 34.7413 17.4828 34.7413C17.3333 34.7413 17.1839 34.6666 17.0345 34.6666C16.7356 34.5919 16.4368 34.5172 16.3621 34.3678C16.0632 34.293 15.8391 34.2183 15.6897 34.1436C15.4655 34.0689 15.3161 33.9942 14.9425 33.9195C14.9425 33.8448 14.7931 33.7701 14.569 33.6953C14.3448 33.6206 13.9713 33.5459 13.7471 33.5459C13.7471 33.5459 13.8218 33.5459 13.8965 33.4712C14.1954 33.3965 14.4943 33.3218 14.7184 33.2471C14.9425 33.1724 15.1667 33.0976 15.2414 33.0229C15.3161 32.9482 15.6149 32.8735 15.8391 32.7988C16.0632 32.7241 16.3621 32.7241 16.5115 32.6494C16.6609 32.5747 16.8851 32.4999 17.1092 32.4999C17.3333 32.4999 17.5575 32.4252 17.7069 32.3505C17.8563 32.3505 17.8563 32.3505 17.931 32.2758C18.0057 32.2758 18.0057 32.2758 18.0805 32.2011C18.1552 32.2011 18.3046 32.1264 18.3793 32.1264C18.454 31.9769 18.5287 31.9022 18.6782 31.9022C18.7529 31.9022 18.8276 31.9022 18.8276 31.9022H18.9023C18.9023 31.9022 18.9023 31.9022 18.977 31.9022C19.0517 31.9022 19.0517 31.8275 19.0517 31.8275C19.0517 31.8275 19.0517 31.8275 19.1264 31.8275C19.0517 31.7528 19.0517 31.7528 19.0517 31.7528C19.0517 31.6781 19.0517 31.6781 19.1264 31.6034C19.2011 31.5287 19.2759 31.454 19.3506 31.3792C19.5 31.2298 19.3506 31.0057 19.5 30.8563C19.4253 30.6321 19.6494 30.5574 19.6494 30.408C19.7988 30.2586 19.7241 30.1091 19.7988 29.9597C19.7988 29.8103 19.8736 29.6609 19.9483 29.5861C20.023 29.4367 20.023 29.362 20.0977 29.2873C20.4713 28.6149 20.6207 28.316 20.6954 28.316Z" fill="#121212"/>
<path d="M7.54598 17.6322C7.62069 17.6322 7.62069 18.0058 7.47126 18.6782C7.47126 18.7529 7.39655 18.9023 7.39655 19.0517C7.39655 19.2012 7.39655 19.3506 7.32184 19.4253C7.17241 19.5 7.39655 19.7989 7.24713 19.8736C7.17241 20.023 7.17241 20.1724 7.0977 20.3218C7.0977 20.4713 6.94828 20.6207 6.94828 20.8448C7.02299 20.9943 6.94828 21.069 6.87356 21.1437C6.79885 21.2184 6.79885 21.2184 6.79885 21.2931C6.79885 21.3678 6.79885 21.4425 6.79885 21.5172C6.79885 21.6667 6.72414 21.7414 6.72414 21.8908C6.57471 21.9655 6.35057 22.0402 6.12644 22.0402H6.05172C6.05172 22.0402 6.05172 22.0402 5.97701 22.0402H5.9023C5.82759 22.0402 5.82759 22.0402 5.75287 22.115C5.67816 22.1897 5.52874 22.2644 5.45402 22.2644C5.3046 22.1897 5.22988 22.1897 5.08046 22.2644C5.00575 22.2644 5.00575 22.3391 4.93103 22.3391L4.85632 22.4138C4.7069 22.3391 4.48276 22.4138 4.7069 22.6379C4.7069 22.6379 4.63218 22.6379 4.55747 22.6379C4.48276 22.6379 4.48276 22.6379 4.55747 22.7127C4.55747 22.7127 4.55747 22.7127 4.55747 22.7874C4.55747 22.7874 4.55747 22.7874 4.40805 22.7874C4.48276 22.7874 4.48276 22.7874 4.55747 22.7874C5.00575 22.7874 4.93103 22.7874 4.63218 22.8621C4.85632 22.8621 4.93103 22.8621 4.93103 22.8621C4.93103 22.8621 4.85632 22.8621 4.85632 22.9368C4.85632 23.0115 4.93103 22.9368 4.93103 22.9368H5.00575C5.00575 22.9368 5.00575 22.9368 5.08046 23.0115C5.37931 23.0862 5.67816 23.1609 5.97701 23.2356L6.12644 23.3104L6.20115 23.3851H6.27586H6.35057C6.57471 23.4598 6.72414 23.5345 6.94828 23.5345C7.02299 23.6092 7.02299 23.7586 7.0977 23.8333L7.17241 24.0575L7.24713 24.1322V24.2069C7.24713 24.2816 7.32184 24.3563 7.32184 24.431C7.39655 24.5805 7.39655 24.7299 7.39655 24.8793C7.54598 25.0287 7.62069 25.1782 7.62069 25.3276C7.62069 25.3276 7.62069 25.4023 7.54598 25.4023V25.477C7.54598 25.5517 7.54598 25.6264 7.62069 25.477C7.62069 25.477 7.62069 25.4023 7.62069 25.6264C7.62069 25.7012 7.62069 25.7759 7.62069 25.7759C7.62069 25.7759 7.62069 25.7012 7.62069 25.5517C7.62069 25.4023 7.62069 25.4023 7.62069 25.477H7.6954C7.77011 25.477 7.77011 25.477 7.77011 25.477C7.77011 25.3276 7.77011 25.1782 7.84483 25.0287C7.91954 24.8793 7.91954 24.7299 7.99425 24.5805C7.99425 24.5058 8.06896 24.431 8.06896 24.3563C8.06896 24.3563 8.06896 24.2816 8.14368 24.2069C8.14368 24.1322 8.14368 24.0575 8.21839 23.9828C8.21839 23.8333 8.2931 23.7586 8.2931 23.6092C8.51724 23.5345 8.74138 23.4598 8.96552 23.3851C9.04023 23.3851 9.04023 23.3851 9.11494 23.3851H9.18965C9.26437 23.3851 9.33908 23.3851 9.33908 23.3851C9.56322 23.0115 9.93678 23.3104 10.2356 23.1609C10.4598 23.2356 10.3851 23.0862 10.4598 23.0862C10.4598 23.0862 10.5345 23.0862 10.6092 23.0862C10.6839 23.0862 10.7586 23.0862 10.6839 23.0862C10.7586 23.0862 10.7586 23.0862 10.6839 23.0862C10.6839 23.0862 10.6839 23.0862 10.7586 23.0862H10.8333C10.5345 23.0862 10.6839 23.0862 10.6839 23.0862C10.7586 23.0862 10.8333 23.0115 10.6092 23.0115C10.5345 23.0115 10.4598 23.0115 10.4598 22.9368C10.5345 22.8621 10.4598 22.7874 10.4598 22.7874C10.3851 22.7874 10.3103 22.7874 10.3103 22.7874H10.2356H10.1609C10.0862 22.7874 10.0115 22.7874 10.0115 22.7874C9.86207 22.7874 9.78736 22.7127 9.71264 22.6379C9.63793 22.5632 9.48851 22.5632 9.41379 22.4885C9.33908 22.4885 9.33908 22.4138 9.26437 22.4138H9.18965C9.18965 22.4138 9.18965 22.4138 9.11494 22.4138C9.11494 22.4138 9.11494 22.4138 9.04023 22.4138C8.96552 22.4138 8.81609 22.3391 8.81609 22.2644C8.74138 22.1897 8.66667 22.115 8.59195 22.115C8.59195 21.9655 8.51724 21.8908 8.36782 21.8161C8.36782 21.7414 8.2931 21.6667 8.2931 21.592C8.2931 21.5173 8.2931 21.5173 8.2931 21.4425C8.2931 21.3678 8.2931 21.2184 8.14368 21.2184C7.91954 21.069 8.06896 20.8448 7.99425 20.6954C7.91954 20.546 7.91954 20.3966 7.84483 20.2471C7.62069 18.5287 7.47126 17.7069 7.54598 17.6322C7.6954 17.5575 8.06896 18.5287 8.74138 20.1724C8.81609 20.3218 8.96552 20.4713 8.8908 20.6954C8.8908 20.7701 8.96552 20.8448 9.04023 20.9195C9.04023 20.9943 9.11494 20.9943 9.11494 21.069V21.1437C9.18965 21.1437 9.18965 21.1437 9.18965 21.1437C9.18965 21.1437 9.18965 21.2184 9.26437 21.2184H9.33908H9.41379C9.48851 21.2184 9.48851 21.2931 9.56322 21.2931C9.63793 21.2931 9.78736 21.3678 9.86207 21.3678C10.0115 21.3678 10.0862 21.3678 10.1609 21.4425C10.2356 21.4425 10.2356 21.5172 10.3103 21.5172H10.3851H10.4598H10.5345C10.8333 21.7414 11.2069 21.8161 11.7299 21.8908C11.8793 21.9655 12.0287 22.0402 12.2529 22.115C12.477 22.1897 12.7759 22.1897 13 22.2644C13 22.3391 13.1494 22.4138 13.3736 22.4885C13.5977 22.5632 13.9713 22.6379 14.3448 22.7127C14.4195 22.7127 14.4943 22.7127 14.569 22.7874C14.4195 22.8621 14.1954 22.9368 13.9713 23.0115C13.7471 23.0862 13.523 23.1609 13.3736 23.2356C13.0747 23.3104 12.8506 23.3851 12.7011 23.4598C12.477 23.5345 12.2529 23.6092 11.954 23.6839C11.7299 23.7586 11.5057 23.9081 11.2816 23.9828C11.1322 24.0575 10.9828 24.0575 10.908 24.1322C10.8333 24.1322 10.7586 24.1322 10.6839 24.2069H10.6092H10.5345C10.2356 24.3563 9.93678 24.3563 9.71264 24.5058C9.63793 24.5058 9.63793 24.5805 9.56322 24.5805H9.4885H9.41379C9.41379 24.5805 9.41379 24.5805 9.33908 24.5805C9.33908 24.5805 9.33908 24.5805 9.33908 24.6552C9.26437 24.7299 9.26437 24.8046 9.18965 24.8793C9.11494 25.0287 9.04023 25.1782 9.11494 25.3276C9.11494 25.477 9.04023 25.6264 8.96552 25.7759L8.8908 25.9253L8.81609 26.1494C8.74138 26.2989 8.74138 26.4483 8.66667 26.5977C8.59195 26.8966 8.44253 27.1207 8.36782 27.4195C8.2931 27.7184 8.21839 28.0173 8.14368 28.3908C7.99425 28.4655 7.91954 28.6897 7.84483 28.9885C7.77011 29.2874 7.6954 29.7356 7.62069 30.1839C7.47126 29.8851 7.39655 29.6609 7.32184 29.2874C7.24713 28.9885 7.17241 28.615 7.02299 28.3161C6.79885 27.7931 6.64942 27.1207 6.5 26.523C6.42529 26.3736 6.42529 26.2241 6.35057 26.0747L6.27586 25.8506V25.7759V25.7012C6.27586 25.5517 6.20115 25.4023 6.12644 25.2529C6.05172 25.1035 5.97701 24.954 5.97701 24.8046C5.97701 24.7299 5.97701 24.6552 5.9023 24.5805V24.5058C5.9023 24.5058 5.9023 24.5058 5.82759 24.5058C5.82759 24.5058 5.82759 24.5058 5.75287 24.5058H5.67816C5.67816 24.5058 5.60345 24.5058 5.60345 24.431C5.52873 24.431 5.52874 24.3563 5.45402 24.3563C5.15517 24.2816 4.93103 23.9828 4.63218 24.0575C4.63218 24.0575 4.63218 24.0575 4.55747 24.0575H4.48276C4.40805 24.0575 4.33333 24.0575 4.25862 24.0575C4.10919 24.0575 3.95977 23.9828 3.81034 23.9828C3.51149 23.9081 3.21264 23.8333 3.13793 23.6839C2.83908 23.6092 2.61494 23.5345 2.46552 23.4598C2.24138 23.3851 2.09195 23.3104 1.71839 23.2356C1.71839 23.1609 1.56896 23.0862 1.34483 23.0115C1.12069 22.9368 0.747125 22.8621 0.522987 22.8621C0.522987 22.8621 0.5977 22.8621 0.672413 22.7874C0.971263 22.7127 1.27011 22.6379 1.49425 22.5632C1.71839 22.4885 1.94253 22.4138 2.01724 22.3391C2.09195 22.2644 2.3908 22.1897 2.61494 22.115C2.83908 22.0402 3.13793 22.0402 3.28736 21.9655C3.43678 21.8908 3.66092 21.8161 3.88506 21.8161C4.10919 21.8161 4.33333 21.7414 4.48276 21.6667C4.55747 21.6667 4.55747 21.6667 4.63218 21.6667H4.7069C4.78161 21.6667 4.78161 21.6667 4.85632 21.592C4.93103 21.592 5.08046 21.5172 5.15517 21.5172C5.22988 21.3678 5.3046 21.2931 5.45402 21.2931C5.52874 21.2931 5.60345 21.2931 5.60345 21.2931H5.67816C5.67816 21.2931 5.67816 21.2931 5.75287 21.2931C5.97701 21.2184 5.97701 21.1437 5.97701 21.1437C5.97701 21.1437 5.97701 21.1437 6.05172 21.1437C5.97701 21.069 5.97701 21.069 5.97701 21.069C5.97701 20.9943 5.97701 20.9943 6.05172 20.9195C6.12644 20.8448 6.20115 20.7701 6.27586 20.6954C6.42529 20.546 6.27586 20.3218 6.42529 20.1724C6.35057 19.9483 6.57471 19.8736 6.57471 19.7241C6.72414 19.5747 6.72414 19.4253 6.79885 19.2759C6.79885 19.1264 6.87356 18.977 6.94828 18.9023C7.02299 18.7529 7.02299 18.6782 7.0977 18.6035C7.32184 17.931 7.47126 17.6322 7.54598 17.6322Z" fill="#121212"/>
<path d="M7.02299 46.0977C7.0977 46.0977 7.0977 46.4712 6.94828 47.1437C6.94828 47.2184 6.87356 47.3678 6.87356 47.5172C6.87356 47.6666 6.87356 47.8161 6.79885 47.8908C6.64943 47.9655 6.87356 48.2643 6.72414 48.3391C6.64943 48.4885 6.64943 48.6379 6.57471 48.7873C6.57471 48.9368 6.42529 49.0862 6.42529 49.3103C6.5 49.4598 6.42529 49.5345 6.35057 49.6092C6.27586 49.6839 6.27586 49.6839 6.27586 49.7586C6.27586 49.8333 6.27586 49.908 6.27586 49.9827C6.27586 50.1322 6.20115 50.2816 6.20115 50.3563C6.05172 50.431 5.82759 50.5057 5.60345 50.5057H5.52874C5.52874 50.5057 5.52874 50.5057 5.45402 50.5057H5.37931C5.3046 50.5057 5.3046 50.5057 5.22988 50.5804C5.15517 50.6552 5.00575 50.7299 4.93103 50.7299C4.78161 50.6552 4.7069 50.6552 4.55747 50.7299L4.48276 50.8046L4.40805 50.8793C4.25862 50.6552 3.95977 50.8046 4.18391 50.954C4.18391 50.954 4.1092 50.954 4.03448 50.954C3.95977 50.954 3.95977 50.954 4.03448 51.0287C4.03448 51.0287 4.03448 51.0287 4.03448 51.1034C4.03448 51.1034 4.03448 51.1034 3.88506 51.1034C3.95977 51.1034 3.95977 51.1034 4.03448 51.1034C4.48276 51.1034 4.40805 51.1034 4.1092 51.1781C4.33333 51.1781 4.40805 51.1781 4.40805 51.1781C4.40805 51.1781 4.33333 51.1781 4.33333 51.2529C4.33333 51.3276 4.40805 51.2529 4.40805 51.2529H4.48276C4.48276 51.2529 4.48276 51.2529 4.55747 51.3276C4.85632 51.4023 5.15517 51.477 5.45402 51.5517L5.60345 51.6264L5.67816 51.7011H5.75287C5.97701 51.7758 6.12644 51.8506 6.35057 51.8506C6.42529 51.9253 6.42529 52.0747 6.5 52.1494L6.57471 52.3735L6.64942 52.4483C6.64942 52.523 6.72414 52.5977 6.72414 52.6724C6.72414 52.9712 6.72414 53.1207 6.72414 53.2701C6.87356 53.4195 6.94828 53.5689 6.94828 53.7184C6.94828 53.7184 6.94828 53.7931 6.87356 53.7931V53.8678C6.87356 53.9425 6.87356 54.0172 6.94828 53.8678C6.94828 53.8678 6.94828 53.7931 6.94828 54.0172C6.94828 54.0919 6.94828 54.1666 6.94828 54.1666C6.94828 54.1666 6.94828 54.0919 6.94828 53.9425C6.94828 53.7931 6.94828 53.7931 6.94828 53.8678H7.02299C7.0977 53.8678 7.0977 53.8678 7.0977 53.8678C7.0977 53.7184 7.0977 53.5689 7.17241 53.4195C7.24713 53.2701 7.24713 53.1207 7.32184 52.9712C7.32184 52.8965 7.39655 52.8218 7.39655 52.7471V52.6724V52.5977C7.39655 52.523 7.39655 52.4483 7.39655 52.3735C7.39655 52.2241 7.47126 52.1494 7.47126 52C7.6954 51.9253 7.91954 51.8506 8.06896 51.7758H8.14368H8.21839H8.2931C8.36782 51.7758 8.44253 51.7758 8.44253 51.7758C8.66667 51.4023 9.04023 51.7011 9.33908 51.5517C9.56322 51.6264 9.48851 51.477 9.56322 51.477C9.56322 51.477 9.63793 51.477 9.71264 51.477C9.78736 51.477 9.86207 51.477 9.78736 51.477C9.86207 51.477 9.86207 51.477 9.78736 51.477C9.78736 51.477 9.78736 51.477 9.93678 51.477H10.0115C9.71264 51.477 9.86207 51.477 9.86207 51.477C9.93678 51.477 10.0115 51.4023 9.78736 51.4023C9.71264 51.4023 9.63793 51.4023 9.63793 51.3276C9.71264 51.2529 9.63793 51.1781 9.63793 51.1781C9.56322 51.1781 9.48851 51.1781 9.48851 51.1781H9.41379H9.33908C9.26437 51.1781 9.18966 51.1781 9.18966 51.1781C9.04023 51.1781 8.96552 51.1034 8.8908 51.0287C8.81609 50.954 8.66667 50.954 8.59195 50.8793C8.51724 50.8793 8.51724 50.8046 8.44253 50.8046H8.36782C8.36782 50.8046 8.36782 50.8046 8.2931 50.8046C8.2931 50.8046 8.2931 50.8046 8.21839 50.8046C8.14368 50.8046 7.99425 50.7299 7.99425 50.6552C7.91954 50.5804 7.84483 50.5057 7.77011 50.5057C7.77011 50.3563 7.6954 50.2816 7.54598 50.2069C7.54598 50.1322 7.47126 50.0575 7.47126 49.9827C7.47126 49.908 7.47126 49.908 7.47126 49.8333C7.47126 49.7586 7.47126 49.6092 7.32184 49.6092C7.0977 49.4598 7.24713 49.2356 7.17241 49.0862C7.0977 48.9368 7.0977 48.7873 7.02299 48.6379C7.02299 46.9195 6.94828 46.0977 7.02299 46.0977C7.17241 46.023 7.54598 46.9942 8.21839 48.5632C8.2931 48.7126 8.51724 48.862 8.44253 49.0862C8.44253 49.1609 8.51724 49.2356 8.59195 49.3103C8.59195 49.385 8.66667 49.385 8.66667 49.4598V49.5345C8.74138 49.5345 8.74138 49.5345 8.74138 49.5345C8.74138 49.5345 8.74138 49.6092 8.81609 49.6092H8.8908H8.96552C9.04023 49.6092 9.04023 49.6839 9.11494 49.6839C9.18965 49.6839 9.33908 49.7586 9.41379 49.7586C9.56322 49.7586 9.63793 49.7586 9.71264 49.8333C9.78736 49.8333 9.78736 49.908 9.86207 49.908H9.93678H10.0115H10.0862C10.3851 50.1322 10.7586 50.2069 11.2816 50.2816C11.431 50.3563 11.5805 50.431 11.8046 50.5057C12.0287 50.5804 12.3276 50.5804 12.5517 50.6552C12.5517 50.7299 12.7011 50.8046 12.9253 50.8793C13.1494 50.954 13.523 51.0287 13.8966 51.1034C13.9713 51.1034 14.046 51.1034 14.046 51.1781C13.8966 51.2529 13.6724 51.3276 13.4483 51.4023C13.2241 51.477 13 51.5517 12.8506 51.6264C12.5517 51.7011 12.3276 51.7758 12.1782 51.8506C11.954 51.9253 11.7299 52 11.431 52.0747C11.2069 52.1494 10.9828 52.2988 10.7586 52.3735C10.6092 52.4483 10.4598 52.4483 10.3851 52.523C10.3103 52.523 10.2356 52.523 10.1609 52.5977H10.0862H10.0115C9.71264 52.7471 9.41379 52.7471 9.18966 52.8965C9.11494 52.8965 9.11494 52.9712 9.04023 52.9712H8.96552H8.8908C8.8908 52.9712 8.8908 52.9712 8.81609 52.9712C8.74138 53.046 8.74138 53.1207 8.66667 53.1954C8.59195 53.3448 8.51724 53.4942 8.59195 53.6437C8.59195 53.7931 8.51724 53.9425 8.44253 54.0919L8.36782 54.2414L8.21839 54.5402C8.14368 54.6896 8.14368 54.8391 8.06896 54.9885C7.99425 55.2873 7.84483 55.5115 7.77011 55.8103C7.6954 56.1092 7.62069 56.408 7.54598 56.7816C7.47126 56.7816 7.39655 57.0057 7.24713 57.3046C7.17241 57.6034 7.0977 58.0517 7.02299 58.5C6.94828 58.2758 6.79885 57.977 6.72414 57.6781C6.64943 57.3793 6.57471 57.0057 6.42529 56.7069C6.20115 56.1839 6.05172 55.5115 5.9023 54.9138C5.82759 54.7643 5.82759 54.6149 5.75287 54.4655L5.67816 54.2414V54.1666C5.67816 54.0172 5.60345 53.8678 5.52874 53.7184C5.45402 53.5689 5.45402 53.4195 5.37931 53.2701C5.37931 53.1954 5.37931 53.1207 5.3046 53.046V52.9712C5.3046 52.9712 5.3046 52.9712 5.22988 52.9712H5.15517C5.15517 52.9712 5.08046 52.9712 5.08046 52.8965C5.00575 52.8965 5.00575 52.8218 4.93103 52.8218C4.63218 52.7471 4.40805 52.4483 4.1092 52.523C4.1092 52.523 4.1092 52.523 4.03448 52.523H3.95977C3.88506 52.523 3.81034 52.523 3.73563 52.523C3.58621 52.523 3.43678 52.4483 3.28736 52.4483C2.98851 52.2988 2.68966 52.2241 2.61494 52C2.31609 51.9253 2.09195 51.8506 1.94253 51.7758C1.71839 51.7011 1.56897 51.6264 1.1954 51.5517C1.1954 51.477 1.04598 51.4023 0.821839 51.3276C0.597701 51.2529 0.224138 51.1781 0 51.1781C0 51.1781 0.0747126 51.1781 0.149425 51.1034C0.448276 51.0287 0.747126 50.954 0.971264 50.8793C1.1954 50.8793 1.41954 50.8046 1.49425 50.7299C1.56897 50.6552 1.86782 50.5804 2.09195 50.5057C2.31609 50.431 2.61494 50.431 2.76437 50.3563C2.91379 50.2816 3.13793 50.2069 3.36207 50.2069C3.58621 50.2069 3.81034 50.1322 3.95977 50.0575C4.03448 50.0575 4.03448 50.0575 4.1092 50.0575H4.18391C4.25862 50.0575 4.25862 50.0575 4.33333 49.9827C4.40805 49.9827 4.55747 49.908 4.63218 49.908C4.7069 49.7586 4.78161 49.6839 4.93103 49.6839C5.00575 49.6839 5.08046 49.6839 5.08046 49.6839H5.15517C5.15517 49.6839 5.15517 49.6839 5.22988 49.6839C5.3046 49.6839 5.3046 49.6092 5.3046 49.6092C5.3046 49.6092 5.3046 49.6092 5.37931 49.6092C5.3046 49.5345 5.3046 49.5345 5.3046 49.5345C5.3046 49.4598 5.3046 49.4598 5.37931 49.385C5.45402 49.3103 5.52874 49.2356 5.60345 49.1609C5.75287 49.0115 5.60345 48.7873 5.82759 48.6379C5.75287 48.4138 5.97701 48.3391 5.97701 48.1896C6.12644 48.0402 6.05172 47.8908 6.12644 47.7414C6.12644 47.5919 6.20115 47.4425 6.27586 47.3678C6.35057 47.2184 6.35057 47.1437 6.42529 47.0689C6.72414 46.3965 6.94828 46.023 7.02299 46.0977Z" fill="#121212"/>
</g>
<defs>
<clipPath id="clip0_2015_1935">
<rect width="65" height="59.4713" fill="white"/>
</clipPath>
</defs>
</svg>
