<svg width="153" height="48" viewBox="0 0 153 48" fill="none" xmlns="http://www.w3.org/2000/svg">
<path d="M10.7152 28.897C4.8 28.897 0 24.097 0 18.2303C0 12.3152 4.8 7.51515 10.7152 7.51515C16.6303 7.51515 21.4303 12.3152 21.4303 18.2303C21.3818 24.097 16.5818 28.897 10.7152 28.897ZM10.7152 8.48485C5.33333 8.48485 0.969697 12.8485 0.969697 18.2303C0.969697 23.6121 5.33333 27.9758 10.7152 27.9758C16.097 27.9758 20.4606 23.6121 20.4606 18.2303C20.4121 12.8485 16.0485 8.48485 10.7152 8.48485Z" fill="#2BBD81"/>
<path d="M30.6909 33.1636V45.7212C30.6909 47.5152 28.897 47.5152 28.897 47.5152H5.81819C4.02425 47.5152 4.02425 45.7212 4.02425 45.7212V29.7212C4.02425 28.0727 4.31516 26.4727 4.89698 25.0182C4.89698 25.0182 6.88486 24 8.58183 26.1818C9.06667 26.7636 9.50304 27.5879 9.89092 28.7515C11.6849 34.1333 14.497 35.2485 17.3576 32.5333C18.2303 31.7091 19.2 30.6909 20.2667 29.8667C22.8849 27.9758 26.2303 27.2 30.6909 33.1636Z" fill="#2BBD81"/>
<path d="M30.6909 29.7697L30.6909 33.1636C26.2303 27.2 22.8848 27.9758 20.3152 29.9152C19.2 30.7394 18.2303 31.7576 17.4061 32.5818C14.5455 35.297 11.7333 34.2303 9.9394 28.8C9.55152 27.6364 9.11516 26.8121 8.63031 26.2303C6.93334 24.0485 4.94546 25.0667 4.94546 25.0667C6.40001 21.2849 9.50304 18.2788 13.4303 17.0667C14.6909 16.6788 16.0485 16.4364 17.4061 16.4364C18.8121 16.4364 20.1212 16.6303 21.3818 17.0667C26.7636 18.7636 30.6909 23.8061 30.6909 29.7697Z" fill="white"/>
<path d="M21.3818 12.897L21.3818 17.0667C20.1212 16.6788 18.7636 16.4364 17.4061 16.4364C16 16.4364 14.6909 16.6303 13.4303 17.0667L13.4303 12.897H21.3818Z" fill="#2BBD81"/>
<path d="M27.5879 3.58788V9.79394L21.3818 12.897L13.3818 12.897C13.3818 12.897 10.7152 12.897 10.7152 10.2303V3.15152C10.7152 3.15152 10.7152 0.484848 13.3818 0.484848H22.2545L27.5879 3.58788Z" fill="white"/>
<path d="M31.1273 3.58788L27.5879 3.58788V9.79394L31.1273 9.79394V3.58788Z" fill="#2BBD81"/>
<path d="M28.897 48H5.81819C4.16971 48 3.5394 46.6424 3.5394 45.7212V29.7212C3.5394 22.1091 9.74546 15.903 17.3576 15.903C24.9697 15.9515 31.1758 22.1576 31.1758 29.7697V45.7697C31.1758 47.4182 29.8182 48 28.897 48ZM17.3576 16.9212C10.2788 16.9212 4.5091 22.6909 4.5091 29.7697V45.7697C4.5091 45.9636 4.60607 47.0788 5.81819 47.0788H28.897C29.0909 47.0788 30.2061 46.9818 30.2061 45.7697V29.7697C30.2061 22.6909 24.4364 16.9212 17.3576 16.9212Z" fill="#04B66D"/>
<path d="M14.4 34.5212C14.1091 34.5212 13.8667 34.4727 13.6243 34.4243C11.8788 33.9879 10.4727 32.1455 9.40607 28.9939C8.82425 27.1515 7.95153 25.9394 6.93335 25.503C5.96365 25.1152 5.13941 25.503 5.09092 25.503C4.8485 25.6 4.55759 25.503 4.46062 25.3091C4.36365 25.0667 4.41214 24.7758 4.65456 24.6788C4.70304 24.6303 5.86668 24.0485 7.27274 24.6303C8.58183 25.1636 9.60001 26.5212 10.3273 28.703C11.2485 31.5152 12.4606 33.1636 13.8182 33.503C14.7879 33.7455 15.8546 33.3091 16.9697 32.2424C17.1636 32.0485 17.4061 31.8061 17.6485 31.6121C19.3455 29.9152 21.4788 27.8303 24.2909 28.0727C26.5212 28.2182 28.703 29.8182 31.0303 32.9212C31.1758 33.1152 31.1273 33.4546 30.9333 33.6C30.7394 33.7455 30.4 33.697 30.2546 33.503C28.1697 30.6909 26.1333 29.1879 24.194 29.0424C21.8182 28.8485 19.9758 30.6909 18.3273 32.3394C18.0849 32.5818 17.8909 32.7758 17.6485 32.9697C16.3879 34.1333 15.2727 34.5212 14.4 34.5212Z" fill="#04B66D"/>
<path d="M21.3818 17.5515C21.0909 17.5515 20.897 17.3576 20.897 17.0667V13.3818H13.8667V17.0667C13.8667 17.3576 13.6727 17.5515 13.3818 17.5515C13.0909 17.5515 12.897 17.3576 12.897 17.0667V12.897C12.897 12.6061 13.0909 12.4121 13.3818 12.4121H21.3818C21.6727 12.4121 21.8667 12.6061 21.8667 12.897V17.0667C21.8667 17.3091 21.6242 17.5515 21.3818 17.5515Z" fill="#04B66D"/>
<path d="M21.3333 13.3818H13.3818C13.3333 13.3818 12.6061 13.3818 11.8303 12.9939C11.103 12.6061 10.2303 11.8303 10.2303 10.2303V3.15152C10.2303 2.08485 10.9091 0 13.3818 0H22.2545C22.3515 0 22.4485 -4.84288e-08 22.497 0.0484848L27.8303 3.15152C27.9758 3.24848 28.0727 3.39394 28.0727 3.58788V9.79394C28.0727 9.98788 27.9758 10.1333 27.7818 10.2303L21.5758 13.3333C21.5273 13.3818 21.4303 13.3818 21.3333 13.3818ZM13.3818 0.969697C11.297 0.969697 11.2 2.90909 11.2 3.15152V10.2303C11.2 11.1515 11.5394 11.7818 12.2667 12.1212C12.8 12.4121 13.3818 12.4121 13.3818 12.4121L21.2364 12.4121L27.103 9.50303V3.8303L22.1091 0.921212H13.3818V0.969697Z" fill="#04B66D"/>
<path d="M31.1273 10.2788H27.5879C27.297 10.2788 27.1031 10.0849 27.1031 9.79394V3.58788C27.1031 3.29697 27.297 3.10303 27.5879 3.10303H31.1273C31.4182 3.10303 31.6122 3.29697 31.6122 3.58788V9.79394C31.6122 10.0364 31.3697 10.2788 31.1273 10.2788ZM28.0728 9.3091H30.6425V4.07273H28.0728V9.3091Z" fill="#04B66D"/>
<path d="M46.6533 21.277C43.4704 21.277 42.0169 20.026 42.0169 17.2846H44.7031C44.7031 18.4989 45.3838 19.0324 46.7269 19.0324C47.9412 19.0324 48.5483 18.5909 48.5483 17.6894C48.5483 16.659 47.886 16.2175 46.0278 15.9231C43.2496 15.4816 42.2009 14.4512 42.2009 12.1698C42.2009 9.61247 43.7648 8.32458 46.7453 8.32458C49.689 8.32458 51.1425 9.57567 51.1425 12.2066H48.4564C48.4564 11.1211 47.886 10.5876 46.6901 10.5876C45.5494 10.5876 44.9607 11.0659 44.9607 11.8939C44.9607 12.8322 45.6046 13.2553 47.3709 13.5129C50.2962 13.9361 51.3081 15.0584 51.3081 17.4134C51.3081 20.0076 49.781 21.277 46.6533 21.277Z" fill="#2BBD81"/>
<path d="M56.7444 21.0563V8.54537H61.6936C64.8581 8.54537 66.2012 9.75966 66.2012 12.6298C66.2012 15.4816 64.8581 16.6774 61.6936 16.6774H59.5041V21.0563H56.7444ZM59.5041 14.3225H61.4544C62.8527 14.3225 63.4414 13.8073 63.4414 12.6114C63.4414 11.4155 62.8527 10.9004 61.4544 10.9004H59.5041V14.3225Z" fill="#2BBD81"/>
<path d="M76.3211 21.277C72.8622 21.277 71.2616 19.6764 71.2616 16.1807V13.4209C71.2616 9.92524 72.8622 8.32458 76.3211 8.32458C79.78 8.32458 81.3807 9.92524 81.3807 13.4209V16.1807C81.3807 19.6764 79.78 21.277 76.3211 21.277ZM76.3211 18.9037C77.977 18.9037 78.6209 18.1125 78.6209 16.1439V13.4577C78.6209 11.4891 77.977 10.698 76.3211 10.698C74.6653 10.698 74.0213 11.4891 74.0213 13.4577V16.1439C74.0213 18.1125 74.6653 18.9037 76.3211 18.9037Z" fill="#2BBD81"/>
<path d="M89.208 21.0563V10.9556H85.8595V8.54537H95.3163V10.9556H91.9678V21.0563H89.208Z" fill="#2BBD81"/>
<path d="M100.309 21.0563V8.54537H103.069V18.6461H108.349V21.0563H100.309Z" fill="#2BBD81"/>
<path d="M113.327 21.0563V8.54537H121.901V10.9188H116.087V13.5129H120.981V15.8679H116.087V18.6829H122.085V21.0563H113.327Z" fill="#2BBD81"/>
<path d="M131.519 21.277C128.336 21.277 126.882 20.026 126.882 17.2846H129.568C129.568 18.4989 130.249 19.0324 131.592 19.0324C132.807 19.0324 133.414 18.5909 133.414 17.6894C133.414 16.659 132.751 16.2175 130.893 15.9231C128.115 15.4816 127.066 14.4512 127.066 12.1698C127.066 9.61247 128.63 8.32458 131.611 8.32458C134.554 8.32458 136.008 9.57567 136.008 12.2066H133.322C133.322 11.1211 132.751 10.5876 131.555 10.5876C130.415 10.5876 129.826 11.0659 129.826 11.8939C129.826 12.8322 130.47 13.2553 132.236 13.5129C135.162 13.9361 136.173 15.0584 136.173 17.4134C136.173 20.0076 134.646 21.277 131.519 21.277Z" fill="#2BBD81"/>
<path d="M145.525 21.277C142.342 21.277 140.889 20.026 140.889 17.2846H143.575C143.575 18.4989 144.256 19.0324 145.599 19.0324C146.813 19.0324 147.42 18.5909 147.42 17.6894C147.42 16.659 146.758 16.2175 144.9 15.9231C142.121 15.4816 141.073 14.4512 141.073 12.1698C141.073 9.61247 142.637 8.32458 145.617 8.32458C148.561 8.32458 150.014 9.57567 150.014 12.2066H147.328C147.328 11.1211 146.758 10.5876 145.562 10.5876C144.421 10.5876 143.833 11.0659 143.833 11.8939C143.833 12.8322 144.476 13.2553 146.243 13.5129C149.168 13.9361 150.18 15.0584 150.18 17.4134C150.18 20.0076 148.653 21.277 145.525 21.277Z" fill="#2BBD81"/>
<path d="M44.9607 39.4546V29.3539H41.6122V26.9437H51.0689V29.3539H47.7204V39.4546H44.9607Z" fill="#121212"/>
<path d="M52.5659 39.4546V26.9437H57.6807C60.7532 26.9437 61.9675 28.1028 61.9675 30.8994C61.9675 32.9416 61.3052 34.1191 59.7413 34.5791L62.4459 39.4546H59.2998L56.816 34.8366H55.3257V39.4546H52.5659ZM55.3257 32.4816H57.3863C58.7294 32.4816 59.2078 32.0217 59.2078 30.8994C59.2078 29.7587 58.7294 29.2987 57.3863 29.2987H55.3257V32.4816Z" fill="#121212"/>
<path d="M62.8656 39.4546L67.0604 26.9437H69.9122L74.107 39.4546H71.1817L70.3905 36.9341H66.4533L65.6621 39.4546H62.8656ZM67.134 34.6343H69.7098L68.4219 30.0715L67.134 34.6343Z" fill="#121212"/>
<path d="M75.528 39.4546V26.9437H78.4533L82.7033 34.8366V26.9437H85.3159V39.4546H82.6849L78.1406 31.0282V39.4546H75.528Z" fill="#121212"/>
<path d="M91.8407 39.6754C88.6578 39.6754 87.2043 38.4243 87.2043 35.683H89.8905C89.8905 36.8973 90.5712 37.4308 91.9143 37.4308C93.1286 37.4308 93.7358 36.9893 93.7358 36.0877C93.7358 35.0574 93.0734 34.6159 91.2152 34.3215C88.437 33.8799 87.3883 32.8496 87.3883 30.5682C87.3883 28.0108 88.9522 26.723 91.9327 26.723C94.8765 26.723 96.3299 27.974 96.3299 30.605H93.6438C93.6438 29.5195 93.0734 28.986 91.8775 28.986C90.7368 28.986 90.1481 29.4643 90.1481 30.2922C90.1481 31.2306 90.792 31.6537 92.5583 31.9113C95.4836 32.3345 96.4955 33.4568 96.4955 35.8118C96.4955 38.4059 94.9685 39.6754 91.8407 39.6754Z" fill="#121212"/>
<path d="M98.4361 39.4546V26.9437H101.196V39.4546H98.4361Z" fill="#121212"/>
<path d="M106.031 39.4546V29.3539H102.683V26.9437H112.139V29.3539H108.791V39.4546H106.031Z" fill="#121212"/>
<path d="M113.636 39.4546V26.9437H116.396V39.4546H113.636Z" fill="#121212"/>
<path d="M123.77 39.6754C120.311 39.6754 118.711 38.0748 118.711 34.5791V31.8193C118.711 28.3236 120.311 26.723 123.77 26.723C127.229 26.723 128.83 28.3236 128.83 31.8193V34.5791C128.83 38.0748 127.229 39.6754 123.77 39.6754ZM123.77 37.302C125.426 37.302 126.07 36.5109 126.07 34.5423V31.8561C126.07 29.8875 125.426 29.0963 123.77 29.0963C122.114 29.0963 121.47 29.8875 121.47 31.8561V34.5423C121.47 36.5109 122.114 37.302 123.77 37.302Z" fill="#121212"/>
<path d="M131.154 39.4546V26.9437H134.08L138.33 34.8366V26.9437H140.942V39.4546H138.311L133.767 31.0282V39.4546H131.154Z" fill="#121212"/>
<path d="M147.467 39.6754C144.284 39.6754 142.831 38.4243 142.831 35.683H145.517C145.517 36.8973 146.198 37.4308 147.541 37.4308C148.755 37.4308 149.362 36.9893 149.362 36.0877C149.362 35.0574 148.7 34.6159 146.842 34.3215C144.063 33.8799 143.015 32.8496 143.015 30.5682C143.015 28.0108 144.579 26.723 147.559 26.723C150.503 26.723 151.956 27.974 151.956 30.605H149.27C149.27 29.5195 148.7 28.986 147.504 28.986C146.363 28.986 145.774 29.4643 145.774 30.2922C145.774 31.2306 146.418 31.6537 148.185 31.9113C151.11 32.3345 152.122 33.4568 152.122 35.8118C152.122 38.4059 150.595 39.6754 147.467 39.6754Z" fill="#121212"/>
</svg>
