<svg width="52" height="78" viewBox="0 0 52 78" fill="none" xmlns="http://www.w3.org/2000/svg">
<path d="M17.3616 46.9345C7.77735 46.9345 0 39.1571 0 29.6515C0 20.0673 7.77735 12.2899 17.3616 12.2899C26.9458 12.2899 34.7231 20.0673 34.7231 29.6515C34.6446 39.1571 26.8672 46.9345 17.3616 46.9345ZM17.3616 13.8611C8.6415 13.8611 1.57118 20.9314 1.57118 29.6515C1.57118 38.3715 8.6415 45.4418 17.3616 45.4418C26.0816 45.4418 33.152 38.3715 33.152 29.6515C33.0734 20.9314 26.0031 13.8611 17.3616 13.8611Z" fill="#2BBD81"/>
<path d="M49.7279 53.8477V74.1945C49.7279 77.1012 46.8213 77.1012 46.8213 77.1012H9.42711C6.52042 77.1012 6.52042 74.1945 6.52042 74.1945V48.27C6.52042 45.599 6.99178 43.0065 7.93449 40.6497C7.93449 40.6497 11.1554 39 13.905 42.5352C14.6906 43.4779 15.3976 44.8134 16.0261 46.6988C18.9328 55.4189 23.4892 57.2257 28.1242 52.8264C29.5382 51.4909 31.1094 49.8412 32.8377 48.5057C37.0799 45.4418 42.5005 44.1849 49.7279 53.8477Z" fill="#2BBD81"/>
<path d="M49.7279 48.3485L49.7279 53.8477C42.5005 44.1849 37.0799 45.4419 32.9163 48.5842C31.1094 49.9197 29.5382 51.5695 28.2027 52.905C23.5677 57.3043 19.0113 55.576 16.1046 46.7774C15.4762 44.8919 14.7691 43.5564 13.9835 42.6137C11.234 39.0786 8.01304 40.7283 8.01304 40.7283C10.3698 34.6007 15.3976 29.73 21.7609 27.7661C23.8034 27.1376 26.0031 26.7448 28.2027 26.7448C30.4809 26.7448 32.602 27.059 34.6446 27.7661C43.3646 30.5156 49.7279 38.6858 49.7279 48.3485Z" fill="white"/>
<path d="M34.6446 21.01L34.6446 27.7661C32.602 27.1376 30.4024 26.7448 28.2027 26.7448C25.9245 26.7448 23.8034 27.059 21.7609 27.7661L21.7609 21.01H34.6446Z" fill="#2BBD81"/>
<path d="M44.7001 5.92661V15.9822L34.6446 21.01L21.6823 21.01C21.6823 21.01 17.3616 21.01 17.3616 16.6892V5.21958C17.3616 5.21958 17.3616 0.898827 21.6823 0.898827H36.0586L44.7001 5.92661Z" fill="white"/>
<path d="M50.435 5.92662L44.7001 5.92661V15.9822L50.435 15.9822V5.92662Z" fill="#2BBD81"/>
<path d="M46.8213 77.8868H9.42711C6.7561 77.8868 5.73483 75.6871 5.73483 74.1945V48.27C5.73483 35.9362 15.7904 25.8806 28.1242 25.8806C40.458 25.9592 50.5135 36.0148 50.5135 48.3485V74.273C50.5135 76.9441 48.3139 77.8868 46.8213 77.8868ZM28.1242 27.5304C16.6545 27.5304 7.30601 36.8789 7.30601 48.3485V74.273C7.30601 74.5873 7.46313 76.3941 9.42711 76.3941H46.8213C47.1355 76.3941 48.9423 76.237 48.9423 74.273V48.3485C48.9423 36.8789 39.5938 27.5304 28.1242 27.5304Z" fill="#04B66D"/>
<path d="M23.3321 56.0473C22.8607 56.0473 22.4679 55.9688 22.0751 55.8902C19.247 55.1832 16.9688 52.1979 15.2405 47.0916C14.2978 44.1064 12.8837 42.1424 11.234 41.4353C9.6628 40.8069 8.32729 41.4353 8.24873 41.4353C7.85594 41.5925 7.38458 41.4353 7.22746 41.1211C7.07034 40.7283 7.1489 40.257 7.5417 40.0998C7.62026 40.0213 9.50568 39.0786 11.7839 40.0213C13.905 40.8854 15.5547 43.0851 16.7331 46.6202C18.2257 51.1767 20.1897 53.8477 22.3894 54.3976C23.9606 54.7904 25.6889 54.0834 27.4957 52.3551C27.81 52.0408 28.2027 51.648 28.5955 51.3338C31.3451 48.5842 34.8017 45.2062 39.3581 45.599C42.9719 45.8347 46.507 48.4271 50.2779 53.4549C50.5135 53.7691 50.435 54.319 50.1207 54.5547C49.8065 54.7904 49.2566 54.7118 49.0209 54.3976C45.6429 49.8412 42.3434 47.4058 39.201 47.1702C35.3516 46.8559 32.3664 49.8412 29.6954 52.5122C29.3026 52.905 28.9883 53.2192 28.5955 53.5334C26.553 55.4189 24.7461 56.0473 23.3321 56.0473Z" fill="#04B66D"/>
<path d="M34.6446 28.5516C34.1732 28.5516 33.859 28.2374 33.859 27.7661V21.7956H22.4679V27.7661C22.4679 28.2374 22.1537 28.5516 21.6823 28.5516C21.211 28.5516 20.8967 28.2374 20.8967 27.7661V21.01C20.8967 20.5386 21.211 20.2244 21.6823 20.2244H34.6446C35.1159 20.2244 35.4302 20.5386 35.4302 21.01V27.7661C35.4302 28.1588 35.0374 28.5516 34.6446 28.5516Z" fill="#04B66D"/>
<path d="M34.566 21.7956H21.6823C21.6038 21.7956 20.4254 21.7956 19.1684 21.1671C17.99 20.5386 16.576 19.2817 16.576 16.6892V5.21958C16.576 3.49128 17.6758 0.113235 21.6823 0.113235H36.0586C36.2158 0.113235 36.3729 0.113235 36.4514 0.191795L45.0929 5.21958C45.3286 5.3767 45.4857 5.61237 45.4857 5.92661V15.9822C45.4857 16.2964 45.3286 16.5321 45.0144 16.6892L34.9588 21.717C34.8803 21.7956 34.7231 21.7956 34.566 21.7956ZM21.6823 1.68442C18.3043 1.68442 18.1472 4.82678 18.1472 5.21958V16.6892C18.1472 18.1818 18.6971 19.2031 19.8755 19.753C20.7396 20.2244 21.6823 20.2244 21.6823 20.2244L34.4089 20.2244L43.9146 15.5108V6.31941L35.823 1.60586H21.6823V1.68442Z" fill="#04B66D"/>
<path d="M50.435 16.7678H44.7002C44.2289 16.7678 43.9146 16.4535 43.9146 15.9822V5.92662C43.9146 5.45526 44.2289 5.14103 44.7002 5.14103H50.435C50.9064 5.14103 51.2206 5.45526 51.2206 5.92662V15.9822C51.2206 16.375 50.8278 16.7678 50.435 16.7678ZM45.4858 15.1966H49.6494V6.71221H45.4858V15.1966Z" fill="#04B66D"/>
</svg>
